<svg width="645" height="475" viewBox="0 0 645 475" fill="none" xmlns="http://www.w3.org/2000/svg">
<path d="M633.647 288.055C579.647 288.055 533.583 271.4 410.147 271.4C286.712 271.4 242.647 288.055 186.647 288.055C186.647 252.138 257.212 137.055 380.647 137.055C504.083 137.055 633.647 252.138 633.647 288.055Z" fill="url(#paint0_linear_370_36)" fill-opacity="0.5"/>
<path d="M640.087 356.228C620.992 351.195 605.23 344.9 561.581 333.397C517.932 321.894 502.254 312.582 482.452 307.363C483.59 303.045 511.757 302.993 555.406 314.496C599.055 325.999 641.225 351.909 640.087 356.228Z" fill="url(#paint1_linear_370_36)"/>
<path d="M480.463 338.974C478.556 346.27 469.609 344.52 461.002 352.096C444.16 356.56 441.647 344.416 441.647 336.944C441.647 329.473 447.064 323.056 455.923 323.056C464.781 323.056 482.655 330.586 480.463 338.974Z" fill="#BE8F65"/>
<g filter="url(#filter0_i_370_36)">
<path d="M80.6785 151.166C43.5854 230.65 72.6668 241.007 140.177 356.302C189.873 422.324 333.217 419.674 385.833 349.207C438.449 278.74 443.052 187.905 376.672 138.341C310.292 88.777 123.319 59.7942 80.6785 151.166Z" fill="#BE8F65"/>
</g>
<g filter="url(#filter1_i_370_36)">
<path d="M238.902 330.223C235.355 343.752 242.283 356.769 256.875 367.664C278.515 388.76 300.547 372.505 307.836 355.889C314.435 343.632 303.693 331.421 290.237 324.177C276.781 316.933 242.98 314.671 238.902 330.223Z" fill="url(#paint2_linear_370_36)" fill-opacity="0.15"/>
</g>
<g filter="url(#filter2_i_370_36)">
<path d="M172.955 340.671C169.735 346.098 171.62 353.5 177.435 361.549C185.508 375.739 197.942 372.965 203.311 366.918C207.859 362.715 204.046 354.877 198.371 348.735C192.695 342.592 176.657 334.433 172.955 340.671Z" fill="url(#paint3_linear_370_36)" fill-opacity="0.15"/>
</g>
<g filter="url(#filter3_i_370_36)">
<path d="M343.531 251.804C342.855 263.486 351.644 273.625 367.028 281.175C390.776 296.496 407.81 280.567 411.318 265.906C415.021 254.962 402.903 245.903 389.248 241.284C375.593 236.664 344.309 238.375 343.531 251.804Z" fill="url(#paint4_linear_370_36)" fill-opacity="0.15"/>
</g>
<g filter="url(#filter4_i_370_36)">
<path d="M241.483 215.305C255.356 206.489 271.461 208.998 287.286 220.447C316.162 235.584 304.231 265.066 287.973 279.013C276.306 290.598 260.067 283.733 248.546 272.13C237.024 260.528 225.535 225.439 241.483 215.305Z" fill="url(#paint5_linear_370_36)" fill-opacity="0.15"/>
</g>
<g filter="url(#filter5_i_370_36)">
<path d="M235.184 129.685C243.904 124.511 254.602 126.888 265.518 135.133C285.179 146.393 278.667 165.25 268.611 173.691C261.466 180.786 250.484 175.538 242.389 167.385C234.294 159.233 225.16 135.632 235.184 129.685Z" fill="url(#paint6_linear_370_36)" fill-opacity="0.15"/>
</g>
<g filter="url(#filter6_i_370_36)">
<path d="M157.448 149.148C168.515 146.629 174.738 141.662 176.181 135.342C181.808 124.731 160.903 123.387 146.053 125.759C134.577 127.209 130.556 132.912 131.204 138.037C131.851 143.163 144.724 152.043 157.448 149.148Z" fill="url(#paint7_linear_370_36)" fill-opacity="0.15"/>
</g>
<g filter="url(#filter7_i_370_36)">
<path d="M90.964 168.61C82.4911 184.479 107.142 211.175 114.286 249.15C146.804 309.701 174.586 301.732 187.959 291.815C201.332 281.898 199.789 255.81 178.483 227.078C157.176 198.346 100.704 150.367 90.964 168.61Z" fill="url(#paint8_linear_370_36)" fill-opacity="0.15"/>
</g>
<g filter="url(#filter8_i_370_36)">
<path d="M331.529 130.811C327.278 138.632 339.314 151.611 342.664 170.202C358.425 199.747 372.162 195.713 378.802 190.789C385.442 185.865 384.8 173.078 374.423 159.085C364.046 145.092 336.416 121.821 331.529 130.811Z" fill="url(#paint9_linear_370_36)" fill-opacity="0.15"/>
</g>
<rect x="130" y="240.276" width="170.096" height="170.096" rx="36.1062" transform="rotate(-45 130 240.276)" fill="#05A3FF"/>
<mask id="path-14-outside-1_370_36" maskUnits="userSpaceOnUse" x="172.226" y="216.655" width="156" height="47" fill="black">
<rect fill="white" x="172.226" y="216.655" width="156" height="47"/>
<path d="M210.039 218.655C211.38 218.655 212.488 219.094 213.365 219.97C214.242 220.847 214.68 221.981 214.68 223.374V256.093C214.68 257.434 214.242 258.568 213.365 259.496C212.488 260.373 211.38 260.811 210.039 260.811C208.698 260.811 207.589 260.373 206.713 259.496C205.836 258.568 205.398 257.434 205.398 256.093V252.303L207.1 252.999C207.1 253.669 206.739 254.494 206.017 255.474C205.295 256.402 204.315 257.331 203.077 258.259C201.84 259.187 200.37 259.986 198.668 260.657C197.018 261.275 195.213 261.585 193.254 261.585C189.696 261.585 186.473 260.682 183.585 258.878C180.697 257.021 178.403 254.494 176.701 251.297C175.051 248.048 174.226 244.336 174.226 240.159C174.226 235.93 175.051 232.217 176.701 229.02C178.403 225.772 180.671 223.245 183.508 221.44C186.344 219.584 189.489 218.655 192.944 218.655C195.162 218.655 197.199 218.99 199.055 219.661C200.911 220.331 202.51 221.182 203.851 222.213C205.243 223.245 206.3 224.302 207.022 225.385C207.796 226.416 208.182 227.293 208.182 228.015L205.398 229.02V223.374C205.398 222.033 205.836 220.924 206.713 220.048C207.589 219.119 208.698 218.655 210.039 218.655ZM194.414 253.076C196.683 253.076 198.668 252.509 200.37 251.375C202.072 250.24 203.387 248.693 204.315 246.734C205.295 244.774 205.785 242.582 205.785 240.159C205.785 237.684 205.295 235.466 204.315 233.507C203.387 231.547 202.072 230 200.37 228.866C198.668 227.731 196.683 227.164 194.414 227.164C192.197 227.164 190.237 227.731 188.535 228.866C186.834 230 185.493 231.547 184.513 233.507C183.585 235.466 183.121 237.684 183.121 240.159C183.121 242.582 183.585 244.774 184.513 246.734C185.493 248.693 186.834 250.24 188.535 251.375C190.237 252.509 192.197 253.076 194.414 253.076Z"/>
<path d="M243.139 218.655C246.079 218.655 248.631 218.965 250.797 219.584C253.014 220.202 254.716 221.079 255.902 222.213C257.14 223.296 257.759 224.611 257.759 226.158C257.759 227.19 257.449 228.169 256.83 229.098C256.212 229.974 255.309 230.413 254.123 230.413C253.298 230.413 252.602 230.309 252.035 230.103C251.519 229.845 251.055 229.536 250.642 229.175C250.23 228.814 249.74 228.479 249.173 228.169C248.657 227.86 247.858 227.628 246.775 227.473C245.744 227.267 244.97 227.164 244.454 227.164C241.824 227.164 239.581 227.731 237.725 228.866C235.92 230 234.528 231.547 233.548 233.507C232.568 235.415 232.078 237.632 232.078 240.159C232.078 242.634 232.568 244.851 233.548 246.811C234.579 248.719 235.972 250.24 237.725 251.375C239.53 252.509 241.592 253.076 243.913 253.076C245.202 253.076 246.311 252.999 247.239 252.844C248.167 252.689 248.941 252.457 249.559 252.148C250.281 251.736 250.926 251.297 251.493 250.833C252.06 250.369 252.911 250.137 254.046 250.137C255.387 250.137 256.418 250.575 257.14 251.452C257.862 252.277 258.223 253.308 258.223 254.546C258.223 255.835 257.501 257.021 256.057 258.104C254.613 259.135 252.705 259.986 250.333 260.657C248.012 261.275 245.486 261.585 242.753 261.585C238.679 261.585 235.147 260.657 232.156 258.8C229.165 256.892 226.844 254.314 225.194 251.065C223.596 247.816 222.796 244.181 222.796 240.159C222.796 235.93 223.647 232.217 225.349 229.02C227.102 225.772 229.5 223.245 232.542 221.44C235.636 219.584 239.169 218.655 243.139 218.655Z"/>
<path d="M286.651 218.655C290.777 218.655 293.819 219.661 295.779 221.672C297.738 223.632 299.027 226.184 299.646 229.33L298.331 228.634L298.95 227.396C299.569 226.21 300.523 224.946 301.812 223.606C303.101 222.213 304.648 221.053 306.453 220.125C308.31 219.145 310.372 218.655 312.641 218.655C316.354 218.655 319.164 219.455 321.072 221.053C323.032 222.652 324.373 224.792 325.095 227.473C325.817 230.103 326.177 233.042 326.177 236.291V256.093C326.177 257.434 325.739 258.568 324.863 259.496C323.986 260.373 322.877 260.811 321.536 260.811C320.196 260.811 319.087 260.373 318.21 259.496C317.334 258.568 316.895 257.434 316.895 256.093V236.291C316.895 234.589 316.689 233.068 316.277 231.728C315.864 230.335 315.116 229.227 314.033 228.401C312.951 227.576 311.404 227.164 309.392 227.164C307.433 227.164 305.757 227.576 304.365 228.401C302.972 229.227 301.915 230.335 301.193 231.728C300.523 233.068 300.188 234.589 300.188 236.291V256.093C300.188 257.434 299.749 258.568 298.873 259.496C297.996 260.373 296.887 260.811 295.547 260.811C294.206 260.811 293.097 260.373 292.221 259.496C291.344 258.568 290.906 257.434 290.906 256.093V236.291C290.906 234.589 290.699 233.068 290.287 231.728C289.874 230.335 289.127 229.227 288.044 228.401C286.961 227.576 285.414 227.164 283.403 227.164C281.443 227.164 279.767 227.576 278.375 228.401C276.983 229.227 275.925 230.335 275.204 231.728C274.533 233.068 274.198 234.589 274.198 236.291V256.093C274.198 257.434 273.76 258.568 272.883 259.496C272.006 260.373 270.898 260.811 269.557 260.811C268.216 260.811 267.108 260.373 266.231 259.496C265.354 258.568 264.916 257.434 264.916 256.093V224.147C264.916 222.806 265.354 221.698 266.231 220.821C267.108 219.893 268.216 219.429 269.557 219.429C270.898 219.429 272.006 219.893 272.883 220.821C273.76 221.698 274.198 222.806 274.198 224.147V227.473L273.038 227.241C273.502 226.365 274.146 225.436 274.972 224.457C275.797 223.425 276.802 222.471 277.988 221.595C279.174 220.718 280.489 220.022 281.933 219.506C283.377 218.939 284.95 218.655 286.651 218.655Z"/>
</mask>
<path d="M210.039 218.655C211.38 218.655 212.488 219.094 213.365 219.97C214.242 220.847 214.68 221.981 214.68 223.374V256.093C214.68 257.434 214.242 258.568 213.365 259.496C212.488 260.373 211.38 260.811 210.039 260.811C208.698 260.811 207.589 260.373 206.713 259.496C205.836 258.568 205.398 257.434 205.398 256.093V252.303L207.1 252.999C207.1 253.669 206.739 254.494 206.017 255.474C205.295 256.402 204.315 257.331 203.077 258.259C201.84 259.187 200.37 259.986 198.668 260.657C197.018 261.275 195.213 261.585 193.254 261.585C189.696 261.585 186.473 260.682 183.585 258.878C180.697 257.021 178.403 254.494 176.701 251.297C175.051 248.048 174.226 244.336 174.226 240.159C174.226 235.93 175.051 232.217 176.701 229.02C178.403 225.772 180.671 223.245 183.508 221.44C186.344 219.584 189.489 218.655 192.944 218.655C195.162 218.655 197.199 218.99 199.055 219.661C200.911 220.331 202.51 221.182 203.851 222.213C205.243 223.245 206.3 224.302 207.022 225.385C207.796 226.416 208.182 227.293 208.182 228.015L205.398 229.02V223.374C205.398 222.033 205.836 220.924 206.713 220.048C207.589 219.119 208.698 218.655 210.039 218.655ZM194.414 253.076C196.683 253.076 198.668 252.509 200.37 251.375C202.072 250.24 203.387 248.693 204.315 246.734C205.295 244.774 205.785 242.582 205.785 240.159C205.785 237.684 205.295 235.466 204.315 233.507C203.387 231.547 202.072 230 200.37 228.866C198.668 227.731 196.683 227.164 194.414 227.164C192.197 227.164 190.237 227.731 188.535 228.866C186.834 230 185.493 231.547 184.513 233.507C183.585 235.466 183.121 237.684 183.121 240.159C183.121 242.582 183.585 244.774 184.513 246.734C185.493 248.693 186.834 250.24 188.535 251.375C190.237 252.509 192.197 253.076 194.414 253.076Z" fill="white"/>
<path d="M243.139 218.655C246.079 218.655 248.631 218.965 250.797 219.584C253.014 220.202 254.716 221.079 255.902 222.213C257.14 223.296 257.759 224.611 257.759 226.158C257.759 227.19 257.449 228.169 256.83 229.098C256.212 229.974 255.309 230.413 254.123 230.413C253.298 230.413 252.602 230.309 252.035 230.103C251.519 229.845 251.055 229.536 250.642 229.175C250.23 228.814 249.74 228.479 249.173 228.169C248.657 227.86 247.858 227.628 246.775 227.473C245.744 227.267 244.97 227.164 244.454 227.164C241.824 227.164 239.581 227.731 237.725 228.866C235.92 230 234.528 231.547 233.548 233.507C232.568 235.415 232.078 237.632 232.078 240.159C232.078 242.634 232.568 244.851 233.548 246.811C234.579 248.719 235.972 250.24 237.725 251.375C239.53 252.509 241.592 253.076 243.913 253.076C245.202 253.076 246.311 252.999 247.239 252.844C248.167 252.689 248.941 252.457 249.559 252.148C250.281 251.736 250.926 251.297 251.493 250.833C252.06 250.369 252.911 250.137 254.046 250.137C255.387 250.137 256.418 250.575 257.14 251.452C257.862 252.277 258.223 253.308 258.223 254.546C258.223 255.835 257.501 257.021 256.057 258.104C254.613 259.135 252.705 259.986 250.333 260.657C248.012 261.275 245.486 261.585 242.753 261.585C238.679 261.585 235.147 260.657 232.156 258.8C229.165 256.892 226.844 254.314 225.194 251.065C223.596 247.816 222.796 244.181 222.796 240.159C222.796 235.93 223.647 232.217 225.349 229.02C227.102 225.772 229.5 223.245 232.542 221.44C235.636 219.584 239.169 218.655 243.139 218.655Z" fill="white"/>
<path d="M286.651 218.655C290.777 218.655 293.819 219.661 295.779 221.672C297.738 223.632 299.027 226.184 299.646 229.33L298.331 228.634L298.95 227.396C299.569 226.21 300.523 224.946 301.812 223.606C303.101 222.213 304.648 221.053 306.453 220.125C308.31 219.145 310.372 218.655 312.641 218.655C316.354 218.655 319.164 219.455 321.072 221.053C323.032 222.652 324.373 224.792 325.095 227.473C325.817 230.103 326.177 233.042 326.177 236.291V256.093C326.177 257.434 325.739 258.568 324.863 259.496C323.986 260.373 322.877 260.811 321.536 260.811C320.196 260.811 319.087 260.373 318.21 259.496C317.334 258.568 316.895 257.434 316.895 256.093V236.291C316.895 234.589 316.689 233.068 316.277 231.728C315.864 230.335 315.116 229.227 314.033 228.401C312.951 227.576 311.404 227.164 309.392 227.164C307.433 227.164 305.757 227.576 304.365 228.401C302.972 229.227 301.915 230.335 301.193 231.728C300.523 233.068 300.188 234.589 300.188 236.291V256.093C300.188 257.434 299.749 258.568 298.873 259.496C297.996 260.373 296.887 260.811 295.547 260.811C294.206 260.811 293.097 260.373 292.221 259.496C291.344 258.568 290.906 257.434 290.906 256.093V236.291C290.906 234.589 290.699 233.068 290.287 231.728C289.874 230.335 289.127 229.227 288.044 228.401C286.961 227.576 285.414 227.164 283.403 227.164C281.443 227.164 279.767 227.576 278.375 228.401C276.983 229.227 275.925 230.335 275.204 231.728C274.533 233.068 274.198 234.589 274.198 236.291V256.093C274.198 257.434 273.76 258.568 272.883 259.496C272.006 260.373 270.898 260.811 269.557 260.811C268.216 260.811 267.108 260.373 266.231 259.496C265.354 258.568 264.916 257.434 264.916 256.093V224.147C264.916 222.806 265.354 221.698 266.231 220.821C267.108 219.893 268.216 219.429 269.557 219.429C270.898 219.429 272.006 219.893 272.883 220.821C273.76 221.698 274.198 222.806 274.198 224.147V227.473L273.038 227.241C273.502 226.365 274.146 225.436 274.972 224.457C275.797 223.425 276.802 222.471 277.988 221.595C279.174 220.718 280.489 220.022 281.933 219.506C283.377 218.939 284.95 218.655 286.651 218.655Z" fill="white"/>
<path d="M210.039 218.655C211.38 218.655 212.488 219.094 213.365 219.97C214.242 220.847 214.68 221.981 214.68 223.374V256.093C214.68 257.434 214.242 258.568 213.365 259.496C212.488 260.373 211.38 260.811 210.039 260.811C208.698 260.811 207.589 260.373 206.713 259.496C205.836 258.568 205.398 257.434 205.398 256.093V252.303L207.1 252.999C207.1 253.669 206.739 254.494 206.017 255.474C205.295 256.402 204.315 257.331 203.077 258.259C201.84 259.187 200.37 259.986 198.668 260.657C197.018 261.275 195.213 261.585 193.254 261.585C189.696 261.585 186.473 260.682 183.585 258.878C180.697 257.021 178.403 254.494 176.701 251.297C175.051 248.048 174.226 244.336 174.226 240.159C174.226 235.93 175.051 232.217 176.701 229.02C178.403 225.772 180.671 223.245 183.508 221.44C186.344 219.584 189.489 218.655 192.944 218.655C195.162 218.655 197.199 218.99 199.055 219.661C200.911 220.331 202.51 221.182 203.851 222.213C205.243 223.245 206.3 224.302 207.022 225.385C207.796 226.416 208.182 227.293 208.182 228.015L205.398 229.02V223.374C205.398 222.033 205.836 220.924 206.713 220.048C207.589 219.119 208.698 218.655 210.039 218.655ZM194.414 253.076C196.683 253.076 198.668 252.509 200.37 251.375C202.072 250.24 203.387 248.693 204.315 246.734C205.295 244.774 205.785 242.582 205.785 240.159C205.785 237.684 205.295 235.466 204.315 233.507C203.387 231.547 202.072 230 200.37 228.866C198.668 227.731 196.683 227.164 194.414 227.164C192.197 227.164 190.237 227.731 188.535 228.866C186.834 230 185.493 231.547 184.513 233.507C183.585 235.466 183.121 237.684 183.121 240.159C183.121 242.582 183.585 244.774 184.513 246.734C185.493 248.693 186.834 250.24 188.535 251.375C190.237 252.509 192.197 253.076 194.414 253.076Z" stroke="white" stroke-width="2.88849" mask="url(#path-14-outside-1_370_36)"/>
<path d="M243.139 218.655C246.079 218.655 248.631 218.965 250.797 219.584C253.014 220.202 254.716 221.079 255.902 222.213C257.14 223.296 257.759 224.611 257.759 226.158C257.759 227.19 257.449 228.169 256.83 229.098C256.212 229.974 255.309 230.413 254.123 230.413C253.298 230.413 252.602 230.309 252.035 230.103C251.519 229.845 251.055 229.536 250.642 229.175C250.23 228.814 249.74 228.479 249.173 228.169C248.657 227.86 247.858 227.628 246.775 227.473C245.744 227.267 244.97 227.164 244.454 227.164C241.824 227.164 239.581 227.731 237.725 228.866C235.92 230 234.528 231.547 233.548 233.507C232.568 235.415 232.078 237.632 232.078 240.159C232.078 242.634 232.568 244.851 233.548 246.811C234.579 248.719 235.972 250.24 237.725 251.375C239.53 252.509 241.592 253.076 243.913 253.076C245.202 253.076 246.311 252.999 247.239 252.844C248.167 252.689 248.941 252.457 249.559 252.148C250.281 251.736 250.926 251.297 251.493 250.833C252.06 250.369 252.911 250.137 254.046 250.137C255.387 250.137 256.418 250.575 257.14 251.452C257.862 252.277 258.223 253.308 258.223 254.546C258.223 255.835 257.501 257.021 256.057 258.104C254.613 259.135 252.705 259.986 250.333 260.657C248.012 261.275 245.486 261.585 242.753 261.585C238.679 261.585 235.147 260.657 232.156 258.8C229.165 256.892 226.844 254.314 225.194 251.065C223.596 247.816 222.796 244.181 222.796 240.159C222.796 235.93 223.647 232.217 225.349 229.02C227.102 225.772 229.5 223.245 232.542 221.44C235.636 219.584 239.169 218.655 243.139 218.655Z" stroke="white" stroke-width="2.88849" mask="url(#path-14-outside-1_370_36)"/>
<path d="M286.651 218.655C290.777 218.655 293.819 219.661 295.779 221.672C297.738 223.632 299.027 226.184 299.646 229.33L298.331 228.634L298.95 227.396C299.569 226.21 300.523 224.946 301.812 223.606C303.101 222.213 304.648 221.053 306.453 220.125C308.31 219.145 310.372 218.655 312.641 218.655C316.354 218.655 319.164 219.455 321.072 221.053C323.032 222.652 324.373 224.792 325.095 227.473C325.817 230.103 326.177 233.042 326.177 236.291V256.093C326.177 257.434 325.739 258.568 324.863 259.496C323.986 260.373 322.877 260.811 321.536 260.811C320.196 260.811 319.087 260.373 318.21 259.496C317.334 258.568 316.895 257.434 316.895 256.093V236.291C316.895 234.589 316.689 233.068 316.277 231.728C315.864 230.335 315.116 229.227 314.033 228.401C312.951 227.576 311.404 227.164 309.392 227.164C307.433 227.164 305.757 227.576 304.365 228.401C302.972 229.227 301.915 230.335 301.193 231.728C300.523 233.068 300.188 234.589 300.188 236.291V256.093C300.188 257.434 299.749 258.568 298.873 259.496C297.996 260.373 296.887 260.811 295.547 260.811C294.206 260.811 293.097 260.373 292.221 259.496C291.344 258.568 290.906 257.434 290.906 256.093V236.291C290.906 234.589 290.699 233.068 290.287 231.728C289.874 230.335 289.127 229.227 288.044 228.401C286.961 227.576 285.414 227.164 283.403 227.164C281.443 227.164 279.767 227.576 278.375 228.401C276.983 229.227 275.925 230.335 275.204 231.728C274.533 233.068 274.198 234.589 274.198 236.291V256.093C274.198 257.434 273.76 258.568 272.883 259.496C272.006 260.373 270.898 260.811 269.557 260.811C268.216 260.811 267.108 260.373 266.231 259.496C265.354 258.568 264.916 257.434 264.916 256.093V224.147C264.916 222.806 265.354 221.698 266.231 220.821C267.108 219.893 268.216 219.429 269.557 219.429C270.898 219.429 272.006 219.893 272.883 220.821C273.76 221.698 274.198 222.806 274.198 224.147V227.473L273.038 227.241C273.502 226.365 274.146 225.436 274.972 224.457C275.797 223.425 276.802 222.471 277.988 221.595C279.174 220.718 280.489 220.022 281.933 219.506C283.377 218.939 284.95 218.655 286.651 218.655Z" stroke="white" stroke-width="2.88849" mask="url(#path-14-outside-1_370_36)"/>
<path d="M86.588 50.918C88.4948 58.2142 97.4413 56.4645 106.049 64.0403C122.89 68.5045 125.403 56.3602 125.403 48.8888C125.403 41.4175 119.987 35 111.128 35C102.27 35 84.3959 42.5306 86.588 50.918Z" fill="#BE8F65"/>
<g filter="url(#filter9_i_370_36)">
<path d="M116.134 45.0202C117.195 46.6079 115.821 47.2751 116.134 49.6622C114.918 52.3805 112.475 50.3716 111.156 48.9634C109.838 47.5552 109.35 45.742 110.404 44.7549C111.458 43.7677 114.914 43.1951 116.134 45.0202Z" fill="url(#paint10_linear_370_36)" fill-opacity="0.15"/>
</g>
<defs>
<filter id="filter0_i_370_36" x="64.4121" y="91.7312" width="366.48" height="332.272" filterUnits="userSpaceOnUse" color-interpolation-filters="sRGB">
<feFlood flood-opacity="0" result="BackgroundImageFix"/>
<feBlend mode="normal" in="SourceGraphic" in2="BackgroundImageFix" result="shape"/>
<feColorMatrix in="SourceAlpha" type="matrix" values="0 0 0 0 0 0 0 0 0 0 0 0 0 0 0 0 0 0 127 0" result="hardAlpha"/>
<feOffset dx="5" dy="20"/>
<feGaussianBlur stdDeviation="12.5"/>
<feComposite in2="hardAlpha" operator="arithmetic" k2="-1" k3="1"/>
<feColorMatrix type="matrix" values="0 0 0 0 0 0 0 0 0 0 0 0 0 0 0 0 0 0 0.25 0"/>
<feBlend mode="normal" in2="shape" result="effect1_innerShadow_370_36"/>
</filter>
<filter id="filter1_i_370_36" x="233.987" y="318.592" width="75.8477" height="70.1905" filterUnits="userSpaceOnUse" color-interpolation-filters="sRGB">
<feFlood flood-opacity="0" result="BackgroundImageFix"/>
<feBlend mode="normal" in="SourceGraphic" in2="BackgroundImageFix" result="shape"/>
<feColorMatrix in="SourceAlpha" type="matrix" values="0 0 0 0 0 0 0 0 0 0 0 0 0 0 0 0 0 0 127 0" result="hardAlpha"/>
<feOffset dx="-4" dy="14"/>
<feGaussianBlur stdDeviation="5.55"/>
<feComposite in2="hardAlpha" operator="arithmetic" k2="-1" k3="1"/>
<feColorMatrix type="matrix" values="0 0 0 0 0 0 0 0 0 0 0 0 0 0 0 0 0 0 0.5 0"/>
<feBlend mode="normal" in2="shape" result="effect1_innerShadow_370_36"/>
</filter>
<filter id="filter2_i_370_36" x="167.493" y="338.435" width="37.8316" height="37.3187" filterUnits="userSpaceOnUse" color-interpolation-filters="sRGB">
<feFlood flood-opacity="0" result="BackgroundImageFix"/>
<feBlend mode="normal" in="SourceGraphic" in2="BackgroundImageFix" result="shape"/>
<feColorMatrix in="SourceAlpha" type="matrix" values="0 0 0 0 0 0 0 0 0 0 0 0 0 0 0 0 0 0 127 0" result="hardAlpha"/>
<feOffset dx="-4" dy="10"/>
<feGaussianBlur stdDeviation="1.95"/>
<feComposite in2="hardAlpha" operator="arithmetic" k2="-1" k3="1"/>
<feColorMatrix type="matrix" values="0 0 0 0 0 0 0 0 0 0 0 0 0 0 0 0 0 0 0.5 0"/>
<feBlend mode="normal" in2="shape" result="effect1_innerShadow_370_36"/>
</filter>
<filter id="filter3_i_370_36" x="339.495" y="238.97" width="72.498" height="56.1428" filterUnits="userSpaceOnUse" color-interpolation-filters="sRGB">
<feFlood flood-opacity="0" result="BackgroundImageFix"/>
<feBlend mode="normal" in="SourceGraphic" in2="BackgroundImageFix" result="shape"/>
<feColorMatrix in="SourceAlpha" type="matrix" values="0 0 0 0 0 0 0 0 0 0 0 0 0 0 0 0 0 0 127 0" result="hardAlpha"/>
<feOffset dx="-4" dy="10"/>
<feGaussianBlur stdDeviation="3.85"/>
<feComposite in2="hardAlpha" operator="arithmetic" k2="-1" k3="1"/>
<feColorMatrix type="matrix" values="0 0 0 0 0 0 0 0 0 0 0 0 0 0 0 0 0 0 0.5 0"/>
<feBlend mode="normal" in2="shape" result="effect1_innerShadow_370_36"/>
</filter>
<filter id="filter4_i_370_36" x="233.646" y="201.908" width="76.1631" height="83.0836" filterUnits="userSpaceOnUse" color-interpolation-filters="sRGB">
<feFlood flood-opacity="0" result="BackgroundImageFix"/>
<feBlend mode="normal" in="SourceGraphic" in2="BackgroundImageFix" result="shape"/>
<feColorMatrix in="SourceAlpha" type="matrix" values="0 0 0 0 0 0 0 0 0 0 0 0 0 0 0 0 0 0 127 0" result="hardAlpha"/>
<feOffset dx="5" dy="-10"/>
<feGaussianBlur stdDeviation="4.05"/>
<feComposite in2="hardAlpha" operator="arithmetic" k2="-1" k3="1"/>
<feColorMatrix type="matrix" values="0 0 0 0 0 0 0 0 0 0 0 0 0 0 0 0 0 0 0.5 0"/>
<feBlend mode="normal" in2="shape" result="effect1_innerShadow_370_36"/>
</filter>
<filter id="filter5_i_370_36" x="230.783" y="120.254" width="52.4619" height="56.7676" filterUnits="userSpaceOnUse" color-interpolation-filters="sRGB">
<feFlood flood-opacity="0" result="BackgroundImageFix"/>
<feBlend mode="normal" in="SourceGraphic" in2="BackgroundImageFix" result="shape"/>
<feColorMatrix in="SourceAlpha" type="matrix" values="0 0 0 0 0 0 0 0 0 0 0 0 0 0 0 0 0 0 127 0" result="hardAlpha"/>
<feOffset dx="5" dy="-10"/>
<feGaussianBlur stdDeviation="3.35"/>
<feComposite in2="hardAlpha" operator="arithmetic" k2="-1" k3="1"/>
<feColorMatrix type="matrix" values="0 0 0 0 0 0 0 0 0 0 0 0 0 0 0 0 0 0 0.5 0"/>
<feBlend mode="normal" in2="shape" result="effect1_innerShadow_370_36"/>
</filter>
<filter id="filter6_i_370_36" x="131.137" y="118.06" width="50.9824" height="31.6551" filterUnits="userSpaceOnUse" color-interpolation-filters="sRGB">
<feFlood flood-opacity="0" result="BackgroundImageFix"/>
<feBlend mode="normal" in="SourceGraphic" in2="BackgroundImageFix" result="shape"/>
<feColorMatrix in="SourceAlpha" type="matrix" values="0 0 0 0 0 0 0 0 0 0 0 0 0 0 0 0 0 0 127 0" result="hardAlpha"/>
<feOffset dx="5" dy="-10"/>
<feGaussianBlur stdDeviation="3.35"/>
<feComposite in2="hardAlpha" operator="arithmetic" k2="-1" k3="1"/>
<feColorMatrix type="matrix" values="0 0 0 0 0 0 0 0 0 0 0 0 0 0 0 0 0 0 0.5 0"/>
<feBlend mode="normal" in2="shape" result="effect1_innerShadow_370_36"/>
</filter>
<filter id="filter7_i_370_36" x="89.2129" y="164.581" width="107.344" height="144.082" filterUnits="userSpaceOnUse" color-interpolation-filters="sRGB">
<feFlood flood-opacity="0" result="BackgroundImageFix"/>
<feBlend mode="normal" in="SourceGraphic" in2="BackgroundImageFix" result="shape"/>
<feColorMatrix in="SourceAlpha" type="matrix" values="0 0 0 0 0 0 0 0 0 0 0 0 0 0 0 0 0 0 127 0" result="hardAlpha"/>
<feOffset dy="30"/>
<feGaussianBlur stdDeviation="5"/>
<feComposite in2="hardAlpha" operator="arithmetic" k2="-1" k3="1"/>
<feColorMatrix type="matrix" values="0 0 0 0 0 0 0 0 0 0 0 0 0 0 0 0 0 0 0.45 0"/>
<feBlend mode="normal" in2="shape" result="effect1_innerShadow_370_36"/>
</filter>
<filter id="filter8_i_370_36" x="330.631" y="124.401" width="52.5029" height="69.8345" filterUnits="userSpaceOnUse" color-interpolation-filters="sRGB">
<feFlood flood-opacity="0" result="BackgroundImageFix"/>
<feBlend mode="normal" in="SourceGraphic" in2="BackgroundImageFix" result="shape"/>
<feColorMatrix in="SourceAlpha" type="matrix" values="0 0 0 0 0 0 0 0 0 0 0 0 0 0 0 0 0 0 127 0" result="hardAlpha"/>
<feOffset dy="-5"/>
<feGaussianBlur stdDeviation="2.2"/>
<feComposite in2="hardAlpha" operator="arithmetic" k2="-1" k3="1"/>
<feColorMatrix type="matrix" values="0 0 0 0 0 0 0 0 0 0 0 0 0 0 0 0 0 0 0.5 0"/>
<feBlend mode="normal" in2="shape" result="effect1_innerShadow_370_36"/>
</filter>
<filter id="filter9_i_370_36" x="109.831" y="41.9298" width="6.71191" height="9.07877" filterUnits="userSpaceOnUse" color-interpolation-filters="sRGB">
<feFlood flood-opacity="0" result="BackgroundImageFix"/>
<feBlend mode="normal" in="SourceGraphic" in2="BackgroundImageFix" result="shape"/>
<feColorMatrix in="SourceAlpha" type="matrix" values="0 0 0 0 0 0 0 0 0 0 0 0 0 0 0 0 0 0 127 0" result="hardAlpha"/>
<feOffset dy="-2"/>
<feGaussianBlur stdDeviation="0.95"/>
<feComposite in2="hardAlpha" operator="arithmetic" k2="-1" k3="1"/>
<feColorMatrix type="matrix" values="0 0 0 0 0 0 0 0 0 0 0 0 0 0 0 0 0 0 0.5 0"/>
<feBlend mode="normal" in2="shape" result="effect1_innerShadow_370_36"/>
</filter>
<linearGradient id="paint0_linear_370_36" x1="410.147" y1="137.055" x2="410.147" y2="288.055" gradientUnits="userSpaceOnUse">
<stop stop-color="white"/>
<stop offset="1" stop-color="#1E3053" stop-opacity="0.27"/>
</linearGradient>
<linearGradient id="paint1_linear_370_36" x1="484.412" y1="305.494" x2="642.479" y2="347.149" gradientUnits="userSpaceOnUse">
<stop stop-color="white" stop-opacity="0.5"/>
<stop offset="1" stop-color="#011A48" stop-opacity="0.15"/>
</linearGradient>
<linearGradient id="paint2_linear_370_36" x1="267.473" y1="326.375" x2="251.464" y2="368.709" gradientUnits="userSpaceOnUse">
<stop/>
<stop offset="0.868899" stop-color="#BE8F65" stop-opacity="0"/>
</linearGradient>
<linearGradient id="paint3_linear_370_36" x1="187.154" y1="344.938" x2="173.88" y2="360.161" gradientUnits="userSpaceOnUse">
<stop/>
<stop offset="0.868899" stop-color="#BE8F65" stop-opacity="0"/>
</linearGradient>
<linearGradient id="paint4_linear_370_36" x1="368.884" y1="245.545" x2="361.05" y2="282.361" gradientUnits="userSpaceOnUse">
<stop/>
<stop offset="0.79" stop-opacity="0"/>
</linearGradient>
<linearGradient id="paint5_linear_370_36" x1="239.045" y1="273.562" x2="275.924" y2="218.18" gradientUnits="userSpaceOnUse">
<stop stop-opacity="0.8"/>
<stop offset="0.560256" stop-color="#BE8F65" stop-opacity="0.03"/>
</linearGradient>
<linearGradient id="paint6_linear_370_36" x1="236.21" y1="167.899" x2="259.759" y2="134.402" gradientUnits="userSpaceOnUse">
<stop stop-opacity="0.8"/>
<stop offset="0.560256" stop-color="#BE8F65" stop-opacity="0.03"/>
</linearGradient>
<linearGradient id="paint7_linear_370_36" x1="126.019" y1="140.5" x2="167.554" y2="153.4" gradientUnits="userSpaceOnUse">
<stop stop-opacity="0.8"/>
<stop offset="0.560256" stop-color="#BE8F65" stop-opacity="0.03"/>
</linearGradient>
<linearGradient id="paint8_linear_370_36" x1="165.915" y1="210.131" x2="112.218" y2="249.951" gradientUnits="userSpaceOnUse">
<stop/>
<stop offset="0.720121" stop-color="#BE8F65" stop-opacity="0.15"/>
</linearGradient>
<linearGradient id="paint9_linear_370_36" x1="345.902" y1="176.351" x2="371.765" y2="167.399" gradientUnits="userSpaceOnUse">
<stop/>
<stop offset="0.495" stop-opacity="0.07"/>
</linearGradient>
<linearGradient id="paint10_linear_370_36" x1="115.888" y1="50.2323" x2="110.897" y2="49.7654" gradientUnits="userSpaceOnUse">
<stop/>
<stop offset="0.495" stop-opacity="0.07"/>
</linearGradient>
</defs>
</svg>
