<svg width="567" height="529" viewBox="0 0 567 529" fill="none" xmlns="http://www.w3.org/2000/svg">
<rect x="81" y="286" width="343.654" height="343.654" rx="57.2755" transform="rotate(-45 81 286)" fill="#05A3FF"/>
<path d="M199.315 328.865C193.965 328.865 189.198 327.937 185.013 326.08C180.828 324.187 177.516 321.402 175.078 317.726C172.676 314.013 171.475 309.39 171.475 303.856C171.475 299.197 172.33 295.284 174.041 292.117C175.751 288.95 178.08 286.402 181.028 284.472C183.976 282.543 187.324 281.087 191.072 280.104C194.857 279.121 198.824 278.43 202.973 278.029C207.849 277.52 211.78 277.046 214.764 276.609C217.748 276.136 219.913 275.445 221.26 274.535C222.606 273.624 223.28 272.278 223.28 270.494V270.166C223.28 266.708 222.188 264.033 220.004 262.14C217.857 260.247 214.8 259.3 210.833 259.3C206.648 259.3 203.318 260.228 200.844 262.085C200.406 262.406 199.995 262.743 199.611 263.094C196.592 265.846 193.005 268.727 188.934 268.397L184.178 268.01C179.008 267.59 175.279 262.588 177.912 258.119C178.769 256.664 179.753 255.292 180.864 254.004C184.067 250.254 188.197 247.379 193.256 245.376C198.351 243.338 204.246 242.319 210.943 242.319C215.601 242.319 220.059 242.865 224.317 243.957C228.611 245.049 232.414 246.741 235.726 249.035C239.074 251.328 241.712 254.277 243.641 257.881C245.57 261.448 246.534 265.725 246.534 270.712V318.69C246.534 323.435 242.688 327.281 237.943 327.281H233.072C228.327 327.281 224.481 323.435 224.481 318.69V318.019C224.481 317.418 223.575 317.168 223.215 317.649C221.859 319.463 220.086 321.108 218.421 322.585C216.165 324.551 213.454 326.098 210.287 327.227C207.121 328.319 203.464 328.865 199.315 328.865ZM205.975 312.811C209.396 312.811 212.416 312.138 215.037 310.791C217.657 309.408 219.713 307.551 221.205 305.222C222.697 302.892 223.443 300.253 223.443 297.304V291.689C223.443 290.275 221.79 289.29 220.441 289.714C219.204 290.078 217.802 290.424 216.238 290.752C214.673 291.043 213.108 291.316 211.543 291.571C209.978 291.789 208.559 291.989 207.285 292.171C204.556 292.572 202.172 293.209 200.134 294.083C198.096 294.956 196.513 296.139 195.385 297.632C194.257 299.088 193.692 300.908 193.692 303.092C193.692 306.259 194.839 308.68 197.132 310.354C199.461 311.992 202.408 312.811 205.975 312.811Z" fill="white"/>
<path d="M302.461 328.919C293.872 328.919 286.484 327.099 280.297 323.459C274.147 319.782 269.416 314.686 266.104 308.17C262.829 301.654 261.191 294.155 261.191 285.674C261.191 277.083 262.847 269.547 266.159 263.068C269.507 256.552 274.256 251.474 280.407 247.834C286.557 244.157 293.872 242.319 302.351 242.319C309.666 242.319 316.071 243.647 321.567 246.305C327.062 248.962 331.411 252.693 334.613 257.498C336.253 259.959 337.516 262.639 338.402 265.538C339.839 270.239 335.787 274.425 330.872 274.425H325.379C321.119 274.425 317.772 271.104 315.565 267.461C314.864 266.305 314.026 265.259 313.051 264.324C310.43 261.739 306.991 260.447 302.733 260.447C299.131 260.447 295.983 261.43 293.29 263.395C290.633 265.325 288.559 268.146 287.066 271.859C285.574 275.572 284.828 280.068 284.828 285.346C284.828 290.697 285.556 295.247 287.012 298.997C288.504 302.746 290.597 305.604 293.29 307.57C295.983 309.535 299.131 310.518 302.733 310.518C305.39 310.518 307.774 309.972 309.885 308.88C312.032 307.788 313.797 306.204 315.18 304.13C315.317 303.926 315.449 303.718 315.577 303.506C317.779 299.861 321.118 296.54 325.376 296.54H330.815C335.752 296.54 339.801 300.757 338.356 305.477C337.48 308.336 336.251 310.999 334.668 313.467C331.575 318.308 327.298 322.094 321.84 324.824C316.381 327.554 309.921 328.919 302.461 328.919Z" fill="white"/>
<path d="M363.389 327.281C358.644 327.281 354.797 323.435 354.797 318.69V252.002C354.797 247.257 358.644 243.411 363.389 243.411H368.369C373.114 243.411 376.96 247.257 376.96 252.002V256.547C376.96 256.869 377.454 256.964 377.59 256.672C379.54 252.479 383.036 249.114 386.677 246.578C390.753 243.738 395.63 242.319 401.307 242.319C407.057 242.319 411.952 243.756 415.991 246.632C419.788 249.301 423.167 252.871 424.678 257.341C424.767 257.606 425.161 257.619 425.265 257.359C427.028 252.949 430.015 249.391 434.224 246.687C438.737 243.775 444.068 242.319 450.219 242.319C458.043 242.319 464.393 244.812 469.27 249.799C474.183 254.75 476.64 261.776 476.64 270.876V318.69C476.64 323.435 472.793 327.281 468.048 327.281H462.031C457.286 327.281 453.439 323.435 453.439 318.69V275.463C453.439 270.803 452.202 267.309 449.727 264.979C447.253 262.649 444.159 261.484 440.447 261.484C436.226 261.484 432.932 262.831 430.567 265.525C428.201 268.182 427.018 271.695 427.018 276.063V318.69C427.018 323.435 423.172 327.281 418.427 327.281H413.065C408.32 327.281 404.473 323.435 404.473 318.69V274.971C404.473 270.858 403.29 267.582 400.925 265.143C398.596 262.704 395.521 261.484 391.699 261.484C389.116 261.484 386.786 262.14 384.712 263.45C382.674 264.724 381.055 266.526 379.854 268.856C378.653 271.149 378.052 273.843 378.052 276.937V318.69C378.052 323.435 374.206 327.281 369.461 327.281H363.389Z" fill="white"/>
<path d="M221.164 154.748C222.295 156.85 213.402 157.349 216.5 160C219.598 162.651 213.174 155.731 213.5 159C213.852 162.274 210.579 180.338 209.356 185.968C208.134 191.598 204.837 173.124 201.659 175.951C198.496 178.767 202.746 185.134 200.321 179.774C197.895 174.413 213.059 196.724 213.059 196.724L203.348 191.917L189.467 203.733C189.467 203.733 164.165 173.931 168.193 179.774C172.222 185.617 182.502 194.408 180.749 198.907C178.791 203.931 167.091 211.045 162.552 210.023C158.014 209.001 152.859 196.425 147.606 192.062C142.352 187.699 166.672 223.941 166.672 223.941L115.391 175.951L107.533 149.746C107.533 149.746 105.808 146.783 104.595 144.103C103.383 141.423 102.747 133.558 102.518 131.811C102.289 130.063 149.449 87.3181 149.449 87.3181L165.469 71.1688L161.369 65.0575L193.769 47.8238L216.535 58.3062L242.953 88.0035C242.953 88.0035 255.193 96.806 255.969 100.104C256.746 103.403 258.594 112.564 255.116 117.094C251.638 121.625 243.737 129.612 243.737 129.612L237.085 142.502C237.085 142.502 228.417 143.782 224.531 147.754C219.422 152.978 221.164 154.748 221.164 154.748Z" fill="#878787"/>
<path d="M186.241 33.8448C191.682 31.9985 207.515 35.3519 213.228 40.578C218.941 45.8041 224.695 61.6861 228.125 65.3108C232.454 69.8798 244.395 80.8162 249.549 87.6985C254.702 94.5808 252.567 103.494 252.567 103.494L246.221 106.167C246.221 106.167 230.321 81.2638 226.926 78.4778C223.526 75.7178 219.796 75.4082 219.796 75.4082C219.796 75.4082 212.318 62.2575 202.355 58.8953C192.392 55.5332 181.027 57.3114 174.858 60.7025C168.689 64.0936 164.178 69.1322 164.178 69.1322C164.178 69.1322 156.428 60.5239 159.546 52.839C163.094 44.1321 182.36 35.1591 186.241 33.8448Z" fill="#BEBEBE"/>
<path d="M186.086 158.062C186.086 158.062 185.875 166.08 179.95 169.529C174.025 172.979 162.105 172.668 155.581 171.858C149.056 171.048 132.041 168.283 126.516 166.126C120.991 163.969 116.784 161.289 113.056 157.099C109.08 152.648 107.537 149.72 107.537 149.72C107.537 149.72 103.1 154.866 101.483 164.102C100.29 170.959 98.9117 178.601 104.327 192.313C109.742 206.024 113.674 213.273 113.884 214.829C114.095 216.385 113.71 221.913 113.252 225.428C112.631 230.121 111.044 233.347 110.294 233.706C108.121 234.569 106.03 236.01 103.769 238.522C101.508 241.034 100.641 247.575 100.131 251.079C99.4724 255.685 98.2609 259.719 98.632 260.257C99.3953 261.364 108.233 256.382 114.302 247.548C118.045 242.086 116.596 235.576 116.596 235.576C116.596 235.576 118.811 229.739 119.825 225.682C120.371 223.514 121.048 220.053 121.048 220.053C121.048 220.053 125.078 223.694 128.813 226.677C133.094 230.122 137.974 234.403 141.201 240.005C144.428 245.606 146.444 253.631 147.495 260.256C148.547 266.881 150.563 274.905 156.515 277.517C162.466 280.128 177.17 280.857 179.715 273.658C181.283 269.219 177.193 259.109 175.017 253.418C172.84 247.727 169.913 234.433 169.624 232.863C169.346 231.308 169.278 224.957 169.278 224.957C169.278 224.957 178.521 219.379 187.211 213.228C195.902 207.078 200.398 202.708 200.398 202.708C200.398 202.708 215.422 210.384 222.768 215.709C230.114 221.034 238.959 230.408 242.603 232.205C246.247 234.003 252.549 237.122 262.519 228.683C270.69 221.779 268.729 214.987 268.729 214.987C268.729 214.987 266.182 208.758 255.771 200.6C245.36 192.443 234.555 184.898 226.482 178.486C223.67 176.25 219.41 172.177 219.41 172.177C219.41 172.177 220.829 160.81 220.847 159.685C220.866 158.561 221.547 155.369 221.547 155.369L220.774 153.656C220.774 153.656 215.449 157.713 207.613 160.166C195.742 163.973 186.086 158.062 186.086 158.062Z" fill="#BEBEBE"/>
<path d="M148.425 81.1949C148.425 81.1949 136.857 75.5369 131.99 78.0529C127.123 80.5689 111.486 89.0139 105.838 96.9454C102.999 100.922 100.097 116.488 100.517 123.118C100.923 129.53 101.557 137.985 107.851 144.943C114.12 151.896 116.288 150.401 117.581 152.277C118.874 154.153 121.237 159.126 126.417 160.454C131.598 161.783 132.677 156.57 136.143 157.583C139.609 158.596 143.026 164.77 147.496 165.725C151.982 166.671 157.281 162.609 160.621 162.847C163.987 163.09 168.626 168.602 174.921 165.986C181.206 163.355 179.574 156.382 174.314 145.331C169.028 134.275 158.548 117.363 161.112 115.686C163.738 113.967 166.203 119.549 170.475 126.404C174.976 133.622 182.555 149.88 191.604 152.806C200.654 155.731 207.489 154.853 212.877 151.546C218.275 148.255 220.699 141.208 223.302 140.049C225.905 138.889 226.497 142.61 232.39 143.424C238.506 144.267 243.707 145.626 246.854 147.721C250 149.817 257.264 153.542 261.383 159.845C265.501 166.148 265.334 170.051 262.482 171.179C259.619 172.29 256.374 164.524 253.195 164.651C250.244 164.78 246.751 171.657 252.656 179.926C258.561 188.196 271.557 189.671 280.171 178.311C289.282 166.289 278.783 147.803 269.919 140.507C261.055 133.212 254.877 126.718 251.251 121.755C247.635 116.807 247.809 112.354 244.898 109.053C241.976 105.736 241.813 104.578 237.201 98.1849C232.589 91.7915 226.94 82.0521 224.043 80.6467C221.161 79.2308 217.297 78.2653 217.297 78.2653C217.297 78.2653 211.604 67.0139 204.773 63.4889C194.192 58.0124 182.359 59.9999 171.403 66.056C160.442 72.0708 148.425 81.1949 148.425 81.1949Z" fill="#BEBEBE"/>
<path d="M195.402 124.916C192.565 126.872 188.647 126.11 186.651 123.214C184.654 120.318 185.335 116.385 188.172 114.43C191.008 112.474 194.926 113.236 196.922 116.132C198.919 119.028 198.238 122.961 195.402 124.916Z" fill="#1A1A1A"/>
<path d="M218.568 138.776C215.887 136.269 208.964 134.848 206.619 137.962C205.112 139.954 207.054 145.535 209.788 148.118C212.522 150.702 216.822 151.05 219.691 147.347C222.571 143.661 220.251 140.36 218.568 138.776Z" fill="#FAE9AE"/>
<path d="M254.855 90.7551C257.851 92.5682 256.797 98.6718 255.76 102.268C254.723 105.864 252.059 113.122 251.146 115.022C250.233 116.922 248.965 118.34 248.965 118.34C248.965 118.34 246.655 112.061 245.563 110.478C244.471 108.894 242.157 105.702 242.157 105.702C242.157 105.702 245.012 100.104 247.017 97.4516C249.012 94.7836 252.307 89.1993 254.855 90.7551Z" fill="#FAE9AE"/>
<path d="M167.069 125.388C167.069 125.388 169.828 123.293 171.554 125.47C175.813 130.841 184.889 142.405 198.951 131.256C210.21 122.328 210.979 112.252 206.787 105.111C205.043 102.146 203.659 98.4944 206.36 96.3526C209.061 94.2108 212.296 96.3848 214.79 98.7656C220.793 104.47 230.78 106.019 242.039 97.092C256.108 85.9377 246.913 74.458 242.66 69.0932C240.933 66.9157 243.602 64.7071 243.602 64.7071L239.384 59.3865C239.384 59.3865 233.535 62.7184 225.576 69.0287C217.617 75.3389 214.449 77.851 208.612 83.5064C205.176 86.8475 201.312 89.973 201.312 89.973C201.312 89.973 197.388 93.0227 193.351 95.6065C186.52 99.9945 183.346 102.512 175.387 108.822C167.428 115.132 162.85 120.067 162.85 120.067L167.069 125.388Z" fill="#1A1A1A"/>
<path d="M176.888 110.715C171.719 114.814 167.98 118.344 166.07 120.239L167.746 122.353C169.727 121.728 171.936 122.063 173.447 123.969L173.502 124.038C175.544 126.614 178.627 130.501 182.661 132.401C187.289 134.581 192.122 133.586 197.449 129.362C206.329 122.321 209.044 113.714 204.702 106.332C200.813 99.7023 202.643 96.2157 204.858 94.4593C207.08 92.6978 210.886 91.7156 216.454 97.0144C222.664 102.915 231.664 102.235 240.538 95.1987C245.865 90.9752 247.931 86.4896 246.868 81.4935C245.934 77.1257 242.851 73.2378 240.815 70.669L240.76 70.5996C239.243 68.6872 239.432 66.4615 240.486 64.6798L238.81 62.5654C236.535 63.9883 232.246 66.8238 227.077 70.9222C219.049 77.2876 216.044 79.6695 210.298 85.2435C206.817 88.6197 202.996 91.7214 202.832 91.8515L202.813 91.8665L202.794 91.8816C202.63 92.0117 198.739 95.025 194.658 97.6438C187.927 101.963 184.922 104.345 176.888 110.715ZM175.387 108.822C183.345 102.512 186.514 99.9996 193.345 95.6116C197.388 93.0228 201.312 89.9731 201.312 89.9731C201.312 89.9731 205.176 86.8476 208.612 83.5065C214.442 77.8562 217.617 75.3391 225.569 69.0338C233.528 62.7235 239.377 59.3916 239.377 59.3916L243.596 64.7122C243.596 64.7122 240.927 66.9208 242.653 69.0983C246.913 74.4581 256.107 85.9379 242.039 97.0922C230.779 106.02 220.793 104.47 214.796 98.7608C212.307 96.3862 209.067 94.2059 206.366 96.3477C203.665 98.4895 205.044 102.135 206.793 105.106C210.985 112.247 210.216 122.323 198.957 131.251C184.895 142.4 175.814 130.83 171.56 125.465C169.834 123.288 167.075 125.383 167.075 125.383L162.856 120.062C162.85 120.067 167.434 115.127 175.387 108.822Z" fill="#1A1A1A"/>
<path d="M236.356 79.2927C237.224 80.2588 238.385 80.8803 239.533 80.279C239.661 80.2078 239.785 80.1304 239.898 80.0403C240.769 79.3497 241.049 78.1207 240.519 77.102C239.366 74.922 237.545 73.4674 235.384 73.0114C233.358 72.5824 231.265 73.0802 229.631 74.3763C228.615 75.182 228.212 76.5287 229.018 77.5449C229.969 78.744 231.322 78.4933 232.553 78.0622C233.701 77.6559 235.299 78.1157 236.356 79.2927Z" fill="#858585"/>
<path d="M195.804 111.445C196.673 112.411 197.834 113.032 198.981 112.431C199.11 112.36 199.233 112.282 199.347 112.192C200.218 111.502 200.498 110.273 199.967 109.254C198.815 107.074 196.993 105.619 194.833 105.163C192.807 104.734 190.714 105.232 189.079 106.528C188.063 107.334 187.661 108.681 188.467 109.697C189.417 110.896 190.771 110.645 192.002 110.214C193.149 109.808 194.748 110.268 195.804 111.445Z" fill="#858585"/>
</svg>
