<svg width="620" height="475" viewBox="0 0 620 475" fill="none" xmlns="http://www.w3.org/2000/svg">
<path d="M613.604 89.8862C620.873 135.105 586.814 246.501 392.429 330.332C198.045 414.163 458.886 204.964 613.604 89.8862Z" fill="url(#paint0_linear_40000001_13)" stroke="#6D6D6D" stroke-width="0.425845"/>
<path d="M152.264 312.757L205.676 278.026L340.763 190.187C346.346 186.557 336.232 177.438 328.9 179.344C287.71 190.052 231.157 200.293 168.392 201.284C75.1277 202.755 22.9985 220.368 4.37314 231.184C1.80292 232.676 1.94718 235.207 4.38384 236.792L103.191 301.04C130.028 318.49 147.088 316.122 152.264 312.757Z" fill="#D9D9D9"/>
<path d="M249.742 375.872L303.153 341.141L438.241 253.302C443.824 249.672 457.848 256.249 454.917 261.016C438.449 287.8 422.699 324.573 421.176 365.384C418.912 426.029 391.826 459.925 375.192 472.036C372.897 473.707 369.005 473.613 366.568 472.029L267.761 407.781C240.924 390.33 244.566 379.237 249.742 375.872Z" fill="#A6A6A6"/>
<path fill-rule="evenodd" clip-rule="evenodd" d="M613.945 95.7904C617.568 84.838 602.599 75.1046 585.755 77.4606L490.487 90.7863C473.626 91.2362 456.968 95.6466 444.094 104.017L167.923 283.594C140.714 301.287 140.714 329.972 167.923 347.665L195.55 365.629C222.759 383.322 266.875 383.322 294.084 365.629L570.255 186.052C576.275 182.137 580.964 177.684 584.32 172.931C587.55 170.921 589.971 168.257 591.034 165.043L613.945 95.7904Z" fill="url(#paint1_linear_40000001_13)"/>
<path d="M266.153 299.46V351.78L312.486 331.05L444.582 243.19L298.684 275.767L266.153 299.46Z" fill="#C5C5C5"/>
<path d="M146.917 241.209V288.755L180.455 275.878L321.513 197.625L180.455 224.369L146.917 241.209Z" fill="#AFAFAF"/>
<path d="M516.976 87.7571C536.054 87.7571 534.01 112.74 530.603 125.231C555.132 116.374 553.883 93.1512 550.192 82.647C546.501 83.4987 534.691 85.7131 516.976 87.7571Z" fill="#003159"/>
<path fill-rule="evenodd" clip-rule="evenodd" d="M585.81 77.4674C602.174 75.1785 616.769 84.3006 614.264 94.8653C618.058 139.372 585.414 234.275 431.003 312.353C425.621 328.8 421.929 346.671 421.23 365.391C418.967 426.036 391.881 459.932 375.247 472.043C372.952 473.714 369.06 473.62 366.623 472.036L267.816 407.788C246.442 393.889 244.401 384.024 247.071 378.883C228.514 379.262 209.768 374.846 195.604 365.636L167.978 347.672C153.952 338.552 147.156 326.51 147.59 314.56C139.654 316.26 124.523 314.882 103.246 301.047L4.4385 236.799C2.00183 235.214 1.85757 232.683 4.4278 231.191C23.0532 220.375 75.1824 202.762 168.447 201.291C230.663 200.309 286.777 190.237 327.873 179.631L444.149 104.024C457.022 95.6535 473.68 91.2431 490.541 90.7932L585.81 77.4674Z" fill="url(#paint2_linear_40000001_13)" fill-opacity="0.1"/>
<g filter="url(#filter0_f_40000001_13)">
<path d="M391.452 134.024C392.653 133.91 394.197 134.769 395.209 135.347" stroke="#DD9263" stroke-width="0.796724" stroke-linecap="round"/>
</g>
<g filter="url(#filter1_f_40000001_13)">
<path d="M394.47 132.328C395.284 132.502 396.039 132.738 396.828 132.989" stroke="#DD9263" stroke-width="0.796724" stroke-linecap="round"/>
</g>
<ellipse cx="397.52" cy="53.0147" rx="3.67648" ry="5.42718" transform="rotate(-30.1796 397.52 53.0147)" fill="#C88A65" stroke="#855239" stroke-width="1.05042"/>
<path d="M394.628 55.8291C374.947 65.1683 378.298 89.1558 382.433 99.9822C377.322 124.625 379.413 125.434 388.002 138.463C403.163 147.469 410.775 137.574 435.257 121.514C444.565 106.177 428.07 95.9226 421.966 89.9537C427.917 78.5948 427.529 67.4795 427.103 65.702C426.676 63.9246 419.23 44.155 394.628 55.8291Z" fill="url(#paint3_linear_40000001_13)" stroke="#855239" stroke-width="2.10084" stroke-linejoin="round"/>
<g filter="url(#filter2_f_40000001_13)">
<path d="M425.838 76.3412C425.851 80.519 421.337 83.1443 417.712 81.0668L409.03 76.0906C405.406 74.0131 405.389 68.7908 409.001 66.6905L417.651 61.6601C421.263 59.5598 425.794 62.1568 425.807 66.3346L425.838 76.3412Z" fill="#C88A65"/>
</g>
<g filter="url(#filter3_f_40000001_13)">
<path d="M422.206 78.454C422.219 82.6318 417.705 85.2571 414.08 83.1796L405.398 78.2034C401.774 76.1259 401.757 70.9036 405.369 68.8033L414.019 63.7729C417.631 61.6726 422.162 64.2696 422.175 68.4474L422.206 78.454Z" fill="#C88A65"/>
</g>
<rect x="390.519" y="73.7114" width="6.82774" height="2.27591" rx="1.13796" transform="rotate(-45.1796 390.519 73.7114)" fill="#713824"/>
<rect x="414.526" y="57.7065" width="6.82774" height="2.27591" rx="1.13796" transform="rotate(-0.179557 414.526 57.7065)" fill="#713824"/>
<path fill-rule="evenodd" clip-rule="evenodd" d="M371.835 68.1966C371.525 67.3576 371.506 66.506 371.844 65.7495C372.749 63.7184 375.882 63.1413 378.84 64.4605C379.762 64.8717 380.559 65.4187 381.191 66.0384C382.782 67.0781 383.683 68.6017 383.377 70.0691C382.923 72.2462 379.985 73.4752 376.814 72.8143C373.895 72.206 371.797 70.2084 371.835 68.1966Z" fill="#C88A65"/>
<path d="M371.835 68.1966L372.36 68.2067L372.362 68.1076L372.328 68.0147L371.835 68.1966ZM371.844 65.7495L371.364 65.5356L371.364 65.5356L371.844 65.7495ZM378.84 64.4605L379.054 63.9808L379.054 63.9808L378.84 64.4605ZM381.191 66.0384L380.823 66.4134L380.86 66.4497L380.903 66.478L381.191 66.0384ZM383.377 70.0691L383.891 70.1763L383.377 70.0691ZM376.814 72.8143L376.707 73.3285L376.814 72.8143ZM372.328 68.0147C372.056 67.2775 372.052 66.5709 372.323 65.9634L371.364 65.5356C370.96 66.4412 370.995 67.4377 371.343 68.3785L372.328 68.0147ZM372.323 65.9634C372.685 65.1516 373.515 64.5774 374.667 64.3652C375.816 64.1535 377.231 64.3182 378.626 64.9402L379.054 63.9808C377.49 63.2836 375.86 63.0773 374.477 63.3321C373.097 63.5865 371.908 64.3163 371.364 65.5356L372.323 65.9634ZM378.626 64.9402C379.494 65.327 380.237 65.8393 380.823 66.4134L381.558 65.6634C380.88 64.9981 380.031 64.4164 379.054 63.9808L378.626 64.9402ZM380.903 66.478C382.401 67.4567 383.106 68.7927 382.863 69.962L383.891 70.1763C384.259 68.4107 383.162 66.6995 381.478 65.5987L380.903 66.478ZM382.863 69.962C382.681 70.8321 381.992 71.5695 380.912 72.0214C379.834 72.4723 378.416 72.6118 376.921 72.3002L376.707 73.3285C378.383 73.6778 380.019 73.5332 381.317 72.9905C382.612 72.4489 383.619 71.4832 383.891 70.1763L382.863 69.962ZM376.921 72.3002C375.546 72.0136 374.381 71.4027 373.574 70.6481C372.763 69.8901 372.345 69.0216 372.36 68.2067L371.31 68.1865C371.287 69.3834 371.899 70.5196 372.857 71.4154C373.819 72.3147 375.163 73.0068 376.707 73.3285L376.921 72.3002Z" fill="#855239"/>
<path d="M410.826 69.2796C413.095 66.9054 414.615 65.7893 417.802 64.2104" stroke="#855239" stroke-width="2.10084" stroke-linecap="round"/>
<path d="M414.539 66.609C417.297 70.3674 419.231 72.5886 419.943 77.6429" stroke="#855239" stroke-width="2.10084" stroke-linecap="round"/>
<g filter="url(#filter4_f_40000001_13)">
<ellipse cx="429.409" cy="123.173" rx="2.9762" ry="5.25211" transform="rotate(-30.1796 429.409 123.173)" fill="#C67C4F"/>
</g>
<g filter="url(#filter5_f_40000001_13)">
<ellipse cx="2.9762" cy="5.25211" rx="2.9762" ry="5.25211" transform="matrix(-0.864454 0.502712 0.502712 0.864454 419.742 124.137)" fill="#C67C4F"/>
</g>
<g filter="url(#filter6_f_40000001_13)">
<ellipse cx="2.75898" cy="5.10775" rx="2.75898" ry="5.10775" transform="matrix(0.286539 0.958069 0.958069 -0.286539 399.548 135.708)" fill="#C67C4F"/>
</g>
<path d="M432.013 121.558C433.471 124.066 433.502 126.768 432.081 127.595C430.66 128.421 427.59 125.967 426.132 123.459" stroke="#855239" stroke-width="1.05042" stroke-linecap="round"/>
<path d="M417.117 131.639C418.575 134.146 420.909 135.509 422.33 134.683C423.751 133.856 423.136 129.975 421.678 127.467" stroke="#855239" stroke-width="1.05042" stroke-linecap="round"/>
<path d="M405.579 140.158C408.358 139.327 410.23 137.377 409.759 135.802C409.288 134.227 405.37 133.917 402.591 134.748" stroke="#855239" stroke-width="1.05042" stroke-linecap="round"/>
<g opacity="0.5">
<circle cx="399.209" cy="70.6287" r="34.1899" transform="rotate(-53.3572 399.209 70.6287)" fill="#D9D9D9" fill-opacity="0.4" stroke="#D9D9D9" stroke-width="0.203"/>
<g opacity="0.4">
<path d="M382.874 89.3837L378.383 95.4216C378.316 95.5115 378.335 95.6388 378.425 95.7052C380.022 96.8786 381.687 97.8933 383.402 98.7523C383.489 98.7962 383.596 98.7706 383.654 98.6919L387.982 92.8738C388.056 92.7744 388.024 92.6327 387.916 92.5732C386.013 91.5304 384.411 90.4082 383.171 89.3508C383.081 89.274 382.945 89.2888 382.874 89.3837Z" fill="#D9D9D9" fill-opacity="0.6"/>
<path d="M425.021 89.4676C414.944 96.8919 405.065 97.7267 397.162 96.02C397.084 96.0031 397.004 96.0334 396.956 96.0974L392.886 101.57C392.796 101.691 392.865 101.864 393.014 101.889C404.832 103.876 417.291 99.5794 425.3 89.7468C425.45 89.5629 425.212 89.3269 425.021 89.4676Z" fill="#D9D9D9" fill-opacity="0.6"/>
</g>
</g>
<path d="M384.502 41.8171C383.48 35.2428 383.578 22.5226 392.144 24.236" stroke="#23773A" stroke-width="1.85902" stroke-linecap="round"/>
<g filter="url(#filter7_f_40000001_13)">
<path d="M394.273 60.8374C395.526 61.2919 396.763 61.7455 398.031 62.1601" stroke="#DD9263" stroke-width="0.796724" stroke-linecap="round"/>
</g>
<g filter="url(#filter8_f_40000001_13)">
<path d="M396.702 58.2583C397.79 58.8791 399.376 58.9992 400.606 58.8443" stroke="#DD9263" stroke-width="0.796724" stroke-linecap="round"/>
</g>
<g filter="url(#filter9_f_40000001_13)">
<path d="M399.205 56.2671C400.08 55.9671 400.988 55.7651 401.855 55.4546" stroke="#DD9263" stroke-width="0.796724" stroke-linecap="round"/>
</g>
<g filter="url(#filter10_f_40000001_13)">
<path d="M388.625 88.2426C389.018 89.1725 389.467 89.9819 390.026 90.8195" stroke="#AB6236" stroke-width="0.796724" stroke-linecap="round"/>
</g>
<g filter="url(#filter11_f_40000001_13)">
<path d="M391.35 88.02C391.929 88.8873 392.629 89.4573 393.193 90.3019" stroke="#AB6236" stroke-width="0.796724" stroke-linecap="round"/>
</g>
<g filter="url(#filter12_f_40000001_13)">
<path d="M395.327 88.2378C396.319 88.9979 397.311 89.6955 398.349 90.3713" stroke="#AB6236" stroke-width="0.796724" stroke-linecap="round"/>
</g>
<g filter="url(#filter13_f_40000001_13)">
<path d="M406.892 88.8173L406.449 87.1972" stroke="#DD9263" stroke-width="0.796724" stroke-linecap="round"/>
</g>
<g filter="url(#filter14_f_40000001_13)">
<path d="M408.656 83.8069C409.634 85.4903 409.551 87.0794 409.986 88.6672" stroke="#DD9263" stroke-width="0.796724" stroke-linecap="round"/>
</g>
<g filter="url(#filter15_f_40000001_13)">
<path d="M411.085 82.1849C411.969 83.508 413.888 85.6616 412.931 87.3393" stroke="#DD9263" stroke-width="0.796724" stroke-linecap="round"/>
</g>
<g filter="url(#filter16_f_40000001_13)">
<path d="M384.441 106.366C384.341 107.47 384.351 108.508 384.37 109.607" stroke="#DD9263" stroke-width="0.796724" stroke-linecap="round"/>
</g>
<g filter="url(#filter17_f_40000001_13)">
<path d="M386.578 107.175C386.33 107.632 386.13 108.102 385.916 108.575" stroke="#DD9263" stroke-width="0.796724" stroke-linecap="round"/>
</g>
<g filter="url(#filter18_f_40000001_13)">
<path d="M401.169 115.633C401.646 116.347 403.17 118.085 403.013 118.873" stroke="#AB6236" stroke-width="0.796724" stroke-linecap="round"/>
</g>
<g filter="url(#filter19_f_40000001_13)">
<path d="M403.821 115.778C404.618 116.46 405.31 117.051 405.885 117.912" stroke="#AB6236" stroke-width="0.796724" stroke-linecap="round"/>
</g>
<g filter="url(#filter20_f_40000001_13)">
<path d="M405.807 112.536C406.575 113.685 407.363 114.541 407.43 115.922" stroke="#AB6236" stroke-width="0.796724" stroke-linecap="round"/>
</g>
<g filter="url(#filter21_f_40000001_13)">
<path d="M419.202 100.077C420.35 100.464 421.468 100.882 422.592 101.326" stroke="#DD9263" stroke-width="0.796724" stroke-linecap="round"/>
</g>
<g filter="url(#filter22_f_40000001_13)">
<path d="M421.558 98.8218C422.317 99.1738 423.088 99.4943 423.842 99.8511" stroke="#DD9263" stroke-width="0.796724" stroke-linecap="round"/>
</g>
<g filter="url(#filter23_f_40000001_13)">
<path d="M424.061 96.8315C424.576 97.0213 424.999 97.2299 425.461 97.4933" stroke="#AB6236" stroke-width="0.796724" stroke-linecap="round"/>
</g>
<g filter="url(#filter24_f_40000001_13)">
<path d="M425.694 111.709C425.804 112.122 426.043 113.711 426.285 113.55" stroke="#AB6236" stroke-width="0.796724" stroke-linecap="round"/>
</g>
<g filter="url(#filter25_f_40000001_13)">
<path d="M426.353 107.436C427.944 109.216 429.026 109.946 429.23 112.221" stroke="#AB6236" stroke-width="0.796724" stroke-linecap="round"/>
</g>
<g filter="url(#filter26_f_40000001_13)">
<path d="M426.871 109.645C427.379 110.431 427.748 111.166 428.125 112.001" stroke="#AB6236" stroke-width="0.796724" stroke-linecap="round"/>
</g>
<path d="M399.977 130.056C399.127 124.474 395.287 114.529 386.724 119.41" stroke="#855239" stroke-width="1.05699" stroke-linecap="round"/>
<path d="M392.667 16.3007C393.585 17.6756 393.947 20.7873 392.484 21.7648C391.02 22.7424 388.285 21.2156 387.366 19.8406C386.448 18.4657 386.89 16.5586 388.354 15.5811C389.817 14.6035 391.748 14.9257 392.667 16.3007Z" fill="#FFD6D6"/>
<path d="M386.87 21.2142C388.147 22.3344 391.209 23.1889 392.329 21.9121C393.45 20.6353 392.204 17.7106 390.927 16.5904C389.65 15.4701 387.707 15.5971 386.587 16.8739C385.467 18.1508 385.594 20.094 386.87 21.2142Z" fill="#FFD6D6"/>
<path d="M398.389 23.5197C396.78 24.0653 393.624 23.6817 393.079 22.0732C392.533 20.4646 394.804 18.2402 396.413 17.6945C398.021 17.1489 399.767 18.0105 400.313 19.6191C400.859 21.2277 399.997 22.974 398.389 23.5197Z" fill="#FFD6D6"/>
<path d="M393.223 27.9338C393.974 26.4106 394.007 23.2319 392.484 22.4803C390.961 21.7287 388.458 23.6888 387.707 25.2121C386.955 26.7354 387.581 28.5795 389.104 29.3311C390.627 30.0827 392.471 29.4571 393.223 27.9338Z" fill="#FFD6D6"/>
<path d="M397.586 18.0873C397.254 19.7532 395.344 22.2942 393.678 21.9625C392.012 21.6308 391.221 18.5519 391.553 16.886C391.885 15.2201 393.504 14.1385 395.17 14.4703C396.836 14.802 397.918 16.4214 397.586 18.0873Z" fill="#FFD6D6"/>
<path d="M387.942 26.4263C389.637 26.3156 392.406 24.7547 392.295 23.0598C392.184 21.3648 389.236 20.1775 387.541 20.2883C385.846 20.399 384.561 21.8628 384.672 23.5578C384.783 25.2528 386.247 26.5371 387.942 26.4263Z" fill="#FFD6D6"/>
<path d="M395.402 27.9234C393.879 27.1718 391.919 24.6692 392.671 23.146C393.422 21.6227 396.601 21.6556 398.124 22.4072C399.648 23.1588 400.273 25.0029 399.521 26.5262C398.77 28.0494 396.926 28.675 395.402 27.9234Z" fill="#FFD6D6"/>
<path d="M397.98 25.5504C397.434 23.9418 395.21 21.6709 393.601 22.2165C391.993 22.7622 391.609 25.9178 392.155 27.5264C392.7 29.135 394.447 29.9966 396.055 29.451C397.664 28.9053 398.526 27.159 397.98 25.5504Z" fill="#FFD6D6"/>
<circle cx="392.631" cy="21.9855" r="1.59345" transform="rotate(-33.738 392.631 21.9855)" fill="#FFE65A"/>
<defs>
<filter id="filter0_f_40000001_13" x="389.991" y="132.553" width="6.67904" height="4.25448" filterUnits="userSpaceOnUse" color-interpolation-filters="sRGB">
<feFlood flood-opacity="0" result="BackgroundImageFix"/>
<feBlend mode="normal" in="SourceGraphic" in2="BackgroundImageFix" result="shape"/>
<feGaussianBlur stdDeviation="0.531149" result="effect1_foregroundBlur_40000001_13"/>
</filter>
<filter id="filter1_f_40000001_13" x="393.009" y="130.867" width="5.27909" height="3.58261" filterUnits="userSpaceOnUse" color-interpolation-filters="sRGB">
<feFlood flood-opacity="0" result="BackgroundImageFix"/>
<feBlend mode="normal" in="SourceGraphic" in2="BackgroundImageFix" result="shape"/>
<feGaussianBlur stdDeviation="0.531149" result="effect1_foregroundBlur_40000001_13"/>
</filter>
<filter id="filter2_f_40000001_13" x="404.201" y="58.8157" width="23.7377" height="25.0786" filterUnits="userSpaceOnUse" color-interpolation-filters="sRGB">
<feFlood flood-opacity="0" result="BackgroundImageFix"/>
<feBlend mode="normal" in="SourceGraphic" in2="BackgroundImageFix" result="shape"/>
<feGaussianBlur stdDeviation="1.05042" result="effect1_foregroundBlur_40000001_13"/>
</filter>
<filter id="filter3_f_40000001_13" x="400.569" y="60.9285" width="23.7377" height="25.0786" filterUnits="userSpaceOnUse" color-interpolation-filters="sRGB">
<feFlood flood-opacity="0" result="BackgroundImageFix"/>
<feBlend mode="normal" in="SourceGraphic" in2="BackgroundImageFix" result="shape"/>
<feGaussianBlur stdDeviation="1.05042" result="effect1_foregroundBlur_40000001_13"/>
</filter>
<filter id="filter4_f_40000001_13" x="424.672" y="117.341" width="9.47388" height="11.6643" filterUnits="userSpaceOnUse" color-interpolation-filters="sRGB">
<feFlood flood-opacity="0" result="BackgroundImageFix"/>
<feBlend mode="normal" in="SourceGraphic" in2="BackgroundImageFix" result="shape"/>
<feGaussianBlur stdDeviation="0.525211" result="effect1_foregroundBlur_40000001_13"/>
</filter>
<filter id="filter5_f_40000001_13" x="415.073" y="124.342" width="9.47388" height="11.6638" filterUnits="userSpaceOnUse" color-interpolation-filters="sRGB">
<feFlood flood-opacity="0" result="BackgroundImageFix"/>
<feBlend mode="normal" in="SourceGraphic" in2="BackgroundImageFix" result="shape"/>
<feGaussianBlur stdDeviation="0.525211" result="effect1_foregroundBlur_40000001_13"/>
</filter>
<filter id="filter6_f_40000001_13" x="399.224" y="132.815" width="12.0164" height="8.14479" filterUnits="userSpaceOnUse" color-interpolation-filters="sRGB">
<feFlood flood-opacity="0" result="BackgroundImageFix"/>
<feBlend mode="normal" in="SourceGraphic" in2="BackgroundImageFix" result="shape"/>
<feGaussianBlur stdDeviation="0.525211" result="effect1_foregroundBlur_40000001_13"/>
</filter>
<filter id="filter7_f_40000001_13" x="392.813" y="59.3767" width="6.67916" height="4.24423" filterUnits="userSpaceOnUse" color-interpolation-filters="sRGB">
<feFlood flood-opacity="0" result="BackgroundImageFix"/>
<feBlend mode="normal" in="SourceGraphic" in2="BackgroundImageFix" result="shape"/>
<feGaussianBlur stdDeviation="0.531149" result="effect1_foregroundBlur_40000001_13"/>
</filter>
<filter id="filter8_f_40000001_13" x="395.241" y="56.7976" width="6.82575" height="3.56845" filterUnits="userSpaceOnUse" color-interpolation-filters="sRGB">
<feFlood flood-opacity="0" result="BackgroundImageFix"/>
<feBlend mode="normal" in="SourceGraphic" in2="BackgroundImageFix" result="shape"/>
<feGaussianBlur stdDeviation="0.531149" result="effect1_foregroundBlur_40000001_13"/>
</filter>
<filter id="filter9_f_40000001_13" x="397.744" y="53.9939" width="5.57252" height="3.73397" filterUnits="userSpaceOnUse" color-interpolation-filters="sRGB">
<feFlood flood-opacity="0" result="BackgroundImageFix"/>
<feBlend mode="normal" in="SourceGraphic" in2="BackgroundImageFix" result="shape"/>
<feGaussianBlur stdDeviation="0.531149" result="effect1_foregroundBlur_40000001_13"/>
</filter>
<filter id="filter10_f_40000001_13" x="387.164" y="86.7819" width="4.32311" height="5.49813" filterUnits="userSpaceOnUse" color-interpolation-filters="sRGB">
<feFlood flood-opacity="0" result="BackgroundImageFix"/>
<feBlend mode="normal" in="SourceGraphic" in2="BackgroundImageFix" result="shape"/>
<feGaussianBlur stdDeviation="0.531149" result="effect1_foregroundBlur_40000001_13"/>
</filter>
<filter id="filter11_f_40000001_13" x="389.889" y="86.5593" width="4.76474" height="5.20321" filterUnits="userSpaceOnUse" color-interpolation-filters="sRGB">
<feFlood flood-opacity="0" result="BackgroundImageFix"/>
<feBlend mode="normal" in="SourceGraphic" in2="BackgroundImageFix" result="shape"/>
<feGaussianBlur stdDeviation="0.531149" result="effect1_foregroundBlur_40000001_13"/>
</filter>
<filter id="filter12_f_40000001_13" x="393.867" y="86.7771" width="5.94312" height="5.05477" filterUnits="userSpaceOnUse" color-interpolation-filters="sRGB">
<feFlood flood-opacity="0" result="BackgroundImageFix"/>
<feBlend mode="normal" in="SourceGraphic" in2="BackgroundImageFix" result="shape"/>
<feGaussianBlur stdDeviation="0.531149" result="effect1_foregroundBlur_40000001_13"/>
</filter>
<filter id="filter13_f_40000001_13" x="404.988" y="85.7365" width="3.36482" height="4.54159" filterUnits="userSpaceOnUse" color-interpolation-filters="sRGB">
<feFlood flood-opacity="0" result="BackgroundImageFix"/>
<feBlend mode="normal" in="SourceGraphic" in2="BackgroundImageFix" result="shape"/>
<feGaussianBlur stdDeviation="0.531149" result="effect1_foregroundBlur_40000001_13"/>
</filter>
<filter id="filter14_f_40000001_13" x="407.195" y="82.3464" width="4.25138" height="7.78134" filterUnits="userSpaceOnUse" color-interpolation-filters="sRGB">
<feFlood flood-opacity="0" result="BackgroundImageFix"/>
<feBlend mode="normal" in="SourceGraphic" in2="BackgroundImageFix" result="shape"/>
<feGaussianBlur stdDeviation="0.531149" result="effect1_foregroundBlur_40000001_13"/>
</filter>
<filter id="filter15_f_40000001_13" x="409.624" y="80.7243" width="5.02828" height="8.07577" filterUnits="userSpaceOnUse" color-interpolation-filters="sRGB">
<feFlood flood-opacity="0" result="BackgroundImageFix"/>
<feBlend mode="normal" in="SourceGraphic" in2="BackgroundImageFix" result="shape"/>
<feGaussianBlur stdDeviation="0.531149" result="effect1_foregroundBlur_40000001_13"/>
</filter>
<filter id="filter16_f_40000001_13" x="382.897" y="104.906" width="3.00479" height="6.1622" filterUnits="userSpaceOnUse" color-interpolation-filters="sRGB">
<feFlood flood-opacity="0" result="BackgroundImageFix"/>
<feBlend mode="normal" in="SourceGraphic" in2="BackgroundImageFix" result="shape"/>
<feGaussianBlur stdDeviation="0.531149" result="effect1_foregroundBlur_40000001_13"/>
</filter>
<filter id="filter17_f_40000001_13" x="384.456" y="105.715" width="3.58324" height="4.32138" filterUnits="userSpaceOnUse" color-interpolation-filters="sRGB">
<feFlood flood-opacity="0" result="BackgroundImageFix"/>
<feBlend mode="normal" in="SourceGraphic" in2="BackgroundImageFix" result="shape"/>
<feGaussianBlur stdDeviation="0.531149" result="effect1_foregroundBlur_40000001_13"/>
</filter>
<filter id="filter18_f_40000001_13" x="399.709" y="114.173" width="4.77671" height="6.16073" filterUnits="userSpaceOnUse" color-interpolation-filters="sRGB">
<feFlood flood-opacity="0" result="BackgroundImageFix"/>
<feBlend mode="normal" in="SourceGraphic" in2="BackgroundImageFix" result="shape"/>
<feGaussianBlur stdDeviation="0.531149" result="effect1_foregroundBlur_40000001_13"/>
</filter>
<filter id="filter19_f_40000001_13" x="402.36" y="114.317" width="4.98556" height="5.05575" filterUnits="userSpaceOnUse" color-interpolation-filters="sRGB">
<feFlood flood-opacity="0" result="BackgroundImageFix"/>
<feBlend mode="normal" in="SourceGraphic" in2="BackgroundImageFix" result="shape"/>
<feGaussianBlur stdDeviation="0.531149" result="effect1_foregroundBlur_40000001_13"/>
</filter>
<filter id="filter20_f_40000001_13" x="404.346" y="111.075" width="4.54466" height="6.30819" filterUnits="userSpaceOnUse" color-interpolation-filters="sRGB">
<feFlood flood-opacity="0" result="BackgroundImageFix"/>
<feBlend mode="normal" in="SourceGraphic" in2="BackgroundImageFix" result="shape"/>
<feGaussianBlur stdDeviation="0.531149" result="effect1_foregroundBlur_40000001_13"/>
</filter>
<filter id="filter21_f_40000001_13" x="417.741" y="98.6159" width="6.31081" height="4.17098" filterUnits="userSpaceOnUse" color-interpolation-filters="sRGB">
<feFlood flood-opacity="0" result="BackgroundImageFix"/>
<feBlend mode="normal" in="SourceGraphic" in2="BackgroundImageFix" result="shape"/>
<feGaussianBlur stdDeviation="0.531149" result="effect1_foregroundBlur_40000001_13"/>
</filter>
<filter id="filter22_f_40000001_13" x="420.097" y="97.361" width="5.20574" height="3.95077" filterUnits="userSpaceOnUse" color-interpolation-filters="sRGB">
<feFlood flood-opacity="0" result="BackgroundImageFix"/>
<feBlend mode="normal" in="SourceGraphic" in2="BackgroundImageFix" result="shape"/>
<feGaussianBlur stdDeviation="0.531149" result="effect1_foregroundBlur_40000001_13"/>
</filter>
<filter id="filter23_f_40000001_13" x="422.6" y="95.3708" width="4.32154" height="3.58309" filterUnits="userSpaceOnUse" color-interpolation-filters="sRGB">
<feFlood flood-opacity="0" result="BackgroundImageFix"/>
<feBlend mode="normal" in="SourceGraphic" in2="BackgroundImageFix" result="shape"/>
<feGaussianBlur stdDeviation="0.531149" result="effect1_foregroundBlur_40000001_13"/>
</filter>
<filter id="filter24_f_40000001_13" x="424.233" y="110.248" width="3.51226" height="4.77352" filterUnits="userSpaceOnUse" color-interpolation-filters="sRGB">
<feFlood flood-opacity="0" result="BackgroundImageFix"/>
<feBlend mode="normal" in="SourceGraphic" in2="BackgroundImageFix" result="shape"/>
<feGaussianBlur stdDeviation="0.531149" result="effect1_foregroundBlur_40000001_13"/>
</filter>
<filter id="filter25_f_40000001_13" x="424.892" y="105.975" width="5.79798" height="7.70663" filterUnits="userSpaceOnUse" color-interpolation-filters="sRGB">
<feFlood flood-opacity="0" result="BackgroundImageFix"/>
<feBlend mode="normal" in="SourceGraphic" in2="BackgroundImageFix" result="shape"/>
<feGaussianBlur stdDeviation="0.531149" result="effect1_foregroundBlur_40000001_13"/>
</filter>
<filter id="filter26_f_40000001_13" x="425.41" y="108.184" width="4.17561" height="5.27743" filterUnits="userSpaceOnUse" color-interpolation-filters="sRGB">
<feFlood flood-opacity="0" result="BackgroundImageFix"/>
<feBlend mode="normal" in="SourceGraphic" in2="BackgroundImageFix" result="shape"/>
<feGaussianBlur stdDeviation="0.531149" result="effect1_foregroundBlur_40000001_13"/>
</filter>
<linearGradient id="paint0_linear_40000001_13" x1="468.855" y1="89.8862" x2="468.855" y2="349.652" gradientUnits="userSpaceOnUse">
<stop stop-color="#949494"/>
<stop offset="1" stop-color="#2E2E2E"/>
</linearGradient>
<linearGradient id="paint1_linear_40000001_13" x1="386.667" y1="124.38" x2="462.468" y2="259.798" gradientUnits="userSpaceOnUse">
<stop stop-color="#D9D9D9"/>
<stop offset="1" stop-color="#A6A6A6"/>
</linearGradient>
<linearGradient id="paint2_linear_40000001_13" x1="597.09" y1="59.2327" x2="162.728" y2="416.943" gradientUnits="userSpaceOnUse">
<stop stop-color="#420505"/>
<stop offset="1" stop-color="#0068BF"/>
</linearGradient>
<linearGradient id="paint3_linear_40000001_13" x1="402.289" y1="57.7338" x2="403.029" y2="135.274" gradientUnits="userSpaceOnUse">
<stop stop-color="#D1A278"/>
<stop offset="1" stop-color="#C98B66"/>
</linearGradient>
</defs>
</svg>
