<svg width="744" height="964" viewBox="0 0 744 964" fill="none" xmlns="http://www.w3.org/2000/svg">
<path d="M544.808 536.231C559.827 538.848 684.7 638.58 663.021 793.721C645.678 917.833 839.777 916.779 938.995 900.738" stroke="#6D6D6D" stroke-width="22.424" stroke-dasharray="5.98 5.98"/>
<rect x="399.377" y="450.471" width="171.881" height="171.881" transform="rotate(-25.8418 399.377 450.471)" fill="#CFCFCF"/>
<path d="M433.545 323.858L554.55 376.36L399.714 451.349L433.545 323.858Z" fill="#CFCFCF"/>
<circle cx="410.416" cy="277.945" r="91.5627" transform="rotate(-25.8418 410.416 277.945)" fill="#6BA7DB"/>
<rect x="320.801" y="205.926" width="98.5236" height="26.7727" transform="rotate(-25.8418 320.801 205.926)" fill="#CFCFCF"/>
<rect x="453.178" y="589.81" width="198.654" height="26.7727" transform="rotate(-25.8418 453.178 589.81)" fill="#CFCFCF"/>
<rect x="332.509" y="207.99" width="39.6236" height="10.7091" transform="rotate(-25.8418 332.509 207.99)" fill="#707070"/>
<path d="M387.145 205.327C419.28 231.818 478.227 297.723 456.931 349.418" stroke="black" stroke-width="2.98987"/>
<path d="M362.567 217.23C363.428 258.868 378.59 345.979 432.353 361.321" stroke="black" stroke-width="2.98987"/>
<rect x="377.809" y="186.051" width="19.8118" height="10.7091" transform="rotate(-25.8418 377.809 186.051)" fill="#707070"/>
<rect x="324.807" y="192.087" width="19.8118" height="10.7091" transform="rotate(-25.8418 324.807 192.087)" fill="#707070"/>
<rect x="352.276" y="178.784" width="19.8118" height="10.7091" transform="rotate(-25.8418 352.276 178.784)" fill="#707070"/>
<rect x="400.156" y="369.775" width="98.5236" height="26.7727" transform="rotate(-25.8418 400.156 369.775)" fill="#CFCFCF"/>
<rect x="411.865" y="371.84" width="39.6236" height="10.7091" transform="rotate(-25.8418 411.865 371.84)" fill="#E29E9B"/>
<rect width="22.4891" height="10.7091" transform="matrix(-0.900001 0.435889 0.435889 0.900001 495.196 353.493)" fill="#E49087"/>
<rect x="457.164" y="349.899" width="19.8118" height="10.7091" transform="rotate(-25.8418 457.164 349.899)" fill="#9FD5C8"/>
<rect width="19.8118" height="10.7091" transform="matrix(-0.900001 0.435889 0.435889 0.900001 466.033 368.212)" fill="#6FA6D4"/>
<rect width="19.8118" height="10.7091" transform="matrix(-0.900001 0.435889 0.435889 0.900001 438.331 381.034)" fill="#6FA6D4"/>
<path d="M400.808 450.968L554.055 376.748M413.294 410.414L451.846 391.742L474.021 399.446L534.26 370.271" stroke="black" stroke-width="2.98987"/>
<path d="M417.176 482.308L522.232 431.427M570.423 408.087L522.232 431.427M522.232 431.427L534.369 456.486L525.671 481.522L503.021 492.492M503.021 492.492L477.985 483.794L429.313 507.367M503.021 492.492L494.323 517.527L469.987 529.314M445.65 541.101L469.987 529.314M469.987 529.314L485.724 534.781L604.032 477.482" stroke="black" stroke-width="2.98987"/>
<rect x="413.47" y="510.28" width="9.10273" height="9.10273" transform="rotate(-25.8418 413.47 510.28)" fill="#D9D9D9"/>
<rect x="587.921" y="425.79" width="9.10273" height="9.10273" transform="rotate(-25.8418 587.921 425.79)" fill="#D9D9D9"/>
<rect x="397.439" y="514.89" width="75.8225" height="46.908" transform="rotate(64.1582 397.439 514.89)" fill="#4141B2" stroke="black" stroke-width="0.747468"/>
<rect x="311.659" y="556.435" width="75.8225" height="46.908" transform="rotate(64.1582 311.659 556.435)" fill="#4141B2" stroke="black" stroke-width="0.747468"/>
<rect x="775.738" y="331.671" width="75.8225" height="46.908" transform="rotate(64.1582 775.738 331.671)" fill="#4141B2" stroke="black" stroke-width="0.747468"/>
<rect x="225.879" y="597.98" width="75.8225" height="46.908" transform="rotate(64.1582 225.879 597.98)" fill="#4141B2" stroke="black" stroke-width="0.747468"/>
<rect x="689.958" y="373.217" width="75.8225" height="46.908" transform="rotate(64.1582 689.958 373.217)" fill="#4141B2" stroke="black" stroke-width="0.747468"/>
<rect x="354.549" y="535.662" width="75.8225" height="46.908" transform="rotate(64.1582 354.549 535.662)" fill="#4141B2" stroke="black" stroke-width="0.747468"/>
<rect x="268.769" y="577.207" width="75.8225" height="46.908" transform="rotate(64.1582 268.769 577.207)" fill="#4141B2" stroke="black" stroke-width="0.747468"/>
<rect x="732.848" y="352.445" width="75.8225" height="46.908" transform="rotate(64.1582 732.848 352.445)" fill="#4141B2" stroke="black" stroke-width="0.747468"/>
<rect x="182.989" y="618.752" width="75.8225" height="46.908" transform="rotate(64.1582 182.989 618.752)" fill="#4141B2" stroke="black" stroke-width="0.747468"/>
<rect x="647.068" y="393.99" width="75.8225" height="46.908" transform="rotate(64.1582 647.068 393.99)" fill="#4141B2" stroke="black" stroke-width="0.747468"/>
<rect x="364.063" y="445.977" width="75.8225" height="46.908" transform="rotate(64.1582 364.063 445.977)" fill="#4141B2" stroke="black" stroke-width="0.747468"/>
<rect x="278.283" y="487.522" width="75.8225" height="46.908" transform="rotate(64.1582 278.283 487.522)" fill="#4141B2" stroke="black" stroke-width="0.747468"/>
<rect x="742.362" y="262.759" width="75.8225" height="46.908" transform="rotate(64.1582 742.362 262.759)" fill="#4141B2" stroke="black" stroke-width="0.747468"/>
<rect x="192.503" y="529.067" width="75.8225" height="46.908" transform="rotate(64.1582 192.503 529.067)" fill="#4141B2" stroke="black" stroke-width="0.747468"/>
<rect x="656.582" y="304.303" width="75.8225" height="46.908" transform="rotate(64.1582 656.582 304.303)" fill="#4141B2" stroke="black" stroke-width="0.747468"/>
<rect x="321.173" y="466.749" width="75.8225" height="46.908" transform="rotate(64.1582 321.173 466.749)" fill="#4141B2" stroke="black" stroke-width="0.747468"/>
<rect x="785.252" y="241.987" width="75.8225" height="46.908" transform="rotate(64.1582 785.252 241.987)" fill="#4141B2" stroke="black" stroke-width="0.747468"/>
<rect x="235.393" y="508.294" width="75.8225" height="46.908" transform="rotate(64.1582 235.393 508.294)" fill="#4141B2" stroke="black" stroke-width="0.747468"/>
<rect x="699.472" y="283.531" width="75.8225" height="46.908" transform="rotate(64.1582 699.472 283.531)" fill="#4141B2" stroke="black" stroke-width="0.747468"/>
<rect x="149.613" y="549.839" width="75.8225" height="46.908" transform="rotate(64.1582 149.613 549.839)" fill="#4141B2" stroke="black" stroke-width="0.747468"/>
<rect x="613.692" y="325.076" width="75.8225" height="46.908" transform="rotate(64.1582 613.692 325.076)" fill="#4141B2" stroke="black" stroke-width="0.747468"/>
<circle cx="502.417" cy="455.005" r="71.7958" transform="rotate(-25.8418 502.417 455.005)" fill="#6BA7DB" stroke="black" stroke-width="5.97974"/>
</svg>
