<svg width="2488" height="570" viewBox="0 0 2488 570" fill="none" xmlns="http://www.w3.org/2000/svg">
<g filter="url(#filter0_f_349_44)">
<ellipse cx="127.579" cy="6.36356" rx="127.579" ry="6.36356" transform="matrix(0.985061 0.172205 -0.471691 0.881764 1676.89 207.074)" fill="white"/>
<path d="M2454.44 348.371L1864.97 251.266L1865.39 240.714L2454.44 348.371Z" fill="white"/>
</g>
<g filter="url(#filter1_f_349_44)">
<ellipse cx="130.674" cy="6.36356" rx="130.674" ry="6.36356" transform="matrix(0.985061 0.172205 -0.471691 0.881764 992.083 28.1088)" fill="#BAB8FF"/>
<path d="M1788.56 172.712L1184.86 73.1204L1185.16 62.5476L1788.56 172.712Z" fill="#BAB8FF"/>
</g>
<g filter="url(#filter2_f_349_44)">
<path d="M203.925 312.426C203.925 312.426 152.299 323.429 203.919 312.28C255.54 301.131 649.189 416.242 731.175 440.782C525.43 398.439 410.097 437.089 204.328 323.001L204.327 322.988C174.773 330.134 147.918 330.875 143.204 309.606C81.1185 295.026 31.7886 280.694 33.0227 277.595C34.2567 274.496 85.5873 283.804 147.673 298.384C160.356 285.124 181.242 293.765 203.925 312.426Z" fill="#BAB8FF"/>
<ellipse cx="98.4274" cy="6.03968" rx="98.4274" ry="6.03968" transform="matrix(0.973515 0.228622 -0.369957 0.929049 571.765 392.739)" fill="#BAB8FF"/>
<path d="M1164.66 537.342L715.268 437.751L715.491 427.178L1164.66 537.342Z" fill="#BAB8FF"/>
</g>
<g filter="url(#filter3_f_349_44)">
<ellipse cx="97.8798" cy="6.36356" rx="97.8798" ry="6.36356" transform="matrix(0.985061 0.172205 -0.471691 0.881764 1527.06 45.7545)" fill="#FFF7E2"/>
<path d="M2123 155.301L1670.07 82.0671L1671.6 71.7092L2123 155.301Z" fill="#FFF7E2"/>
</g>
<defs>
<filter id="filter0_f_349_44" x="1641.26" y="179.375" width="845.787" height="201.596" filterUnits="userSpaceOnUse" color-interpolation-filters="sRGB">
<feFlood flood-opacity="0" result="BackgroundImageFix"/>
<feBlend mode="normal" in="SourceGraphic" in2="BackgroundImageFix" result="shape"/>
<feGaussianBlur stdDeviation="16.3" result="effect1_foregroundBlur_349_44"/>
</filter>
<filter id="filter1_f_349_44" x="956.446" y="0.425392" width="864.711" height="204.887" filterUnits="userSpaceOnUse" color-interpolation-filters="sRGB">
<feFlood flood-opacity="0" result="BackgroundImageFix"/>
<feBlend mode="normal" in="SourceGraphic" in2="BackgroundImageFix" result="shape"/>
<feGaussianBlur stdDeviation="16.3" result="effect1_foregroundBlur_349_44"/>
</filter>
<filter id="filter2_f_349_44" x="0.400002" y="244.4" width="1196.86" height="325.542" filterUnits="userSpaceOnUse" color-interpolation-filters="sRGB">
<feFlood flood-opacity="0" result="BackgroundImageFix"/>
<feBlend mode="normal" in="SourceGraphic" in2="BackgroundImageFix" result="shape"/>
<feGaussianBlur stdDeviation="16.3" result="effect1_foregroundBlur_349_44"/>
</filter>
<filter id="filter3_f_349_44" x="1491.42" y="17.8514" width="664.18" height="170.05" filterUnits="userSpaceOnUse" color-interpolation-filters="sRGB">
<feFlood flood-opacity="0" result="BackgroundImageFix"/>
<feBlend mode="normal" in="SourceGraphic" in2="BackgroundImageFix" result="shape"/>
<feGaussianBlur stdDeviation="16.3" result="effect1_foregroundBlur_349_44"/>
</filter>
</defs>
</svg>
