<svg width="1650" height="1323" viewBox="0 0 1650 1323" fill="none" xmlns="http://www.w3.org/2000/svg">
<g filter="url(#filter0_f_40000003_12)">
<path d="M1176.01 1229.21C1176.08 1228.97 1176.21 1228.75 1176.4 1228.59C1176.59 1228.43 1176.83 1228.33 1177.08 1228.3C1177.32 1228.28 1177.57 1228.33 1177.79 1228.46C1178.01 1228.58 1178.18 1228.77 1178.29 1228.99L1179.76 1232.04C1180.91 1234.43 1182.57 1236.55 1184.62 1238.23C1186.67 1239.92 1189.06 1241.13 1191.63 1241.8L1194.91 1242.65C1195.15 1242.71 1195.37 1242.85 1195.53 1243.04C1195.69 1243.23 1195.79 1243.46 1195.82 1243.71C1195.84 1243.96 1195.79 1244.21 1195.66 1244.43C1195.54 1244.64 1195.35 1244.82 1195.13 1244.93L1192.08 1246.39C1189.69 1247.54 1187.58 1249.2 1185.89 1251.25C1184.2 1253.3 1182.99 1255.69 1182.32 1258.26L1181.47 1261.54C1181.41 1261.78 1181.27 1262 1181.08 1262.16C1180.89 1262.32 1180.66 1262.42 1180.41 1262.45C1180.16 1262.47 1179.91 1262.42 1179.69 1262.3C1179.48 1262.17 1179.3 1261.99 1179.19 1261.76L1177.73 1258.71C1176.58 1256.32 1174.92 1254.21 1172.87 1252.52C1170.82 1250.84 1168.42 1249.62 1165.85 1248.95L1162.58 1248.1C1162.33 1248.04 1162.12 1247.91 1161.95 1247.72C1161.79 1247.53 1161.69 1247.29 1161.67 1247.04C1161.64 1246.79 1161.7 1246.54 1161.82 1246.33C1161.94 1246.11 1162.13 1245.93 1162.35 1245.83L1165.41 1244.36C1167.8 1243.21 1169.91 1241.55 1171.6 1239.5C1173.28 1237.45 1174.5 1235.06 1175.17 1232.49L1176.01 1229.21Z" fill="#5D58FF" fill-opacity="0.8"/>
</g>
<g filter="url(#filter1_f_40000003_12)">
<path d="M146.38 168.862C146.446 168.621 146.436 168.365 146.351 168.13C146.267 167.895 146.112 167.691 145.908 167.547C145.704 167.403 145.46 167.325 145.21 167.325C144.96 167.324 144.716 167.4 144.511 167.542L141.726 169.467C139.543 170.976 137.057 171.991 134.441 172.441C131.825 172.891 129.142 172.766 126.58 172.074L123.313 171.193C123.072 171.127 122.817 171.137 122.581 171.221C122.346 171.306 122.143 171.461 121.998 171.665C121.854 171.869 121.776 172.112 121.775 172.362C121.775 172.612 121.851 172.856 121.993 173.061L123.917 175.843C125.427 178.025 126.442 180.509 126.893 183.124C127.343 185.738 127.218 188.419 126.526 190.98L125.644 194.245C125.578 194.486 125.588 194.741 125.672 194.977C125.757 195.212 125.912 195.415 126.116 195.559C126.32 195.703 126.564 195.781 126.814 195.782C127.064 195.783 127.308 195.707 127.513 195.564L130.296 193.641C132.48 192.133 134.966 191.118 137.582 190.668C140.198 190.217 142.88 190.342 145.443 191.034L148.711 191.917C148.952 191.983 149.208 191.973 149.443 191.889C149.678 191.804 149.882 191.65 150.026 191.445C150.17 191.241 150.248 190.998 150.249 190.748C150.25 190.498 150.174 190.254 150.031 190.049L148.105 187.266C146.596 185.084 145.58 182.599 145.13 179.985C144.679 177.37 144.804 174.689 145.497 172.128L146.38 168.862Z" fill="#5D58FF" fill-opacity="0.8"/>
</g>
<g filter="url(#filter2_f_40000003_12)">
<path d="M1636.28 532.454C1636.34 532.213 1636.33 531.957 1636.25 531.722C1636.16 531.487 1636.01 531.283 1635.8 531.139C1635.6 530.995 1635.36 530.917 1635.11 530.916C1634.86 530.915 1634.61 530.992 1634.41 531.134L1631.62 533.06C1629.44 534.569 1626.95 535.584 1624.34 536.035C1621.72 536.485 1619.04 536.36 1616.48 535.668L1613.21 534.786C1612.97 534.72 1612.71 534.73 1612.48 534.815C1612.24 534.899 1612.04 535.054 1611.9 535.258C1611.75 535.462 1611.67 535.706 1611.67 535.956C1611.67 536.206 1611.75 536.45 1611.89 536.655L1613.81 539.438C1615.32 541.621 1616.34 544.106 1616.79 546.722C1617.24 549.337 1617.12 552.019 1616.42 554.581L1615.54 557.847C1615.47 558.088 1615.48 558.344 1615.57 558.579C1615.65 558.814 1615.81 559.018 1616.01 559.162C1616.22 559.306 1616.46 559.384 1616.71 559.385C1616.96 559.386 1617.2 559.31 1617.41 559.167L1620.19 557.243C1622.38 555.734 1624.86 554.719 1627.48 554.268C1630.09 553.818 1632.78 553.943 1635.34 554.635L1638.61 555.519C1638.85 555.584 1639.1 555.574 1639.34 555.49C1639.58 555.406 1639.78 555.251 1639.92 555.047C1640.07 554.842 1640.15 554.599 1640.15 554.349C1640.15 554.099 1640.07 553.855 1639.93 553.65L1638 550.865C1636.49 548.683 1635.48 546.197 1635.03 543.581C1634.58 540.966 1634.7 538.284 1635.39 535.722L1636.28 532.454Z" fill="#5D58FF" fill-opacity="0.8"/>
</g>
<g filter="url(#filter3_f_40000003_12)">
<path d="M1158.1 62.0632C1158.27 61.8832 1158.38 61.6542 1158.42 61.4073C1158.46 61.1603 1158.42 60.9075 1158.31 60.683C1158.2 60.4586 1158.03 60.2735 1157.81 60.1529C1157.59 60.0323 1157.34 59.982 1157.09 60.0089L1153.72 60.3638C1151.08 60.6417 1148.41 60.3408 1145.9 59.4821C1143.39 58.6234 1141.1 57.2275 1139.18 55.3917L1136.74 53.0519C1136.56 52.8785 1136.33 52.7647 1136.08 52.726C1135.83 52.6873 1135.58 52.7256 1135.36 52.8357C1135.13 52.9457 1134.95 53.1222 1134.83 53.3411C1134.7 53.56 1134.65 53.8107 1134.68 54.0592L1135.04 57.4235C1135.31 60.0628 1135.01 62.731 1134.15 65.2421C1133.29 67.7532 1131.9 70.0468 1130.06 71.9633L1127.72 74.4065C1127.55 74.5865 1127.43 74.8155 1127.4 75.0625C1127.36 75.3094 1127.4 75.5622 1127.51 75.7867C1127.62 76.0111 1127.79 76.1962 1128.01 76.3168C1128.23 76.4374 1128.48 76.4877 1128.73 76.4608L1132.09 76.107C1134.73 75.8291 1137.4 76.13 1139.91 76.9887C1142.43 77.8474 1144.72 79.2433 1146.64 81.0791L1149.08 83.4211C1149.26 83.5945 1149.49 83.7082 1149.74 83.7469C1149.98 83.7856 1150.24 83.7474 1150.46 83.6373C1150.69 83.5273 1150.87 83.3508 1150.99 83.1319C1151.11 82.913 1151.16 82.6622 1151.14 82.4137L1150.78 79.0472C1150.5 76.408 1150.8 73.7398 1151.66 71.2287C1152.52 68.7176 1153.92 66.4239 1155.75 64.5075L1158.1 62.0632Z" fill="#5D58FF" fill-opacity="0.8"/>
</g>
<g filter="url(#filter4_f_40000003_12)">
<path d="M1518.61 109.058C1518.55 108.816 1518.41 108.6 1518.22 108.437C1518.03 108.275 1517.8 108.175 1517.55 108.151C1517.3 108.127 1517.05 108.181 1516.83 108.304C1516.61 108.427 1516.44 108.614 1516.33 108.84L1514.87 111.893C1513.72 114.287 1512.07 116.402 1510.02 118.09C1507.97 119.779 1505.58 121.001 1503.01 121.672L1499.74 122.527C1499.5 122.589 1499.28 122.725 1499.12 122.915C1498.96 123.105 1498.86 123.34 1498.83 123.589C1498.81 123.838 1498.86 124.088 1498.99 124.305C1499.11 124.523 1499.3 124.697 1499.52 124.804L1502.57 126.266C1504.97 127.412 1507.08 129.066 1508.77 131.114C1510.46 133.161 1511.68 135.551 1512.35 138.119L1513.21 141.392C1513.27 141.634 1513.41 141.851 1513.6 142.014C1513.79 142.176 1514.02 142.276 1514.27 142.3C1514.52 142.324 1514.77 142.27 1514.99 142.147C1515.2 142.024 1515.38 141.837 1515.49 141.611L1516.95 138.56C1518.09 136.166 1519.75 134.052 1521.8 132.363C1523.84 130.674 1526.24 129.452 1528.8 128.781L1532.08 127.927C1532.32 127.864 1532.54 127.729 1532.7 127.539C1532.86 127.349 1532.96 127.113 1532.99 126.865C1533.01 126.616 1532.96 126.366 1532.83 126.148C1532.71 125.931 1532.52 125.757 1532.3 125.649L1529.24 124.188C1526.85 123.041 1524.74 121.387 1523.05 119.34C1521.36 117.293 1520.13 114.902 1519.46 112.334L1518.61 109.058Z" fill="#B182D0" fill-opacity="0.8"/>
</g>
<g filter="url(#filter5_f_40000003_12)">
<path d="M1348.41 630.771C1348.35 630.529 1348.22 630.312 1348.03 630.15C1347.84 629.988 1347.6 629.888 1347.35 629.864C1347.1 629.84 1346.85 629.893 1346.64 630.017C1346.42 630.14 1346.24 630.327 1346.14 630.553L1344.68 633.606C1343.53 636 1341.87 638.115 1339.83 639.803C1337.78 641.492 1335.39 642.714 1332.82 643.385L1329.55 644.24C1329.3 644.302 1329.09 644.437 1328.92 644.627C1328.76 644.818 1328.66 645.053 1328.64 645.302C1328.61 645.551 1328.67 645.801 1328.79 646.018C1328.91 646.236 1329.1 646.41 1329.33 646.517L1332.38 647.979C1334.77 649.125 1336.89 650.779 1338.58 652.826C1340.27 654.874 1341.49 657.264 1342.16 659.832L1343.01 663.105C1343.08 663.347 1343.21 663.564 1343.4 663.727C1343.59 663.889 1343.83 663.989 1344.08 664.013C1344.33 664.036 1344.58 663.983 1344.79 663.86C1345.01 663.737 1345.18 663.549 1345.29 663.324L1346.75 660.273C1347.9 657.879 1349.55 655.764 1351.6 654.076C1353.65 652.387 1356.04 651.165 1358.61 650.494L1361.89 649.64C1362.13 649.577 1362.34 649.442 1362.51 649.252C1362.67 649.062 1362.77 648.826 1362.79 648.577C1362.82 648.329 1362.76 648.079 1362.64 647.861C1362.52 647.644 1362.33 647.469 1362.1 647.362L1359.05 645.9C1356.66 644.754 1354.54 643.1 1352.85 641.053C1351.16 639.005 1349.94 636.615 1349.27 634.047L1348.41 630.771Z" fill="#B182D0" fill-opacity="0.8"/>
</g>
<g filter="url(#filter6_f_40000003_12)">
<path d="M696.216 337.345C696.371 337.148 696.461 336.909 696.475 336.66C696.489 336.41 696.426 336.162 696.294 335.95C696.162 335.737 695.968 335.571 695.739 335.472C695.509 335.374 695.254 335.349 695.01 335.4L691.694 336.087C689.095 336.625 686.41 336.59 683.825 335.984C681.241 335.379 678.82 334.217 676.731 332.58L674.067 330.494C673.871 330.34 673.632 330.249 673.382 330.235C673.132 330.221 672.885 330.284 672.672 330.416C672.46 330.548 672.293 330.742 672.195 330.971C672.096 331.201 672.071 331.456 672.122 331.7L672.808 335.013C673.346 337.612 673.311 340.296 672.706 342.88C672.1 345.464 670.938 347.885 669.301 349.974L667.214 352.637C667.06 352.833 666.969 353.072 666.955 353.322C666.941 353.571 667.004 353.819 667.136 354.032C667.268 354.244 667.462 354.411 667.691 354.509C667.921 354.607 668.176 354.633 668.42 354.581L671.734 353.896C674.333 353.358 677.018 353.393 679.603 353.998C682.187 354.604 684.608 355.766 686.697 357.402L689.362 359.491C689.558 359.645 689.798 359.736 690.047 359.75C690.297 359.764 690.545 359.701 690.757 359.569C690.97 359.437 691.136 359.243 691.235 359.013C691.333 358.784 691.358 358.529 691.307 358.285L690.62 354.97C690.082 352.371 690.117 349.686 690.722 347.102C691.328 344.519 692.49 342.098 694.127 340.009L696.216 337.345Z" fill="#B182D0" fill-opacity="0.8"/>
</g>
<g filter="url(#filter7_f_40000003_12)">
<path d="M276.277 732.418C276.343 732.177 276.333 731.921 276.248 731.686C276.164 731.451 276.009 731.247 275.805 731.103C275.601 730.959 275.357 730.881 275.107 730.88C274.857 730.879 274.613 730.955 274.408 731.098L271.623 733.024C269.44 734.533 266.954 735.548 264.338 735.999C261.722 736.449 259.039 736.324 256.477 735.632L253.21 734.75C252.969 734.684 252.714 734.694 252.478 734.778C252.243 734.863 252.04 735.018 251.895 735.222C251.751 735.426 251.673 735.67 251.672 735.92C251.672 736.17 251.748 736.414 251.89 736.619L253.814 739.402C255.324 741.585 256.339 744.07 256.79 746.686C257.24 749.301 257.115 751.983 256.423 754.545L255.541 757.811C255.475 758.052 255.485 758.308 255.569 758.543C255.654 758.778 255.809 758.982 256.013 759.126C256.217 759.27 256.461 759.348 256.711 759.349C256.961 759.35 257.205 759.274 257.41 759.131L260.193 757.207C262.377 755.698 264.863 754.683 267.479 754.232C270.094 753.782 272.777 753.907 275.34 754.599L278.608 755.482C278.849 755.548 279.105 755.538 279.34 755.454C279.575 755.369 279.779 755.215 279.923 755.01C280.067 754.806 280.145 754.563 280.146 754.313C280.147 754.063 280.071 753.819 279.928 753.613L278.002 750.829C276.493 748.646 275.477 746.161 275.027 743.545C274.576 740.93 274.701 738.248 275.394 735.686L276.277 732.418Z" fill="#B182D0" fill-opacity="0.8"/>
</g>
<g filter="url(#filter8_f_40000003_12)">
<path d="M72.6329 903.025C72.4878 902.821 72.2836 902.667 72.0479 902.584C71.8123 902.5 71.5566 902.491 71.3158 902.558C71.0749 902.625 70.8605 902.765 70.7017 902.958C70.5428 903.151 70.4473 903.388 70.428 903.637L70.158 907.012C69.946 909.657 69.1596 912.224 67.8537 914.535C66.5478 916.845 64.7538 918.843 62.5966 920.39L59.8471 922.361C59.6435 922.506 59.4896 922.71 59.4061 922.946C59.3227 923.182 59.3138 923.437 59.3808 923.678C59.4477 923.919 59.5872 924.133 59.7802 924.292C59.9733 924.451 60.2105 924.546 60.4598 924.566L63.8324 924.836C66.4783 925.048 69.0461 925.834 71.357 927.14C73.6678 928.446 75.6662 930.239 77.2128 932.396L79.1846 935.145C79.3297 935.349 79.534 935.503 79.7696 935.586C80.0053 935.67 80.2609 935.678 80.5018 935.611C80.7426 935.545 80.9571 935.405 81.1159 935.212C81.2747 935.019 81.3703 934.782 81.3895 934.533L81.6602 931.161C81.8722 928.515 82.6585 925.948 83.9644 923.637C85.2703 921.327 87.0644 919.329 89.2216 917.783L91.9734 915.81C92.177 915.665 92.331 915.461 92.4144 915.226C92.4978 914.99 92.5067 914.734 92.4398 914.494C92.3728 914.253 92.2334 914.038 92.0403 913.88C91.8473 913.721 91.61 913.625 91.3607 913.606L87.9858 913.336C85.3399 913.124 82.7721 912.338 80.4612 911.032C78.1504 909.726 76.152 907.933 74.6053 905.776L72.6329 903.025Z" fill="#5D58FF" fill-opacity="0.8"/>
</g>
<g filter="url(#filter9_f_40000003_12)">
<path d="M928.36 255.175C928.291 254.935 928.149 254.722 927.955 254.565C927.76 254.408 927.522 254.315 927.272 254.299C927.023 254.282 926.774 254.342 926.56 254.472C926.347 254.601 926.178 254.793 926.077 255.022L924.703 258.115C923.625 260.541 922.031 262.702 920.032 264.448C918.034 266.195 915.678 267.485 913.13 268.228L909.882 269.176C909.642 269.245 909.429 269.386 909.272 269.581C909.115 269.776 909.022 270.014 909.005 270.263C908.989 270.513 909.049 270.761 909.179 270.975C909.308 271.189 909.5 271.358 909.729 271.458L912.821 272.832C915.246 273.91 917.408 275.503 919.155 277.502C920.901 279.5 922.191 281.855 922.935 284.403L923.883 287.65C923.952 287.89 924.094 288.103 924.288 288.26C924.483 288.417 924.721 288.51 924.971 288.527C925.22 288.543 925.469 288.483 925.682 288.354C925.896 288.224 926.065 288.032 926.166 287.803L927.54 284.712C928.618 282.287 930.212 280.126 932.21 278.379C934.209 276.633 936.564 275.343 939.112 274.6L942.363 273.652C942.603 273.583 942.816 273.441 942.973 273.247C943.13 273.052 943.223 272.814 943.24 272.565C943.256 272.315 943.196 272.067 943.067 271.853C942.937 271.639 942.745 271.47 942.516 271.369L939.422 269.995C936.996 268.918 934.835 267.324 933.088 265.326C931.341 263.328 930.051 260.973 929.308 258.425L928.36 255.175Z" fill="#5D58FF" fill-opacity="0.8"/>
</g>
<g filter="url(#filter10_f_40000003_12)">
<path d="M1354.67 1147.75C1354.79 1147.53 1354.98 1147.36 1355.21 1147.25C1355.44 1147.15 1355.69 1147.11 1355.94 1147.16C1356.18 1147.2 1356.41 1147.32 1356.58 1147.5C1356.76 1147.68 1356.88 1147.9 1356.92 1148.15L1357.51 1151.48C1357.97 1154.1 1358.99 1156.58 1360.51 1158.76C1362.02 1160.94 1364 1162.76 1366.29 1164.09L1369.21 1165.8C1369.43 1165.92 1369.6 1166.11 1369.7 1166.34C1369.81 1166.57 1369.84 1166.82 1369.8 1167.07C1369.75 1167.31 1369.64 1167.54 1369.46 1167.72C1369.28 1167.89 1369.05 1168.01 1368.81 1168.05L1365.47 1168.64C1362.86 1169.1 1360.38 1170.12 1358.2 1171.64C1356.02 1173.15 1354.2 1175.13 1352.86 1177.42L1351.16 1180.34C1351.03 1180.56 1350.84 1180.73 1350.61 1180.83C1350.39 1180.94 1350.13 1180.97 1349.89 1180.93C1349.64 1180.88 1349.42 1180.76 1349.24 1180.59C1349.06 1180.41 1348.95 1180.18 1348.9 1179.94L1348.32 1176.6C1347.86 1173.99 1346.84 1171.51 1345.32 1169.33C1343.8 1167.15 1341.83 1165.33 1339.54 1163.99L1336.61 1162.29C1336.4 1162.16 1336.22 1161.97 1336.12 1161.75C1336.01 1161.52 1335.98 1161.27 1336.02 1161.02C1336.07 1160.77 1336.19 1160.55 1336.36 1160.37C1336.54 1160.2 1336.77 1160.08 1337.01 1160.04L1340.35 1159.45C1342.96 1158.99 1345.45 1157.97 1347.62 1156.45C1349.8 1154.94 1351.62 1152.96 1352.96 1150.67L1354.67 1147.75Z" fill="#FDFDFD"/>
</g>
<g filter="url(#filter11_f_40000003_12)">
<path d="M818.786 404.605C818.811 404.356 818.912 404.121 819.075 403.932C819.239 403.742 819.456 403.608 819.699 403.546C819.941 403.485 820.196 403.5 820.43 403.589C820.664 403.677 820.864 403.836 821.005 404.043L822.914 406.838C824.411 409.03 826.367 410.869 828.648 412.227C830.928 413.585 833.477 414.43 836.118 414.702L839.483 415.05C839.732 415.075 839.967 415.176 840.156 415.339C840.346 415.502 840.48 415.72 840.542 415.962C840.603 416.204 840.588 416.46 840.5 416.693C840.411 416.927 840.252 417.128 840.045 417.268L837.251 419.176C835.059 420.673 833.22 422.629 831.862 424.909C830.503 427.189 829.659 429.738 829.386 432.378L829.038 435.743C829.013 435.991 828.912 436.226 828.749 436.416C828.586 436.605 828.368 436.74 828.126 436.801C827.884 436.862 827.628 436.848 827.395 436.759C827.161 436.67 826.96 436.511 826.82 436.305L824.912 433.511C823.415 431.32 821.458 429.481 819.177 428.123C816.897 426.764 814.348 425.92 811.708 425.647L808.34 425.3C808.091 425.275 807.856 425.174 807.667 425.011C807.477 424.848 807.343 424.63 807.281 424.388C807.22 424.146 807.235 423.891 807.323 423.657C807.412 423.423 807.571 423.223 807.778 423.082L810.574 421.174C812.766 419.677 814.605 417.721 815.963 415.441C817.322 413.161 818.167 410.612 818.439 407.972L818.786 404.605Z" fill="#FDFDFD"/>
</g>
<g filter="url(#filter12_f_40000003_12)">
<path d="M1515.72 644.495C1515.74 644.247 1515.85 644.012 1516.01 643.822C1516.17 643.633 1516.39 643.498 1516.63 643.437C1516.87 643.376 1517.13 643.39 1517.36 643.479C1517.6 643.568 1517.8 643.726 1517.94 643.933L1519.85 646.729C1521.34 648.921 1523.3 650.76 1525.58 652.118C1527.86 653.476 1530.41 654.321 1533.05 654.593L1536.42 654.941C1536.66 654.966 1536.9 655.067 1537.09 655.23C1537.28 655.393 1537.41 655.61 1537.47 655.853C1537.54 656.095 1537.52 656.35 1537.43 656.584C1537.34 656.818 1537.19 657.018 1536.98 657.159L1534.18 659.067C1531.99 660.563 1530.15 662.52 1528.79 664.8C1527.44 667.08 1526.59 669.629 1526.32 672.268L1525.97 675.633C1525.95 675.882 1525.85 676.117 1525.68 676.306C1525.52 676.496 1525.3 676.63 1525.06 676.692C1524.82 676.753 1524.56 676.738 1524.33 676.649C1524.09 676.561 1523.89 676.402 1523.75 676.195L1521.84 673.402C1520.35 671.21 1518.39 669.371 1516.11 668.013C1513.83 666.655 1511.28 665.81 1508.64 665.538L1505.27 665.191C1505.02 665.166 1504.79 665.065 1504.6 664.902C1504.41 664.739 1504.28 664.521 1504.21 664.279C1504.15 664.037 1504.17 663.781 1504.26 663.548C1504.35 663.314 1504.5 663.113 1504.71 662.973L1507.51 661.064C1509.7 659.568 1511.54 657.611 1512.9 655.331C1514.25 653.051 1515.1 650.502 1515.37 647.863L1515.72 644.495Z" fill="#FDFDFD"/>
</g>
<g filter="url(#filter13_f_40000003_12)">
<path d="M31.4352 9.75402C31.4332 9.50417 31.3544 9.26099 31.2093 9.05752C31.0642 8.85404 30.86 8.70015 30.6243 8.61674C30.3887 8.53334 30.133 8.52447 29.8922 8.59135C29.6513 8.65822 29.4369 8.79759 29.278 8.99053L27.1197 11.5977C25.4274 13.6414 23.3095 15.2918 20.9138 16.4338C18.518 17.5759 15.9019 18.1821 13.2477 18.2104L9.86441 18.2467C9.61443 18.2487 9.37111 18.3275 9.16752 18.4725C8.96393 18.6175 8.80995 18.8216 8.7265 19.0572C8.64304 19.2927 8.63417 19.5482 8.70108 19.7889C8.768 20.0296 8.90745 20.2439 9.10049 20.4027L11.7068 22.559C13.7517 24.2503 15.403 26.367 16.5457 28.7614C17.6884 31.1558 18.295 33.7705 18.3232 36.4232L18.3596 39.8045C18.3616 40.0544 18.4405 40.2976 18.5855 40.501C18.7306 40.7045 18.9349 40.8584 19.1705 40.9418C19.4062 41.0252 19.6618 41.0341 19.9027 40.9672C20.1435 40.9003 20.358 40.761 20.5168 40.568L22.6743 37.9632C24.3666 35.9194 26.4845 34.2691 28.8803 33.127C31.276 31.985 33.8922 31.3787 36.5463 31.3505L39.9319 31.3149C40.1819 31.313 40.4252 31.2341 40.6288 31.0891C40.8324 30.9441 40.9864 30.74 41.0698 30.5045C41.1533 30.269 41.1621 30.0135 41.0952 29.7728C41.0283 29.532 40.8889 29.3177 40.6958 29.159L38.0872 27.0019C36.0423 25.3105 34.391 23.1939 33.2483 20.7994C32.1056 18.405 31.499 15.7903 31.4708 13.1377L31.4352 9.75402Z" fill="#FDFDFD"/>
</g>
<g filter="url(#filter14_f_40000003_12)">
<path d="M428.109 1283.67C427.934 1283.49 427.707 1283.37 427.462 1283.33C427.216 1283.28 426.962 1283.32 426.735 1283.42C426.507 1283.52 426.318 1283.7 426.192 1283.91C426.066 1284.13 426.009 1284.38 426.03 1284.63L426.3 1288C426.511 1290.65 426.143 1293.31 425.221 1295.79C424.299 1298.28 422.846 1300.54 420.962 1302.41L418.561 1304.79C418.383 1304.97 418.264 1305.2 418.219 1305.44C418.174 1305.69 418.206 1305.94 418.31 1306.17C418.414 1306.4 418.586 1306.58 418.802 1306.71C419.018 1306.84 419.267 1306.89 419.516 1306.87L422.889 1306.6C425.535 1306.39 428.195 1306.76 430.684 1307.68C433.174 1308.6 435.432 1310.06 437.302 1311.94L439.686 1314.34C439.861 1314.52 440.087 1314.64 440.333 1314.68C440.579 1314.73 440.833 1314.7 441.06 1314.59C441.287 1314.49 441.477 1314.32 441.603 1314.1C441.729 1313.88 441.786 1313.64 441.765 1313.39L441.496 1310.01C441.285 1307.37 441.653 1304.71 442.575 1302.22C443.496 1299.73 444.95 1297.47 446.834 1295.6L449.237 1293.22C449.415 1293.04 449.534 1292.82 449.579 1292.57C449.624 1292.33 449.592 1292.07 449.488 1291.85C449.384 1291.62 449.212 1291.43 448.996 1291.3C448.78 1291.18 448.531 1291.12 448.282 1291.14L444.907 1291.41C442.261 1291.62 439.6 1291.25 437.111 1290.33C434.622 1289.41 432.364 1287.96 430.494 1286.07L428.109 1283.67Z" fill="#FDFDFD"/>
</g>
<defs>
<filter id="filter0_f_40000003_12" x="1153.66" y="1220.3" width="50.1607" height="50.1548" filterUnits="userSpaceOnUse" color-interpolation-filters="sRGB">
<feFlood flood-opacity="0" result="BackgroundImageFix"/>
<feBlend mode="normal" in="SourceGraphic" in2="BackgroundImageFix" result="shape"/>
<feGaussianBlur stdDeviation="4" result="effect1_foregroundBlur_40000003_12"/>
</filter>
<filter id="filter1_f_40000003_12" x="113.775" y="159.325" width="44.4736" height="44.4575" filterUnits="userSpaceOnUse" color-interpolation-filters="sRGB">
<feFlood flood-opacity="0" result="BackgroundImageFix"/>
<feBlend mode="normal" in="SourceGraphic" in2="BackgroundImageFix" result="shape"/>
<feGaussianBlur stdDeviation="4" result="effect1_foregroundBlur_40000003_12"/>
</filter>
<filter id="filter2_f_40000003_12" x="1603.67" y="522.917" width="44.4736" height="44.4683" filterUnits="userSpaceOnUse" color-interpolation-filters="sRGB">
<feFlood flood-opacity="0" result="BackgroundImageFix"/>
<feBlend mode="normal" in="SourceGraphic" in2="BackgroundImageFix" result="shape"/>
<feGaussianBlur stdDeviation="4" result="effect1_foregroundBlur_40000003_12"/>
</filter>
<filter id="filter3_f_40000003_12" x="1119.38" y="44.7114" width="47.0558" height="47.0503" filterUnits="userSpaceOnUse" color-interpolation-filters="sRGB">
<feFlood flood-opacity="0" result="BackgroundImageFix"/>
<feBlend mode="normal" in="SourceGraphic" in2="BackgroundImageFix" result="shape"/>
<feGaussianBlur stdDeviation="4" result="effect1_foregroundBlur_40000003_12"/>
</filter>
<filter id="filter4_f_40000003_12" x="1490.83" y="100.146" width="50.1659" height="50.1597" filterUnits="userSpaceOnUse" color-interpolation-filters="sRGB">
<feFlood flood-opacity="0" result="BackgroundImageFix"/>
<feBlend mode="normal" in="SourceGraphic" in2="BackgroundImageFix" result="shape"/>
<feGaussianBlur stdDeviation="4" result="effect1_foregroundBlur_40000003_12"/>
</filter>
<filter id="filter5_f_40000003_12" x="1320.63" y="621.858" width="50.1658" height="50.1597" filterUnits="userSpaceOnUse" color-interpolation-filters="sRGB">
<feFlood flood-opacity="0" result="BackgroundImageFix"/>
<feBlend mode="normal" in="SourceGraphic" in2="BackgroundImageFix" result="shape"/>
<feGaussianBlur stdDeviation="4" result="effect1_foregroundBlur_40000003_12"/>
</filter>
<filter id="filter6_f_40000003_12" x="658.953" y="322.233" width="45.5239" height="45.519" filterUnits="userSpaceOnUse" color-interpolation-filters="sRGB">
<feFlood flood-opacity="0" result="BackgroundImageFix"/>
<feBlend mode="normal" in="SourceGraphic" in2="BackgroundImageFix" result="shape"/>
<feGaussianBlur stdDeviation="4" result="effect1_foregroundBlur_40000003_12"/>
</filter>
<filter id="filter7_f_40000003_12" x="243.672" y="722.88" width="44.4736" height="44.4683" filterUnits="userSpaceOnUse" color-interpolation-filters="sRGB">
<feFlood flood-opacity="0" result="BackgroundImageFix"/>
<feBlend mode="normal" in="SourceGraphic" in2="BackgroundImageFix" result="shape"/>
<feGaussianBlur stdDeviation="4" result="effect1_foregroundBlur_40000003_12"/>
</filter>
<filter id="filter8_f_40000003_12" x="51.3363" y="894.514" width="49.1479" height="49.1421" filterUnits="userSpaceOnUse" color-interpolation-filters="sRGB">
<feFlood flood-opacity="0" result="BackgroundImageFix"/>
<feBlend mode="normal" in="SourceGraphic" in2="BackgroundImageFix" result="shape"/>
<feGaussianBlur stdDeviation="4" result="effect1_foregroundBlur_40000003_12"/>
</filter>
<filter id="filter9_f_40000003_12" x="901.003" y="246.296" width="50.2397" height="50.2334" filterUnits="userSpaceOnUse" color-interpolation-filters="sRGB">
<feFlood flood-opacity="0" result="BackgroundImageFix"/>
<feBlend mode="normal" in="SourceGraphic" in2="BackgroundImageFix" result="shape"/>
<feGaussianBlur stdDeviation="4" result="effect1_foregroundBlur_40000003_12"/>
</filter>
<filter id="filter10_f_40000003_12" x="1328" y="1139.14" width="49.8124" height="49.8066" filterUnits="userSpaceOnUse" color-interpolation-filters="sRGB">
<feFlood flood-opacity="0" result="BackgroundImageFix"/>
<feBlend mode="normal" in="SourceGraphic" in2="BackgroundImageFix" result="shape"/>
<feGaussianBlur stdDeviation="4" result="effect1_foregroundBlur_40000003_12"/>
</filter>
<filter id="filter11_f_40000003_12" x="799.244" y="395.509" width="49.335" height="49.3291" filterUnits="userSpaceOnUse" color-interpolation-filters="sRGB">
<feFlood flood-opacity="0" result="BackgroundImageFix"/>
<feBlend mode="normal" in="SourceGraphic" in2="BackgroundImageFix" result="shape"/>
<feGaussianBlur stdDeviation="4" result="effect1_foregroundBlur_40000003_12"/>
</filter>
<filter id="filter12_f_40000003_12" x="1496.18" y="635.4" width="49.3351" height="49.3291" filterUnits="userSpaceOnUse" color-interpolation-filters="sRGB">
<feFlood flood-opacity="0" result="BackgroundImageFix"/>
<feBlend mode="normal" in="SourceGraphic" in2="BackgroundImageFix" result="shape"/>
<feGaussianBlur stdDeviation="4" result="effect1_foregroundBlur_40000003_12"/>
</filter>
<filter id="filter13_f_40000003_12" x="0.656677" y="0.546875" width="48.483" height="48.4648" filterUnits="userSpaceOnUse" color-interpolation-filters="sRGB">
<feFlood flood-opacity="0" result="BackgroundImageFix"/>
<feBlend mode="normal" in="SourceGraphic" in2="BackgroundImageFix" result="shape"/>
<feGaussianBlur stdDeviation="4" result="effect1_foregroundBlur_40000003_12"/>
</filter>
<filter id="filter14_f_40000003_12" x="410.199" y="1275.31" width="47.4002" height="47.3945" filterUnits="userSpaceOnUse" color-interpolation-filters="sRGB">
<feFlood flood-opacity="0" result="BackgroundImageFix"/>
<feBlend mode="normal" in="SourceGraphic" in2="BackgroundImageFix" result="shape"/>
<feGaussianBlur stdDeviation="4" result="effect1_foregroundBlur_40000003_12"/>
</filter>
</defs>
</svg>
