<svg width="241" height="687" viewBox="0 0 241 687" fill="none" xmlns="http://www.w3.org/2000/svg">
<g filter="url(#filter0_df_40000014_203)">
<path fill-rule="evenodd" clip-rule="evenodd" d="M160.338 225.729L168.802 278.329L166.828 278.647L158.363 226.047L160.338 225.729ZM217.355 305.796L244.035 227.878L245.927 228.526L219.247 306.444L217.355 305.796ZM166.232 294.32L132.532 343.405L130.883 342.273L164.583 293.188L166.232 294.32ZM183.825 326.942L171.416 295.179L173.278 294.451L185.688 326.214L183.825 326.942ZM190.656 333.343L208.98 322.171L210.021 323.878L191.697 335.05L190.656 333.343ZM47.3965 348.411L95.4725 328.645L96.2331 330.494L48.157 350.261L47.3965 348.411ZM101.707 329.765L127.158 343.295L126.22 345.061L100.768 331.531L101.707 329.765ZM185.522 346.268L150.902 449.198L149.006 448.561L183.626 345.63L185.522 346.268ZM144.359 447.946L129.614 353.545L131.59 353.237L146.335 447.638L144.359 447.946ZM58.4959 430.144L83.2292 422.888L83.7922 424.807L59.0589 432.063L58.4959 430.144ZM91.6598 461.073L86.848 430.792L88.8232 430.478L93.635 460.759L91.6598 461.073ZM96.9308 467.012L142.403 456.674L142.847 458.624L97.3742 468.962L96.9308 467.012Z" fill="white" fill-opacity="0.25" shape-rendering="crispEdges"/>
</g>
<g filter="url(#filter1_df_40000014_203)">
<path d="M46.5119 352.373C46.1333 353.744 45.3602 354.124 44.7851 353.221C44.21 352.319 44.0507 350.475 44.4293 349.104C44.8078 347.733 45.581 347.353 46.1561 348.256C46.7312 349.158 46.8905 351.002 46.5119 352.373Z" fill="white"/>
</g>
<g filter="url(#filter2_df_40000014_203)">
<path fill-rule="evenodd" clip-rule="evenodd" d="M45.4528 352.396C45.6385 352.305 45.8375 352.026 45.9745 351.529C46.1116 351.033 46.1405 350.487 46.1022 350.044C46.064 349.602 45.9712 349.347 45.8899 349.22C45.8087 349.092 45.6737 348.99 45.4883 349.081C45.3027 349.172 45.1037 349.451 44.9666 349.948C44.8295 350.444 44.8007 350.99 44.8389 351.433C44.8771 351.875 44.97 352.13 45.0512 352.257C45.1325 352.385 45.2674 352.487 45.4528 352.396ZM44.7851 353.221C45.3602 354.124 46.1333 353.744 46.5119 352.373C46.8905 351.002 46.7312 349.158 46.1561 348.256C45.581 347.353 44.8078 347.733 44.4293 349.104C44.0507 350.475 44.21 352.319 44.7851 353.221Z" fill="white" fill-opacity="0.25" shape-rendering="crispEdges"/>
</g>
<g filter="url(#filter3_df_40000014_203)">
<path d="M56.3928 433.967C56.0142 435.338 55.2411 435.717 54.6659 434.815C54.0908 433.912 53.9315 432.069 54.3101 430.698C54.6887 429.327 55.4618 428.947 56.0369 429.85C56.612 430.752 56.7714 432.595 56.3928 433.967Z" fill="white"/>
</g>
<g filter="url(#filter4_df_40000014_203)">
<path fill-rule="evenodd" clip-rule="evenodd" d="M55.3337 433.99C55.5193 433.899 55.7183 433.62 55.8554 433.123C55.9925 432.627 56.0213 432.081 55.9831 431.638C55.9449 431.196 55.852 430.941 55.7708 430.814C55.6895 430.686 55.5546 430.584 55.3692 430.675C55.1835 430.766 54.9845 431.045 54.8475 431.541C54.7104 432.038 54.6815 432.584 54.7198 433.026C54.758 433.468 54.8509 433.723 54.9321 433.851C55.0133 433.978 55.1483 434.081 55.3337 433.99ZM54.6659 434.815C55.2411 435.717 56.0142 435.338 56.3928 433.967C56.7714 432.595 56.612 430.752 56.0369 429.85C55.4618 428.947 54.6887 429.327 54.3101 430.698C53.9315 432.069 54.0908 433.912 54.6659 434.815Z" fill="white" fill-opacity="0.25" shape-rendering="crispEdges"/>
</g>
<g filter="url(#filter5_df_40000014_203)">
<path d="M99.7092 331.145C99.3306 332.516 98.5575 332.895 97.9823 331.993C97.4072 331.09 97.2479 329.247 97.6265 327.876C98.0051 326.505 98.7782 326.125 99.3533 327.028C99.9284 327.93 100.088 329.773 99.7092 331.145Z" fill="white"/>
</g>
<g filter="url(#filter6_df_40000014_203)">
<path fill-rule="evenodd" clip-rule="evenodd" d="M98.6501 331.168C98.8358 331.077 99.0347 330.798 99.1718 330.301C99.3089 329.805 99.3377 329.259 99.2995 328.816C99.2613 328.374 99.1684 328.119 99.0872 327.992C99.0059 327.864 98.871 327.762 98.6856 327.853C98.4999 327.944 98.301 328.223 98.1639 328.719C98.0268 329.216 97.998 329.762 98.0362 330.204C98.0744 330.646 98.1673 330.901 98.2485 331.029C98.3297 331.156 98.4647 331.259 98.6501 331.168ZM97.9823 331.993C98.5575 332.895 99.3306 332.516 99.7092 331.145C100.088 329.773 99.9284 327.93 99.3533 327.028C98.7782 326.125 98.0051 326.505 97.6265 327.876C97.2479 329.247 97.4072 331.09 97.9823 331.993Z" fill="white" fill-opacity="0.25" shape-rendering="crispEdges"/>
</g>
<g filter="url(#filter7_df_40000014_203)">
<path d="M159.699 218.904C159.321 220.275 158.548 220.654 157.973 219.752C157.397 218.849 157.238 217.006 157.617 215.635C157.995 214.264 158.768 213.884 159.344 214.787C159.919 215.689 160.078 217.532 159.699 218.904Z" fill="white"/>
</g>
<g filter="url(#filter8_df_40000014_203)">
<path fill-rule="evenodd" clip-rule="evenodd" d="M158.64 218.927C158.826 218.836 159.025 218.557 159.162 218.06C159.299 217.564 159.328 217.018 159.29 216.575C159.252 216.133 159.159 215.878 159.077 215.751C158.996 215.623 158.861 215.521 158.676 215.612C158.49 215.703 158.291 215.982 158.154 216.478C158.017 216.975 157.988 217.521 158.026 217.963C158.065 218.405 158.158 218.66 158.239 218.788C158.32 218.915 158.455 219.018 158.64 218.927ZM157.973 219.752C158.548 220.654 159.321 220.275 159.699 218.904C160.078 217.532 159.919 215.689 159.344 214.787C158.768 213.884 157.995 214.264 157.617 215.635C157.238 217.006 157.397 218.849 157.973 219.752Z" fill="white" fill-opacity="0.25" shape-rendering="crispEdges"/>
</g>
<g filter="url(#filter9_d_40000014_203)">
<path d="M249.314 223.309C248.936 224.68 248.162 225.06 247.587 224.157C247.012 223.255 246.853 221.412 247.231 220.04C247.61 218.669 248.383 218.29 248.958 219.192C249.533 220.095 249.693 221.938 249.314 223.309Z" fill="white"/>
</g>
<g filter="url(#filter10_d_40000014_203)">
<path fill-rule="evenodd" clip-rule="evenodd" d="M248.255 223.332C248.441 223.241 248.64 222.962 248.777 222.466C248.914 221.969 248.943 221.423 248.904 220.981C248.866 220.539 248.773 220.284 248.692 220.156C248.611 220.029 248.476 219.926 248.291 220.017C248.105 220.108 247.906 220.387 247.769 220.884C247.632 221.38 247.603 221.926 247.641 222.369C247.679 222.811 247.772 223.066 247.853 223.193C247.935 223.321 248.07 223.424 248.255 223.332ZM247.587 224.157C248.162 225.06 248.936 224.68 249.314 223.309C249.693 221.938 249.533 220.095 248.958 219.192C248.383 218.29 247.61 218.669 247.231 220.04C246.853 221.412 247.012 223.255 247.587 224.157Z" fill="white" fill-opacity="0.25" shape-rendering="crispEdges"/>
</g>
<g filter="url(#filter11_df_40000014_203)">
<path d="M130.671 347.203C130.293 348.574 129.586 349.058 129.093 348.285C128.6 347.511 128.508 345.772 128.886 344.401C129.265 343.03 129.971 342.546 130.464 343.319C130.957 344.093 131.05 345.832 130.671 347.203Z" fill="white"/>
</g>
<g filter="url(#filter12_df_40000014_203)">
<path fill-rule="evenodd" clip-rule="evenodd" d="M129.618 347.317C129.791 347.198 129.988 346.887 130.134 346.359C130.28 345.831 130.322 345.276 130.299 344.851C130.275 344.41 130.201 344.287 130.198 344.283C130.196 344.279 130.119 344.164 129.94 344.287C129.767 344.405 129.569 344.716 129.424 345.244C129.278 345.773 129.236 346.328 129.259 346.753C129.282 347.194 129.357 347.317 129.36 347.321C129.362 347.324 129.439 347.439 129.618 347.317ZM129.093 348.285C129.586 349.058 130.293 348.574 130.671 347.203C131.05 345.832 130.957 344.093 130.464 343.319C129.971 342.546 129.265 343.03 128.886 344.401C128.508 345.772 128.6 347.511 129.093 348.285Z" fill="white" fill-opacity="0.25" shape-rendering="crispEdges"/>
</g>
<g filter="url(#filter13_df_40000014_203)">
<path d="M87.6901 425.642C87.1493 427.6 86.1114 428.248 85.372 427.087C84.6326 425.927 84.4716 423.398 85.0124 421.439C85.5533 419.48 86.5911 418.833 87.3305 419.994C88.07 421.154 88.231 423.683 87.6901 425.642Z" fill="white"/>
</g>
<g filter="url(#filter14_df_40000014_203)">
<path fill-rule="evenodd" clip-rule="evenodd" d="M86.3098 426.295C86.6119 426.107 86.9284 425.611 87.1528 424.798C87.3771 423.986 87.4431 423.096 87.3963 422.361C87.3489 421.616 87.2024 421.174 87.0644 420.958C86.9263 420.741 86.6983 420.595 86.3927 420.786C86.0907 420.974 85.7741 421.47 85.5498 422.283C85.3254 423.095 85.2594 423.984 85.3063 424.72C85.3537 425.465 85.5001 425.906 85.6381 426.123C85.7762 426.34 86.0042 426.486 86.3098 426.295ZM85.372 427.087C86.1114 428.248 87.1493 427.6 87.6901 425.642C88.231 423.683 88.07 421.154 87.3305 419.994C86.5911 418.833 85.5533 419.48 85.0124 421.439C84.4716 423.398 84.6326 425.927 85.372 427.087Z" fill="white" fill-opacity="0.25" shape-rendering="crispEdges"/>
</g>
<g filter="url(#filter15_df_40000014_203)">
<path d="M215.462 318.111C214.921 320.07 213.883 320.717 213.143 319.557C212.404 318.396 212.243 315.868 212.784 313.909C213.325 311.95 214.363 311.303 215.102 312.464C215.841 313.624 216.002 316.153 215.462 318.111Z" fill="white"/>
</g>
<g filter="url(#filter16_df_40000014_203)">
<path fill-rule="evenodd" clip-rule="evenodd" d="M214.081 318.765C214.383 318.577 214.7 318.081 214.924 317.268C215.149 316.455 215.215 315.566 215.168 314.83C215.12 314.086 214.974 313.644 214.836 313.427C214.698 313.211 214.47 313.065 214.164 313.255C213.862 313.444 213.546 313.94 213.321 314.752C213.097 315.565 213.031 316.454 213.078 317.19C213.125 317.935 213.272 318.376 213.41 318.593C213.548 318.81 213.776 318.956 214.081 318.765ZM213.143 319.557C213.883 320.717 214.921 320.07 215.462 318.111C216.002 316.153 215.841 313.624 215.102 312.464C214.363 311.303 213.325 311.95 212.784 313.909C212.243 315.868 212.404 318.396 213.143 319.557Z" fill="white" fill-opacity="0.25" shape-rendering="crispEdges"/>
</g>
<g filter="url(#filter17_df_40000014_203)">
<path d="M94.7175 471.238C94.1766 473.197 93.1388 473.844 92.3993 472.683C91.6599 471.523 91.4989 468.994 92.0398 467.035C92.5806 465.077 93.6185 464.43 94.3579 465.59C95.0973 466.75 95.2583 469.279 94.7175 471.238Z" fill="white"/>
</g>
<g filter="url(#filter18_df_40000014_203)">
<path fill-rule="evenodd" clip-rule="evenodd" d="M93.3372 471.891C93.6392 471.703 93.9557 471.207 94.1801 470.395C94.4045 469.582 94.4704 468.693 94.4236 467.957C94.3762 467.212 94.2298 466.771 94.0917 466.554C93.9537 466.337 93.7257 466.191 93.4201 466.382C93.118 466.57 92.8015 467.066 92.5771 467.879C92.3528 468.691 92.2868 469.581 92.3336 470.316C92.381 471.061 92.5274 471.503 92.6655 471.719C92.8035 471.936 93.0316 472.082 93.3372 471.891ZM92.3993 472.683C93.1388 473.844 94.1766 473.197 94.7175 471.238C95.2583 469.279 95.0973 466.75 94.3579 465.59C93.6185 464.43 92.5806 465.077 92.0398 467.035C91.4989 468.994 91.6599 471.523 92.3993 472.683Z" fill="white" fill-opacity="0.25" shape-rendering="crispEdges"/>
</g>
<g filter="url(#filter19_df_40000014_203)">
<path d="M149.223 460.703C148.52 463.25 147.151 464.059 146.165 462.512C145.179 460.965 144.95 457.646 145.653 455.1C146.356 452.553 147.725 451.744 148.711 453.291C149.697 454.838 149.926 458.157 149.223 460.703Z" fill="white"/>
</g>
<g filter="url(#filter20_df_40000014_203)">
<path fill-rule="evenodd" clip-rule="evenodd" d="M147.51 461.9C147.944 461.644 148.382 460.961 148.686 459.86C148.99 458.759 149.08 457.531 149.007 456.48C148.934 455.423 148.712 454.675 148.445 454.255C148.177 453.835 147.801 453.645 147.365 453.903C146.932 454.159 146.494 454.842 146.19 455.943C145.886 457.044 145.796 458.272 145.869 459.323C145.942 460.38 146.163 461.128 146.431 461.548C146.699 461.968 147.074 462.158 147.51 461.9ZM146.165 462.512C147.151 464.059 148.52 463.25 149.223 460.703C149.926 458.157 149.697 454.838 148.711 453.291C147.725 451.744 146.356 452.553 145.653 455.1C144.95 457.646 145.179 460.965 146.165 462.512Z" fill="white" fill-opacity="0.25" shape-rendering="crispEdges"/>
</g>
<g filter="url(#filter21_df_40000014_203)">
<path d="M188.54 338.388C187.837 340.934 186.468 341.744 185.482 340.197C184.496 338.649 184.267 335.331 184.97 332.784C185.673 330.238 187.042 329.428 188.028 330.975C189.014 332.523 189.243 335.841 188.54 338.388Z" fill="white"/>
</g>
<g filter="url(#filter22_df_40000014_203)">
<path fill-rule="evenodd" clip-rule="evenodd" d="M186.828 339.585C187.261 339.328 187.699 338.646 188.003 337.544C188.307 336.443 188.397 335.215 188.325 334.164C188.252 333.107 188.03 332.359 187.762 331.939C187.495 331.519 187.119 331.329 186.683 331.587C186.249 331.844 185.812 332.527 185.507 333.628C185.203 334.729 185.113 335.957 185.186 337.008C185.259 338.065 185.481 338.813 185.748 339.233C186.016 339.653 186.392 339.843 186.828 339.585ZM185.482 340.197C186.468 341.744 187.837 340.934 188.54 338.388C189.243 335.841 189.014 332.523 188.028 330.975C187.042 329.428 185.673 330.238 184.97 332.784C184.267 335.331 184.496 338.649 185.482 340.197Z" fill="white" fill-opacity="0.25" shape-rendering="crispEdges"/>
</g>
<g filter="url(#filter23_df_40000014_203)">
<path d="M171.036 290.581C170.333 293.127 168.964 293.937 167.978 292.39C166.992 290.843 166.763 287.524 167.466 284.978C168.169 282.431 169.538 281.622 170.524 283.169C171.51 284.716 171.739 288.035 171.036 290.581Z" fill="white"/>
</g>
<g filter="url(#filter24_df_40000014_203)">
<path fill-rule="evenodd" clip-rule="evenodd" d="M169.323 291.778C169.757 291.522 170.195 290.839 170.499 289.738C170.803 288.636 170.893 287.409 170.82 286.358C170.747 285.301 170.525 284.553 170.258 284.133C169.99 283.713 169.614 283.523 169.178 283.781C168.745 284.037 168.307 284.72 168.003 285.821C167.699 286.922 167.609 288.15 167.682 289.201C167.755 290.258 167.976 291.006 168.244 291.426C168.511 291.846 168.887 292.036 169.323 291.778ZM167.978 292.39C168.964 293.937 170.333 293.127 171.036 290.581C171.739 288.035 171.51 284.716 170.524 283.169C169.538 281.622 168.169 282.431 167.466 284.978C166.763 287.524 166.992 290.843 167.978 292.39Z" fill="white" fill-opacity="0.25" shape-rendering="crispEdges"/>
</g>
<defs>
<filter id="filter0_df_40000014_203" x="27.3965" y="205.729" width="238.531" height="283.233" filterUnits="userSpaceOnUse" color-interpolation-filters="sRGB">
<feFlood flood-opacity="0" result="BackgroundImageFix"/>
<feColorMatrix in="SourceAlpha" type="matrix" values="0 0 0 0 0 0 0 0 0 0 0 0 0 0 0 0 0 0 127 0" result="hardAlpha"/>
<feOffset/>
<feGaussianBlur stdDeviation="10"/>
<feComposite in2="hardAlpha" operator="out"/>
<feColorMatrix type="matrix" values="0 0 0 0 1 0 0 0 0 1 0 0 0 0 1 0 0 0 0.5 0"/>
<feBlend mode="normal" in2="BackgroundImageFix" result="effect1_dropShadow_40000014_203"/>
<feBlend mode="normal" in="SourceGraphic" in2="effect1_dropShadow_40000014_203" result="shape"/>
<feGaussianBlur stdDeviation="2" result="effect2_foregroundBlur_40000014_203"/>
</filter>
<filter id="filter1_df_40000014_203" x="34.2236" y="337.766" width="22.4937" height="25.9448" filterUnits="userSpaceOnUse" color-interpolation-filters="sRGB">
<feFlood flood-opacity="0" result="BackgroundImageFix"/>
<feColorMatrix in="SourceAlpha" type="matrix" values="0 0 0 0 0 0 0 0 0 0 0 0 0 0 0 0 0 0 127 0" result="hardAlpha"/>
<feOffset/>
<feGaussianBlur stdDeviation="5"/>
<feComposite in2="hardAlpha" operator="out"/>
<feColorMatrix type="matrix" values="0 0 0 0 1 0 0 0 0 1 0 0 0 0 1 0 0 0 0.5 0"/>
<feBlend mode="normal" in2="BackgroundImageFix" result="effect1_dropShadow_40000014_203"/>
<feBlend mode="normal" in="SourceGraphic" in2="effect1_dropShadow_40000014_203" result="shape"/>
<feGaussianBlur stdDeviation="1" result="effect2_foregroundBlur_40000014_203"/>
</filter>
<filter id="filter2_df_40000014_203" x="34.2236" y="337.766" width="22.4937" height="25.9448" filterUnits="userSpaceOnUse" color-interpolation-filters="sRGB">
<feFlood flood-opacity="0" result="BackgroundImageFix"/>
<feColorMatrix in="SourceAlpha" type="matrix" values="0 0 0 0 0 0 0 0 0 0 0 0 0 0 0 0 0 0 127 0" result="hardAlpha"/>
<feOffset/>
<feGaussianBlur stdDeviation="5"/>
<feComposite in2="hardAlpha" operator="out"/>
<feColorMatrix type="matrix" values="0 0 0 0 1 0 0 0 0 1 0 0 0 0 1 0 0 0 0.5 0"/>
<feBlend mode="normal" in2="BackgroundImageFix" result="effect1_dropShadow_40000014_203"/>
<feBlend mode="normal" in="SourceGraphic" in2="effect1_dropShadow_40000014_203" result="shape"/>
<feGaussianBlur stdDeviation="1" result="effect2_foregroundBlur_40000014_203"/>
</filter>
<filter id="filter3_df_40000014_203" x="44.1045" y="419.36" width="22.4937" height="25.9448" filterUnits="userSpaceOnUse" color-interpolation-filters="sRGB">
<feFlood flood-opacity="0" result="BackgroundImageFix"/>
<feColorMatrix in="SourceAlpha" type="matrix" values="0 0 0 0 0 0 0 0 0 0 0 0 0 0 0 0 0 0 127 0" result="hardAlpha"/>
<feOffset/>
<feGaussianBlur stdDeviation="5"/>
<feComposite in2="hardAlpha" operator="out"/>
<feColorMatrix type="matrix" values="0 0 0 0 1 0 0 0 0 1 0 0 0 0 1 0 0 0 0.5 0"/>
<feBlend mode="normal" in2="BackgroundImageFix" result="effect1_dropShadow_40000014_203"/>
<feBlend mode="normal" in="SourceGraphic" in2="effect1_dropShadow_40000014_203" result="shape"/>
<feGaussianBlur stdDeviation="1" result="effect2_foregroundBlur_40000014_203"/>
</filter>
<filter id="filter4_df_40000014_203" x="44.1045" y="419.36" width="22.4937" height="25.9448" filterUnits="userSpaceOnUse" color-interpolation-filters="sRGB">
<feFlood flood-opacity="0" result="BackgroundImageFix"/>
<feColorMatrix in="SourceAlpha" type="matrix" values="0 0 0 0 0 0 0 0 0 0 0 0 0 0 0 0 0 0 127 0" result="hardAlpha"/>
<feOffset/>
<feGaussianBlur stdDeviation="5"/>
<feComposite in2="hardAlpha" operator="out"/>
<feColorMatrix type="matrix" values="0 0 0 0 1 0 0 0 0 1 0 0 0 0 1 0 0 0 0.5 0"/>
<feBlend mode="normal" in2="BackgroundImageFix" result="effect1_dropShadow_40000014_203"/>
<feBlend mode="normal" in="SourceGraphic" in2="effect1_dropShadow_40000014_203" result="shape"/>
<feGaussianBlur stdDeviation="1" result="effect2_foregroundBlur_40000014_203"/>
</filter>
<filter id="filter5_df_40000014_203" x="87.4209" y="316.538" width="22.4937" height="25.9453" filterUnits="userSpaceOnUse" color-interpolation-filters="sRGB">
<feFlood flood-opacity="0" result="BackgroundImageFix"/>
<feColorMatrix in="SourceAlpha" type="matrix" values="0 0 0 0 0 0 0 0 0 0 0 0 0 0 0 0 0 0 127 0" result="hardAlpha"/>
<feOffset/>
<feGaussianBlur stdDeviation="5"/>
<feComposite in2="hardAlpha" operator="out"/>
<feColorMatrix type="matrix" values="0 0 0 0 1 0 0 0 0 1 0 0 0 0 1 0 0 0 0.5 0"/>
<feBlend mode="normal" in2="BackgroundImageFix" result="effect1_dropShadow_40000014_203"/>
<feBlend mode="normal" in="SourceGraphic" in2="effect1_dropShadow_40000014_203" result="shape"/>
<feGaussianBlur stdDeviation="1" result="effect2_foregroundBlur_40000014_203"/>
</filter>
<filter id="filter6_df_40000014_203" x="87.4209" y="316.538" width="22.4937" height="25.9453" filterUnits="userSpaceOnUse" color-interpolation-filters="sRGB">
<feFlood flood-opacity="0" result="BackgroundImageFix"/>
<feColorMatrix in="SourceAlpha" type="matrix" values="0 0 0 0 0 0 0 0 0 0 0 0 0 0 0 0 0 0 127 0" result="hardAlpha"/>
<feOffset/>
<feGaussianBlur stdDeviation="5"/>
<feComposite in2="hardAlpha" operator="out"/>
<feColorMatrix type="matrix" values="0 0 0 0 1 0 0 0 0 1 0 0 0 0 1 0 0 0 0.5 0"/>
<feBlend mode="normal" in2="BackgroundImageFix" result="effect1_dropShadow_40000014_203"/>
<feBlend mode="normal" in="SourceGraphic" in2="effect1_dropShadow_40000014_203" result="shape"/>
<feGaussianBlur stdDeviation="1" result="effect2_foregroundBlur_40000014_203"/>
</filter>
<filter id="filter7_df_40000014_203" x="147.411" y="204.297" width="22.4937" height="25.9453" filterUnits="userSpaceOnUse" color-interpolation-filters="sRGB">
<feFlood flood-opacity="0" result="BackgroundImageFix"/>
<feColorMatrix in="SourceAlpha" type="matrix" values="0 0 0 0 0 0 0 0 0 0 0 0 0 0 0 0 0 0 127 0" result="hardAlpha"/>
<feOffset/>
<feGaussianBlur stdDeviation="5"/>
<feComposite in2="hardAlpha" operator="out"/>
<feColorMatrix type="matrix" values="0 0 0 0 1 0 0 0 0 1 0 0 0 0 1 0 0 0 0.5 0"/>
<feBlend mode="normal" in2="BackgroundImageFix" result="effect1_dropShadow_40000014_203"/>
<feBlend mode="normal" in="SourceGraphic" in2="effect1_dropShadow_40000014_203" result="shape"/>
<feGaussianBlur stdDeviation="1" result="effect2_foregroundBlur_40000014_203"/>
</filter>
<filter id="filter8_df_40000014_203" x="147.411" y="204.297" width="22.4937" height="25.9453" filterUnits="userSpaceOnUse" color-interpolation-filters="sRGB">
<feFlood flood-opacity="0" result="BackgroundImageFix"/>
<feColorMatrix in="SourceAlpha" type="matrix" values="0 0 0 0 0 0 0 0 0 0 0 0 0 0 0 0 0 0 127 0" result="hardAlpha"/>
<feOffset/>
<feGaussianBlur stdDeviation="5"/>
<feComposite in2="hardAlpha" operator="out"/>
<feColorMatrix type="matrix" values="0 0 0 0 1 0 0 0 0 1 0 0 0 0 1 0 0 0 0.5 0"/>
<feBlend mode="normal" in2="BackgroundImageFix" result="effect1_dropShadow_40000014_203"/>
<feBlend mode="normal" in="SourceGraphic" in2="effect1_dropShadow_40000014_203" result="shape"/>
<feGaussianBlur stdDeviation="1" result="effect2_foregroundBlur_40000014_203"/>
</filter>
<filter id="filter9_d_40000014_203" x="237.026" y="208.702" width="22.4937" height="25.9453" filterUnits="userSpaceOnUse" color-interpolation-filters="sRGB">
<feFlood flood-opacity="0" result="BackgroundImageFix"/>
<feColorMatrix in="SourceAlpha" type="matrix" values="0 0 0 0 0 0 0 0 0 0 0 0 0 0 0 0 0 0 127 0" result="hardAlpha"/>
<feOffset/>
<feGaussianBlur stdDeviation="5"/>
<feComposite in2="hardAlpha" operator="out"/>
<feColorMatrix type="matrix" values="0 0 0 0 1 0 0 0 0 1 0 0 0 0 1 0 0 0 0.5 0"/>
<feBlend mode="normal" in2="BackgroundImageFix" result="effect1_dropShadow_40000014_203"/>
<feBlend mode="normal" in="SourceGraphic" in2="effect1_dropShadow_40000014_203" result="shape"/>
</filter>
<filter id="filter10_d_40000014_203" x="237.026" y="208.702" width="22.4937" height="25.9453" filterUnits="userSpaceOnUse" color-interpolation-filters="sRGB">
<feFlood flood-opacity="0" result="BackgroundImageFix"/>
<feColorMatrix in="SourceAlpha" type="matrix" values="0 0 0 0 0 0 0 0 0 0 0 0 0 0 0 0 0 0 127 0" result="hardAlpha"/>
<feOffset/>
<feGaussianBlur stdDeviation="5"/>
<feComposite in2="hardAlpha" operator="out"/>
<feColorMatrix type="matrix" values="0 0 0 0 1 0 0 0 0 1 0 0 0 0 1 0 0 0 0.5 0"/>
<feBlend mode="normal" in2="BackgroundImageFix" result="effect1_dropShadow_40000014_203"/>
<feBlend mode="normal" in="SourceGraphic" in2="effect1_dropShadow_40000014_203" result="shape"/>
</filter>
<filter id="filter11_df_40000014_203" x="118.653" y="332.951" width="22.251" height="25.7019" filterUnits="userSpaceOnUse" color-interpolation-filters="sRGB">
<feFlood flood-opacity="0" result="BackgroundImageFix"/>
<feColorMatrix in="SourceAlpha" type="matrix" values="0 0 0 0 0 0 0 0 0 0 0 0 0 0 0 0 0 0 127 0" result="hardAlpha"/>
<feOffset/>
<feGaussianBlur stdDeviation="5"/>
<feComposite in2="hardAlpha" operator="out"/>
<feColorMatrix type="matrix" values="0 0 0 0 1 0 0 0 0 1 0 0 0 0 1 0 0 0 0.5 0"/>
<feBlend mode="normal" in2="BackgroundImageFix" result="effect1_dropShadow_40000014_203"/>
<feBlend mode="normal" in="SourceGraphic" in2="effect1_dropShadow_40000014_203" result="shape"/>
<feGaussianBlur stdDeviation="1" result="effect2_foregroundBlur_40000014_203"/>
</filter>
<filter id="filter12_df_40000014_203" x="118.653" y="332.951" width="22.251" height="25.7019" filterUnits="userSpaceOnUse" color-interpolation-filters="sRGB">
<feFlood flood-opacity="0" result="BackgroundImageFix"/>
<feColorMatrix in="SourceAlpha" type="matrix" values="0 0 0 0 0 0 0 0 0 0 0 0 0 0 0 0 0 0 127 0" result="hardAlpha"/>
<feOffset/>
<feGaussianBlur stdDeviation="5"/>
<feComposite in2="hardAlpha" operator="out"/>
<feColorMatrix type="matrix" values="0 0 0 0 1 0 0 0 0 1 0 0 0 0 1 0 0 0 0.5 0"/>
<feBlend mode="normal" in2="BackgroundImageFix" result="effect1_dropShadow_40000014_203"/>
<feBlend mode="normal" in="SourceGraphic" in2="effect1_dropShadow_40000014_203" result="shape"/>
<feGaussianBlur stdDeviation="1" result="effect2_foregroundBlur_40000014_203"/>
</filter>
<filter id="filter13_df_40000014_203" x="74.6924" y="409.417" width="23.3179" height="28.2461" filterUnits="userSpaceOnUse" color-interpolation-filters="sRGB">
<feFlood flood-opacity="0" result="BackgroundImageFix"/>
<feColorMatrix in="SourceAlpha" type="matrix" values="0 0 0 0 0 0 0 0 0 0 0 0 0 0 0 0 0 0 127 0" result="hardAlpha"/>
<feOffset/>
<feGaussianBlur stdDeviation="5"/>
<feComposite in2="hardAlpha" operator="out"/>
<feColorMatrix type="matrix" values="0 0 0 0 1 0 0 0 0 1 0 0 0 0 1 0 0 0 0.5 0"/>
<feBlend mode="normal" in2="BackgroundImageFix" result="effect1_dropShadow_40000014_203"/>
<feBlend mode="normal" in="SourceGraphic" in2="effect1_dropShadow_40000014_203" result="shape"/>
<feGaussianBlur stdDeviation="1" result="effect2_foregroundBlur_40000014_203"/>
</filter>
<filter id="filter14_df_40000014_203" x="74.6924" y="409.417" width="23.3179" height="28.2461" filterUnits="userSpaceOnUse" color-interpolation-filters="sRGB">
<feFlood flood-opacity="0" result="BackgroundImageFix"/>
<feColorMatrix in="SourceAlpha" type="matrix" values="0 0 0 0 0 0 0 0 0 0 0 0 0 0 0 0 0 0 127 0" result="hardAlpha"/>
<feOffset/>
<feGaussianBlur stdDeviation="5"/>
<feComposite in2="hardAlpha" operator="out"/>
<feColorMatrix type="matrix" values="0 0 0 0 1 0 0 0 0 1 0 0 0 0 1 0 0 0 0.5 0"/>
<feBlend mode="normal" in2="BackgroundImageFix" result="effect1_dropShadow_40000014_203"/>
<feBlend mode="normal" in="SourceGraphic" in2="effect1_dropShadow_40000014_203" result="shape"/>
<feGaussianBlur stdDeviation="1" result="effect2_foregroundBlur_40000014_203"/>
</filter>
<filter id="filter15_df_40000014_203" x="202.464" y="301.887" width="23.3179" height="28.2458" filterUnits="userSpaceOnUse" color-interpolation-filters="sRGB">
<feFlood flood-opacity="0" result="BackgroundImageFix"/>
<feColorMatrix in="SourceAlpha" type="matrix" values="0 0 0 0 0 0 0 0 0 0 0 0 0 0 0 0 0 0 127 0" result="hardAlpha"/>
<feOffset/>
<feGaussianBlur stdDeviation="5"/>
<feComposite in2="hardAlpha" operator="out"/>
<feColorMatrix type="matrix" values="0 0 0 0 1 0 0 0 0 1 0 0 0 0 1 0 0 0 0.5 0"/>
<feBlend mode="normal" in2="BackgroundImageFix" result="effect1_dropShadow_40000014_203"/>
<feBlend mode="normal" in="SourceGraphic" in2="effect1_dropShadow_40000014_203" result="shape"/>
<feGaussianBlur stdDeviation="1" result="effect2_foregroundBlur_40000014_203"/>
</filter>
<filter id="filter16_df_40000014_203" x="202.464" y="301.887" width="23.3179" height="28.2458" filterUnits="userSpaceOnUse" color-interpolation-filters="sRGB">
<feFlood flood-opacity="0" result="BackgroundImageFix"/>
<feColorMatrix in="SourceAlpha" type="matrix" values="0 0 0 0 0 0 0 0 0 0 0 0 0 0 0 0 0 0 127 0" result="hardAlpha"/>
<feOffset/>
<feGaussianBlur stdDeviation="5"/>
<feComposite in2="hardAlpha" operator="out"/>
<feColorMatrix type="matrix" values="0 0 0 0 1 0 0 0 0 1 0 0 0 0 1 0 0 0 0.5 0"/>
<feBlend mode="normal" in2="BackgroundImageFix" result="effect1_dropShadow_40000014_203"/>
<feBlend mode="normal" in="SourceGraphic" in2="effect1_dropShadow_40000014_203" result="shape"/>
<feGaussianBlur stdDeviation="1" result="effect2_foregroundBlur_40000014_203"/>
</filter>
<filter id="filter17_df_40000014_203" x="81.7197" y="455.014" width="23.3179" height="28.2461" filterUnits="userSpaceOnUse" color-interpolation-filters="sRGB">
<feFlood flood-opacity="0" result="BackgroundImageFix"/>
<feColorMatrix in="SourceAlpha" type="matrix" values="0 0 0 0 0 0 0 0 0 0 0 0 0 0 0 0 0 0 127 0" result="hardAlpha"/>
<feOffset/>
<feGaussianBlur stdDeviation="5"/>
<feComposite in2="hardAlpha" operator="out"/>
<feColorMatrix type="matrix" values="0 0 0 0 1 0 0 0 0 1 0 0 0 0 1 0 0 0 0.5 0"/>
<feBlend mode="normal" in2="BackgroundImageFix" result="effect1_dropShadow_40000014_203"/>
<feBlend mode="normal" in="SourceGraphic" in2="effect1_dropShadow_40000014_203" result="shape"/>
<feGaussianBlur stdDeviation="1" result="effect2_foregroundBlur_40000014_203"/>
</filter>
<filter id="filter18_df_40000014_203" x="81.7197" y="455.014" width="23.3179" height="28.2461" filterUnits="userSpaceOnUse" color-interpolation-filters="sRGB">
<feFlood flood-opacity="0" result="BackgroundImageFix"/>
<feColorMatrix in="SourceAlpha" type="matrix" values="0 0 0 0 0 0 0 0 0 0 0 0 0 0 0 0 0 0 127 0" result="hardAlpha"/>
<feOffset/>
<feGaussianBlur stdDeviation="5"/>
<feComposite in2="hardAlpha" operator="out"/>
<feColorMatrix type="matrix" values="0 0 0 0 1 0 0 0 0 1 0 0 0 0 1 0 0 0 0.5 0"/>
<feBlend mode="normal" in2="BackgroundImageFix" result="effect1_dropShadow_40000014_203"/>
<feBlend mode="normal" in="SourceGraphic" in2="effect1_dropShadow_40000014_203" result="shape"/>
<feGaussianBlur stdDeviation="1" result="effect2_foregroundBlur_40000014_203"/>
</filter>
<filter id="filter19_df_40000014_203" x="135.245" y="442.506" width="24.3853" height="30.7915" filterUnits="userSpaceOnUse" color-interpolation-filters="sRGB">
<feFlood flood-opacity="0" result="BackgroundImageFix"/>
<feColorMatrix in="SourceAlpha" type="matrix" values="0 0 0 0 0 0 0 0 0 0 0 0 0 0 0 0 0 0 127 0" result="hardAlpha"/>
<feOffset/>
<feGaussianBlur stdDeviation="5"/>
<feComposite in2="hardAlpha" operator="out"/>
<feColorMatrix type="matrix" values="0 0 0 0 1 0 0 0 0 1 0 0 0 0 1 0 0 0 0.5 0"/>
<feBlend mode="normal" in2="BackgroundImageFix" result="effect1_dropShadow_40000014_203"/>
<feBlend mode="normal" in="SourceGraphic" in2="effect1_dropShadow_40000014_203" result="shape"/>
<feGaussianBlur stdDeviation="2.5" result="effect2_foregroundBlur_40000014_203"/>
</filter>
<filter id="filter20_df_40000014_203" x="135.245" y="442.506" width="24.3853" height="30.7915" filterUnits="userSpaceOnUse" color-interpolation-filters="sRGB">
<feFlood flood-opacity="0" result="BackgroundImageFix"/>
<feColorMatrix in="SourceAlpha" type="matrix" values="0 0 0 0 0 0 0 0 0 0 0 0 0 0 0 0 0 0 127 0" result="hardAlpha"/>
<feOffset/>
<feGaussianBlur stdDeviation="5"/>
<feComposite in2="hardAlpha" operator="out"/>
<feColorMatrix type="matrix" values="0 0 0 0 1 0 0 0 0 1 0 0 0 0 1 0 0 0 0.5 0"/>
<feBlend mode="normal" in2="BackgroundImageFix" result="effect1_dropShadow_40000014_203"/>
<feBlend mode="normal" in="SourceGraphic" in2="effect1_dropShadow_40000014_203" result="shape"/>
<feGaussianBlur stdDeviation="2.5" result="effect2_foregroundBlur_40000014_203"/>
</filter>
<filter id="filter21_df_40000014_203" x="174.562" y="320.19" width="24.3853" height="30.7917" filterUnits="userSpaceOnUse" color-interpolation-filters="sRGB">
<feFlood flood-opacity="0" result="BackgroundImageFix"/>
<feColorMatrix in="SourceAlpha" type="matrix" values="0 0 0 0 0 0 0 0 0 0 0 0 0 0 0 0 0 0 127 0" result="hardAlpha"/>
<feOffset/>
<feGaussianBlur stdDeviation="5"/>
<feComposite in2="hardAlpha" operator="out"/>
<feColorMatrix type="matrix" values="0 0 0 0 1 0 0 0 0 1 0 0 0 0 1 0 0 0 0.5 0"/>
<feBlend mode="normal" in2="BackgroundImageFix" result="effect1_dropShadow_40000014_203"/>
<feBlend mode="normal" in="SourceGraphic" in2="effect1_dropShadow_40000014_203" result="shape"/>
<feGaussianBlur stdDeviation="2.5" result="effect2_foregroundBlur_40000014_203"/>
</filter>
<filter id="filter22_df_40000014_203" x="174.562" y="320.19" width="24.3853" height="30.7917" filterUnits="userSpaceOnUse" color-interpolation-filters="sRGB">
<feFlood flood-opacity="0" result="BackgroundImageFix"/>
<feColorMatrix in="SourceAlpha" type="matrix" values="0 0 0 0 0 0 0 0 0 0 0 0 0 0 0 0 0 0 127 0" result="hardAlpha"/>
<feOffset/>
<feGaussianBlur stdDeviation="5"/>
<feComposite in2="hardAlpha" operator="out"/>
<feColorMatrix type="matrix" values="0 0 0 0 1 0 0 0 0 1 0 0 0 0 1 0 0 0 0.5 0"/>
<feBlend mode="normal" in2="BackgroundImageFix" result="effect1_dropShadow_40000014_203"/>
<feBlend mode="normal" in="SourceGraphic" in2="effect1_dropShadow_40000014_203" result="shape"/>
<feGaussianBlur stdDeviation="2.5" result="effect2_foregroundBlur_40000014_203"/>
</filter>
<filter id="filter23_df_40000014_203" x="157.058" y="272.384" width="24.3853" height="30.7917" filterUnits="userSpaceOnUse" color-interpolation-filters="sRGB">
<feFlood flood-opacity="0" result="BackgroundImageFix"/>
<feColorMatrix in="SourceAlpha" type="matrix" values="0 0 0 0 0 0 0 0 0 0 0 0 0 0 0 0 0 0 127 0" result="hardAlpha"/>
<feOffset/>
<feGaussianBlur stdDeviation="5"/>
<feComposite in2="hardAlpha" operator="out"/>
<feColorMatrix type="matrix" values="0 0 0 0 1 0 0 0 0 1 0 0 0 0 1 0 0 0 0.5 0"/>
<feBlend mode="normal" in2="BackgroundImageFix" result="effect1_dropShadow_40000014_203"/>
<feBlend mode="normal" in="SourceGraphic" in2="effect1_dropShadow_40000014_203" result="shape"/>
<feGaussianBlur stdDeviation="2.5" result="effect2_foregroundBlur_40000014_203"/>
</filter>
<filter id="filter24_df_40000014_203" x="157.058" y="272.384" width="24.3853" height="30.7917" filterUnits="userSpaceOnUse" color-interpolation-filters="sRGB">
<feFlood flood-opacity="0" result="BackgroundImageFix"/>
<feColorMatrix in="SourceAlpha" type="matrix" values="0 0 0 0 0 0 0 0 0 0 0 0 0 0 0 0 0 0 127 0" result="hardAlpha"/>
<feOffset/>
<feGaussianBlur stdDeviation="5"/>
<feComposite in2="hardAlpha" operator="out"/>
<feColorMatrix type="matrix" values="0 0 0 0 1 0 0 0 0 1 0 0 0 0 1 0 0 0 0.5 0"/>
<feBlend mode="normal" in2="BackgroundImageFix" result="effect1_dropShadow_40000014_203"/>
<feBlend mode="normal" in="SourceGraphic" in2="effect1_dropShadow_40000014_203" result="shape"/>
<feGaussianBlur stdDeviation="2.5" result="effect2_foregroundBlur_40000014_203"/>
</filter>
</defs>
</svg>
