<svg width="210" height="491" viewBox="0 0 210 491" fill="none" xmlns="http://www.w3.org/2000/svg">
<g filter="url(#filter0_f_40000015_319)">
<path d="M191.993 469.815C192.003 469.72 192.025 469.635 192.056 469.571C192.088 469.507 192.126 469.468 192.167 469.458C192.208 469.449 192.249 469.469 192.285 469.518C192.321 469.566 192.35 469.639 192.368 469.728L192.609 470.925C192.798 471.864 193.071 472.693 193.409 473.354C193.746 474.015 194.14 474.493 194.563 474.755L195.102 475.088C195.142 475.112 195.177 475.165 195.204 475.24C195.231 475.314 195.248 475.407 195.252 475.504C195.256 475.602 195.247 475.7 195.227 475.786C195.206 475.871 195.176 475.94 195.138 475.982L194.637 476.557C194.243 477.009 193.895 477.659 193.618 478.464C193.34 479.268 193.14 480.208 193.03 481.216L192.891 482.501C192.88 482.596 192.858 482.681 192.827 482.745C192.796 482.809 192.757 482.848 192.716 482.858C192.675 482.867 192.634 482.846 192.598 482.798C192.562 482.75 192.533 482.677 192.516 482.588L192.274 481.392C192.085 480.453 191.812 479.624 191.475 478.963C191.137 478.301 190.743 477.823 190.32 477.562L189.781 477.229C189.741 477.204 189.705 477.151 189.679 477.077C189.652 477.002 189.635 476.91 189.631 476.812C189.627 476.715 189.636 476.617 189.656 476.531C189.676 476.446 189.707 476.377 189.744 476.335L190.247 475.759C190.64 475.308 190.988 474.657 191.265 473.853C191.543 473.048 191.743 472.109 191.853 471.101L191.993 469.815Z" fill="#5D58FF" fill-opacity="0.8"/>
</g>
<g filter="url(#filter1_f_40000015_319)">
<path d="M22.5353 54.2759C22.5461 54.1812 22.5445 54.0809 22.5306 53.9886C22.5167 53.8963 22.4912 53.8164 22.4576 53.7598C22.424 53.7033 22.3839 53.6727 22.3427 53.6724C22.3016 53.672 22.2614 53.7019 22.2276 53.7579L21.7693 54.5136C21.41 55.1059 21.0008 55.5043 20.5703 55.6811C20.1398 55.8579 19.6983 55.8087 19.2766 55.5371L18.739 55.191C18.6993 55.1652 18.6572 55.1691 18.6185 55.2022C18.5798 55.2354 18.5463 55.2961 18.5226 55.3763C18.4988 55.4564 18.486 55.552 18.4859 55.6501C18.4857 55.7482 18.4982 55.844 18.5217 55.9245L18.8384 57.0166C19.0868 57.8732 19.2539 58.8487 19.3281 59.8751C19.4022 60.9015 19.3816 61.9541 19.2677 62.9596L19.1225 64.2412C19.1117 64.3359 19.1133 64.4362 19.1272 64.5285C19.1411 64.6208 19.1666 64.7007 19.2002 64.7573C19.2338 64.8138 19.2739 64.8444 19.3151 64.8447C19.3562 64.8451 19.3964 64.8152 19.4302 64.7592L19.8882 64.0043C20.2476 63.412 20.6567 63.0135 21.0873 62.8368C21.5178 62.66 21.9593 62.7091 22.381 62.9808L22.9189 63.3274C22.9586 63.3533 23.0007 63.3493 23.0394 63.3162C23.0781 63.2831 23.1116 63.2223 23.1354 63.1422C23.1591 63.062 23.1719 62.9664 23.172 62.8683C23.1722 62.7703 23.1597 62.6744 23.1362 62.5939L22.8192 61.5013C22.5708 60.6446 22.4036 59.6691 22.3295 58.6427C22.2553 57.6164 22.276 56.5638 22.3899 55.5583L22.5353 54.2759Z" fill="#5D58FF" fill-opacity="0.8"/>
</g>
<g filter="url(#filter2_f_40000015_319)">
<path d="M189.043 11.7721C189.072 11.7015 189.091 11.6116 189.097 11.5147C189.103 11.4178 189.097 11.3186 189.079 11.2305C189.061 11.1424 189.032 11.0698 188.996 11.0224C188.96 10.9751 188.919 10.9554 188.878 10.9659L188.324 11.1052C187.889 11.2143 187.45 11.0962 187.037 10.7592C186.623 10.4222 186.246 9.87437 185.93 9.15391L185.528 8.23567C185.498 8.16761 185.461 8.12296 185.42 8.10778C185.379 8.09259 185.338 8.10762 185.301 8.1508C185.264 8.19399 185.233 8.26324 185.214 8.34916C185.194 8.43507 185.185 8.53348 185.19 8.631L185.248 9.9513C185.294 10.9871 185.244 12.0342 185.103 13.0196C184.962 14.0051 184.732 14.9053 184.43 15.6574L184.044 16.6162C184.016 16.6868 183.997 16.7767 183.991 16.8736C183.984 16.9705 183.991 17.0698 184.009 17.1578C184.027 17.2459 184.056 17.3185 184.092 17.3659C184.128 17.4132 184.169 17.433 184.21 17.4224L184.764 17.2835C185.199 17.1745 185.638 17.2926 186.051 17.6296C186.464 17.9666 186.842 18.5144 187.157 19.2348L187.56 20.1539C187.589 20.222 187.627 20.2666 187.668 20.2818C187.708 20.297 187.75 20.282 187.787 20.2388C187.824 20.1956 187.854 20.1263 187.874 20.0404C187.894 19.9545 187.902 19.8561 187.898 19.7586L187.84 18.4374C187.794 17.4017 187.843 16.3546 187.985 15.3691C188.126 14.3836 188.356 13.4835 188.658 12.7314L189.043 11.7721Z" fill="#5D58FF" fill-opacity="0.8"/>
</g>
<g filter="url(#filter3_f_40000015_319)">
<path d="M220.366 234.959C220.356 234.864 220.333 234.779 220.302 234.715C220.271 234.651 220.232 234.612 220.191 234.603C220.15 234.593 220.109 234.614 220.073 234.663C220.037 234.711 220.009 234.785 219.991 234.873L219.75 236.071C219.562 237.011 219.289 237.841 218.952 238.503C218.616 239.166 218.222 239.646 217.799 239.909L217.261 240.244C217.221 240.269 217.185 240.322 217.158 240.397C217.132 240.471 217.115 240.564 217.111 240.661C217.107 240.759 217.116 240.857 217.136 240.942C217.157 241.028 217.187 241.096 217.225 241.138L217.727 241.712C218.121 242.162 218.469 242.811 218.747 243.614C219.025 244.418 219.226 245.356 219.336 246.364L219.477 247.648C219.487 247.743 219.51 247.828 219.541 247.892C219.572 247.956 219.611 247.995 219.652 248.004C219.693 248.014 219.734 247.993 219.77 247.944C219.806 247.896 219.834 247.823 219.852 247.734L220.093 246.537C220.281 245.597 220.554 244.767 220.891 244.105C221.228 243.442 221.621 242.962 222.044 242.699L222.583 242.364C222.623 242.339 222.659 242.286 222.685 242.211C222.712 242.137 222.728 242.044 222.732 241.947C222.736 241.849 222.727 241.751 222.707 241.666C222.687 241.58 222.656 241.512 222.619 241.47L222.116 240.896C221.722 240.446 221.374 239.797 221.096 238.994C220.818 238.19 220.617 237.252 220.507 236.244L220.366 234.959Z" fill="#B182D0" fill-opacity="0.8"/>
</g>
<g filter="url(#filter4_f_40000015_319)">
<path d="M113.027 119.805C113.053 119.728 113.067 119.634 113.07 119.536C113.072 119.438 113.062 119.341 113.04 119.258C113.018 119.174 112.986 119.109 112.949 119.07C112.911 119.032 112.869 119.022 112.829 119.042L112.283 119.311C111.855 119.523 111.413 119.509 110.988 119.271C110.563 119.034 110.164 118.578 109.82 117.935L109.382 117.117C109.35 117.056 109.31 117.02 109.269 117.015C109.228 117.009 109.187 117.034 109.152 117.086C109.117 117.138 109.09 117.214 109.074 117.304C109.057 117.394 109.053 117.494 109.062 117.59L109.175 118.89C109.263 119.91 109.257 120.963 109.158 121.977C109.058 122.991 108.867 123.941 108.597 124.761L108.254 125.806C108.229 125.883 108.214 125.977 108.211 126.075C108.209 126.173 108.219 126.27 108.241 126.354C108.263 126.437 108.295 126.503 108.333 126.541C108.37 126.58 108.412 126.59 108.453 126.569L108.998 126.3C109.426 126.089 109.868 126.103 110.293 126.341C110.718 126.578 111.117 127.034 111.461 127.677L111.899 128.496C111.931 128.557 111.971 128.592 112.012 128.598C112.053 128.603 112.094 128.579 112.129 128.527C112.164 128.475 112.191 128.399 112.207 128.309C112.223 128.219 112.228 128.119 112.219 128.023L112.106 126.722C112.018 125.702 112.023 124.648 112.123 123.634C112.223 122.62 112.414 121.67 112.683 120.851L113.027 119.805Z" fill="#B182D0" fill-opacity="0.8"/>
</g>
<g filter="url(#filter5_f_40000015_319)">
<path d="M43.9137 274.85C43.9245 274.755 43.9229 274.655 43.909 274.562C43.8951 274.47 43.8696 274.39 43.836 274.334C43.8024 274.277 43.7623 274.246 43.7212 274.246C43.68 274.246 43.6398 274.276 43.606 274.332L43.1478 275.087C42.7884 275.68 42.3793 276.078 41.9488 276.255C41.5182 276.432 41.0767 276.382 40.655 276.111L40.1174 275.765C40.0777 275.739 40.0357 275.743 39.9969 275.776C39.9582 275.809 39.9247 275.87 39.901 275.95C39.8772 276.03 39.8644 276.126 39.8643 276.224C39.8641 276.322 39.8767 276.418 39.9002 276.498L40.2168 277.59C40.4652 278.447 40.6324 279.422 40.7065 280.449C40.7807 281.475 40.76 282.528 40.6461 283.533L40.5009 284.815C40.4901 284.91 40.4917 285.01 40.5056 285.102C40.5195 285.195 40.545 285.274 40.5786 285.331C40.6123 285.388 40.6524 285.418 40.6935 285.418C40.7346 285.419 40.7748 285.389 40.8086 285.333L41.2667 284.578C41.626 283.986 42.0352 283.587 42.4657 283.41C42.8962 283.234 43.3377 283.283 43.7594 283.554L44.2973 283.901C44.337 283.927 44.3791 283.923 44.4178 283.89C44.4565 283.857 44.49 283.796 44.5138 283.716C44.5375 283.636 44.5503 283.54 44.5505 283.442C44.5506 283.344 44.5381 283.248 44.5146 283.168L44.1976 282.075C43.9492 281.218 43.7821 280.243 43.7079 279.216C43.6338 278.19 43.6544 277.137 43.7683 276.132L43.9137 274.85Z" fill="#B182D0" fill-opacity="0.8"/>
</g>
<g filter="url(#filter6_f_40000015_319)">
<path d="M10.398 341.803C10.3741 341.723 10.3405 341.662 10.3017 341.63C10.263 341.597 10.2209 341.593 10.1812 341.62C10.1416 341.646 10.1063 341.701 10.0802 341.776C10.054 341.852 10.0383 341.945 10.0351 342.043L9.9907 343.367C9.9558 344.406 9.82638 345.413 9.61146 346.32C9.39654 347.227 9.10127 348.011 8.74624 348.617L8.29373 349.391C8.26023 349.448 8.23488 349.528 8.22115 349.621C8.20742 349.713 8.20596 349.813 8.21698 349.908C8.22799 350.003 8.25095 350.087 8.28272 350.149C8.31449 350.211 8.35354 350.249 8.39456 350.256L8.94963 350.363C9.38508 350.446 9.80769 350.754 10.188 351.267C10.5683 351.779 10.8972 352.483 11.1518 353.329L11.4763 354.408C11.5002 354.488 11.5338 354.549 11.5726 354.581C11.6114 354.614 11.6534 354.618 11.6931 354.591C11.7327 354.565 11.768 354.51 11.7941 354.435C11.8203 354.359 11.836 354.266 11.8392 354.168L11.8837 352.845C11.9186 351.806 12.048 350.799 12.263 349.892C12.4779 348.985 12.7731 348.201 13.1282 347.594L13.5811 346.82C13.6146 346.764 13.6399 346.683 13.6537 346.591C13.6674 346.498 13.6688 346.398 13.6578 346.304C13.6468 346.209 13.6239 346.125 13.5921 346.063C13.5603 346 13.5213 345.963 13.4802 345.955L12.9248 345.849C12.4893 345.766 12.0667 345.458 11.6864 344.945C11.3061 344.433 10.9772 343.729 10.7226 342.882L10.398 341.803Z" fill="#5D58FF" fill-opacity="0.8"/>
</g>
<g filter="url(#filter7_f_40000015_319)">
<path d="M151.233 87.5575C151.222 87.4633 151.199 87.3797 151.167 87.3181C151.135 87.2566 151.095 87.22 151.054 87.2134C151.013 87.2069 150.972 87.2306 150.937 87.2814C150.902 87.3321 150.874 87.4075 150.858 87.4973L150.631 88.7114C150.454 89.6632 150.192 90.5113 149.863 91.1967C149.534 91.8821 149.146 92.3883 148.727 92.6799L148.192 93.0519C148.153 93.0791 148.118 93.1347 148.092 93.211C148.066 93.2874 148.051 93.3809 148.048 93.4787C148.045 93.5766 148.055 93.6741 148.076 93.7581C148.098 93.842 148.129 93.9082 148.167 93.9478L148.676 94.487C149.075 94.9099 149.431 95.5352 149.718 96.3194C150.006 97.1036 150.218 98.0278 150.34 99.0277L150.496 100.302C150.508 100.396 150.531 100.48 150.563 100.541C150.595 100.603 150.634 100.64 150.675 100.646C150.716 100.653 150.757 100.629 150.793 100.578C150.828 100.527 150.856 100.452 150.872 100.362L151.098 99.1491C151.276 98.1974 151.538 97.3492 151.867 96.6638C152.196 95.9785 152.584 95.4723 153.003 95.1806L153.538 94.8087C153.577 94.7815 153.612 94.7259 153.638 94.6496C153.664 94.5732 153.679 94.4797 153.682 94.3819C153.685 94.284 153.675 94.1865 153.654 94.1026C153.632 94.0186 153.601 93.9524 153.563 93.9128L153.054 93.3735C152.655 92.9506 152.299 92.3253 152.011 91.5411C151.724 90.7569 151.512 89.8327 151.389 88.8329L151.233 87.5575Z" fill="#5D58FF" fill-opacity="0.8"/>
</g>
<defs>
<filter id="filter0_f_40000015_319" x="181.63" y="461.456" width="21.6221" height="29.4038" filterUnits="userSpaceOnUse" color-interpolation-filters="sRGB">
<feFlood flood-opacity="0" result="BackgroundImageFix"/>
<feBlend mode="normal" in="SourceGraphic" in2="BackgroundImageFix" result="shape"/>
<feGaussianBlur stdDeviation="4" result="effect1_foregroundBlur_40000015_319"/>
</filter>
<filter id="filter1_f_40000015_319" x="10.4858" y="45.6724" width="20.686" height="27.1724" filterUnits="userSpaceOnUse" color-interpolation-filters="sRGB">
<feFlood flood-opacity="0" result="BackgroundImageFix"/>
<feBlend mode="normal" in="SourceGraphic" in2="BackgroundImageFix" result="shape"/>
<feGaussianBlur stdDeviation="4" result="effect1_foregroundBlur_40000015_319"/>
</filter>
<filter id="filter2_f_40000015_319" x="175.988" y="0.102051" width="21.1113" height="28.1855" filterUnits="userSpaceOnUse" color-interpolation-filters="sRGB">
<feFlood flood-opacity="0" result="BackgroundImageFix"/>
<feBlend mode="normal" in="SourceGraphic" in2="BackgroundImageFix" result="shape"/>
<feGaussianBlur stdDeviation="4" result="effect1_foregroundBlur_40000015_319"/>
</filter>
<filter id="filter3_f_40000015_319" x="209.11" y="226.601" width="21.623" height="29.4058" filterUnits="userSpaceOnUse" color-interpolation-filters="sRGB">
<feFlood flood-opacity="0" result="BackgroundImageFix"/>
<feBlend mode="normal" in="SourceGraphic" in2="BackgroundImageFix" result="shape"/>
<feGaussianBlur stdDeviation="4" result="effect1_foregroundBlur_40000015_319"/>
</filter>
<filter id="filter4_f_40000015_319" x="100.211" y="109.014" width="20.8594" height="27.5845" filterUnits="userSpaceOnUse" color-interpolation-filters="sRGB">
<feFlood flood-opacity="0" result="BackgroundImageFix"/>
<feBlend mode="normal" in="SourceGraphic" in2="BackgroundImageFix" result="shape"/>
<feGaussianBlur stdDeviation="4" result="effect1_foregroundBlur_40000015_319"/>
</filter>
<filter id="filter5_f_40000015_319" x="31.8643" y="266.246" width="20.686" height="27.1724" filterUnits="userSpaceOnUse" color-interpolation-filters="sRGB">
<feFlood flood-opacity="0" result="BackgroundImageFix"/>
<feBlend mode="normal" in="SourceGraphic" in2="BackgroundImageFix" result="shape"/>
<feGaussianBlur stdDeviation="4" result="effect1_foregroundBlur_40000015_319"/>
</filter>
<filter id="filter6_f_40000015_319" x="0.209473" y="333.602" width="21.4556" height="29.0063" filterUnits="userSpaceOnUse" color-interpolation-filters="sRGB">
<feFlood flood-opacity="0" result="BackgroundImageFix"/>
<feBlend mode="normal" in="SourceGraphic" in2="BackgroundImageFix" result="shape"/>
<feGaussianBlur stdDeviation="4" result="effect1_foregroundBlur_40000015_319"/>
</filter>
<filter id="filter7_f_40000015_319" x="140.047" y="79.2124" width="21.6353" height="29.4348" filterUnits="userSpaceOnUse" color-interpolation-filters="sRGB">
<feFlood flood-opacity="0" result="BackgroundImageFix"/>
<feBlend mode="normal" in="SourceGraphic" in2="BackgroundImageFix" result="shape"/>
<feGaussianBlur stdDeviation="4" result="effect1_foregroundBlur_40000015_319"/>
</filter>
</defs>
</svg>
