<svg width="307" height="308" viewBox="0 0 307 308" fill="none" xmlns="http://www.w3.org/2000/svg">
<rect x="0.159393" y="153.825" width="216.637" height="216.637" rx="36.1062" transform="rotate(-45 0.159393 153.825)" fill="#9A76FF"/>
<mask id="path-2-outside-1_154_2" maskUnits="userSpaceOnUse" x="54.485" y="124.288" width="197" height="59" fill="black">
<rect fill="white" x="54.485" y="124.288" width="197" height="59"/>
<path d="M102.098 126.288C103.805 126.288 105.217 126.846 106.334 127.963C107.45 129.08 108.008 130.524 108.008 132.298V173.97C108.008 175.677 107.45 177.122 106.334 178.304C105.217 179.421 103.805 179.979 102.098 179.979C100.39 179.979 98.9779 179.421 97.8614 178.304C96.7449 177.122 96.1866 175.677 96.1866 173.97V169.142L98.354 170.029C98.354 170.883 97.8942 171.934 96.9747 173.181C96.0553 174.364 94.8074 175.546 93.2312 176.728C91.6549 177.91 89.7831 178.928 87.6158 179.782C85.5142 180.57 83.2155 180.964 80.7198 180.964C76.1881 180.964 72.0833 179.815 68.4054 177.516C64.7275 175.152 61.8049 171.934 59.6375 167.862C57.5359 163.724 56.485 158.995 56.485 153.675C56.485 148.29 57.5359 143.561 59.6375 139.489C61.8049 135.352 64.6946 132.133 68.3069 129.835C71.9191 127.47 75.9254 126.288 80.3257 126.288C83.1498 126.288 85.744 126.715 88.1084 127.569C90.4728 128.423 92.5087 129.506 94.2163 130.82C95.9896 132.133 97.336 133.48 98.2554 134.859C99.2406 136.173 99.7332 137.289 99.7332 138.209L96.1866 139.489V132.298C96.1866 130.59 96.7449 129.178 97.8614 128.062C98.9779 126.879 100.39 126.288 102.098 126.288ZM82.1975 170.127C85.0873 170.127 87.6158 169.405 89.7831 167.96C91.9505 166.515 93.6252 164.545 94.8074 162.049C96.0553 159.553 96.6792 156.762 96.6792 153.675C96.6792 150.523 96.0553 147.699 94.8074 145.203C93.6252 142.707 91.9505 140.737 89.7831 139.292C87.6158 137.847 85.0873 137.125 82.1975 137.125C79.3734 137.125 76.8777 137.847 74.7103 139.292C72.543 140.737 70.8354 142.707 69.5876 145.203C68.4054 147.699 67.8143 150.523 67.8143 153.675C67.8143 156.762 68.4054 159.553 69.5876 162.049C70.8354 164.545 72.543 166.515 74.7103 167.96C76.8777 169.405 79.3734 170.127 82.1975 170.127Z"/>
<path d="M144.255 126.288C147.999 126.288 151.25 126.682 154.008 127.47C156.832 128.259 158.999 129.375 160.51 130.82C162.086 132.199 162.874 133.874 162.874 135.844C162.874 137.158 162.48 138.406 161.692 139.588C160.904 140.704 159.755 141.263 158.244 141.263C157.193 141.263 156.307 141.131 155.584 140.868C154.928 140.54 154.336 140.146 153.811 139.686C153.286 139.227 152.662 138.8 151.939 138.406C151.282 138.012 150.264 137.716 148.885 137.519C147.572 137.256 146.587 137.125 145.93 137.125C142.58 137.125 139.723 137.847 137.359 139.292C135.06 140.737 133.287 142.707 132.039 145.203C130.791 147.633 130.167 150.457 130.167 153.675C130.167 156.828 130.791 159.652 132.039 162.148C133.353 164.578 135.126 166.515 137.359 167.96C139.658 169.405 142.285 170.127 145.24 170.127C146.882 170.127 148.294 170.029 149.476 169.832C150.659 169.635 151.644 169.339 152.432 168.945C153.351 168.42 154.172 167.862 154.895 167.271C155.617 166.679 156.701 166.384 158.146 166.384C159.853 166.384 161.167 166.942 162.086 168.059C163.006 169.109 163.466 170.423 163.466 171.999C163.466 173.641 162.546 175.152 160.707 176.531C158.868 177.844 156.438 178.928 153.417 179.782C150.462 180.57 147.243 180.964 143.762 180.964C138.574 180.964 134.075 179.782 130.266 177.418C126.457 174.988 123.501 171.704 121.4 167.566C119.364 163.428 118.346 158.798 118.346 153.675C118.346 148.29 119.429 143.561 121.597 139.489C123.83 135.352 126.884 132.133 130.758 129.835C134.699 127.47 139.198 126.288 144.255 126.288Z"/>
<path d="M199.673 126.288C204.927 126.288 208.802 127.569 211.298 130.13C213.793 132.626 215.435 135.877 216.223 139.883L214.549 138.997L215.337 137.42C216.125 135.91 217.34 134.301 218.982 132.593C220.624 130.82 222.594 129.342 224.893 128.16C227.257 126.912 229.884 126.288 232.774 126.288C237.503 126.288 241.082 127.306 243.512 129.342C246.008 131.378 247.715 134.104 248.635 137.519C249.554 140.868 250.014 144.612 250.014 148.75V173.97C250.014 175.677 249.456 177.122 248.339 178.304C247.223 179.421 245.811 179.979 244.103 179.979C242.396 179.979 240.984 179.421 239.867 178.304C238.751 177.122 238.192 175.677 238.192 173.97V148.75C238.192 146.582 237.93 144.645 237.404 142.937C236.879 141.164 235.926 139.752 234.547 138.701C233.168 137.65 231.198 137.125 228.636 137.125C226.141 137.125 224.006 137.65 222.233 138.701C220.46 139.752 219.113 141.164 218.194 142.937C217.34 144.645 216.913 146.582 216.913 148.75V173.97C216.913 175.677 216.355 177.122 215.238 178.304C214.122 179.421 212.71 179.979 211.002 179.979C209.295 179.979 207.882 179.421 206.766 178.304C205.649 177.122 205.091 175.677 205.091 173.97V148.75C205.091 146.582 204.828 144.645 204.303 142.937C203.778 141.164 202.825 139.752 201.446 138.701C200.067 137.65 198.097 137.125 195.535 137.125C193.04 137.125 190.905 137.65 189.132 138.701C187.358 139.752 186.012 141.164 185.093 142.937C184.239 144.645 183.812 146.582 183.812 148.75V173.97C183.812 175.677 183.254 177.122 182.137 178.304C181.021 179.421 179.609 179.979 177.901 179.979C176.193 179.979 174.781 179.421 173.665 178.304C172.548 177.122 171.99 175.677 171.99 173.97V133.283C171.99 131.575 172.548 130.163 173.665 129.047C174.781 127.864 176.193 127.273 177.901 127.273C179.609 127.273 181.021 127.864 182.137 129.047C183.254 130.163 183.812 131.575 183.812 133.283V137.519L182.334 137.223C182.925 136.107 183.746 134.925 184.797 133.677C185.848 132.363 187.129 131.148 188.639 130.032C190.15 128.915 191.825 128.029 193.663 127.372C195.502 126.649 197.506 126.288 199.673 126.288Z"/>
</mask>
<path d="M102.098 126.288C103.805 126.288 105.217 126.846 106.334 127.963C107.45 129.08 108.008 130.524 108.008 132.298V173.97C108.008 175.677 107.45 177.122 106.334 178.304C105.217 179.421 103.805 179.979 102.098 179.979C100.39 179.979 98.9779 179.421 97.8614 178.304C96.7449 177.122 96.1866 175.677 96.1866 173.97V169.142L98.354 170.029C98.354 170.883 97.8942 171.934 96.9747 173.181C96.0553 174.364 94.8074 175.546 93.2312 176.728C91.6549 177.91 89.7831 178.928 87.6158 179.782C85.5142 180.57 83.2155 180.964 80.7198 180.964C76.1881 180.964 72.0833 179.815 68.4054 177.516C64.7275 175.152 61.8049 171.934 59.6375 167.862C57.5359 163.724 56.485 158.995 56.485 153.675C56.485 148.29 57.5359 143.561 59.6375 139.489C61.8049 135.352 64.6946 132.133 68.3069 129.835C71.9191 127.47 75.9254 126.288 80.3257 126.288C83.1498 126.288 85.744 126.715 88.1084 127.569C90.4728 128.423 92.5087 129.506 94.2163 130.82C95.9896 132.133 97.336 133.48 98.2554 134.859C99.2406 136.173 99.7332 137.289 99.7332 138.209L96.1866 139.489V132.298C96.1866 130.59 96.7449 129.178 97.8614 128.062C98.9779 126.879 100.39 126.288 102.098 126.288ZM82.1975 170.127C85.0873 170.127 87.6158 169.405 89.7831 167.96C91.9505 166.515 93.6252 164.545 94.8074 162.049C96.0553 159.553 96.6792 156.762 96.6792 153.675C96.6792 150.523 96.0553 147.699 94.8074 145.203C93.6252 142.707 91.9505 140.737 89.7831 139.292C87.6158 137.847 85.0873 137.125 82.1975 137.125C79.3734 137.125 76.8777 137.847 74.7103 139.292C72.543 140.737 70.8354 142.707 69.5876 145.203C68.4054 147.699 67.8143 150.523 67.8143 153.675C67.8143 156.762 68.4054 159.553 69.5876 162.049C70.8354 164.545 72.543 166.515 74.7103 167.96C76.8777 169.405 79.3734 170.127 82.1975 170.127Z" fill="white"/>
<path d="M144.255 126.288C147.999 126.288 151.25 126.682 154.008 127.47C156.832 128.259 158.999 129.375 160.51 130.82C162.086 132.199 162.874 133.874 162.874 135.844C162.874 137.158 162.48 138.406 161.692 139.588C160.904 140.704 159.755 141.263 158.244 141.263C157.193 141.263 156.307 141.131 155.584 140.868C154.928 140.54 154.336 140.146 153.811 139.686C153.286 139.227 152.662 138.8 151.939 138.406C151.282 138.012 150.264 137.716 148.885 137.519C147.572 137.256 146.587 137.125 145.93 137.125C142.58 137.125 139.723 137.847 137.359 139.292C135.06 140.737 133.287 142.707 132.039 145.203C130.791 147.633 130.167 150.457 130.167 153.675C130.167 156.828 130.791 159.652 132.039 162.148C133.353 164.578 135.126 166.515 137.359 167.96C139.658 169.405 142.285 170.127 145.24 170.127C146.882 170.127 148.294 170.029 149.476 169.832C150.659 169.635 151.644 169.339 152.432 168.945C153.351 168.42 154.172 167.862 154.895 167.271C155.617 166.679 156.701 166.384 158.146 166.384C159.853 166.384 161.167 166.942 162.086 168.059C163.006 169.109 163.466 170.423 163.466 171.999C163.466 173.641 162.546 175.152 160.707 176.531C158.868 177.844 156.438 178.928 153.417 179.782C150.462 180.57 147.243 180.964 143.762 180.964C138.574 180.964 134.075 179.782 130.266 177.418C126.457 174.988 123.501 171.704 121.4 167.566C119.364 163.428 118.346 158.798 118.346 153.675C118.346 148.29 119.429 143.561 121.597 139.489C123.83 135.352 126.884 132.133 130.758 129.835C134.699 127.47 139.198 126.288 144.255 126.288Z" fill="white"/>
<path d="M199.673 126.288C204.927 126.288 208.802 127.569 211.298 130.13C213.793 132.626 215.435 135.877 216.223 139.883L214.549 138.997L215.337 137.42C216.125 135.91 217.34 134.301 218.982 132.593C220.624 130.82 222.594 129.342 224.893 128.16C227.257 126.912 229.884 126.288 232.774 126.288C237.503 126.288 241.082 127.306 243.512 129.342C246.008 131.378 247.715 134.104 248.635 137.519C249.554 140.868 250.014 144.612 250.014 148.75V173.97C250.014 175.677 249.456 177.122 248.339 178.304C247.223 179.421 245.811 179.979 244.103 179.979C242.396 179.979 240.984 179.421 239.867 178.304C238.751 177.122 238.192 175.677 238.192 173.97V148.75C238.192 146.582 237.93 144.645 237.404 142.937C236.879 141.164 235.926 139.752 234.547 138.701C233.168 137.65 231.198 137.125 228.636 137.125C226.141 137.125 224.006 137.65 222.233 138.701C220.46 139.752 219.113 141.164 218.194 142.937C217.34 144.645 216.913 146.582 216.913 148.75V173.97C216.913 175.677 216.355 177.122 215.238 178.304C214.122 179.421 212.71 179.979 211.002 179.979C209.295 179.979 207.882 179.421 206.766 178.304C205.649 177.122 205.091 175.677 205.091 173.97V148.75C205.091 146.582 204.828 144.645 204.303 142.937C203.778 141.164 202.825 139.752 201.446 138.701C200.067 137.65 198.097 137.125 195.535 137.125C193.04 137.125 190.905 137.65 189.132 138.701C187.358 139.752 186.012 141.164 185.093 142.937C184.239 144.645 183.812 146.582 183.812 148.75V173.97C183.812 175.677 183.254 177.122 182.137 178.304C181.021 179.421 179.609 179.979 177.901 179.979C176.193 179.979 174.781 179.421 173.665 178.304C172.548 177.122 171.99 175.677 171.99 173.97V133.283C171.99 131.575 172.548 130.163 173.665 129.047C174.781 127.864 176.193 127.273 177.901 127.273C179.609 127.273 181.021 127.864 182.137 129.047C183.254 130.163 183.812 131.575 183.812 133.283V137.519L182.334 137.223C182.925 136.107 183.746 134.925 184.797 133.677C185.848 132.363 187.129 131.148 188.639 130.032C190.15 128.915 191.825 128.029 193.663 127.372C195.502 126.649 197.506 126.288 199.673 126.288Z" fill="white"/>
<path d="M102.098 126.288C103.805 126.288 105.217 126.846 106.334 127.963C107.45 129.08 108.008 130.524 108.008 132.298V173.97C108.008 175.677 107.45 177.122 106.334 178.304C105.217 179.421 103.805 179.979 102.098 179.979C100.39 179.979 98.9779 179.421 97.8614 178.304C96.7449 177.122 96.1866 175.677 96.1866 173.97V169.142L98.354 170.029C98.354 170.883 97.8942 171.934 96.9747 173.181C96.0553 174.364 94.8074 175.546 93.2312 176.728C91.6549 177.91 89.7831 178.928 87.6158 179.782C85.5142 180.57 83.2155 180.964 80.7198 180.964C76.1881 180.964 72.0833 179.815 68.4054 177.516C64.7275 175.152 61.8049 171.934 59.6375 167.862C57.5359 163.724 56.485 158.995 56.485 153.675C56.485 148.29 57.5359 143.561 59.6375 139.489C61.8049 135.352 64.6946 132.133 68.3069 129.835C71.9191 127.47 75.9254 126.288 80.3257 126.288C83.1498 126.288 85.744 126.715 88.1084 127.569C90.4728 128.423 92.5087 129.506 94.2163 130.82C95.9896 132.133 97.336 133.48 98.2554 134.859C99.2406 136.173 99.7332 137.289 99.7332 138.209L96.1866 139.489V132.298C96.1866 130.59 96.7449 129.178 97.8614 128.062C98.9779 126.879 100.39 126.288 102.098 126.288ZM82.1975 170.127C85.0873 170.127 87.6158 169.405 89.7831 167.96C91.9505 166.515 93.6252 164.545 94.8074 162.049C96.0553 159.553 96.6792 156.762 96.6792 153.675C96.6792 150.523 96.0553 147.699 94.8074 145.203C93.6252 142.707 91.9505 140.737 89.7831 139.292C87.6158 137.847 85.0873 137.125 82.1975 137.125C79.3734 137.125 76.8777 137.847 74.7103 139.292C72.543 140.737 70.8354 142.707 69.5876 145.203C68.4054 147.699 67.8143 150.523 67.8143 153.675C67.8143 156.762 68.4054 159.553 69.5876 162.049C70.8354 164.545 72.543 166.515 74.7103 167.96C76.8777 169.405 79.3734 170.127 82.1975 170.127Z" stroke="white" stroke-width="2.88849" mask="url(#path-2-outside-1_154_2)"/>
<path d="M144.255 126.288C147.999 126.288 151.25 126.682 154.008 127.47C156.832 128.259 158.999 129.375 160.51 130.82C162.086 132.199 162.874 133.874 162.874 135.844C162.874 137.158 162.48 138.406 161.692 139.588C160.904 140.704 159.755 141.263 158.244 141.263C157.193 141.263 156.307 141.131 155.584 140.868C154.928 140.54 154.336 140.146 153.811 139.686C153.286 139.227 152.662 138.8 151.939 138.406C151.282 138.012 150.264 137.716 148.885 137.519C147.572 137.256 146.587 137.125 145.93 137.125C142.58 137.125 139.723 137.847 137.359 139.292C135.06 140.737 133.287 142.707 132.039 145.203C130.791 147.633 130.167 150.457 130.167 153.675C130.167 156.828 130.791 159.652 132.039 162.148C133.353 164.578 135.126 166.515 137.359 167.96C139.658 169.405 142.285 170.127 145.24 170.127C146.882 170.127 148.294 170.029 149.476 169.832C150.659 169.635 151.644 169.339 152.432 168.945C153.351 168.42 154.172 167.862 154.895 167.271C155.617 166.679 156.701 166.384 158.146 166.384C159.853 166.384 161.167 166.942 162.086 168.059C163.006 169.109 163.466 170.423 163.466 171.999C163.466 173.641 162.546 175.152 160.707 176.531C158.868 177.844 156.438 178.928 153.417 179.782C150.462 180.57 147.243 180.964 143.762 180.964C138.574 180.964 134.075 179.782 130.266 177.418C126.457 174.988 123.501 171.704 121.4 167.566C119.364 163.428 118.346 158.798 118.346 153.675C118.346 148.29 119.429 143.561 121.597 139.489C123.83 135.352 126.884 132.133 130.758 129.835C134.699 127.47 139.198 126.288 144.255 126.288Z" stroke="white" stroke-width="2.88849" mask="url(#path-2-outside-1_154_2)"/>
<path d="M199.673 126.288C204.927 126.288 208.802 127.569 211.298 130.13C213.793 132.626 215.435 135.877 216.223 139.883L214.549 138.997L215.337 137.42C216.125 135.91 217.34 134.301 218.982 132.593C220.624 130.82 222.594 129.342 224.893 128.16C227.257 126.912 229.884 126.288 232.774 126.288C237.503 126.288 241.082 127.306 243.512 129.342C246.008 131.378 247.715 134.104 248.635 137.519C249.554 140.868 250.014 144.612 250.014 148.75V173.97C250.014 175.677 249.456 177.122 248.339 178.304C247.223 179.421 245.811 179.979 244.103 179.979C242.396 179.979 240.984 179.421 239.867 178.304C238.751 177.122 238.192 175.677 238.192 173.97V148.75C238.192 146.582 237.93 144.645 237.404 142.937C236.879 141.164 235.926 139.752 234.547 138.701C233.168 137.65 231.198 137.125 228.636 137.125C226.141 137.125 224.006 137.65 222.233 138.701C220.46 139.752 219.113 141.164 218.194 142.937C217.34 144.645 216.913 146.582 216.913 148.75V173.97C216.913 175.677 216.355 177.122 215.238 178.304C214.122 179.421 212.71 179.979 211.002 179.979C209.295 179.979 207.882 179.421 206.766 178.304C205.649 177.122 205.091 175.677 205.091 173.97V148.75C205.091 146.582 204.828 144.645 204.303 142.937C203.778 141.164 202.825 139.752 201.446 138.701C200.067 137.65 198.097 137.125 195.535 137.125C193.04 137.125 190.905 137.65 189.132 138.701C187.358 139.752 186.012 141.164 185.093 142.937C184.239 144.645 183.812 146.582 183.812 148.75V173.97C183.812 175.677 183.254 177.122 182.137 178.304C181.021 179.421 179.609 179.979 177.901 179.979C176.193 179.979 174.781 179.421 173.665 178.304C172.548 177.122 171.99 175.677 171.99 173.97V133.283C171.99 131.575 172.548 130.163 173.665 129.047C174.781 127.864 176.193 127.273 177.901 127.273C179.609 127.273 181.021 127.864 182.137 129.047C183.254 130.163 183.812 131.575 183.812 133.283V137.519L182.334 137.223C182.925 136.107 183.746 134.925 184.797 133.677C185.848 132.363 187.129 131.148 188.639 130.032C190.15 128.915 191.825 128.029 193.663 127.372C195.502 126.649 197.506 126.288 199.673 126.288Z" stroke="white" stroke-width="2.88849" mask="url(#path-2-outside-1_154_2)"/>
</svg>
