<svg width="90" height="90" viewBox="0 0 90 90" fill="none" xmlns="http://www.w3.org/2000/svg">
<path d="M36.6886 3.4427L3.44271 36.6886C-1.14757 41.2788 -1.14757 48.7212 3.44271 53.3114L36.6886 86.5573C41.2788 91.1476 48.7212 91.1476 53.3114 86.5573L86.5573 53.3114C91.1476 48.7211 91.1476 41.2788 86.5573 36.6886L53.3114 3.44271C48.7212 -1.14757 41.2788 -1.14757 36.6886 3.4427Z" fill="#ECECEC"/>
<path d="M19.8254 53.3332C18.7247 53.3332 17.7441 53.1421 16.8831 52.7598C16.0221 52.3701 15.3408 51.7968 14.8392 51.04C14.3451 50.2756 14.098 49.3239 14.098 48.1846C14.098 47.2255 14.2739 46.4199 14.6259 45.7679C14.9777 45.116 15.4568 44.5914 16.0633 44.1941C16.6698 43.797 17.3585 43.4972 18.1296 43.2948C18.9083 43.0925 19.7244 42.9502 20.5779 42.8677C21.581 42.7629 22.3897 42.6653 23.0036 42.5753C23.6175 42.478 24.0629 42.3357 24.34 42.1484C24.6169 41.9608 24.7556 41.6837 24.7556 41.3165V41.2489C24.7556 40.537 24.5309 39.9864 24.0816 39.5966C23.6399 39.2069 23.011 39.012 22.1949 39.012C21.3339 39.012 20.6489 39.203 20.1399 39.5853C20.0498 39.6514 19.9653 39.7208 19.8863 39.793C19.2652 40.3596 18.5273 40.9527 17.6897 40.8848L16.7113 40.8051C15.6477 40.7186 14.8806 39.6889 15.4223 38.7688C15.5986 38.4693 15.801 38.1869 16.0296 37.9217C16.6885 37.1497 17.5381 36.5578 18.5789 36.1455C19.6271 35.7259 20.8398 35.5161 22.2175 35.5161C23.1758 35.5161 24.0929 35.6285 24.9689 35.8533C25.8523 36.0781 26.6346 36.4265 27.316 36.8987C28.0048 37.3708 28.5475 37.9779 28.9443 38.7198C29.3411 39.4542 29.5395 40.3347 29.5395 41.3613V51.2385C29.5395 52.2153 28.7482 53.0071 27.7721 53.0071H26.77C25.7938 53.0071 25.0026 52.2153 25.0026 51.2385V51.1003C25.0026 50.9766 24.8162 50.9251 24.7422 51.0242C24.4632 51.3976 24.0985 51.7363 23.7559 52.0403C23.2918 52.4451 22.7341 52.7635 22.0826 52.996C21.4313 53.2208 20.6789 53.3332 19.8254 53.3332ZM21.1955 50.0282C21.8993 50.0282 22.5206 49.8896 23.0598 49.6123C23.5988 49.3276 24.0217 48.9453 24.3287 48.4658C24.6356 47.9862 24.7891 47.4429 24.7891 46.8358V45.6798C24.7891 45.3887 24.449 45.186 24.1715 45.2732C23.917 45.3482 23.6286 45.4194 23.3068 45.4869C22.9849 45.5468 22.6629 45.6031 22.341 45.6555C22.019 45.7004 21.7271 45.7416 21.465 45.7791C20.9036 45.8616 20.4131 45.9928 19.9939 46.1727C19.5746 46.3524 19.2489 46.5959 19.0169 46.9033C18.7848 47.2031 18.6686 47.5777 18.6686 48.0274C18.6686 48.6793 18.9045 49.1777 19.3763 49.5224C19.8554 49.8596 20.4617 50.0282 21.1955 50.0282Z" fill="#201C33"/>
<path d="M40.7699 53.3332C38.9271 53.3332 37.3419 52.9587 36.0144 52.2099C34.6949 51.4533 33.6798 50.4049 32.9692 49.0643C32.2665 47.7237 31.9151 46.1809 31.9151 44.436C31.9151 42.6685 32.2704 41.118 32.981 39.785C33.6993 38.4444 34.7183 37.3997 36.038 36.6508C37.3576 35.8943 38.9271 35.5161 40.7463 35.5161C42.3158 35.5161 43.69 35.7893 44.8693 36.3362C46.0483 36.8829 46.9814 37.6505 47.6684 38.639C48.0203 39.1454 48.2913 39.6968 48.4814 40.2932C48.7897 41.2604 47.9203 42.1216 46.8657 42.1216H45.6872C44.7731 42.1216 44.055 41.4383 43.5815 40.6888C43.4311 40.451 43.2513 40.2358 43.0421 40.0434C42.4797 39.5116 41.7419 39.2458 40.8283 39.2458C40.0554 39.2458 39.38 39.448 38.8022 39.8523C38.2321 40.2494 37.7871 40.8298 37.4668 41.5937C37.1467 42.3576 36.9866 43.2826 36.9866 44.3685C36.9866 45.4694 37.1428 46.4055 37.4552 47.177C37.7753 47.9484 38.2244 48.5364 38.8022 48.9408C39.38 49.3451 40.0554 49.5474 40.8283 49.5474C41.3983 49.5474 41.9099 49.435 42.3628 49.2104C42.8234 48.9857 43.2021 48.6598 43.4989 48.2331C43.5283 48.1911 43.5566 48.1483 43.5841 48.1047C44.0565 47.3548 44.7729 46.6715 45.6865 46.6715H46.8535C47.9128 46.6715 48.7815 47.5391 48.4715 48.5102C48.2835 49.0984 48.0198 49.6463 47.6802 50.1541C47.0166 51.1501 46.0989 51.929 44.9278 52.4907C43.7566 53.0523 42.3705 53.3332 40.7699 53.3332Z" fill="#201C33"/>
<path d="M52.6789 53.3332C51.7075 53.3332 50.9199 52.5267 50.9199 51.5316V37.5467C50.9199 36.5517 51.7075 35.7451 52.6789 35.7451H53.6984C54.6698 35.7451 55.4572 36.5517 55.4572 37.5467V38.4998C55.4572 38.5673 55.5583 38.5873 55.5862 38.526C55.9854 37.6467 56.7011 36.9411 57.4465 36.4093C58.2809 35.8137 59.2793 35.5161 60.4415 35.5161C61.6187 35.5161 62.6208 35.8175 63.4477 36.4206C64.225 36.9803 64.9167 37.7289 65.2261 38.6663C65.2443 38.7219 65.325 38.7246 65.3463 38.6701C65.7072 37.7453 66.3187 36.9992 67.1804 36.4321C68.1043 35.8215 69.1956 35.5161 70.4549 35.5161C72.0566 35.5161 73.3566 36.0389 74.355 37.0847C75.3608 38.123 75.8638 39.5964 75.8638 41.5047V51.5316C75.8638 52.5267 75.0763 53.3332 74.1049 53.3332H72.873C71.9016 53.3332 71.1141 52.5267 71.1141 51.5316V42.4666C71.1141 41.4894 70.8608 40.7567 70.3541 40.2681C69.8477 39.7795 69.2143 39.5351 68.4543 39.5351C67.5902 39.5351 66.9158 39.8176 66.4317 40.3826C65.9473 40.9398 65.7051 41.6765 65.7051 42.5924V51.5316C65.7051 52.5267 64.9178 53.3332 63.9464 53.3332H62.8487C61.8772 53.3332 61.0897 52.5267 61.0897 51.5316V42.3635C61.0897 41.5009 60.8475 40.8139 60.3633 40.3025C59.8865 39.791 59.257 39.5351 58.4746 39.5351C57.9458 39.5351 57.4688 39.6727 57.0442 39.9474C56.627 40.2146 56.2955 40.5925 56.0496 41.0811C55.8038 41.562 55.6807 42.1269 55.6807 42.7757V51.5316C55.6807 52.5267 54.8934 53.3332 53.922 53.3332H52.6789Z" fill="#201C33"/>
</svg>
