<svg width="159" height="153" viewBox="0 0 159 153" fill="none" xmlns="http://www.w3.org/2000/svg">
<path d="M63.0035 144.622L64.1908 107.621L108.214 96.1215L130.247 127.057L63.0035 144.622Z" fill="black" stroke="black" stroke-width="2"/>
<path d="M125.64 57.9792C127.35 64.5265 127.397 70.1297 126.144 74.9555C124.893 79.7778 122.327 83.8858 118.715 87.4223C111.46 94.526 100.013 99.2972 86.6969 102.775C73.381 106.254 61.0624 107.69 51.2604 105.042C46.3805 103.723 42.1336 101.395 38.6833 97.8009C35.2306 94.2042 32.5314 89.2937 30.8212 82.7465C23.9819 56.563 39.6635 29.7928 65.8469 22.9535C92.0304 16.1142 118.801 31.7958 125.64 57.9792Z" fill="black" stroke="black" stroke-width="2"/>
<path d="M21.1476 27.9112C18.9827 29.5103 29.9931 61.7751 29.9931 61.7751C29.9931 61.7751 32.7485 50.269 36.7199 43.9979C40.7509 37.6326 50.1558 30.1529 50.1558 30.1529C50.1558 30.1529 23.3126 26.3122 21.1476 27.9112Z" fill="black" stroke="black" stroke-width="2" stroke-linecap="round"/>
<path d="M107.635 5.32002C110.306 5.65603 116.481 39.1838 116.481 39.1838C116.481 39.1838 108.45 30.4951 101.92 26.9673C95.2906 23.3865 83.4291 21.4616 83.4291 21.4616C83.4291 21.4616 104.965 4.984 107.635 5.32002Z" fill="black" stroke="black" stroke-width="2" stroke-linecap="round"/>
<circle cx="56.776" cy="61.4278" r="12.5" transform="rotate(-14.6389 56.776 61.4278)" fill="#FFEA00"/>
<circle cx="92.5749" cy="52.077" r="12.5" transform="rotate(-14.6389 92.5749 52.077)" fill="#FFEA00"/>
<ellipse cx="59.1948" cy="60.796" rx="3" ry="7.5" transform="rotate(-14.6389 59.1948 60.796)" fill="black"/>
<ellipse cx="89.1885" cy="52.9615" rx="3" ry="7.5" transform="rotate(-14.6389 89.1885 52.9615)" fill="black"/>
<path d="M79.672 75.7509C79.672 75.7509 75.9352 75.5964 75.0436 73.8592C73.7063 71.2534 82.1923 69.0368 82.3002 71.9637C82.3664 73.7627 79.672 75.7509 79.672 75.7509Z" fill="#FF9C9F" stroke="black" stroke-width="2" stroke-linecap="round"/>
<path d="M13.2682 84.1614L31.3433 79.44" stroke="black" stroke-width="2" stroke-linecap="round"/>
<path d="M14.9879 89.3967L33.063 84.6754" stroke="black" stroke-width="2" stroke-linecap="round"/>
<path d="M16.2515 94.2344L34.3266 89.513" stroke="black" stroke-width="2" stroke-linecap="round"/>
<path d="M122.6 55.6033L140.675 50.8819" stroke="black" stroke-width="2" stroke-linecap="round"/>
<path d="M124.32 60.8386L142.395 56.1173" stroke="black" stroke-width="2" stroke-linecap="round"/>
<path d="M125.583 65.6763L143.658 60.9549" stroke="black" stroke-width="2" stroke-linecap="round"/>
</svg>
