<svg width="100%" height="auto" viewBox="0 0 966 148" fill="full" xmlns="http://www.w3.org/2000/svg">
<g filter="url(#filter0_dd_3011_69)">
<path d="M71.7705 28.9253L953 26.9954" stroke="#72D6E6" stroke-width="5" stroke-linecap="square"/>
<line x1="70.5453" y1="28.1008" x2="11.7189" y2="83.8152" stroke="#72D6E6" stroke-width="5"/>
<line x1="12.5" y1="134" x2="12.5" y2="82" stroke="#72D6E6" stroke-width="5"/>
<line x1="952.5" y1="106" x2="952.5" y2="27" stroke="#72D6E6" stroke-width="5"/>
<line x1="12" y1="131.5" x2="177" y2="131.5" stroke="#72D6E6" stroke-width="5"/>
<line x1="202.2" y1="116.98" x2="370.015" y2="116.98" stroke="#72D6E6" stroke-width="5"/>
<line y1="-2.5" x2="33.4315" y2="-2.5" transform="matrix(0.880641 -0.473783 0.556127 0.831098 177.175 134)" stroke="#72D6E6" stroke-width="5"/>
<line x1="93.2676" y1="117.741" x2="177.175" y2="117.741" stroke="#72D6E6" stroke-width="5"/>
<line x1="202.2" y1="103.222" x2="370.015" y2="103.222" stroke="#72D6E6" stroke-width="5"/>
<line x1="787" y1="106.5" x2="954.815" y2="106.5" stroke="#72D6E6" stroke-width="5"/>
<line y1="-2.5" x2="33.4315" y2="-2.5" transform="matrix(0.880641 -0.473783 0.556127 0.831098 177.175 120.241)" stroke="#72D6E6" stroke-width="5"/>
<path d="M604.656 6.48633H785.72L774.679 26.2855H585.52L604.656 6.48633Z" fill="#72D6E6"/>
</g>
<defs>
<filter id="filter0_dd_3011_69" x="0" y="0.486328" width="965.506" height="147.514" filterUnits="userSpaceOnUse" color-interpolation-filters="sRGB">
<feFlood flood-opacity="0" result="BackgroundImageFix"/>
<feColorMatrix in="SourceAlpha" type="matrix" values="0 0 0 0 0 0 0 0 0 0 0 0 0 0 0 0 0 0 127 0" result="hardAlpha"/>
<feOffset dy="4"/>
<feGaussianBlur stdDeviation="5"/>
<feComposite in2="hardAlpha" operator="out"/>
<feColorMatrix type="matrix" values="0 0 0 0 0 0 0 0 0 0 0 0 0 0 0 0 0 0 0.25 0"/>
<feBlend mode="normal" in2="BackgroundImageFix" result="effect1_dropShadow_3011_69"/>
<feColorMatrix in="SourceAlpha" type="matrix" values="0 0 0 0 0 0 0 0 0 0 0 0 0 0 0 0 0 0 127 0" result="hardAlpha"/>
<feOffset dy="4"/>
<feGaussianBlur stdDeviation="2"/>
<feComposite in2="hardAlpha" operator="out"/>
<feColorMatrix type="matrix" values="0 0 0 0 0 0 0 0 0 0 0 0 0 0 0 0 0 0 0.25 0"/>
<feBlend mode="normal" in2="effect1_dropShadow_3011_69" result="effect2_dropShadow_3011_69"/>
<feBlend mode="normal" in="SourceGraphic" in2="effect2_dropShadow_3011_69" result="shape"/>
</filter>
</defs>
</svg>
