<svg width="480" height="358" viewBox="0 0 480 358" fill="none" xmlns="http://www.w3.org/2000/svg">
<g filter="url(#filter0_ddd_349_468)">
<path d="M416.427 138.849C423.759 218.288 414.039 279.721 357.771 346.434C349.522 349.855 348.606 349.855 340.357 346.434C340.357 346.434 336.691 343.012 335.775 340.731C334.858 338.45 333.795 334.886 335.775 330.466C348.675 323.935 355.884 314.053 368.769 303.092C368.769 303.092 376.319 290.259 377.934 284.842C379.548 279.426 393.385 235.29 394.431 227.814C395.478 220.337 396.264 170.785 394.431 158.238C392.598 145.692 382.516 137.708 382.516 137.708C378.85 130.864 362.353 147.973 362.353 147.973C351.533 163.488 354.178 161.545 352.272 168.504C350.439 184.472 357.771 195.138 355.938 206.143C354.105 217.147 330.276 265.052 329.359 266.593C328.443 268.135 323.86 268.874 321.111 268.874C318.361 268.874 315.083 261.077 314.695 256.328L322.027 202.721C318.361 184.503 315.654 174.268 309.196 155.957C304.484 146.148 301.38 142.848 295.449 138.849H288.116L54.4078 145.291C54.4078 145.291 46.1592 139.588 40.6602 133.146C35.1612 126.703 26.3684 91.3316 11.332 66.9921C10.5976 60.9551 10.7921 58.1013 14.0815 55.5864C28.387 55.7559 35.0908 57.965 46.1592 63.3315C71.8214 51.7638 69.0718 48.3421 101.149 39.2175C109.398 18.849 119.48 4.99993 130.478 5C141.476 5.00007 141.476 36.9362 141.476 57.8675C152.474 96.6471 225.794 -20.0926 350.439 43.7798C350.439 46.0609 378.85 43.7798 416.427 138.849ZM416.427 138.849H476M54.4078 147.572H4" stroke="black" stroke-opacity="0.2" stroke-width="2" shape-rendering="crispEdges"/>
<path d="M416.427 138.849C423.759 218.288 414.039 279.721 357.771 346.434C349.522 349.855 348.606 349.855 340.357 346.434C340.357 346.434 336.691 343.012 335.775 340.731C334.858 338.45 333.795 334.886 335.775 330.466C348.675 323.935 355.884 314.053 368.769 303.092C368.769 303.092 376.319 290.259 377.934 284.842C379.548 279.426 393.385 235.29 394.431 227.814C395.478 220.337 396.264 170.785 394.431 158.238C392.598 145.692 382.516 137.708 382.516 137.708C378.85 130.864 362.353 147.973 362.353 147.973C351.533 163.488 354.178 161.545 352.272 168.504C350.439 184.472 357.771 195.138 355.938 206.143C354.105 217.147 330.276 265.052 329.359 266.593C328.443 268.135 323.86 268.874 321.111 268.874C318.361 268.874 315.083 261.077 314.695 256.328L322.027 202.721C318.361 184.503 315.654 174.268 309.196 155.957C304.484 146.148 301.38 142.848 295.449 138.849H288.116L54.4078 145.291C54.4078 145.291 46.1592 139.588 40.6602 133.146C35.1612 126.703 26.3684 91.3316 11.332 66.9921C10.5976 60.9551 10.7921 58.1013 14.0815 55.5864C28.387 55.7559 35.0908 57.965 46.1592 63.3315C71.8214 51.7638 69.0718 48.3421 101.149 39.2175C109.398 18.849 119.48 4.99993 130.478 5C141.476 5.00007 141.476 36.9362 141.476 57.8675C152.474 96.6471 225.794 -20.0926 350.439 43.7798C350.439 46.0609 378.85 43.7798 416.427 138.849ZM416.427 138.849H476M54.4078 147.572H4" stroke="#CA87FF" stroke-width="2" shape-rendering="crispEdges"/>
</g>
<defs>
<filter id="filter0_ddd_349_468" x="0" y="0" width="480" height="358" filterUnits="userSpaceOnUse" color-interpolation-filters="sRGB">
<feFlood flood-opacity="0" result="BackgroundImageFix"/>
<feColorMatrix in="SourceAlpha" type="matrix" values="0 0 0 0 0 0 0 0 0 0 0 0 0 0 0 0 0 0 127 0" result="hardAlpha"/>
<feOffset dy="4"/>
<feGaussianBlur stdDeviation="2"/>
<feComposite in2="hardAlpha" operator="out"/>
<feColorMatrix type="matrix" values="0 0 0 0 0 0 0 0 0 0 0 0 0 0 0 0 0 0 0.25 0"/>
<feBlend mode="normal" in2="BackgroundImageFix" result="effect1_dropShadow_349_468"/>
<feColorMatrix in="SourceAlpha" type="matrix" values="0 0 0 0 0 0 0 0 0 0 0 0 0 0 0 0 0 0 127 0" result="hardAlpha"/>
<feOffset dy="4"/>
<feGaussianBlur stdDeviation="2"/>
<feComposite in2="hardAlpha" operator="out"/>
<feColorMatrix type="matrix" values="0 0 0 0 0 0 0 0 0 0 0 0 0 0 0 0 0 0 0.25 0"/>
<feBlend mode="normal" in2="effect1_dropShadow_349_468" result="effect2_dropShadow_349_468"/>
<feColorMatrix in="SourceAlpha" type="matrix" values="0 0 0 0 0 0 0 0 0 0 0 0 0 0 0 0 0 0 127 0" result="hardAlpha"/>
<feOffset/>
<feGaussianBlur stdDeviation="2"/>
<feComposite in2="hardAlpha" operator="out"/>
<feColorMatrix type="matrix" values="0 0 0 0 0.6 0 0 0 0 0.133555 0 0 0 0 0.45974 0 0 0 0.25 0"/>
<feBlend mode="normal" in2="effect2_dropShadow_349_468" result="effect3_dropShadow_349_468"/>
<feBlend mode="normal" in="SourceGraphic" in2="effect3_dropShadow_349_468" result="shape"/>
</filter>
</defs>
</svg>
