<svg width="354" height="277" viewBox="0 0 354 277" fill="none" xmlns="http://www.w3.org/2000/svg">
<g filter="url(#filter0_d_1_1708)">
<path d="M90.8487 214.05C82.4565 217.935 86.9754 212.107 70.8362 228.295C64.3806 239.303 68.254 242.541 68.8995 243.836C71.0013 248.052 57.2793 248.368 53.4059 246.426C49.5325 236.066 52.7603 230.885 54.0514 216.64C61.7983 199.157 63.0894 206.28 76.0007 193.977C86.3298 172.609 96.6589 140.88 86.3298 137.643C94.0766 140.071 66.9628 130.52 49.5325 100.734C39.849 76.1287 46.3046 87.784 34.6843 57.9981C29.5199 46.9903 29.5199 52.818 23.0641 37.9251C23.0642 33.3925 22.1074 29.9348 27.5831 23.6796C30.1654 23.0322 30.1654 21.7371 39.8489 26.2697C67.6084 65.7684 45.0136 69.006 81.8109 117.57C92.14 125.987 99.8868 129.873 115.38 125.987C160.57 110.447 202.532 127.93 247.076 124.045C272.253 123.397 284.519 89.7264 288.392 83.8988C289.253 82.6038 291.147 87.4506 292.911 89.7264M90.8487 214.05L92.7854 176.494M90.8487 214.05L89.5576 221.82C88.2666 233.476 97.9501 232.18 108.279 250.958C114.735 256.786 128.292 253.549 123.127 247.073C117.317 239.951 116.672 243.188 112.153 232.18C110.216 216.64 125.709 214.05 136.039 201.747M136.039 201.747C136.684 193.329 139.266 190.739 136.039 183.617M136.039 201.747C167.026 219.23 191.557 206.927 214.798 199.804M214.798 199.804C211.57 215.993 210.924 226.353 212.861 244.483C225.127 254.844 236.102 253.549 232.228 249.016C225.772 243.836 223.19 236.713 224.481 230.885C229 217.935 230.937 214.05 239.975 205.632M214.798 199.804L227.064 192.682M239.975 205.632C229.646 201.1 230.291 200.452 227.064 192.682M239.975 205.632C256.76 214.697 256.107 212.341 266.443 216.64C281.291 230.885 272.253 235.418 276.127 243.836C280.646 251.606 285.81 247.073 287.747 244.483C289.038 226.353 290.329 224.41 283.874 212.107C272.823 201.023 274.348 202.553 267.206 194.916M227.064 192.682L232.228 166.134M264.507 188.797C271.608 164.191 276.772 162.896 299.895 149.298M264.507 188.797C265.152 191.387 266.42 194.076 267.206 194.916M264.507 188.797C265.152 191.387 265.798 193.977 267.206 194.916M305.177 146.061C302.595 146.061 301.454 147.781 299.895 149.298M299.895 149.298C328.418 146.061 326.481 138.29 331 129.873C329.709 122.102 323.253 108.505 302.595 97.4967C299.367 92.9642 301.949 89.7264 298.076 84.5463C297.43 83.8988 296.139 87.784 292.911 89.7264M292.911 89.7264C294.848 92.9641 294.203 95.5541 294.203 95.5541" stroke="#A8A1FA" stroke-width="5"/>
</g>
<defs>
<filter id="filter0_d_1_1708" x="0.5" y="0.50647" width="353.106" height="275.992" filterUnits="userSpaceOnUse" color-interpolation-filters="sRGB">
<feFlood flood-opacity="0" result="BackgroundImageFix"/>
<feColorMatrix in="SourceAlpha" type="matrix" values="0 0 0 0 0 0 0 0 0 0 0 0 0 0 0 0 0 0 127 0" result="hardAlpha"/>
<feOffset/>
<feGaussianBlur stdDeviation="10"/>
<feColorMatrix type="matrix" values="0 0 0 0 0.207843 0 0 0 0 1 0 0 0 0 0.952941 0 0 0 1 0"/>
<feBlend mode="normal" in2="BackgroundImageFix" result="effect1_dropShadow_1_1708"/>
<feBlend mode="normal" in="SourceGraphic" in2="effect1_dropShadow_1_1708" result="shape"/>
</filter>
</defs>
</svg>
