<svg width="61" height="61" viewBox="0 0 61 61" fill="none" xmlns="http://www.w3.org/2000/svg">
<path d="M21.5303 2.47142L25.709 1.02973L24.9536 3.0367L20.3082 5.71877L18.1924 5.36941L21.5303 2.47142Z" fill="#D9D9D9"/>
<path d="M21.5303 33.6326L25.709 35.0743L24.9536 33.0673L20.3082 30.3852L18.1924 30.7346L21.5303 33.6326Z" fill="#D9D9D9"/>
<path d="M39.4697 2.47142L35.291 1.02973L36.0464 3.0367L40.6918 5.71877L42.8076 5.36941L39.4697 2.47142Z" fill="#D9D9D9"/>
<path d="M39.4697 33.6326L35.291 35.0743L36.0464 33.0673L40.6918 30.3852L42.8076 30.7346L39.4697 33.6326Z" fill="#D9D9D9"/>
<path d="M30.5002 3.92236e-07L26.2331 0.822503L27.863 2.15334L33.1374 2.15334L34.7672 0.822503L30.5002 3.92236e-07Z" fill="#D9D9D9"/>
<path d="M30.5002 36.0762L26.2331 35.2537L27.863 33.9228L33.1374 33.9228L34.7672 35.2537L30.5002 36.0762Z" fill="#D9D9D9"/>
<path d="M12.8281 18.0384L13.6506 22.3055L14.9815 20.6756L14.9815 15.4012L13.6506 13.7714L12.8281 18.0384Z" fill="#D9D9D9"/>
<path d="M48.1719 18.0384L47.3494 22.3055L46.0185 20.6756L46.0185 15.4012L47.3494 13.7714L48.1719 18.0384Z" fill="#D9D9D9"/>
<path d="M15.1096 9.17727L13.6679 13.3559L15.6749 12.6006L18.357 7.95514L18.0076 5.83939L15.1096 9.17727Z" fill="#D9D9D9"/>
<path d="M15.1096 26.9267L13.6679 22.7481L15.6749 23.5034L18.357 28.1489L18.0076 30.2646L15.1096 26.9267Z" fill="#D9D9D9"/>
<path d="M45.8904 9.17727L47.3321 13.3559L45.3251 12.6006L42.643 7.95514L42.9924 5.83939L45.8904 9.17727Z" fill="#D9D9D9"/>
<path d="M45.8904 26.9267L47.3321 22.7481L45.3251 23.5034L42.643 28.1489L42.9924 30.2646L45.8904 26.9267Z" fill="#D9D9D9"/>
<path d="M21.5303 27.3953L25.709 25.9536L24.9536 27.9605L20.3082 30.6426L18.1924 30.2932L21.5303 27.3953Z" fill="#D9D9D9"/>
<path d="M21.5303 58.5564L25.709 59.9981L24.9536 57.9911L20.3082 55.3091L18.1924 55.6584L21.5303 58.5564Z" fill="#D9D9D9"/>
<path d="M39.4697 27.3953L35.291 25.9536L36.0464 27.9605L40.6918 30.6426L42.8076 30.2932L39.4697 27.3953Z" fill="#D9D9D9"/>
<path d="M39.4697 58.5564L35.291 59.9981L36.0464 57.9911L40.6918 55.3091L42.8076 55.6584L39.4697 58.5564Z" fill="#D9D9D9"/>
<path d="M30.5002 24.9238L26.2331 25.7463L27.863 27.0772L33.1374 27.0772L34.7672 25.7463L30.5002 24.9238Z" fill="#D9D9D9"/>
<path d="M30.5002 61L26.2331 60.1775L27.863 58.8467L33.1374 58.8467L34.7672 60.1775L30.5002 61Z" fill="#D9D9D9"/>
<path d="M12.8281 42.9622L13.6506 47.2293L14.9815 45.5994L14.9815 40.3251L13.6506 38.6952L12.8281 42.9622Z" fill="#D9D9D9"/>
<path d="M48.1719 42.9622L47.3494 47.2293L46.0185 45.5994L46.0185 40.3251L47.3494 38.6952L48.1719 42.9622Z" fill="#D9D9D9"/>
<path d="M15.1096 34.1011L13.6679 38.2798L15.6749 37.5244L18.357 32.879L18.0076 30.7632L15.1096 34.1011Z" fill="#D9D9D9"/>
<path d="M15.1096 51.8506L13.6679 47.6719L15.6749 48.4272L18.357 53.0727L18.0076 55.1884L15.1096 51.8506Z" fill="#D9D9D9"/>
<path d="M45.8904 34.1011L47.3321 38.2798L45.3251 37.5244L42.643 32.879L42.9924 30.7632L45.8904 34.1011Z" fill="#D9D9D9"/>
<path d="M45.8904 51.8506L47.3321 47.6719L45.3251 48.4272L42.643 53.0727L42.9924 55.1884L45.8904 51.8506Z" fill="#D9D9D9"/>
<path d="M58.5286 21.5303L59.9703 25.709L57.9633 24.9536L55.2812 20.3082L55.6306 18.1924L58.5286 21.5303Z" fill="#D9D9D9"/>
<path d="M27.3674 21.5303L25.9257 25.709L27.9327 24.9536L30.6148 20.3082L30.2654 18.1924L27.3674 21.5303Z" fill="#D9D9D9"/>
<path d="M58.5286 39.4697L59.9703 35.291L57.9633 36.0464L55.2812 40.6918L55.6306 42.8076L58.5286 39.4697Z" fill="#D9D9D9"/>
<path d="M27.3674 39.4697L25.9257 35.291L27.9327 36.0464L30.6148 40.6918L30.2654 42.8076L27.3674 39.4697Z" fill="#D9D9D9"/>
<path d="M61 30.5002L60.1775 26.2331L58.8467 27.863L58.8467 33.1374L60.1775 34.7672L61 30.5002Z" fill="#D9D9D9"/>
<path d="M24.9238 30.5002L25.7463 26.2331L27.0772 27.863L27.0772 33.1374L25.7463 34.7672L24.9238 30.5002Z" fill="#D9D9D9"/>
<path d="M42.9616 12.8281L38.6945 13.6506L40.3244 14.9815L45.5988 14.9815L47.2286 13.6506L42.9616 12.8281Z" fill="#D9D9D9"/>
<path d="M42.9616 48.1719L38.6945 47.3494L40.3244 46.0185L45.5988 46.0185L47.2286 47.3494L42.9616 48.1719Z" fill="#D9D9D9"/>
<path d="M51.8227 15.1096L47.6441 13.6679L48.3994 15.6749L53.0449 18.357L55.1606 18.0076L51.8227 15.1096Z" fill="#D9D9D9"/>
<path d="M34.0733 15.1096L38.2519 13.6679L37.4966 15.6749L32.8511 18.357L30.7354 18.0076L34.0733 15.1096Z" fill="#D9D9D9"/>
<path d="M51.8227 45.8904L47.6441 47.3321L48.3994 45.3251L53.0449 42.643L55.1606 42.9924L51.8227 45.8904Z" fill="#D9D9D9"/>
<path d="M34.0733 45.8904L38.2519 47.3321L37.4966 45.3251L32.8511 42.643L30.7354 42.9924L34.0733 45.8904Z" fill="#D9D9D9"/>
<path d="M33.6047 21.5303L35.0464 25.709L33.0395 24.9536L30.3574 20.3082L30.7068 18.1924L33.6047 21.5303Z" fill="#D9D9D9"/>
<path d="M2.44359 21.5303L1.00189 25.709L3.00886 24.9536L5.69094 20.3082L5.34158 18.1924L2.44359 21.5303Z" fill="#D9D9D9"/>
<path d="M33.6047 39.4697L35.0464 35.291L33.0395 36.0464L30.3574 40.6918L30.7068 42.8076L33.6047 39.4697Z" fill="#D9D9D9"/>
<path d="M2.44359 39.4697L1.0019 35.291L3.00887 36.0464L5.69094 40.6918L5.34158 42.8076L2.44359 39.4697Z" fill="#D9D9D9"/>
<path d="M36.0762 30.5002L35.2537 26.2331L33.9228 27.863L33.9228 33.1374L35.2537 34.7672L36.0762 30.5002Z" fill="#D9D9D9"/>
<path d="M5.88354e-07 30.5002L0.822504 26.2331L2.15334 27.863L2.15334 33.1374L0.822503 34.7672L5.88354e-07 30.5002Z" fill="#D9D9D9"/>
<path d="M18.0378 12.8281L13.7707 13.6506L15.4006 14.9815L20.6749 14.9815L22.3048 13.6506L18.0378 12.8281Z" fill="#D9D9D9"/>
<path d="M18.0378 48.1719L13.7707 47.3494L15.4006 46.0185L20.6749 46.0185L22.3048 47.3494L18.0378 48.1719Z" fill="#D9D9D9"/>
<path d="M26.8989 15.1096L22.7202 13.6679L23.4755 15.6749L28.121 18.357L30.2368 18.0076L26.8989 15.1096Z" fill="#D9D9D9"/>
<path d="M9.14944 15.1096L13.3281 13.6679L12.5728 15.6749L7.92731 18.357L5.81156 18.0076L9.14944 15.1096Z" fill="#D9D9D9"/>
<path d="M26.8989 45.8904L22.7202 47.3321L23.4756 45.3251L28.121 42.643L30.2368 42.9924L26.8989 45.8904Z" fill="#D9D9D9"/>
<path d="M9.14944 45.8904L13.3281 47.3321L12.5728 45.3251L7.92731 42.643L5.81156 42.9924L9.14944 45.8904Z" fill="#D9D9D9"/>
</svg>
