<svg width="1728" height="2266" viewBox="0 0 1728 2266" fill="none" xmlns="http://www.w3.org/2000/svg">
<g filter="url(#filter0_f_40000006_12)">
<path d="M1604.19 2131.25C1608.31 2053.71 1459.42 2188.13 1384.47 2265.03C1373.52 2276.68 1345.84 2312.21 1322.66 2361.18C1293.68 2422.38 1377.44 2427.83 1354.77 2475.73C1332.09 2523.63 1291.24 2431 1267.86 2476.94C1244.48 2522.88 1218.62 2453.63 1244.23 2389.2C1269.84 2324.78 1294.92 2326.87 1273.12 2262.8C1251.32 2198.74 1272.46 2171.28 1319.73 2164.34C1367 2157.4 1399.24 2034.23 1454.27 1990.24C1509.31 1946.26 1599.16 1959.48 1619.62 1991.96C1640.08 2024.45 1755 2008.82 1778.93 1958.26C1802.87 1907.7 1785.85 1912.67 1759.79 1864.5C1733.72 1816.33 1761.66 1798.61 1774.25 1772C1786.85 1745.38 1754.47 1648.62 1776.16 1585.59C1797.85 1522.57 1726.76 1493.8 1693 1485.96C1659.24 1478.12 1547.6 1431.79 1568.38 1387.88C1589.17 1343.97 1395.93 1270.41 1315.88 1253.69C1235.82 1236.96 1246.95 1203.14 1334.76 1182.82C1422.58 1162.5 1571.05 1175.78 1686.05 1194.38C1801.04 1212.99 1944.37 1354.14 1967.63 1363.52C1990.88 1372.89 2117.77 1576.29 2110.21 1592.26C2102.65 1608.23 2041.49 1672.45 2105.56 1712.21C2206.44 1774.81 2150.11 2046.36 2152.75 2067.16C2081.58 2272.55 2010.19 2388.94 1943.67 2443.43C1911.46 2469.81 1798.43 2281.83 1808.91 2187.44C1819.38 2093.05 1722.63 2187.31 1680.04 2167.15C1637.46 2146.99 1702.47 2229.89 1621.46 2290.9C1540.46 2351.9 1601.39 2367.72 1646.41 2348.31C1691.44 2328.91 1757.43 2395.98 1716.94 2381.7C1676.46 2367.42 1632.52 2498.09 1556.97 2537.25C1481.42 2576.41 1526.2 2454.28 1483.25 2386.71C1440.3 2319.15 1599.03 2228.16 1604.19 2131.25Z" fill="#B8FBFF" fill-opacity="0.25"/>
</g>
<g filter="url(#filter1_f_40000006_12)">
<path d="M-146.192 1418.73C-256.392 1381.68 -122.173 1650.38 -41.2881 1789.37C-28.8709 1809.83 11.3 1864.03 72.6457 1917.11C149.328 1983.46 190.773 1864.82 250.785 1916.75C310.797 1968.68 160.773 1990.45 217.675 2042.61C274.578 2094.76 164.303 2104.28 81.6271 2041.49C-1.04901 1978.69 12.0276 1943.37 -89.1431 1949.11C-190.314 1954.85 -221.443 1913.34 -212.502 1842.36C-203.56 1771.39 -368.335 1675.45 -409.725 1578.42C-451.114 1481.38 -396.013 1357.06 -340.94 1340.59C-285.867 1324.11 -262.345 1152.06 -325.691 1097.24C-389.037 1042.43 -388.683 1068.97 -468.632 1087.25C-548.581 1105.52 -562.944 1058.11 -596.284 1029.26C-629.624 1000.41 -782.214 1008.3 -864.442 951.726C-946.669 895.149 -1016.68 986.161 -1041.52 1031.71C-1066.36 1077.27 -1177.98 1219.73 -1232.99 1172.13C-1288 1124.53 -1471.61 1373.78 -1527.83 1482.55C-1584.06 1591.32 -1628.39 1561.7 -1622.5 1426.87C-1616.61 1292.04 -1537.92 1083.18 -1464.96 924.758C-1392.01 766.331 -1232.99 680.393 -1108.05 586.417C-941.925 461.454 -740.882 455.195 -720.878 472.505C-700.874 489.814 -632.741 603.817 -549.693 527.347C-418.929 406.939 -49.7578 597.148 -18.6947 601.677C249.083 786.747 388.374 936.43 440.312 1054.25C465.462 1111.31 148.945 1198.94 16.9653 1145.95C-115.014 1092.97 -17.8108 1270.37 -63.9704 1323.71C-110.13 1377.06 35.5328 1316.53 91.0605 1457.86C146.588 1599.2 193.837 1517.65 183.896 1444.91C173.955 1372.17 297.179 1303.89 260.348 1356.56C223.517 1409.23 394.416 1525.04 420.611 1649.74C446.807 1774.44 288.57 1660.84 173.873 1695.69C59.1753 1730.54 -8.44267 1465.05 -146.192 1418.73Z" fill="#B8FBFF" fill-opacity="0.25"/>
</g>
<defs>
<filter id="filter0_f_40000006_12" x="1022.82" y="961.815" width="1354.05" height="1793.81" filterUnits="userSpaceOnUse" color-interpolation-filters="sRGB">
<feFlood flood-opacity="0" result="BackgroundImageFix"/>
<feBlend mode="normal" in="SourceGraphic" in2="BackgroundImageFix" result="shape"/>
<feGaussianBlur stdDeviation="105.4" result="effect1_foregroundBlur_40000006_12"/>
</filter>
<filter id="filter1_f_40000006_12" x="-1833.03" y="255.425" width="2484.75" height="2039.79" filterUnits="userSpaceOnUse" color-interpolation-filters="sRGB">
<feFlood flood-opacity="0" result="BackgroundImageFix"/>
<feBlend mode="normal" in="SourceGraphic" in2="BackgroundImageFix" result="shape"/>
<feGaussianBlur stdDeviation="105" result="effect1_foregroundBlur_40000006_12"/>
</filter>
</defs>
</svg>
