<svg width="336" height="580" viewBox="0 0 336 580" fill="none" xmlns="http://www.w3.org/2000/svg">
<g filter="url(#filter0_df_40000014_263)">
<path fill-rule="evenodd" clip-rule="evenodd" d="M-10.1039 344.469L-17.9326 443.307L-19.8883 442.825L-12.0596 343.988L-10.1039 344.469ZM55.9233 347.926L37.9484 311.354L39.6689 310.669L57.6437 347.241L55.9233 347.926ZM8.02373 289.219L-5.83637 319.902L-7.63803 318.81L6.22209 288.127L8.02373 289.219ZM14.8052 287.284L32.0715 301.057L31.0403 302.599L13.774 288.826L14.8052 287.284ZM36.9108 294.468L56.6834 212.966L58.5915 213.747L38.8189 295.249L36.9108 294.468ZM9.59102 270.592L19.3836 140.738L21.3399 141.212L11.5473 271.066L9.59102 270.592ZM87.4738 190.246L62.403 207.344L61.1541 205.587L86.2249 188.489L87.4738 190.246ZM25.4918 136.35L57.359 202.494L55.6301 203.161L23.7628 137.017L25.4918 136.35ZM130.95 112.663L92.6733 184.778L90.9188 183.589L129.196 111.475L130.95 112.663ZM63.7711 64.7013L25.8925 125.567L24.1946 124.281L62.0731 63.4146L63.7711 64.7013ZM69.1586 64.8007L79.4529 85.9246L77.7288 86.6016L67.4345 65.4778L69.1586 64.8007ZM104.886 53.3852L84.6103 87.9263L82.8904 86.6759L103.166 52.1348L104.886 53.3852Z" fill="white" fill-opacity="0.25" shape-rendering="crispEdges"/>
</g>
<g filter="url(#filter1_df_40000014_263)">
<path d="M130.576 107.958C130.634 106.322 131.237 105.108 131.923 105.246C132.609 105.384 133.118 106.822 133.06 108.458C133.003 110.094 132.399 111.308 131.713 111.17C131.027 111.032 130.518 109.594 130.576 107.958Z" fill="white"/>
</g>
<g filter="url(#filter2_df_40000014_263)">
<path fill-rule="evenodd" clip-rule="evenodd" d="M131.876 106.564C131.713 106.919 131.58 107.474 131.556 108.155C131.532 108.837 131.624 109.437 131.76 109.852C131.923 109.497 132.056 108.942 132.08 108.261C132.104 107.579 132.013 106.979 131.876 106.564ZM131.923 105.246C131.237 105.108 130.634 106.322 130.576 107.958C130.518 109.594 131.027 111.032 131.713 111.17C132.399 111.308 133.003 110.094 133.06 108.458C133.118 106.822 132.609 105.384 131.923 105.246Z" fill="white" fill-opacity="0.25" shape-rendering="crispEdges"/>
</g>
<g filter="url(#filter3_df_40000014_263)">
<path d="M105.548 47.5274C105.605 45.8917 106.209 44.6776 106.895 44.8156C107.581 44.9536 108.09 46.3915 108.032 48.0273C107.974 49.663 107.371 50.8771 106.685 50.7391C105.999 50.601 105.49 49.1631 105.548 47.5274Z" fill="white"/>
</g>
<g filter="url(#filter4_df_40000014_263)">
<path fill-rule="evenodd" clip-rule="evenodd" d="M106.848 46.1329C106.684 46.4884 106.552 47.043 106.528 47.7246C106.504 48.4062 106.595 49.006 106.732 49.4218C106.895 49.0663 107.028 48.5116 107.052 47.83C107.076 47.1484 106.984 46.5487 106.848 46.1329ZM106.895 44.8156C106.209 44.6776 105.605 45.8917 105.548 47.5274C105.49 49.1631 105.999 50.601 106.685 50.7391C107.371 50.8771 107.974 49.663 108.032 48.0273C108.09 46.3915 107.581 44.9536 106.895 44.8156Z" fill="white" fill-opacity="0.25" shape-rendering="crispEdges"/>
</g>
<g filter="url(#filter5_df_40000014_263)">
<path d="M88.0929 187.191C88.1508 185.555 88.7539 184.341 89.44 184.479C90.1261 184.617 90.6354 186.055 90.5775 187.691C90.5196 189.327 89.9165 190.541 89.2304 190.403C88.5443 190.265 88.035 188.827 88.0929 187.191Z" fill="white"/>
</g>
<g filter="url(#filter6_df_40000014_263)">
<path fill-rule="evenodd" clip-rule="evenodd" d="M89.3934 185.797C89.2299 186.152 89.0974 186.707 89.0733 187.388C89.0491 188.07 89.1408 188.67 89.277 189.086C89.4405 188.73 89.573 188.175 89.5971 187.494C89.6213 186.812 89.5297 186.212 89.3934 185.797ZM89.44 184.479C88.7539 184.341 88.1508 185.555 88.0929 187.191C88.035 188.827 88.5443 190.265 89.2304 190.403C89.9165 190.541 90.5196 189.327 90.5775 187.691C90.6354 186.055 90.1261 184.617 89.44 184.479Z" fill="white" fill-opacity="0.25" shape-rendering="crispEdges"/>
</g>
<g filter="url(#filter7_df_40000014_263)">
<path d="M57.8766 354.117C57.9345 352.481 58.5376 351.267 59.2237 351.405C59.9098 351.543 60.4191 352.981 60.3612 354.617C60.3033 356.252 59.7002 357.466 59.0141 357.328C58.328 357.19 57.8187 355.752 57.8766 354.117Z" fill="white"/>
</g>
<g filter="url(#filter8_df_40000014_263)">
<path fill-rule="evenodd" clip-rule="evenodd" d="M59.1771 352.722C59.0136 353.078 58.8811 353.632 58.857 354.314C58.8328 354.996 58.9244 355.595 59.0607 356.011C59.2242 355.656 59.3567 355.101 59.3808 354.419C59.405 353.738 59.3134 353.138 59.1771 352.722ZM59.2237 351.405C58.5376 351.267 57.9345 352.481 57.8766 354.117C57.8187 355.752 58.328 357.19 59.0141 357.328C59.7002 357.466 60.3033 356.252 60.3612 354.617C60.4191 352.981 59.9098 351.543 59.2237 351.405Z" fill="white" fill-opacity="0.25" shape-rendering="crispEdges"/>
</g>
<g filter="url(#filter9_df_40000014_263)">
<path d="M57.6744 208.343C57.7323 206.707 58.256 205.477 58.8441 205.595C59.4322 205.714 59.862 207.135 59.8041 208.771C59.7462 210.407 59.2225 211.637 58.6344 211.519C58.0463 211.4 57.6165 209.978 57.6744 208.343Z" fill="white"/>
</g>
<g filter="url(#filter10_df_40000014_263)">
<path fill-rule="evenodd" clip-rule="evenodd" d="M58.7774 207.48C58.7139 207.783 58.6689 208.142 58.6548 208.54C58.6407 208.938 58.6598 209.309 58.7011 209.634C58.7646 209.331 58.8096 208.972 58.8237 208.574C58.8378 208.176 58.8186 207.804 58.7774 207.48ZM58.8441 205.595C58.256 205.477 57.7323 206.707 57.6744 208.343C57.6165 209.978 58.0463 211.4 58.6344 211.519C59.2225 211.637 59.7462 210.407 59.8041 208.771C59.862 207.135 59.4322 205.714 58.8441 205.595Z" fill="white" fill-opacity="0.25" shape-rendering="crispEdges"/>
</g>
<g filter="url(#filter11_df_40000014_263)">
<path d="M79.7195 90.482C79.8022 88.1452 80.5843 86.3948 81.4665 86.5722C82.3486 86.7497 82.9966 88.7879 82.9139 91.1247C82.8312 93.4614 82.0491 95.2118 81.1669 95.0344C80.2848 94.8569 79.6368 92.8187 79.7195 90.482Z" fill="white"/>
</g>
<g filter="url(#filter12_df_40000014_263)">
<path fill-rule="evenodd" clip-rule="evenodd" d="M81.1954 88.1273C80.9375 88.7044 80.738 89.6015 80.6998 90.6792C80.6617 91.7569 80.7954 92.721 81.009 93.393C81.077 93.6067 81.1462 93.7693 81.2075 93.8871C81.2763 93.7955 81.356 93.6628 81.438 93.4793C81.6959 92.9022 81.8954 92.0051 81.9336 90.9274C81.9717 89.8497 81.838 88.8856 81.6244 88.2136C81.5564 87.9999 81.4872 87.8373 81.4259 87.7195C81.3571 87.8111 81.2774 87.9438 81.1954 88.1273ZM81.5784 87.565C81.5784 87.5651 81.5775 87.5655 81.5759 87.5663C81.5775 87.5653 81.5784 87.565 81.5784 87.565ZM81.2887 87.5085C81.2872 87.5071 81.2864 87.5063 81.2864 87.5063C81.2864 87.5062 81.2872 87.5069 81.2887 87.5085ZM81.055 94.0416C81.055 94.0416 81.0559 94.0411 81.0575 94.0403C81.0559 94.0413 81.055 94.0417 81.055 94.0416ZM81.3447 94.0981C81.3462 94.0995 81.347 94.1003 81.347 94.1004C81.347 94.1004 81.3462 94.0997 81.3447 94.0981ZM81.4665 86.5722C80.5843 86.3948 79.8022 88.1452 79.7195 90.482C79.6368 92.8187 80.2848 94.8569 81.1669 95.0344C82.0491 95.2118 82.8312 93.4614 82.9139 91.1247C82.9966 88.7879 82.3486 86.7497 81.4665 86.5722Z" fill="white" fill-opacity="0.25" shape-rendering="crispEdges"/>
</g>
<g filter="url(#filter13_d_40000014_263)">
<path d="M-10.992 330.46C-10.9092 328.123 -10.1271 326.373 -9.24496 326.55C-8.36284 326.728 -7.71479 328.766 -7.7975 331.102C-7.88021 333.439 -8.66237 335.19 -9.54449 335.012C-10.4266 334.835 -11.0747 332.796 -10.992 330.46Z" fill="white"/>
</g>
<g filter="url(#filter14_d_40000014_263)">
<path fill-rule="evenodd" clip-rule="evenodd" d="M-9.51599 328.105C-9.77389 328.682 -9.97345 329.579 -10.0116 330.657C-10.0497 331.735 -9.91606 332.699 -9.70238 333.371C-9.63445 333.584 -9.56523 333.747 -9.50388 333.865C-9.43512 333.773 -9.35545 333.641 -9.27346 333.457C-9.01556 332.88 -8.816 331.983 -8.77786 330.905C-8.73971 329.827 -8.87339 328.863 -9.08707 328.191C-9.155 327.978 -9.22423 327.815 -9.28557 327.697C-9.35433 327.789 -9.434 327.922 -9.51599 328.105ZM-9.13306 327.543C-9.13306 327.543 -9.1339 327.543 -9.13557 327.544C-9.1339 327.543 -9.13306 327.543 -9.13306 327.543ZM-9.42268 327.486C-9.42427 327.485 -9.42506 327.484 -9.42506 327.484C-9.42506 327.484 -9.42426 327.485 -9.42268 327.486ZM-9.65639 334.019C-9.65639 334.019 -9.65555 334.019 -9.65388 334.018C-9.65555 334.019 -9.65639 334.019 -9.65639 334.019ZM-9.36677 334.076C-9.36518 334.077 -9.36439 334.078 -9.36439 334.078C-9.36439 334.078 -9.36519 334.077 -9.36677 334.076ZM-9.24496 326.55C-10.1271 326.373 -10.9092 328.123 -10.992 330.46C-11.0747 332.796 -10.4266 334.835 -9.54449 335.012C-8.66237 335.19 -7.88021 333.439 -7.7975 331.102C-7.71479 328.766 -8.36284 326.728 -9.24496 326.55Z" fill="white" fill-opacity="0.25" shape-rendering="crispEdges"/>
</g>
<g filter="url(#filter15_df_40000014_263)">
<path d="M64.4104 58.426C64.4931 56.0893 65.2753 54.3389 66.1574 54.5163C67.0395 54.6938 67.6876 56.732 67.6048 59.0687C67.5221 61.4055 66.74 63.1559 65.8579 62.9785C64.9757 62.801 64.3277 60.7628 64.4104 58.426Z" fill="white"/>
</g>
<g filter="url(#filter16_df_40000014_263)">
<path fill-rule="evenodd" clip-rule="evenodd" d="M65.8864 56.0714C65.6285 56.6485 65.4289 57.5456 65.3907 58.6233C65.3526 59.701 65.4863 60.6651 65.7 61.3371C65.7679 61.5508 65.8371 61.7134 65.8985 61.8312C65.9672 61.7396 66.0469 61.6069 66.1289 61.4234C66.3868 60.8463 66.5863 59.9492 66.6245 58.8715C66.6626 57.7938 66.529 56.8297 66.3153 56.1577C66.2473 55.944 66.1781 55.7814 66.1168 55.6636C66.048 55.7552 65.9683 55.8879 65.8864 56.0714ZM66.2693 55.5091C66.2693 55.5091 66.2684 55.5096 66.2668 55.5104C66.2684 55.5094 66.2693 55.509 66.2693 55.5091ZM65.9797 55.4526C65.9781 55.4512 65.9773 55.4504 65.9773 55.4503C65.9773 55.4503 65.9781 55.451 65.9797 55.4526ZM65.746 61.9857C65.746 61.9856 65.7468 61.9852 65.7485 61.9844C65.7468 61.9854 65.746 61.9858 65.746 61.9857ZM66.0356 62.0422C66.0372 62.0436 66.038 62.0444 66.038 62.0444C66.038 62.0445 66.0372 62.0438 66.0356 62.0422ZM66.1574 54.5163C65.2753 54.3389 64.4931 56.0893 64.4104 58.426C64.3277 60.7628 64.9757 62.801 65.8579 62.9785C66.74 63.1559 67.5221 61.4055 67.6048 59.0687C67.6876 56.732 67.0395 54.6938 66.1574 54.5163Z" fill="white" fill-opacity="0.25" shape-rendering="crispEdges"/>
</g>
<g filter="url(#filter17_df_40000014_263)">
<path d="M18.6322 129.752C18.7397 126.714 19.7804 124.443 20.9565 124.68C22.1327 124.917 22.999 127.571 22.8915 130.609C22.7839 133.647 21.7433 135.917 20.5671 135.681C19.391 135.444 18.5247 132.79 18.6322 129.752Z" fill="white"/>
</g>
<g filter="url(#filter18_df_40000014_263)">
<path fill-rule="evenodd" clip-rule="evenodd" d="M20.2925 126.538C19.9326 127.324 19.663 128.523 19.6126 129.949C19.5621 131.375 19.7435 132.665 20.0432 133.583C20.194 134.046 20.3575 134.36 20.4944 134.544C20.5431 134.61 20.5795 134.648 20.603 134.669C20.6276 134.657 20.6661 134.634 20.7188 134.589C20.8667 134.462 21.0499 134.218 21.2311 133.822C21.5911 133.037 21.8607 131.837 21.9111 130.412C21.9616 128.986 21.7801 127.695 21.4805 126.777C21.3296 126.315 21.1662 126.001 21.0293 125.817C20.9806 125.751 20.9442 125.713 20.9207 125.692C20.8961 125.703 20.8576 125.726 20.8049 125.771C20.657 125.898 20.4738 126.143 20.2925 126.538ZM20.9536 125.681C20.9536 125.681 20.9517 125.682 20.948 125.682C20.9517 125.681 20.9536 125.681 20.9536 125.681ZM20.8945 125.671C20.8909 125.67 20.8891 125.669 20.8891 125.668C20.8891 125.668 20.8909 125.669 20.8945 125.671ZM20.5701 134.679C20.5701 134.679 20.572 134.679 20.5757 134.679C20.572 134.679 20.5701 134.679 20.5701 134.679ZM20.6292 134.689C20.6328 134.691 20.6346 134.692 20.6346 134.692C20.6346 134.692 20.6328 134.692 20.6292 134.689ZM20.9565 124.68C19.7804 124.443 18.7397 126.714 18.6322 129.752C18.5247 132.79 19.391 135.444 20.5671 135.681C21.7433 135.917 22.7839 133.647 22.8915 130.609C22.999 127.571 22.1327 124.917 20.9565 124.68Z" fill="white" fill-opacity="0.25" shape-rendering="crispEdges"/>
</g>
<g filter="url(#filter19_df_40000014_263)">
<path d="M8.59656 281.988C8.70409 278.95 9.74472 276.68 10.9209 276.916C12.097 277.153 12.9634 279.807 12.8558 282.845C12.7483 285.883 11.7077 288.154 10.5315 287.917C9.35534 287.68 8.48904 285.026 8.59656 281.988Z" fill="white"/>
</g>
<g filter="url(#filter20_df_40000014_263)">
<path fill-rule="evenodd" clip-rule="evenodd" d="M10.2569 278.775C9.89695 279.56 9.62738 280.76 9.57692 282.185C9.52645 283.611 9.70789 284.901 10.0075 285.82C10.1584 286.282 10.3219 286.596 10.4587 286.78C10.5075 286.846 10.5438 286.884 10.5673 286.905C10.5919 286.894 10.6305 286.871 10.6831 286.825C10.831 286.699 11.0143 286.454 11.1955 286.059C11.5554 285.273 11.825 284.074 11.8755 282.648C11.9259 281.222 11.7445 279.932 11.4449 279.014C11.294 278.551 11.1305 278.237 10.9936 278.053C10.9449 277.987 10.9085 277.949 10.8851 277.928C10.8604 277.94 10.8219 277.963 10.7693 278.008C10.6214 278.135 10.4381 278.379 10.2569 278.775ZM10.9179 277.918C10.9179 277.918 10.9161 277.918 10.9124 277.918C10.9161 277.918 10.9179 277.917 10.9179 277.918ZM10.8589 277.908C10.8552 277.906 10.8534 277.905 10.8534 277.905C10.8534 277.904 10.8553 277.905 10.8589 277.908ZM10.5345 286.916C10.5345 286.915 10.5363 286.915 10.54 286.915C10.5363 286.916 10.5345 286.916 10.5345 286.916ZM10.5935 286.926C10.5972 286.927 10.599 286.928 10.599 286.929C10.599 286.929 10.5971 286.928 10.5935 286.926ZM10.9209 276.916C9.74472 276.68 8.70409 278.95 8.59656 281.988C8.48904 285.026 9.35534 287.68 10.5315 287.917C11.7077 288.154 12.7483 285.883 12.8558 282.845C12.9634 279.807 12.097 277.153 10.9209 276.916Z" fill="white" fill-opacity="0.25" shape-rendering="crispEdges"/>
</g>
<g filter="url(#filter21_df_40000014_263)">
<path d="M33.5531 304.054C33.6606 301.016 34.7013 298.746 35.8774 298.982C37.0536 299.219 37.9199 301.873 37.8124 304.911C37.7048 307.949 36.6642 310.22 35.488 309.983C34.3119 309.746 33.4456 307.092 33.5531 304.054Z" fill="white"/>
</g>
<g filter="url(#filter22_df_40000014_263)">
<path fill-rule="evenodd" clip-rule="evenodd" d="M35.2134 300.841C34.8535 301.626 34.5839 302.826 34.5335 304.251C34.483 305.677 34.6644 306.967 34.9641 307.885C35.1149 308.348 35.2784 308.662 35.4153 308.846C35.464 308.912 35.5004 308.95 35.5239 308.971C35.5485 308.959 35.587 308.937 35.6397 308.891C35.7876 308.765 35.9708 308.52 36.152 308.124C36.512 307.339 36.7815 306.139 36.832 304.714C36.8825 303.288 36.701 301.998 36.4014 301.08C36.2505 300.617 36.0871 300.303 35.9502 300.119C35.9015 300.053 35.8651 300.015 35.8416 299.994C35.817 300.006 35.7785 300.028 35.7258 300.074C35.5779 300.201 35.3947 300.445 35.2134 300.841ZM35.8745 299.984C35.8745 299.984 35.8726 299.984 35.8689 299.984C35.8726 299.983 35.8745 299.983 35.8745 299.984ZM35.8154 299.974C35.8118 299.972 35.81 299.971 35.81 299.971C35.81 299.97 35.8118 299.971 35.8154 299.974ZM35.491 308.982C35.491 308.981 35.4929 308.981 35.4966 308.981C35.4929 308.982 35.491 308.982 35.491 308.982ZM35.5501 308.992C35.5537 308.993 35.5555 308.994 35.5555 308.994C35.5555 308.995 35.5537 308.994 35.5501 308.992ZM35.8774 298.982C34.7013 298.746 33.6606 301.016 33.5531 304.054C33.4456 307.092 34.3119 309.746 35.488 309.983C36.6642 310.22 37.7048 307.949 37.8124 304.911C37.9199 301.873 37.0536 299.219 35.8774 298.982Z" fill="white" fill-opacity="0.25" shape-rendering="crispEdges"/>
</g>
<path d="M144.722 316.255C144.449 317.471 134.743 314.504 123.043 309.628C111.343 304.751 102.079 299.812 102.352 298.596C102.625 297.381 112.331 300.348 124.031 305.224C135.731 310.101 144.995 315.04 144.722 316.255Z" fill="#BAB8FF"/>
<path d="M233.929 353.134L134.573 314.056L134.623 309.908L233.929 353.134Z" fill="#BAB8FF"/>
<path d="M-26.8692 407.955C-26.8692 407.955 -35.3658 412.272 -26.8701 407.897C-18.3744 403.523 46.4123 448.689 59.9055 458.318C26.0441 441.704 7.06257 456.869 -26.8029 412.104L-26.803 412.099C-31.6669 414.903 -36.0868 415.194 -36.8626 406.848C-47.0807 401.127 -55.1994 395.504 -54.9963 394.288C-54.7932 393.072 -46.3452 396.724 -36.1272 402.445C-34.0398 397.242 -30.6024 400.632 -26.8692 407.955Z" fill="#BAB8FF"/>
<path d="M64.8425 459.328C64.6394 460.544 57.4142 457.577 48.7046 452.701C39.995 447.824 33.0991 442.885 33.3022 441.669C33.5053 440.454 40.7305 443.421 49.4401 448.297C58.1497 453.174 65.0455 458.113 64.8425 459.328Z" fill="#BAB8FF"/>
<path d="M131.249 496.207L57.2878 457.129L57.3245 452.981L131.249 496.207Z" fill="#BAB8FF"/>
<path d="M222.136 318.747C221.863 319.963 214.537 317.988 205.773 314.335C197.01 310.683 190.126 306.736 190.399 305.52C190.672 304.304 197.998 306.279 206.761 309.932C215.525 313.585 222.409 317.531 222.136 318.747Z" fill="#FFF7E2"/>
<path d="M288.971 346.302L214.429 317.567L214.681 313.502L288.971 346.302Z" fill="#FFF7E2"/>
<defs>
<filter id="filter0_df_40000014_263" x="-39.8882" y="32.1348" width="190.838" height="431.173" filterUnits="userSpaceOnUse" color-interpolation-filters="sRGB">
<feFlood flood-opacity="0" result="BackgroundImageFix"/>
<feColorMatrix in="SourceAlpha" type="matrix" values="0 0 0 0 0 0 0 0 0 0 0 0 0 0 0 0 0 0 127 0" result="hardAlpha"/>
<feOffset/>
<feGaussianBlur stdDeviation="10"/>
<feComposite in2="hardAlpha" operator="out"/>
<feColorMatrix type="matrix" values="0 0 0 0 1 0 0 0 0 1 0 0 0 0 1 0 0 0 0.5 0"/>
<feBlend mode="normal" in2="BackgroundImageFix" result="effect1_dropShadow_40000014_263"/>
<feBlend mode="normal" in="SourceGraphic" in2="effect1_dropShadow_40000014_263" result="shape"/>
<feGaussianBlur stdDeviation="2" result="effect2_foregroundBlur_40000014_263"/>
</filter>
<filter id="filter1_df_40000014_263" x="120.571" y="95.2356" width="22.4937" height="25.9448" filterUnits="userSpaceOnUse" color-interpolation-filters="sRGB">
<feFlood flood-opacity="0" result="BackgroundImageFix"/>
<feColorMatrix in="SourceAlpha" type="matrix" values="0 0 0 0 0 0 0 0 0 0 0 0 0 0 0 0 0 0 127 0" result="hardAlpha"/>
<feOffset/>
<feGaussianBlur stdDeviation="5"/>
<feComposite in2="hardAlpha" operator="out"/>
<feColorMatrix type="matrix" values="0 0 0 0 1 0 0 0 0 1 0 0 0 0 1 0 0 0 0.5 0"/>
<feBlend mode="normal" in2="BackgroundImageFix" result="effect1_dropShadow_40000014_263"/>
<feBlend mode="normal" in="SourceGraphic" in2="effect1_dropShadow_40000014_263" result="shape"/>
<feGaussianBlur stdDeviation="1" result="effect2_foregroundBlur_40000014_263"/>
</filter>
<filter id="filter2_df_40000014_263" x="120.571" y="95.2356" width="22.4937" height="25.9448" filterUnits="userSpaceOnUse" color-interpolation-filters="sRGB">
<feFlood flood-opacity="0" result="BackgroundImageFix"/>
<feColorMatrix in="SourceAlpha" type="matrix" values="0 0 0 0 0 0 0 0 0 0 0 0 0 0 0 0 0 0 127 0" result="hardAlpha"/>
<feOffset/>
<feGaussianBlur stdDeviation="5"/>
<feComposite in2="hardAlpha" operator="out"/>
<feColorMatrix type="matrix" values="0 0 0 0 1 0 0 0 0 1 0 0 0 0 1 0 0 0 0.5 0"/>
<feBlend mode="normal" in2="BackgroundImageFix" result="effect1_dropShadow_40000014_263"/>
<feBlend mode="normal" in="SourceGraphic" in2="effect1_dropShadow_40000014_263" result="shape"/>
<feGaussianBlur stdDeviation="1" result="effect2_foregroundBlur_40000014_263"/>
</filter>
<filter id="filter3_df_40000014_263" x="95.543" y="34.8049" width="22.4937" height="25.9448" filterUnits="userSpaceOnUse" color-interpolation-filters="sRGB">
<feFlood flood-opacity="0" result="BackgroundImageFix"/>
<feColorMatrix in="SourceAlpha" type="matrix" values="0 0 0 0 0 0 0 0 0 0 0 0 0 0 0 0 0 0 127 0" result="hardAlpha"/>
<feOffset/>
<feGaussianBlur stdDeviation="5"/>
<feComposite in2="hardAlpha" operator="out"/>
<feColorMatrix type="matrix" values="0 0 0 0 1 0 0 0 0 1 0 0 0 0 1 0 0 0 0.5 0"/>
<feBlend mode="normal" in2="BackgroundImageFix" result="effect1_dropShadow_40000014_263"/>
<feBlend mode="normal" in="SourceGraphic" in2="effect1_dropShadow_40000014_263" result="shape"/>
<feGaussianBlur stdDeviation="1" result="effect2_foregroundBlur_40000014_263"/>
</filter>
<filter id="filter4_df_40000014_263" x="95.543" y="34.8049" width="22.4937" height="25.9448" filterUnits="userSpaceOnUse" color-interpolation-filters="sRGB">
<feFlood flood-opacity="0" result="BackgroundImageFix"/>
<feColorMatrix in="SourceAlpha" type="matrix" values="0 0 0 0 0 0 0 0 0 0 0 0 0 0 0 0 0 0 127 0" result="hardAlpha"/>
<feOffset/>
<feGaussianBlur stdDeviation="5"/>
<feComposite in2="hardAlpha" operator="out"/>
<feColorMatrix type="matrix" values="0 0 0 0 1 0 0 0 0 1 0 0 0 0 1 0 0 0 0.5 0"/>
<feBlend mode="normal" in2="BackgroundImageFix" result="effect1_dropShadow_40000014_263"/>
<feBlend mode="normal" in="SourceGraphic" in2="effect1_dropShadow_40000014_263" result="shape"/>
<feGaussianBlur stdDeviation="1" result="effect2_foregroundBlur_40000014_263"/>
</filter>
<filter id="filter5_df_40000014_263" x="78.0884" y="174.469" width="22.4937" height="25.9448" filterUnits="userSpaceOnUse" color-interpolation-filters="sRGB">
<feFlood flood-opacity="0" result="BackgroundImageFix"/>
<feColorMatrix in="SourceAlpha" type="matrix" values="0 0 0 0 0 0 0 0 0 0 0 0 0 0 0 0 0 0 127 0" result="hardAlpha"/>
<feOffset/>
<feGaussianBlur stdDeviation="5"/>
<feComposite in2="hardAlpha" operator="out"/>
<feColorMatrix type="matrix" values="0 0 0 0 1 0 0 0 0 1 0 0 0 0 1 0 0 0 0.5 0"/>
<feBlend mode="normal" in2="BackgroundImageFix" result="effect1_dropShadow_40000014_263"/>
<feBlend mode="normal" in="SourceGraphic" in2="effect1_dropShadow_40000014_263" result="shape"/>
<feGaussianBlur stdDeviation="1" result="effect2_foregroundBlur_40000014_263"/>
</filter>
<filter id="filter6_df_40000014_263" x="78.0884" y="174.469" width="22.4937" height="25.9448" filterUnits="userSpaceOnUse" color-interpolation-filters="sRGB">
<feFlood flood-opacity="0" result="BackgroundImageFix"/>
<feColorMatrix in="SourceAlpha" type="matrix" values="0 0 0 0 0 0 0 0 0 0 0 0 0 0 0 0 0 0 127 0" result="hardAlpha"/>
<feOffset/>
<feGaussianBlur stdDeviation="5"/>
<feComposite in2="hardAlpha" operator="out"/>
<feColorMatrix type="matrix" values="0 0 0 0 1 0 0 0 0 1 0 0 0 0 1 0 0 0 0.5 0"/>
<feBlend mode="normal" in2="BackgroundImageFix" result="effect1_dropShadow_40000014_263"/>
<feBlend mode="normal" in="SourceGraphic" in2="effect1_dropShadow_40000014_263" result="shape"/>
<feGaussianBlur stdDeviation="1" result="effect2_foregroundBlur_40000014_263"/>
</filter>
<filter id="filter7_df_40000014_263" x="47.8721" y="341.394" width="22.4937" height="25.9448" filterUnits="userSpaceOnUse" color-interpolation-filters="sRGB">
<feFlood flood-opacity="0" result="BackgroundImageFix"/>
<feColorMatrix in="SourceAlpha" type="matrix" values="0 0 0 0 0 0 0 0 0 0 0 0 0 0 0 0 0 0 127 0" result="hardAlpha"/>
<feOffset/>
<feGaussianBlur stdDeviation="5"/>
<feComposite in2="hardAlpha" operator="out"/>
<feColorMatrix type="matrix" values="0 0 0 0 1 0 0 0 0 1 0 0 0 0 1 0 0 0 0.5 0"/>
<feBlend mode="normal" in2="BackgroundImageFix" result="effect1_dropShadow_40000014_263"/>
<feBlend mode="normal" in="SourceGraphic" in2="effect1_dropShadow_40000014_263" result="shape"/>
<feGaussianBlur stdDeviation="1" result="effect2_foregroundBlur_40000014_263"/>
</filter>
<filter id="filter8_df_40000014_263" x="47.8721" y="341.394" width="22.4937" height="25.9448" filterUnits="userSpaceOnUse" color-interpolation-filters="sRGB">
<feFlood flood-opacity="0" result="BackgroundImageFix"/>
<feColorMatrix in="SourceAlpha" type="matrix" values="0 0 0 0 0 0 0 0 0 0 0 0 0 0 0 0 0 0 127 0" result="hardAlpha"/>
<feOffset/>
<feGaussianBlur stdDeviation="5"/>
<feComposite in2="hardAlpha" operator="out"/>
<feColorMatrix type="matrix" values="0 0 0 0 1 0 0 0 0 1 0 0 0 0 1 0 0 0 0.5 0"/>
<feBlend mode="normal" in2="BackgroundImageFix" result="effect1_dropShadow_40000014_263"/>
<feBlend mode="normal" in="SourceGraphic" in2="effect1_dropShadow_40000014_263" result="shape"/>
<feGaussianBlur stdDeviation="1" result="effect2_foregroundBlur_40000014_263"/>
</filter>
<filter id="filter9_df_40000014_263" x="47.6694" y="195.587" width="22.1396" height="25.9392" filterUnits="userSpaceOnUse" color-interpolation-filters="sRGB">
<feFlood flood-opacity="0" result="BackgroundImageFix"/>
<feColorMatrix in="SourceAlpha" type="matrix" values="0 0 0 0 0 0 0 0 0 0 0 0 0 0 0 0 0 0 127 0" result="hardAlpha"/>
<feOffset/>
<feGaussianBlur stdDeviation="5"/>
<feComposite in2="hardAlpha" operator="out"/>
<feColorMatrix type="matrix" values="0 0 0 0 1 0 0 0 0 1 0 0 0 0 1 0 0 0 0.5 0"/>
<feBlend mode="normal" in2="BackgroundImageFix" result="effect1_dropShadow_40000014_263"/>
<feBlend mode="normal" in="SourceGraphic" in2="effect1_dropShadow_40000014_263" result="shape"/>
<feGaussianBlur stdDeviation="1" result="effect2_foregroundBlur_40000014_263"/>
</filter>
<filter id="filter10_df_40000014_263" x="47.6694" y="195.587" width="22.1396" height="25.9392" filterUnits="userSpaceOnUse" color-interpolation-filters="sRGB">
<feFlood flood-opacity="0" result="BackgroundImageFix"/>
<feColorMatrix in="SourceAlpha" type="matrix" values="0 0 0 0 0 0 0 0 0 0 0 0 0 0 0 0 0 0 127 0" result="hardAlpha"/>
<feOffset/>
<feGaussianBlur stdDeviation="5"/>
<feComposite in2="hardAlpha" operator="out"/>
<feColorMatrix type="matrix" values="0 0 0 0 1 0 0 0 0 1 0 0 0 0 1 0 0 0 0.5 0"/>
<feBlend mode="normal" in2="BackgroundImageFix" result="effect1_dropShadow_40000014_263"/>
<feBlend mode="normal" in="SourceGraphic" in2="effect1_dropShadow_40000014_263" result="shape"/>
<feGaussianBlur stdDeviation="1" result="effect2_foregroundBlur_40000014_263"/>
</filter>
<filter id="filter11_df_40000014_263" x="69.7124" y="76.5598" width="23.2085" height="28.4868" filterUnits="userSpaceOnUse" color-interpolation-filters="sRGB">
<feFlood flood-opacity="0" result="BackgroundImageFix"/>
<feColorMatrix in="SourceAlpha" type="matrix" values="0 0 0 0 0 0 0 0 0 0 0 0 0 0 0 0 0 0 127 0" result="hardAlpha"/>
<feOffset/>
<feGaussianBlur stdDeviation="5"/>
<feComposite in2="hardAlpha" operator="out"/>
<feColorMatrix type="matrix" values="0 0 0 0 1 0 0 0 0 1 0 0 0 0 1 0 0 0 0.5 0"/>
<feBlend mode="normal" in2="BackgroundImageFix" result="effect1_dropShadow_40000014_263"/>
<feBlend mode="normal" in="SourceGraphic" in2="effect1_dropShadow_40000014_263" result="shape"/>
<feGaussianBlur stdDeviation="1" result="effect2_foregroundBlur_40000014_263"/>
</filter>
<filter id="filter12_df_40000014_263" x="69.7124" y="76.5598" width="23.2085" height="28.4868" filterUnits="userSpaceOnUse" color-interpolation-filters="sRGB">
<feFlood flood-opacity="0" result="BackgroundImageFix"/>
<feColorMatrix in="SourceAlpha" type="matrix" values="0 0 0 0 0 0 0 0 0 0 0 0 0 0 0 0 0 0 127 0" result="hardAlpha"/>
<feOffset/>
<feGaussianBlur stdDeviation="5"/>
<feComposite in2="hardAlpha" operator="out"/>
<feColorMatrix type="matrix" values="0 0 0 0 1 0 0 0 0 1 0 0 0 0 1 0 0 0 0.5 0"/>
<feBlend mode="normal" in2="BackgroundImageFix" result="effect1_dropShadow_40000014_263"/>
<feBlend mode="normal" in="SourceGraphic" in2="effect1_dropShadow_40000014_263" result="shape"/>
<feGaussianBlur stdDeviation="1" result="effect2_foregroundBlur_40000014_263"/>
</filter>
<filter id="filter13_d_40000014_263" x="-20.999" y="316.538" width="23.2085" height="28.4868" filterUnits="userSpaceOnUse" color-interpolation-filters="sRGB">
<feFlood flood-opacity="0" result="BackgroundImageFix"/>
<feColorMatrix in="SourceAlpha" type="matrix" values="0 0 0 0 0 0 0 0 0 0 0 0 0 0 0 0 0 0 127 0" result="hardAlpha"/>
<feOffset/>
<feGaussianBlur stdDeviation="5"/>
<feComposite in2="hardAlpha" operator="out"/>
<feColorMatrix type="matrix" values="0 0 0 0 1 0 0 0 0 1 0 0 0 0 1 0 0 0 0.5 0"/>
<feBlend mode="normal" in2="BackgroundImageFix" result="effect1_dropShadow_40000014_263"/>
<feBlend mode="normal" in="SourceGraphic" in2="effect1_dropShadow_40000014_263" result="shape"/>
</filter>
<filter id="filter14_d_40000014_263" x="-20.999" y="316.538" width="23.2085" height="28.4868" filterUnits="userSpaceOnUse" color-interpolation-filters="sRGB">
<feFlood flood-opacity="0" result="BackgroundImageFix"/>
<feColorMatrix in="SourceAlpha" type="matrix" values="0 0 0 0 0 0 0 0 0 0 0 0 0 0 0 0 0 0 127 0" result="hardAlpha"/>
<feOffset/>
<feGaussianBlur stdDeviation="5"/>
<feComposite in2="hardAlpha" operator="out"/>
<feColorMatrix type="matrix" values="0 0 0 0 1 0 0 0 0 1 0 0 0 0 1 0 0 0 0.5 0"/>
<feBlend mode="normal" in2="BackgroundImageFix" result="effect1_dropShadow_40000014_263"/>
<feBlend mode="normal" in="SourceGraphic" in2="effect1_dropShadow_40000014_263" result="shape"/>
</filter>
<filter id="filter15_df_40000014_263" x="54.4033" y="44.5039" width="23.2085" height="28.4868" filterUnits="userSpaceOnUse" color-interpolation-filters="sRGB">
<feFlood flood-opacity="0" result="BackgroundImageFix"/>
<feColorMatrix in="SourceAlpha" type="matrix" values="0 0 0 0 0 0 0 0 0 0 0 0 0 0 0 0 0 0 127 0" result="hardAlpha"/>
<feOffset/>
<feGaussianBlur stdDeviation="5"/>
<feComposite in2="hardAlpha" operator="out"/>
<feColorMatrix type="matrix" values="0 0 0 0 1 0 0 0 0 1 0 0 0 0 1 0 0 0 0.5 0"/>
<feBlend mode="normal" in2="BackgroundImageFix" result="effect1_dropShadow_40000014_263"/>
<feBlend mode="normal" in="SourceGraphic" in2="effect1_dropShadow_40000014_263" result="shape"/>
<feGaussianBlur stdDeviation="1" result="effect2_foregroundBlur_40000014_263"/>
</filter>
<filter id="filter16_df_40000014_263" x="54.4033" y="44.5039" width="23.2085" height="28.4868" filterUnits="userSpaceOnUse" color-interpolation-filters="sRGB">
<feFlood flood-opacity="0" result="BackgroundImageFix"/>
<feColorMatrix in="SourceAlpha" type="matrix" values="0 0 0 0 0 0 0 0 0 0 0 0 0 0 0 0 0 0 127 0" result="hardAlpha"/>
<feOffset/>
<feGaussianBlur stdDeviation="5"/>
<feComposite in2="hardAlpha" operator="out"/>
<feColorMatrix type="matrix" values="0 0 0 0 1 0 0 0 0 1 0 0 0 0 1 0 0 0 0.5 0"/>
<feBlend mode="normal" in2="BackgroundImageFix" result="effect1_dropShadow_40000014_263"/>
<feBlend mode="normal" in="SourceGraphic" in2="effect1_dropShadow_40000014_263" result="shape"/>
<feGaussianBlur stdDeviation="1" result="effect2_foregroundBlur_40000014_263"/>
</filter>
<filter id="filter17_df_40000014_263" x="8.62305" y="114.663" width="24.2773" height="31.0344" filterUnits="userSpaceOnUse" color-interpolation-filters="sRGB">
<feFlood flood-opacity="0" result="BackgroundImageFix"/>
<feColorMatrix in="SourceAlpha" type="matrix" values="0 0 0 0 0 0 0 0 0 0 0 0 0 0 0 0 0 0 127 0" result="hardAlpha"/>
<feOffset/>
<feGaussianBlur stdDeviation="5"/>
<feComposite in2="hardAlpha" operator="out"/>
<feColorMatrix type="matrix" values="0 0 0 0 1 0 0 0 0 1 0 0 0 0 1 0 0 0 0.5 0"/>
<feBlend mode="normal" in2="BackgroundImageFix" result="effect1_dropShadow_40000014_263"/>
<feBlend mode="normal" in="SourceGraphic" in2="effect1_dropShadow_40000014_263" result="shape"/>
<feGaussianBlur stdDeviation="2.5" result="effect2_foregroundBlur_40000014_263"/>
</filter>
<filter id="filter18_df_40000014_263" x="8.62305" y="114.663" width="24.2773" height="31.0344" filterUnits="userSpaceOnUse" color-interpolation-filters="sRGB">
<feFlood flood-opacity="0" result="BackgroundImageFix"/>
<feColorMatrix in="SourceAlpha" type="matrix" values="0 0 0 0 0 0 0 0 0 0 0 0 0 0 0 0 0 0 127 0" result="hardAlpha"/>
<feOffset/>
<feGaussianBlur stdDeviation="5"/>
<feComposite in2="hardAlpha" operator="out"/>
<feColorMatrix type="matrix" values="0 0 0 0 1 0 0 0 0 1 0 0 0 0 1 0 0 0 0.5 0"/>
<feBlend mode="normal" in2="BackgroundImageFix" result="effect1_dropShadow_40000014_263"/>
<feBlend mode="normal" in="SourceGraphic" in2="effect1_dropShadow_40000014_263" result="shape"/>
<feGaussianBlur stdDeviation="2.5" result="effect2_foregroundBlur_40000014_263"/>
</filter>
<filter id="filter19_df_40000014_263" x="-1.4126" y="266.899" width="24.2773" height="31.0344" filterUnits="userSpaceOnUse" color-interpolation-filters="sRGB">
<feFlood flood-opacity="0" result="BackgroundImageFix"/>
<feColorMatrix in="SourceAlpha" type="matrix" values="0 0 0 0 0 0 0 0 0 0 0 0 0 0 0 0 0 0 127 0" result="hardAlpha"/>
<feOffset/>
<feGaussianBlur stdDeviation="5"/>
<feComposite in2="hardAlpha" operator="out"/>
<feColorMatrix type="matrix" values="0 0 0 0 1 0 0 0 0 1 0 0 0 0 1 0 0 0 0.5 0"/>
<feBlend mode="normal" in2="BackgroundImageFix" result="effect1_dropShadow_40000014_263"/>
<feBlend mode="normal" in="SourceGraphic" in2="effect1_dropShadow_40000014_263" result="shape"/>
<feGaussianBlur stdDeviation="2.5" result="effect2_foregroundBlur_40000014_263"/>
</filter>
<filter id="filter20_df_40000014_263" x="-1.4126" y="266.899" width="24.2773" height="31.0344" filterUnits="userSpaceOnUse" color-interpolation-filters="sRGB">
<feFlood flood-opacity="0" result="BackgroundImageFix"/>
<feColorMatrix in="SourceAlpha" type="matrix" values="0 0 0 0 0 0 0 0 0 0 0 0 0 0 0 0 0 0 127 0" result="hardAlpha"/>
<feOffset/>
<feGaussianBlur stdDeviation="5"/>
<feComposite in2="hardAlpha" operator="out"/>
<feColorMatrix type="matrix" values="0 0 0 0 1 0 0 0 0 1 0 0 0 0 1 0 0 0 0.5 0"/>
<feBlend mode="normal" in2="BackgroundImageFix" result="effect1_dropShadow_40000014_263"/>
<feBlend mode="normal" in="SourceGraphic" in2="effect1_dropShadow_40000014_263" result="shape"/>
<feGaussianBlur stdDeviation="2.5" result="effect2_foregroundBlur_40000014_263"/>
</filter>
<filter id="filter21_df_40000014_263" x="23.5439" y="288.965" width="24.2773" height="31.0344" filterUnits="userSpaceOnUse" color-interpolation-filters="sRGB">
<feFlood flood-opacity="0" result="BackgroundImageFix"/>
<feColorMatrix in="SourceAlpha" type="matrix" values="0 0 0 0 0 0 0 0 0 0 0 0 0 0 0 0 0 0 127 0" result="hardAlpha"/>
<feOffset/>
<feGaussianBlur stdDeviation="5"/>
<feComposite in2="hardAlpha" operator="out"/>
<feColorMatrix type="matrix" values="0 0 0 0 1 0 0 0 0 1 0 0 0 0 1 0 0 0 0.5 0"/>
<feBlend mode="normal" in2="BackgroundImageFix" result="effect1_dropShadow_40000014_263"/>
<feBlend mode="normal" in="SourceGraphic" in2="effect1_dropShadow_40000014_263" result="shape"/>
<feGaussianBlur stdDeviation="2.5" result="effect2_foregroundBlur_40000014_263"/>
</filter>
<filter id="filter22_df_40000014_263" x="23.5439" y="288.965" width="24.2773" height="31.0344" filterUnits="userSpaceOnUse" color-interpolation-filters="sRGB">
<feFlood flood-opacity="0" result="BackgroundImageFix"/>
<feColorMatrix in="SourceAlpha" type="matrix" values="0 0 0 0 0 0 0 0 0 0 0 0 0 0 0 0 0 0 127 0" result="hardAlpha"/>
<feOffset/>
<feGaussianBlur stdDeviation="5"/>
<feComposite in2="hardAlpha" operator="out"/>
<feColorMatrix type="matrix" values="0 0 0 0 1 0 0 0 0 1 0 0 0 0 1 0 0 0 0.5 0"/>
<feBlend mode="normal" in2="BackgroundImageFix" result="effect1_dropShadow_40000014_263"/>
<feBlend mode="normal" in="SourceGraphic" in2="effect1_dropShadow_40000014_263" result="shape"/>
<feGaussianBlur stdDeviation="2.5" result="effect2_foregroundBlur_40000014_263"/>
</filter>
</defs>
</svg>
