<svg width="964" height="1177" viewBox="0 0 964 1177" fill="none" xmlns="http://www.w3.org/2000/svg">
<g filter="url(#filter0_df_322_23)">
<path d="M27.8261 1073.12L75.3937 821.224M101.792 757.834L186.007 679.637M266.447 303.217L206.946 634.159M334.463 713.163L229.552 678.062M492.937 487.687L372.797 695.4M485.993 460.854L292.365 292.28M294.894 262.31L525.047 107.188M620.251 163.78L557.702 109.944M651.601 166.425L774.796 78.3947M518.098 470.125L670.431 426.549M700.487 413.337L933.059 229.548M378.532 736.567L487.748 829.775" stroke="white" stroke-opacity="0.25" stroke-width="2" shape-rendering="crispEdges"/>
</g>
<g filter="url(#filter1_df_322_23)">
<circle cx="943.664" cy="219.708" r="7.57505" transform="rotate(-175.176 943.664 219.708)" fill="white"/>
<circle cx="943.664" cy="219.708" r="7.07505" transform="rotate(-175.176 943.664 219.708)" stroke="white" stroke-opacity="0.25"/>
</g>
<g filter="url(#filter2_df_322_23)">
<circle cx="791.589" cy="65.6956" r="7.57505" transform="rotate(-175.176 791.589 65.6956)" fill="white"/>
<circle cx="791.589" cy="65.6956" r="7.07505" transform="rotate(-175.176 791.589 65.6956)" stroke="white" stroke-opacity="0.25"/>
</g>
<g filter="url(#filter3_df_322_23)">
<circle cx="685.532" cy="421.64" r="7.57505" transform="rotate(-175.176 685.532 421.64)" fill="white"/>
<circle cx="685.532" cy="421.64" r="7.07505" transform="rotate(-175.176 685.532 421.64)" stroke="white" stroke-opacity="0.25"/>
</g>
<g filter="url(#filter4_df_322_23)">
<circle cx="501.936" cy="847.062" r="7.57505" transform="rotate(-175.176 501.936 847.062)" fill="white"/>
<circle cx="501.936" cy="847.062" r="7.07505" transform="rotate(-175.176 501.936 847.062)" stroke="white" stroke-opacity="0.25"/>
</g>
<g filter="url(#filter5_df_322_23)">
<circle cx="18.1854" cy="1097.29" r="7.57505" transform="rotate(-175.176 18.1854 1097.29)" fill="white"/>
<circle cx="18.1854" cy="1097.29" r="7.07505" transform="rotate(-175.176 18.1854 1097.29)" stroke="white" stroke-opacity="0.25"/>
</g>
<g filter="url(#filter6_df_322_23)">
<ellipse cx="499.629" cy="475.454" rx="6.4929" ry="7.57505" transform="rotate(-175.176 499.629 475.454)" fill="white"/>
<path d="M493.657 474.95C493.992 470.982 496.995 468.132 500.224 468.404C503.453 468.677 505.936 471.99 505.601 475.958C505.266 479.927 502.263 482.777 499.034 482.504C495.805 482.232 493.322 478.919 493.657 474.95Z" stroke="white" stroke-opacity="0.25"/>
</g>
<g filter="url(#filter7_df_322_23)">
<ellipse cx="636.812" cy="175.351" rx="9.73935" ry="10.8215" transform="rotate(-175.176 636.812 175.351)" fill="white"/>
<path d="M627.605 174.574C628.089 168.843 632.643 164.641 637.68 165.066C642.717 165.491 646.502 170.397 646.019 176.128C645.535 181.858 640.981 186.061 635.944 185.636C630.908 185.211 627.122 180.305 627.605 174.574Z" stroke="white" stroke-opacity="0.25"/>
</g>
<g filter="url(#filter8_df_322_23)">
<ellipse cx="85.6412" cy="786.951" rx="9.73935" ry="10.8215" transform="rotate(-175.176 85.6412 786.951)" fill="white"/>
<path d="M76.4345 786.174C76.9182 780.443 81.4725 776.241 86.5091 776.666C91.5457 777.091 95.3314 781.997 94.8478 787.728C94.3642 793.459 89.8098 797.661 84.7732 797.236C79.7366 796.811 75.9509 791.905 76.4345 786.174Z" stroke="white" stroke-opacity="0.25"/>
</g>
<g filter="url(#filter9_df_322_23)">
<ellipse cx="543.794" cy="93.6538" rx="9.73935" ry="10.8215" transform="rotate(-175.176 543.794 93.6538)" fill="white"/>
<path d="M534.587 92.8768C535.071 87.1459 539.625 82.9438 544.662 83.3688C549.699 83.7939 553.484 88.6998 553.001 94.4307C552.517 100.162 547.963 104.364 542.926 103.939C537.889 103.514 534.104 98.6077 534.587 92.8768Z" stroke="white" stroke-opacity="0.25"/>
</g>
<g filter="url(#filter10_df_322_23)">
<ellipse cx="268.877" cy="275.706" rx="12.9858" ry="14.0679" transform="rotate(-175.176 268.877 275.706)" fill="white"/>
<path d="M256.436 274.656C257.069 267.151 263.184 261.609 270.018 262.186C276.853 262.763 281.952 269.251 281.319 276.756C280.686 284.261 274.571 289.803 267.737 289.226C260.902 288.649 255.803 282.161 256.436 274.656Z" stroke="white" stroke-opacity="0.25"/>
</g>
<g filter="url(#filter11_df_322_23)">
<ellipse cx="207.9" cy="663.691" rx="12.9858" ry="14.0679" transform="rotate(-175.176 207.9 663.691)" fill="white"/>
<path d="M195.459 662.641C196.092 655.136 202.207 649.595 209.041 650.171C215.876 650.748 220.975 657.236 220.342 664.741C219.709 672.246 213.594 677.788 206.759 677.211C199.925 676.634 194.825 670.147 195.459 662.641Z" stroke="white" stroke-opacity="0.25"/>
</g>
<g filter="url(#filter12_df_322_23)">
<ellipse cx="359.539" cy="719.928" rx="12.9858" ry="14.0679" transform="rotate(-175.176 359.539 719.928)" fill="white"/>
<path d="M347.097 718.878C347.73 711.373 353.845 705.831 360.679 706.408C367.514 706.985 372.613 713.472 371.98 720.978C371.347 728.483 365.232 734.024 358.398 733.448C351.563 732.871 346.464 726.383 347.097 718.878Z" stroke="white" stroke-opacity="0.25"/>
</g>
<defs>
<filter id="filter0_df_322_23" x="6.84326" y="57.581" width="946.836" height="1035.72" filterUnits="userSpaceOnUse" color-interpolation-filters="sRGB">
<feFlood flood-opacity="0" result="BackgroundImageFix"/>
<feColorMatrix in="SourceAlpha" type="matrix" values="0 0 0 0 0 0 0 0 0 0 0 0 0 0 0 0 0 0 127 0" result="hardAlpha"/>
<feOffset/>
<feGaussianBlur stdDeviation="10"/>
<feComposite in2="hardAlpha" operator="out"/>
<feColorMatrix type="matrix" values="0 0 0 0 1 0 0 0 0 1 0 0 0 0 1 0 0 0 0.5 0"/>
<feBlend mode="normal" in2="BackgroundImageFix" result="effect1_dropShadow_322_23"/>
<feBlend mode="normal" in="SourceGraphic" in2="effect1_dropShadow_322_23" result="shape"/>
<feGaussianBlur stdDeviation="2" result="effect2_foregroundBlur_322_23"/>
</filter>
<filter id="filter1_df_322_23" x="926.088" y="202.133" width="35.1509" height="35.1509" filterUnits="userSpaceOnUse" color-interpolation-filters="sRGB">
<feFlood flood-opacity="0" result="BackgroundImageFix"/>
<feColorMatrix in="SourceAlpha" type="matrix" values="0 0 0 0 0 0 0 0 0 0 0 0 0 0 0 0 0 0 127 0" result="hardAlpha"/>
<feOffset/>
<feGaussianBlur stdDeviation="5"/>
<feComposite in2="hardAlpha" operator="out"/>
<feColorMatrix type="matrix" values="0 0 0 0 1 0 0 0 0 1 0 0 0 0 1 0 0 0 0.5 0"/>
<feBlend mode="normal" in2="BackgroundImageFix" result="effect1_dropShadow_322_23"/>
<feBlend mode="normal" in="SourceGraphic" in2="effect1_dropShadow_322_23" result="shape"/>
<feGaussianBlur stdDeviation="1" result="effect2_foregroundBlur_322_23"/>
</filter>
<filter id="filter2_df_322_23" x="774.014" y="48.1201" width="35.1509" height="35.1509" filterUnits="userSpaceOnUse" color-interpolation-filters="sRGB">
<feFlood flood-opacity="0" result="BackgroundImageFix"/>
<feColorMatrix in="SourceAlpha" type="matrix" values="0 0 0 0 0 0 0 0 0 0 0 0 0 0 0 0 0 0 127 0" result="hardAlpha"/>
<feOffset/>
<feGaussianBlur stdDeviation="5"/>
<feComposite in2="hardAlpha" operator="out"/>
<feColorMatrix type="matrix" values="0 0 0 0 1 0 0 0 0 1 0 0 0 0 1 0 0 0 0.5 0"/>
<feBlend mode="normal" in2="BackgroundImageFix" result="effect1_dropShadow_322_23"/>
<feBlend mode="normal" in="SourceGraphic" in2="effect1_dropShadow_322_23" result="shape"/>
<feGaussianBlur stdDeviation="1" result="effect2_foregroundBlur_322_23"/>
</filter>
<filter id="filter3_df_322_23" x="667.957" y="404.064" width="35.1509" height="35.151" filterUnits="userSpaceOnUse" color-interpolation-filters="sRGB">
<feFlood flood-opacity="0" result="BackgroundImageFix"/>
<feColorMatrix in="SourceAlpha" type="matrix" values="0 0 0 0 0 0 0 0 0 0 0 0 0 0 0 0 0 0 127 0" result="hardAlpha"/>
<feOffset/>
<feGaussianBlur stdDeviation="5"/>
<feComposite in2="hardAlpha" operator="out"/>
<feColorMatrix type="matrix" values="0 0 0 0 1 0 0 0 0 1 0 0 0 0 1 0 0 0 0.5 0"/>
<feBlend mode="normal" in2="BackgroundImageFix" result="effect1_dropShadow_322_23"/>
<feBlend mode="normal" in="SourceGraphic" in2="effect1_dropShadow_322_23" result="shape"/>
<feGaussianBlur stdDeviation="1" result="effect2_foregroundBlur_322_23"/>
</filter>
<filter id="filter4_df_322_23" x="484.361" y="829.486" width="35.1509" height="35.151" filterUnits="userSpaceOnUse" color-interpolation-filters="sRGB">
<feFlood flood-opacity="0" result="BackgroundImageFix"/>
<feColorMatrix in="SourceAlpha" type="matrix" values="0 0 0 0 0 0 0 0 0 0 0 0 0 0 0 0 0 0 127 0" result="hardAlpha"/>
<feOffset/>
<feGaussianBlur stdDeviation="5"/>
<feComposite in2="hardAlpha" operator="out"/>
<feColorMatrix type="matrix" values="0 0 0 0 1 0 0 0 0 1 0 0 0 0 1 0 0 0 0.5 0"/>
<feBlend mode="normal" in2="BackgroundImageFix" result="effect1_dropShadow_322_23"/>
<feBlend mode="normal" in="SourceGraphic" in2="effect1_dropShadow_322_23" result="shape"/>
<feGaussianBlur stdDeviation="1" result="effect2_foregroundBlur_322_23"/>
</filter>
<filter id="filter5_df_322_23" x="0.609863" y="1079.71" width="35.1509" height="35.151" filterUnits="userSpaceOnUse" color-interpolation-filters="sRGB">
<feFlood flood-opacity="0" result="BackgroundImageFix"/>
<feColorMatrix in="SourceAlpha" type="matrix" values="0 0 0 0 0 0 0 0 0 0 0 0 0 0 0 0 0 0 127 0" result="hardAlpha"/>
<feOffset/>
<feGaussianBlur stdDeviation="5"/>
<feComposite in2="hardAlpha" operator="out"/>
<feColorMatrix type="matrix" values="0 0 0 0 1 0 0 0 0 1 0 0 0 0 1 0 0 0 0.5 0"/>
<feBlend mode="normal" in2="BackgroundImageFix" result="effect1_dropShadow_322_23"/>
<feBlend mode="normal" in="SourceGraphic" in2="effect1_dropShadow_322_23" result="shape"/>
<feGaussianBlur stdDeviation="1" result="effect2_foregroundBlur_322_23"/>
</filter>
<filter id="filter6_df_322_23" x="483.127" y="457.886" width="33.0034" height="35.1365" filterUnits="userSpaceOnUse" color-interpolation-filters="sRGB">
<feFlood flood-opacity="0" result="BackgroundImageFix"/>
<feColorMatrix in="SourceAlpha" type="matrix" values="0 0 0 0 0 0 0 0 0 0 0 0 0 0 0 0 0 0 127 0" result="hardAlpha"/>
<feOffset/>
<feGaussianBlur stdDeviation="5"/>
<feComposite in2="hardAlpha" operator="out"/>
<feColorMatrix type="matrix" values="0 0 0 0 1 0 0 0 0 1 0 0 0 0 1 0 0 0 0.5 0"/>
<feBlend mode="normal" in2="BackgroundImageFix" result="effect1_dropShadow_322_23"/>
<feBlend mode="normal" in="SourceGraphic" in2="effect1_dropShadow_322_23" result="shape"/>
<feGaussianBlur stdDeviation="1" result="effect2_foregroundBlur_322_23"/>
</filter>
<filter id="filter7_df_322_23" x="617.064" y="154.536" width="39.4961" height="41.6295" filterUnits="userSpaceOnUse" color-interpolation-filters="sRGB">
<feFlood flood-opacity="0" result="BackgroundImageFix"/>
<feColorMatrix in="SourceAlpha" type="matrix" values="0 0 0 0 0 0 0 0 0 0 0 0 0 0 0 0 0 0 127 0" result="hardAlpha"/>
<feOffset/>
<feGaussianBlur stdDeviation="5"/>
<feComposite in2="hardAlpha" operator="out"/>
<feColorMatrix type="matrix" values="0 0 0 0 1 0 0 0 0 1 0 0 0 0 1 0 0 0 0.5 0"/>
<feBlend mode="normal" in2="BackgroundImageFix" result="effect1_dropShadow_322_23"/>
<feBlend mode="normal" in="SourceGraphic" in2="effect1_dropShadow_322_23" result="shape"/>
<feGaussianBlur stdDeviation="1" result="effect2_foregroundBlur_322_23"/>
</filter>
<filter id="filter8_df_322_23" x="65.8931" y="766.136" width="39.4961" height="41.6295" filterUnits="userSpaceOnUse" color-interpolation-filters="sRGB">
<feFlood flood-opacity="0" result="BackgroundImageFix"/>
<feColorMatrix in="SourceAlpha" type="matrix" values="0 0 0 0 0 0 0 0 0 0 0 0 0 0 0 0 0 0 127 0" result="hardAlpha"/>
<feOffset/>
<feGaussianBlur stdDeviation="5"/>
<feComposite in2="hardAlpha" operator="out"/>
<feColorMatrix type="matrix" values="0 0 0 0 1 0 0 0 0 1 0 0 0 0 1 0 0 0 0.5 0"/>
<feBlend mode="normal" in2="BackgroundImageFix" result="effect1_dropShadow_322_23"/>
<feBlend mode="normal" in="SourceGraphic" in2="effect1_dropShadow_322_23" result="shape"/>
<feGaussianBlur stdDeviation="1" result="effect2_foregroundBlur_322_23"/>
</filter>
<filter id="filter9_df_322_23" x="524.046" y="72.8391" width="39.4961" height="41.6295" filterUnits="userSpaceOnUse" color-interpolation-filters="sRGB">
<feFlood flood-opacity="0" result="BackgroundImageFix"/>
<feColorMatrix in="SourceAlpha" type="matrix" values="0 0 0 0 0 0 0 0 0 0 0 0 0 0 0 0 0 0 127 0" result="hardAlpha"/>
<feOffset/>
<feGaussianBlur stdDeviation="5"/>
<feComposite in2="hardAlpha" operator="out"/>
<feColorMatrix type="matrix" values="0 0 0 0 1 0 0 0 0 1 0 0 0 0 1 0 0 0 0.5 0"/>
<feBlend mode="normal" in2="BackgroundImageFix" result="effect1_dropShadow_322_23"/>
<feBlend mode="normal" in="SourceGraphic" in2="effect1_dropShadow_322_23" result="shape"/>
<feGaussianBlur stdDeviation="1" result="effect2_foregroundBlur_322_23"/>
</filter>
<filter id="filter10_df_322_23" x="245.883" y="251.645" width="45.9893" height="48.1226" filterUnits="userSpaceOnUse" color-interpolation-filters="sRGB">
<feFlood flood-opacity="0" result="BackgroundImageFix"/>
<feColorMatrix in="SourceAlpha" type="matrix" values="0 0 0 0 0 0 0 0 0 0 0 0 0 0 0 0 0 0 127 0" result="hardAlpha"/>
<feOffset/>
<feGaussianBlur stdDeviation="5"/>
<feComposite in2="hardAlpha" operator="out"/>
<feColorMatrix type="matrix" values="0 0 0 0 1 0 0 0 0 1 0 0 0 0 1 0 0 0 0.5 0"/>
<feBlend mode="normal" in2="BackgroundImageFix" result="effect1_dropShadow_322_23"/>
<feBlend mode="normal" in="SourceGraphic" in2="effect1_dropShadow_322_23" result="shape"/>
<feGaussianBlur stdDeviation="2.5" result="effect2_foregroundBlur_322_23"/>
</filter>
<filter id="filter11_df_322_23" x="184.906" y="639.63" width="45.9893" height="48.1226" filterUnits="userSpaceOnUse" color-interpolation-filters="sRGB">
<feFlood flood-opacity="0" result="BackgroundImageFix"/>
<feColorMatrix in="SourceAlpha" type="matrix" values="0 0 0 0 0 0 0 0 0 0 0 0 0 0 0 0 0 0 127 0" result="hardAlpha"/>
<feOffset/>
<feGaussianBlur stdDeviation="5"/>
<feComposite in2="hardAlpha" operator="out"/>
<feColorMatrix type="matrix" values="0 0 0 0 1 0 0 0 0 1 0 0 0 0 1 0 0 0 0.5 0"/>
<feBlend mode="normal" in2="BackgroundImageFix" result="effect1_dropShadow_322_23"/>
<feBlend mode="normal" in="SourceGraphic" in2="effect1_dropShadow_322_23" result="shape"/>
<feGaussianBlur stdDeviation="2.5" result="effect2_foregroundBlur_322_23"/>
</filter>
<filter id="filter12_df_322_23" x="336.544" y="695.866" width="45.9893" height="48.1226" filterUnits="userSpaceOnUse" color-interpolation-filters="sRGB">
<feFlood flood-opacity="0" result="BackgroundImageFix"/>
<feColorMatrix in="SourceAlpha" type="matrix" values="0 0 0 0 0 0 0 0 0 0 0 0 0 0 0 0 0 0 127 0" result="hardAlpha"/>
<feOffset/>
<feGaussianBlur stdDeviation="5"/>
<feComposite in2="hardAlpha" operator="out"/>
<feColorMatrix type="matrix" values="0 0 0 0 1 0 0 0 0 1 0 0 0 0 1 0 0 0 0.5 0"/>
<feBlend mode="normal" in2="BackgroundImageFix" result="effect1_dropShadow_322_23"/>
<feBlend mode="normal" in="SourceGraphic" in2="effect1_dropShadow_322_23" result="shape"/>
<feGaussianBlur stdDeviation="2.5" result="effect2_foregroundBlur_322_23"/>
</filter>
</defs>
</svg>