<svg width="366" height="479" viewBox="0 0 366 479" fill="none" xmlns="http://www.w3.org/2000/svg">
<g filter="url(#filter0_d_94_66)">
<path d="M240.899 113.688C283.829 60.527 327.126 94.7123 327.551 95.0852C328.732 96.0452 329.169 98.0397 328.563 99.7002L321.616 118.548L337.204 115.637C338.727 115.353 340.133 116.676 340.37 118.659C340.562 120.222 344.563 157.824 318.509 194.005C308.648 207.698 295.658 219.379 279.898 228.79C276.48 230.839 272.911 232.616 269.175 234.191C277.499 235.83 285.246 238.751 292.343 242.912C358.311 281.594 342.48 346.543 342.31 347.212C341.885 348.814 340.723 349.898 339.448 349.791L323.447 349.036L331.063 366.636C331.709 368.147 331.469 369.926 330.438 371.213C330.01 371.711 286.803 420.634 235.614 353.818C228.234 344.173 221.468 332.279 215.466 318.362C219.497 339.833 219.977 359.012 216.916 375.545C212.861 397.408 205.595 415.735 195.343 429.97C179.222 452.359 161.531 456.647 160.77 456.836C160.032 457.004 159.279 456.792 158.674 456.245C158.069 455.699 157.66 454.861 157.534 453.913L154.888 433.648L142.81 450.421C141.941 451.628 140.583 451.972 139.461 451.267C138.725 450.796 121.403 439.497 114.791 412.263C109.499 390.472 112.597 365.072 124.082 336.793C129.772 322.774 138.179 308.114 149.44 292.427C133.243 308.754 117.652 318.412 103.025 321.191C40.6217 333.047 24.3427 279.502 24.2056 278.97C23.7774 277.445 24.1629 275.657 25.1639 274.701L38.1509 261.868L23.3466 254.971C21.9893 254.352 21.2451 252.447 21.6297 250.612C21.7976 249.849 25.7404 231.803 38.386 214.242C50.5882 197.297 73.2421 178.024 111.863 182.432C122.489 183.667 133.311 187.617 144.145 194.2C133.995 182.284 126.894 169.941 122.987 157.256C102.776 91.6383 123.896 52.2419 133.899 38.351C137.836 32.8833 140.877 30.1054 140.985 30.0046C142.111 28.9696 143.66 29.1306 144.611 30.3639L155.657 44.5978L159.171 24.9792C159.501 23.1245 160.86 21.8632 162.319 22.0535C162.884 22.1354 219.48 30.8188 222.512 122.606C222.743 129.269 222.434 136.2 221.673 143.325C227.526 132.212 233.785 122.46 240.899 113.688Z" stroke="#FF3DB1" stroke-opacity="0.8" stroke-width="3" shape-rendering="crispEdges"/>
</g>
<defs>
<filter id="filter0_d_94_66" x="0.229736" y="0.35791" width="365.163" height="478.21" filterUnits="userSpaceOnUse" color-interpolation-filters="sRGB">
<feFlood flood-opacity="0" result="BackgroundImageFix"/>
<feColorMatrix in="SourceAlpha" type="matrix" values="0 0 0 0 0 0 0 0 0 0 0 0 0 0 0 0 0 0 127 0" result="hardAlpha"/>
<feOffset/>
<feGaussianBlur stdDeviation="10"/>
<feComposite in2="hardAlpha" operator="out"/>
<feColorMatrix type="matrix" values="0 0 0 0 0.614154 0 0 0 0 0.235434 0 0 0 0 0.708834 0 0 0 1 0"/>
<feBlend mode="normal" in2="BackgroundImageFix" result="effect1_dropShadow_94_66"/>
<feBlend mode="normal" in="SourceGraphic" in2="effect1_dropShadow_94_66" result="shape"/>
</filter>
</defs>
</svg>
