<svg width="229" height="320" viewBox="0 0 229 320" fill="none" xmlns="http://www.w3.org/2000/svg">
<g filter="url(#filter0_d_94_9)">
<path d="M162.562 79.9974L162.56 79.9998C158.03 85.5971 154.028 91.8166 150.268 98.9158L147.904 97.6814C148.414 93.1822 148.636 88.8305 148.52 84.671L148.52 84.6673C147.764 55.7262 138.515 40.1993 129.549 31.8515C125.038 27.6521 120.56 25.2338 117.187 23.8637C115.501 23.1793 114.097 22.7584 113.11 22.5082C112.616 22.3831 112.227 22.3008 111.96 22.2496C111.827 22.2239 111.724 22.2061 111.654 22.1946C111.601 22.1861 111.568 22.1811 111.554 22.1791C111.275 22.1509 110.967 22.4155 110.891 22.8275L110.89 22.8302L108.55 35.4548L108.017 38.3304L106.375 36.2118L99.3527 27.1522L99.3492 27.1477C99.2349 26.9992 98.9624 26.908 98.7097 27.1418C98.5489 27.2917 96.7035 29.0258 94.318 32.3385C88.0611 41.0273 74.6075 65.8311 87.0454 107.041L85.8353 107.625L87.0454 107.041C89.4014 114.848 93.7576 122.512 100.107 129.963L98.712 132.712C91.9184 128.64 85.1464 126.243 78.508 125.546C54.2037 123.046 39.9573 135.34 32.2842 145.996C24.3558 157.006 21.7944 168.249 21.6683 168.807C21.5864 169.2 21.7529 169.459 21.9051 169.527L21.913 169.53L31.3775 173.85L33.6546 174.89L31.7687 176.764L23.3828 185.101L23.3749 185.109L23.3668 185.116C23.1759 185.3 23.0877 185.686 23.1687 185.981L23.1746 186.002L23.1801 186.024C23.1795 186.022 23.1811 186.027 23.1851 186.04C23.3125 186.448 25.8226 194.499 32.9175 201.621C40.1778 208.909 52.3754 215.363 72.0866 211.392C81.193 209.558 91.0364 203.407 101.391 192.91L103.166 195.387C95.9233 205.475 90.5417 214.837 86.8973 223.718L86.8972 223.719C79.4976 241.742 77.5354 257.608 80.6973 270.985L80.6974 270.986C84.6359 287.657 95.1965 294.517 95.6538 294.807C95.8167 294.906 96.0871 294.884 96.2968 294.593L104.117 283.733L105.935 281.209L106.36 284.651L107.967 297.641C107.967 297.642 107.967 297.642 107.967 297.642C107.988 297.805 108.052 297.925 108.135 297.999C108.218 298.074 108.338 298.118 108.482 298.086C109.044 297.941 119.995 295.078 130.08 281.074C136.551 272.088 141.2 260.525 143.853 246.687C145.828 236.363 145.628 224.327 143.172 210.758L145.574 209.618C149.313 218.395 153.529 225.85 158.12 231.859C174.087 252.732 188.764 255.238 199.41 252.685C204.775 251.398 209.171 248.813 212.246 246.524C213.782 245.381 214.982 244.317 215.802 243.533C216.212 243.142 216.526 242.821 216.739 242.596C216.907 242.42 217.01 242.305 217.046 242.264C217.339 241.884 217.313 241.549 217.226 241.34C217.226 241.339 217.225 241.338 217.225 241.337L212.421 230.098L211.333 227.553L213.569 227.633L223.828 228L223.847 228.001L223.866 228.002C224.044 228.015 224.315 227.846 224.432 227.433C224.452 227.35 224.607 226.715 224.798 225.618C225.001 224.443 225.245 222.745 225.407 220.639C225.732 216.423 225.73 210.594 224.453 204.046C221.917 191.038 214.29 174.894 193.562 162.914C189.15 160.364 184.313 158.586 179.093 157.616L178.822 154.366C181.185 153.344 183.434 152.201 185.584 150.891L185.586 150.89C195.617 144.802 203.859 137.32 210.113 128.634C226.616 105.716 224.226 82.1937 224.141 81.4588L224.14 81.4507C224.12 81.2722 224.054 81.1523 223.974 81.0771C223.893 81.0005 223.777 80.9505 223.629 80.9797L213.619 82.9632L211.144 83.4536L212.226 80.5565L216.763 68.4074C216.763 68.4067 216.763 68.4061 216.763 68.4054C216.897 68.0427 216.774 67.7248 216.634 67.6121L216.614 67.5958L216.594 67.5787L216.592 67.5773C216.466 67.4789 209.741 62.2391 199.706 61.1483C189.637 60.0541 176.162 63.1219 162.562 79.9974Z" stroke="#6D56FF" stroke-opacity="0.8" stroke-width="3" shape-rendering="crispEdges"/>
</g>
<defs>
<filter id="filter0_d_94_9" x="0.348145" y="0.5" width="246.54" height="319.273" filterUnits="userSpaceOnUse" color-interpolation-filters="sRGB">
<feFlood flood-opacity="0" result="BackgroundImageFix"/>
<feColorMatrix in="SourceAlpha" type="matrix" values="0 0 0 0 0 0 0 0 0 0 0 0 0 0 0 0 0 0 127 0" result="hardAlpha"/>
<feOffset/>
<feGaussianBlur stdDeviation="10"/>
<feComposite in2="hardAlpha" operator="out"/>
<feColorMatrix type="matrix" values="0 0 0 0 0.685449 0 0 0 0 0.75465 0 0 0 0 1 0 0 0 1 0"/>
<feBlend mode="normal" in2="BackgroundImageFix" result="effect1_dropShadow_94_9"/>
<feBlend mode="normal" in="SourceGraphic" in2="effect1_dropShadow_94_9" result="shape"/>
</filter>
</defs>
</svg>
