<svg width="382" height="493" viewBox="0 0 382 493" fill="none" xmlns="http://www.w3.org/2000/svg">
<g filter="url(#filter0_d_94_68)">
<path d="M244.985 121.65C287.62 69.4434 333.911 107.448 334.367 107.859C335.631 108.925 336.16 111.011 335.592 112.688L329.077 131.714L345.172 129.684C346.745 129.486 348.256 130.939 348.576 133.002C348.835 134.628 354.403 173.703 328.675 209.432C318.937 222.955 305.871 234.203 289.84 242.935C286.364 244.837 282.72 246.448 278.896 247.841C287.61 250.054 295.773 253.554 303.307 258.294C373.335 302.359 359.311 368.432 359.16 369.112C358.778 370.739 357.611 371.786 356.281 371.595L339.619 369.815L348.196 388.465C348.924 390.065 348.741 391.887 347.718 393.152C347.292 393.638 304.209 441.452 248.49 369.262C240.457 358.841 232.978 346.138 226.216 331.393C231.212 353.814 232.429 373.647 229.867 390.527C226.471 412.848 219.604 431.316 209.481 445.374C193.561 467.483 175.331 470.805 174.547 470.953C173.786 471.08 172.995 470.813 172.346 470.211C171.696 469.609 171.239 468.719 171.073 467.732L167.563 446.642L155.636 463.205C154.778 464.397 153.379 464.668 152.186 463.869C151.403 463.337 132.972 450.587 125.079 422.055C118.76 399.224 121.029 373.191 131.908 344.71C137.298 330.591 145.487 315.979 156.606 300.486C140.381 316.332 124.534 325.329 109.433 327.284C45.0055 335.624 26.0755 279.319 25.9131 278.761C25.4109 277.16 25.7446 275.338 26.7493 274.413L39.7691 261.975L24.1207 253.928C22.6865 253.204 21.8413 251.191 22.1724 249.32C22.3184 248.543 25.7408 230.156 38.2284 212.814C50.2783 196.081 73.106 177.597 113.42 184.564C124.513 186.503 135.911 191.258 147.42 198.732C136.422 185.794 128.577 172.605 124.04 159.263C100.57 90.2474 121.05 50.8898 130.928 37.1723C134.816 31.7729 137.873 29.0947 137.981 28.9973C139.113 27.9991 140.73 28.2622 141.764 29.595L153.781 44.9827L156.698 24.9455C156.972 23.051 158.337 21.8337 159.861 22.1213C160.451 22.2413 219.612 34.7456 226.204 129.708C226.694 136.602 226.632 143.74 226.109 151.05C231.776 139.94 237.918 130.262 244.985 121.65Z" stroke="#49C8FF" stroke-opacity="0.8" stroke-width="3" shape-rendering="crispEdges"/>
</g>
<defs>
<filter id="filter0_d_94_68" x="0.800537" y="0.40332" width="380.903" height="492.257" filterUnits="userSpaceOnUse" color-interpolation-filters="sRGB">
<feFlood flood-opacity="0" result="BackgroundImageFix"/>
<feColorMatrix in="SourceAlpha" type="matrix" values="0 0 0 0 0 0 0 0 0 0 0 0 0 0 0 0 0 0 127 0" result="hardAlpha"/>
<feOffset/>
<feGaussianBlur stdDeviation="10"/>
<feComposite in2="hardAlpha" operator="out"/>
<feColorMatrix type="matrix" values="0 0 0 0 0.201061 0 0 0 0 0.752584 0 0 0 0 0.827791 0 0 0 1 0"/>
<feBlend mode="normal" in2="BackgroundImageFix" result="effect1_dropShadow_94_68"/>
<feBlend mode="normal" in="SourceGraphic" in2="effect1_dropShadow_94_68" result="shape"/>
</filter>
</defs>
</svg>
