<svg width="45" height="32" viewBox="0 0 45 32" fill="none" xmlns="http://www.w3.org/2000/svg">
<path d="M17.2251 7.11435C18.6427 5.88428 22.2316 2.97037 25.228 2.19783C25.9968 1.99907 26.6906 1.90531 27.3431 1.90531C28.5057 1.90531 29.3458 2.21658 30.1558 2.51285C30.8796 2.77911 31.6296 3.05663 32.5222 3.05663C32.9159 3.05663 33.306 3.00412 33.7147 2.89912C34.236 2.76411 34.761 2.41909 35.3161 2.05532C36.1261 1.52654 37.0449 0.92276 38.0425 0.92276C38.86 0.92276 39.6701 1.32028 40.5214 2.14158L43.1502 4.60921C44.4516 5.91803 44.5378 7.70688 44.3803 8.9707C43.994 12.0759 41.6577 15.7436 38.9988 17.4762L17.2251 7.11435Z" fill="url(#paint0_radial_26_268)"/>
<path d="M38.0425 1.48904C38.7063 1.48904 39.3888 1.83781 40.1389 2.5616L42.7452 5.01048C43.664 5.94428 44.0241 7.25311 43.8178 8.90695C43.4615 11.7646 41.3689 15.1248 38.9463 16.8349L18.2452 6.97934C19.8915 5.61427 22.8542 3.38665 25.3631 2.74161C26.0868 2.55785 26.7319 2.4641 27.3394 2.4641C28.4007 2.4641 29.1583 2.74161 29.9571 3.03788C30.7296 3.32289 31.5246 3.61541 32.5184 3.61541C32.961 3.61541 33.396 3.55916 33.8535 3.43915C34.4648 3.28164 35.0273 2.91412 35.6236 2.5241C36.4074 2.01782 37.2137 1.48904 38.0425 1.48904ZM38.0425 0.363983C36.1674 0.363983 34.7161 2.05908 33.5722 2.35534C33.1935 2.45285 32.8447 2.4941 32.5222 2.4941C30.8083 2.4941 29.6908 1.33904 27.3432 1.33904C26.6981 1.33904 25.9593 1.42529 25.0855 1.6503C21.0841 2.67786 16.2163 7.25311 16.2163 7.25311L39.0363 18.1174C43.3678 15.5186 47.193 7.88689 43.5328 4.20044L40.9114 1.73656C39.8576 0.724003 38.905 0.363983 38.0425 0.363983Z" fill="#EDA600"/>
<path d="M23.4355 30.9281C22.8542 30.9281 22.2842 30.7181 21.8417 30.3356L3.94571 14.521C1.89435 12.7059 0.630527 10.437 0.566773 8.44567C0.521771 7.0281 1.0693 5.73428 2.19436 4.60172L4.8045 2.15283C5.65955 1.32779 6.46959 0.930267 7.28714 0.930267C8.28469 0.930267 9.20349 1.5303 10.0135 2.06283C10.5686 2.4266 11.0936 2.77162 11.6149 2.90662C12.0236 3.01163 12.4137 3.06413 12.8074 3.06413C13.7 3.06413 14.4463 2.78662 15.1701 2.52035C15.9801 2.22034 16.8202 1.91282 17.9827 1.91282C18.639 1.91282 19.329 2.01033 20.0978 2.20534C23.9118 3.18414 28.6745 7.62813 28.7233 7.67313L39.2989 17.0861C40.3489 17.9862 40.4764 19.565 39.5951 20.6151L39.5201 20.7051C39.0514 21.2639 38.3651 21.5826 37.6375 21.5826C37.2475 21.5826 36.8575 21.4889 36.5125 21.3089C36.43 21.2676 36.3437 21.2451 36.2537 21.2451C36.1299 21.2451 36.0062 21.2864 35.9049 21.3689C35.7324 21.5076 35.6537 21.7326 35.7099 21.9464C35.9087 22.7339 35.7174 23.5702 35.1999 24.1815L35.1249 24.2715C34.6561 24.8303 33.9698 25.1491 33.246 25.1491C32.6948 25.1491 32.1735 24.9691 31.7385 24.6315C31.6372 24.5528 31.5172 24.5115 31.3934 24.5115C31.2959 24.5115 31.1947 24.5378 31.1084 24.5903C30.9097 24.7066 30.8009 24.9353 30.8384 25.1641C30.9509 25.8879 30.7484 26.6192 30.2834 27.1742L30.2084 27.2642C29.7396 27.823 29.0533 28.1417 28.3258 28.1417C27.797 28.1417 27.2907 27.973 26.8669 27.658C26.7694 27.583 26.6494 27.5492 26.5332 27.5492C26.4394 27.5492 26.3457 27.5717 26.2594 27.6205C26.0682 27.7255 25.9519 27.9355 25.9706 28.1567C26.0232 28.8205 25.8169 29.4618 25.3894 29.9681L25.3144 30.0581C24.8493 30.6094 24.1631 30.9281 23.4355 30.9281Z" fill="url(#paint1_radial_26_268)"/>
<path d="M7.2833 1.48904C8.11584 1.48904 8.92214 2.01782 9.70218 2.52785C10.2985 2.91787 10.861 3.28539 11.4723 3.4429C11.9298 3.56291 12.3648 3.61916 12.8073 3.61916C13.7974 3.61916 14.5962 3.32289 15.365 3.04163C16.1638 2.74536 16.9213 2.46785 17.9826 2.46785C18.5902 2.46785 19.2352 2.55785 19.959 2.74536C23.6304 3.68666 28.2957 8.03315 28.3407 8.07815C28.3482 8.08565 28.3557 8.09315 28.3632 8.0969L38.9275 17.4987L38.9425 17.5137C39.7488 18.2037 39.8501 19.43 39.1638 20.2476L39.0888 20.3376C38.725 20.7688 38.2 21.0163 37.6374 21.0163C37.3374 21.0163 37.0374 20.9451 36.7711 20.8063C36.6099 20.7238 36.4299 20.6826 36.2536 20.6826C36.0061 20.6826 35.7586 20.7651 35.5523 20.9263C35.2073 21.2001 35.0536 21.6539 35.1623 22.0814C35.3161 22.6927 35.1698 23.3415 34.7685 23.8178L34.6935 23.9078C34.3298 24.339 33.8047 24.5865 33.246 24.5865C32.8222 24.5865 32.4209 24.4478 32.0834 24.1853C31.8809 24.0278 31.6371 23.949 31.3934 23.949C31.1983 23.949 30.9996 24.0015 30.8233 24.1065C30.4258 24.3428 30.212 24.7966 30.2833 25.2503C30.3733 25.8129 30.2158 26.3829 29.852 26.8104L29.777 26.9004C29.4132 27.3317 28.8882 27.5792 28.3257 27.5792C27.9169 27.5792 27.5306 27.4517 27.2006 27.2079C27.0019 27.0617 26.7656 26.9867 26.5293 26.9867C26.3418 26.9867 26.1543 27.0317 25.9856 27.1254C25.5993 27.3392 25.3743 27.7592 25.408 28.198C25.4493 28.7118 25.288 29.2105 24.958 29.6043L24.883 29.6943C24.5192 30.1256 23.9905 30.3731 23.4279 30.3731C22.9779 30.3731 22.5429 30.2118 22.2129 29.9306L4.30939 14.1047C2.37428 12.3909 1.18172 10.272 1.12172 8.43442C1.08046 7.16685 1.55674 6.04929 2.57304 5.01798L5.19444 2.55785C5.93698 1.83781 6.61951 1.48904 7.2833 1.48904ZM7.2833 0.363983C6.42075 0.363983 5.4682 0.724003 4.41439 1.74031L1.793 4.20419C-1.8672 7.89064 0.765447 12.4621 3.5706 14.941L21.4741 30.7669C22.0441 31.2544 22.7416 31.4944 23.4354 31.4944C24.2942 31.4944 25.1493 31.1269 25.7493 30.4144L25.8243 30.3244C26.3643 29.6831 26.5968 28.8843 26.5331 28.108C27.0694 28.5055 27.6994 28.7005 28.3294 28.7005C29.1882 28.7005 30.0395 28.333 30.6396 27.6205L30.7146 27.5305C31.3108 26.8217 31.5284 25.9216 31.3934 25.0703C31.9446 25.4978 32.5972 25.7079 33.246 25.7079C34.1048 25.7079 34.956 25.3403 35.5561 24.6315L35.6311 24.5415C36.2911 23.7577 36.4899 22.7339 36.2536 21.8039C36.6886 22.0289 37.1612 22.1377 37.6337 22.1377C38.4925 22.1377 39.3438 21.7739 39.9438 21.0614L40.0188 20.9713C41.1026 19.6813 40.9451 17.7537 39.6663 16.6586L29.1095 7.25686C29.1095 7.25686 24.238 2.67786 20.2402 1.65405C19.3702 1.42904 18.6314 1.34279 17.9826 1.34279C15.6388 1.34279 14.5212 2.49785 12.8036 2.49785C12.4773 2.49785 12.1323 2.4566 11.7535 2.35909C10.6097 2.05907 9.1584 0.363983 7.2833 0.363983Z" fill="#EDA600"/>
<path d="M9.87479 24.6316C9.0835 24.6316 8.34846 24.2378 7.90218 23.5815C7.15589 22.4827 7.43341 20.9714 8.52472 20.2176L12.6424 17.3712C13.0437 17.0936 13.5087 16.9474 13.9888 16.9474C14.7801 16.9474 15.5151 17.3412 15.9614 17.9974C16.7077 19.0963 16.4301 20.6076 15.3388 21.3614L11.2211 24.2078C10.8236 24.4853 10.3586 24.6316 9.87479 24.6316Z" fill="url(#paint2_radial_26_268)"/>
<path d="M13.9886 17.5137C14.5924 17.5137 15.1549 17.8137 15.4962 18.3162C16.0699 19.1638 15.8562 20.3226 15.0199 20.9001L10.9022 23.7465C10.5984 23.9565 10.2421 24.069 9.87461 24.069C9.27083 24.069 8.70829 23.769 8.36703 23.2665C7.79325 22.4189 8.00701 21.2601 8.8433 20.6826L12.961 17.8362C13.2648 17.6262 13.6211 17.5137 13.9886 17.5137ZM13.9886 16.3886C13.4148 16.3886 12.8335 16.5574 12.3197 16.9099L8.20202 19.7563C6.85569 20.6863 6.51068 22.5389 7.43323 23.8965C8.00701 24.7403 8.92956 25.1903 9.87461 25.1903C10.4484 25.1903 11.0297 25.0216 11.5434 24.6691L15.6612 21.8227C17.0075 20.8926 17.3525 19.04 16.43 17.6824C15.8562 16.8424 14.9299 16.3886 13.9886 16.3886Z" fill="#EDA600"/>
<path d="M18.3989 31.1981C17.8138 31.1981 17.2513 30.9806 16.8125 30.5869C15.8262 29.7018 15.7362 28.168 16.6138 27.1704L19.0101 24.4553C19.4639 23.9415 20.1165 23.6452 20.7952 23.6452C21.3803 23.6452 21.9428 23.8627 22.3816 24.2565C23.3679 25.1416 23.4579 26.6754 22.5803 27.673L20.184 30.3881C19.7302 30.9019 19.0814 31.1981 18.3989 31.1981Z" fill="url(#paint3_radial_26_268)"/>
<path d="M20.7989 24.2115C21.2452 24.2115 21.6765 24.3765 22.0102 24.6765C22.7678 25.3591 22.8353 26.5366 22.1603 27.3017L19.7639 30.0168C19.4189 30.4106 18.9201 30.6356 18.3988 30.6356C17.9525 30.6356 17.5213 30.4706 17.1875 30.1706C16.4299 29.4881 16.3624 28.3105 17.0375 27.5454L19.4339 24.8303C19.7789 24.4365 20.2776 24.2115 20.7989 24.2115ZM20.7989 23.0865C19.9851 23.0865 19.1751 23.424 18.5901 24.084L16.1937 26.7992C15.1099 28.0292 15.2186 29.9118 16.4374 31.0031C17 31.5094 17.7013 31.7569 18.3988 31.7569C19.2126 31.7569 20.0226 31.4194 20.6077 30.7594L23.004 28.0442C24.0879 26.8142 23.9791 24.9316 22.7603 23.8402C22.1978 23.334 21.4965 23.0865 20.7989 23.0865Z" fill="#EDA600"/>
<path d="M6.86708 20.6488C6.03829 20.6488 5.2845 20.2251 4.84947 19.5163C4.15943 18.3912 4.50445 16.9099 5.61826 16.2123L8.12715 14.6447C8.50217 14.4122 8.93344 14.2847 9.37222 14.2847C10.201 14.2847 10.9548 14.7085 11.3898 15.4173C12.0799 16.5424 11.7348 18.0237 10.621 18.7175L8.11215 20.2851C7.73713 20.5251 7.30585 20.6488 6.86708 20.6488Z" fill="url(#paint4_radial_26_268)"/>
<path d="M9.37216 14.851C10.0022 14.851 10.5797 15.1735 10.9097 15.7173C11.4385 16.5799 11.176 17.7162 10.321 18.2487L7.81583 19.8125C7.53081 19.9925 7.20454 20.0863 6.87078 20.0863C6.24074 20.0863 5.66321 19.7638 5.33319 19.22C4.80441 18.3575 5.06693 17.2211 5.92197 16.6886L8.43086 15.121C8.71213 14.9448 9.03839 14.851 9.37216 14.851ZM9.37216 13.726C8.84338 13.726 8.31085 13.8685 7.83083 14.1685L5.32194 15.7361C3.94562 16.5949 3.51809 18.4212 4.37314 19.8088C4.92817 20.7126 5.88822 21.2114 6.87078 21.2114C7.39955 21.2114 7.93208 21.0689 8.41211 20.7688L10.921 19.2012C12.2973 18.3425 12.7248 16.5161 11.8698 15.1285C11.3148 14.221 10.3547 13.726 9.37216 13.726Z" fill="#EDA600"/>
<path d="M13.3774 28.9893C12.7587 28.9893 12.1736 28.7455 11.7349 28.303C10.8273 27.3879 10.8273 25.8954 11.7349 24.9766L16.1376 20.5363C16.5764 20.0938 17.1614 19.85 17.7802 19.85C18.399 19.85 18.984 20.0938 19.4228 20.5363C20.3341 21.4551 20.3341 22.944 19.4228 23.8628L15.02 28.303C14.5813 28.7455 13.9962 28.9893 13.3774 28.9893Z" fill="url(#paint5_radial_26_268)"/>
<path d="M17.78 20.4126C18.2488 20.4126 18.6913 20.5963 19.0251 20.9338C19.7189 21.6314 19.7189 22.7677 19.0251 23.469L14.6186 27.9055C14.2848 28.2392 13.8461 28.4268 13.3735 28.4268C12.901 28.4268 12.4622 28.243 12.1285 27.9055C11.4347 27.2079 11.4347 26.0716 12.1285 25.3703L16.5312 20.9301C16.8687 20.5963 17.3075 20.4126 17.78 20.4126ZM17.78 19.2875C17.0412 19.2875 16.3024 19.5725 15.7362 20.1388L11.3334 24.579C10.2046 25.7154 10.2046 27.5605 11.3334 28.6968C11.896 29.2668 12.6347 29.5481 13.3773 29.5481C14.1161 29.5481 14.8549 29.263 15.4211 28.6968L19.8239 24.2565C20.9527 23.1202 20.9527 21.2751 19.8239 20.1388C19.2576 19.5725 18.5188 19.2875 17.78 19.2875Z" fill="#EDA600"/>
<mask id="mask0_26_268" style="mask-type:luminance" maskUnits="userSpaceOnUse" x="14" y="1" width="17" height="11">
<path d="M15.3125 9.58573C14.4687 8.1269 14.9525 6.42431 16.5201 5.45301L25.2506 1.5678C26.2106 1.21903 27.2869 3.50665 27.2869 3.50665L28.8133 6.3118C28.8133 6.3118 30.1821 8.31816 30.3321 8.50192C31.1046 9.43572 29.9346 8.23566 28.3332 7.88314C25.4981 7.26435 21.2191 10.6808 19.1715 11.0446C17.1239 11.4083 16.1563 11.0446 15.3125 9.58573Z" fill="white"/>
</mask>
<g mask="url(#mask0_26_268)">
<path d="M17.8852 10.6133C16.9027 10.6133 16.3552 10.272 15.7964 9.30444C15.1026 8.10438 15.5001 6.7618 16.7789 5.94801L25.4531 2.08905C25.8094 1.96529 26.3757 1.89029 27.017 1.89029C28.9071 1.89029 30.7072 2.47157 30.9547 3.15786C30.9659 3.19161 30.9809 3.22161 30.9997 3.25161L33.7636 7.93937C33.7711 7.96937 33.7711 7.98437 33.7711 7.99187C33.7523 7.99187 33.5423 8.13438 32.8035 8.13438C31.7385 8.13438 30.0846 7.83061 28.4946 7.34308C28.1645 7.24183 27.8008 7.18933 27.4183 7.18933C25.6369 7.18933 23.608 8.28064 21.8192 9.24069C20.7391 9.82197 19.7153 10.3695 19.0665 10.4858C18.6053 10.572 18.219 10.6133 17.8852 10.6133Z" fill="url(#paint6_linear_26_268)"/>
<path d="M27.0207 2.45285C28.8846 2.45285 30.2872 3.03413 30.4297 3.34915C30.4522 3.41665 30.4822 3.48041 30.5197 3.54041L32.9011 7.57563H32.8111C31.7985 7.57563 30.2084 7.28311 28.6671 6.80684C28.2808 6.69058 27.8645 6.63058 27.4258 6.63058C25.5019 6.63058 23.4055 7.75564 21.5604 8.74944C20.5666 9.28572 19.5353 9.837 18.9766 9.93826C18.5453 10.0133 18.189 10.0508 17.889 10.0508C17.1915 10.0508 16.7977 9.90075 16.2877 9.02321C15.7551 8.10066 16.0551 7.0956 17.0527 6.44682L25.6669 2.61411C25.9594 2.51285 26.462 2.45285 27.0207 2.45285ZM27.0207 1.32779C26.3157 1.32779 25.6782 1.40654 25.2469 1.56405L16.5164 5.44926C14.9488 6.42057 14.4651 8.12316 15.3089 9.58199C15.9539 10.6958 16.6702 11.1721 17.8852 11.1721C18.2603 11.1721 18.684 11.1271 19.1678 11.0408C21.0054 10.7145 24.6806 7.75189 27.422 7.75189C27.7408 7.75189 28.0445 7.79314 28.3333 7.87939C29.8184 8.33692 31.581 8.69694 32.8073 8.69694C33.8724 8.69694 34.5399 8.42317 34.2811 7.70689L31.4835 2.96663C31.0897 1.85282 28.8283 1.32779 27.0207 1.32779Z" fill="#EDA600"/>
</g>
<defs>
<radialGradient id="paint0_radial_26_268" cx="0" cy="0" r="1" gradientUnits="userSpaceOnUse" gradientTransform="translate(30.8655 4.52449) rotate(83.2169) scale(14.3978 11.1189)">
<stop offset="0.5993" stop-color="#FFCA28"/>
<stop offset="1" stop-color="#FFB300"/>
</radialGradient>
<radialGradient id="paint1_radial_26_268" cx="0" cy="0" r="1" gradientUnits="userSpaceOnUse" gradientTransform="translate(20.5653 7.34975) rotate(96.7831) scale(22.7929 17.6021)">
<stop offset="0.5993" stop-color="#FFCA28"/>
<stop offset="1" stop-color="#FFB300"/>
</radialGradient>
<radialGradient id="paint2_radial_26_268" cx="0" cy="0" r="1" gradientUnits="userSpaceOnUse" gradientTransform="translate(14.4541 18.8911) rotate(144.745) scale(6.22571 4.10708)">
<stop offset="0.5993" stop-color="#FFCA28"/>
<stop offset="1" stop-color="#FFB300"/>
</radialGradient>
<radialGradient id="paint3_radial_26_268" cx="0" cy="0" r="1" gradientUnits="userSpaceOnUse" gradientTransform="translate(21.2804 25.341) rotate(130.726) scale(5.36535 4.03863)">
<stop offset="0.5993" stop-color="#FFCA28"/>
<stop offset="1" stop-color="#FFB300"/>
</radialGradient>
<radialGradient id="paint4_radial_26_268" cx="0" cy="0" r="1" gradientUnits="userSpaceOnUse" gradientTransform="translate(9.94933 16.2726) rotate(148.133) scale(4.74727 3.50294)">
<stop offset="0.5993" stop-color="#FFCA28"/>
<stop offset="1" stop-color="#FFB300"/>
</radialGradient>
<radialGradient id="paint5_radial_26_268" cx="0" cy="0" r="1" gradientUnits="userSpaceOnUse" gradientTransform="translate(18.4525 21.5773) rotate(45.2391) scale(5.36003 6.4327)">
<stop offset="0.5993" stop-color="#FFCA28"/>
<stop offset="1" stop-color="#FFB300"/>
</radialGradient>
<linearGradient id="paint6_linear_26_268" x1="21.5529" y1="4.3686" x2="25.8817" y2="12.2173" gradientUnits="userSpaceOnUse">
<stop offset="0.5993" stop-color="#FFCA28"/>
<stop offset="1" stop-color="#FFB300"/>
</linearGradient>
</defs>
</svg>
