<svg width="45" height="46" viewBox="0 0 45 46" fill="none" xmlns="http://www.w3.org/2000/svg">
<path d="M18.6929 17.1384H26.3473V35.791H18.6929V17.1384Z" fill="#BDBDBD"/>
<path opacity="0.2" d="M24.897 18.5887V34.381H20.1029V18.5887H24.897ZM26.3473 17.1384H18.6929V35.791H26.3473V17.1384Z" fill="#424242"/>
<path d="M13.8989 37.1204C13.8989 35.3478 15.3492 33.8975 17.1218 33.8975H27.838C29.6107 33.8975 31.061 35.3478 31.061 37.1204C31.061 37.4427 30.8192 37.6845 30.497 37.6845H14.4629C14.1809 37.6845 13.8989 37.4427 13.8989 37.1204Z" fill="#BDBDBD"/>
<path opacity="0.2" d="M27.8783 34.8241C29.0064 34.8241 29.9329 35.6298 30.1344 36.7176H14.9061C15.1075 35.6298 16.0341 34.8241 17.1621 34.8241H27.8783ZM27.8783 33.8975H17.1621C15.3895 33.8975 13.9392 35.3478 13.9392 37.1204C13.9392 37.4427 14.1809 37.6845 14.5032 37.6845H30.5372C30.8595 37.6845 31.1012 37.4427 31.1012 37.1204C31.1012 35.3478 29.6509 33.8975 27.8783 33.8975Z" fill="#424242"/>
<path d="M41.7771 30.0703H3.22292C1.45031 30.0703 0 28.62 0 26.8474V3.76323C0 1.99063 1.45031 0.540314 3.22292 0.540314H41.7771C43.5497 0.540314 45 1.99063 45 3.76323V26.8474C44.9597 28.62 43.5497 30.0703 41.7771 30.0703Z" fill="url(#paint0_linear_26_223)"/>
<path opacity="0.2" d="M41.7771 1.99063C42.744 1.99063 43.5497 2.79636 43.5497 3.76323V26.8474C43.5497 27.8143 42.744 28.62 41.7771 28.62H3.22292C2.25604 28.62 1.45031 27.8143 1.45031 26.8474V3.76323C1.45031 2.79636 2.25604 1.99063 3.22292 1.99063H41.7771ZM41.7771 0.540314H3.22292C1.45031 0.540314 0 1.99063 0 3.76323V26.8474C0 28.62 1.45031 30.0703 3.22292 30.0703H41.7771C43.5497 30.0703 45 28.62 45 26.8474V3.76323C44.9597 1.99063 43.5497 0.540314 41.7771 0.540314Z" fill="#424242"/>
<path d="M40.2864 24.8733H4.71348C4.06889 24.8733 3.50488 24.3496 3.50488 23.6647V5.25382C3.50488 4.60924 4.02861 4.04523 4.71348 4.04523H40.2864C40.9713 4.04523 41.495 4.56895 41.495 5.25382V23.705C41.495 24.3496 40.9713 24.8733 40.2864 24.8733Z" fill="#757575"/>
<path d="M35.7341 39.0139H9.26593C8.90335 39.0139 8.54078 39.2153 8.33934 39.5376L5.479 44.4123H39.5614L36.6607 39.4974C36.4593 39.2153 36.0967 39.0139 35.7341 39.0139Z" fill="url(#paint1_linear_26_223)"/>
<path opacity="0.2" d="M35.7341 39.6182C35.8953 39.6182 36.0564 39.6988 36.137 39.8599L38.5139 43.8886H6.44588L8.82278 39.8599C8.90336 39.6988 9.0645 39.6182 9.22565 39.6182H35.7341ZM35.7341 39.0139H9.26593C8.90335 39.0139 8.54078 39.2153 8.33934 39.5376L5.479 44.4123H39.5614L36.6607 39.4974C36.4593 39.2153 36.0967 39.0139 35.7341 39.0139Z" fill="#424242"/>
<path d="M11.9247 40.7865H10.1118L10.3535 40.3434H12.1664L11.9247 40.7865Z" fill="#F5F5F5"/>
<path d="M14.7851 40.7865H12.9722L13.1736 40.3434H15.0671L14.7851 40.7865Z" fill="#F5F5F5"/>
<path d="M17.5246 40.7865H15.6714L15.9534 40.3434H17.7663L17.5246 40.7865Z" fill="#F5F5F5"/>
<path d="M20.2238 40.7865H18.4109L18.6929 40.3434H20.4252L20.2238 40.7865Z" fill="#F5F5F5"/>
<path d="M22.923 40.7865H21.0698L21.231 40.3434H22.7619L22.923 40.7865Z" fill="#F5F5F5"/>
<path d="M25.6222 40.7865H23.8093L23.6079 40.3434H25.3402L25.6222 40.7865Z" fill="#F5F5F5"/>
<path d="M28.4423 40.7865H26.5891L26.2668 40.3434H28.0797L28.4423 40.7865Z" fill="#F5F5F5"/>
<path d="M31.1415 40.7865H29.2884L28.9661 40.3434H30.8192L31.1415 40.7865Z" fill="#F5F5F5"/>
<path d="M34.8076 40.7865H32.0279L31.7056 40.3434H34.5256L34.8076 40.7865Z" fill="#F5F5F5"/>
<path d="M33.3975 41.5116H35.2104L34.8881 41.0282H33.0349L33.3975 41.5116Z" fill="#F5F5F5"/>
<path d="M30.4163 41.5116H32.2292L31.8666 41.0282H30.0537L30.4163 41.5116Z" fill="#F5F5F5"/>
<path d="M27.6768 41.5116H29.4897L29.2077 41.0282H27.3545L27.6768 41.5116Z" fill="#F5F5F5"/>
<path d="M24.7359 41.5116H26.5488L26.2265 41.0282H24.4941L24.7359 41.5116Z" fill="#F5F5F5"/>
<path d="M22.1174 41.5116H23.9303L23.7289 41.0282H22.198L22.1174 41.5116Z" fill="#F5F5F5"/>
<path d="M19.4985 41.5116H21.3114L21.4323 41.0282H19.6597L19.4985 41.5116Z" fill="#F5F5F5"/>
<path d="M16.6384 41.5116H18.4513L18.693 41.0282H16.9204L16.6384 41.5116Z" fill="#F5F5F5"/>
<path d="M13.4155 41.5116H15.2687L15.5507 41.0282H13.6975L13.4155 41.5116Z" fill="#F5F5F5"/>
<path d="M9.70898 41.5116H12.4485L12.7305 41.0282H9.9507L9.70898 41.5116Z" fill="#F5F5F5"/>
<path d="M27.0323 42.2368H28.8854L28.5631 41.7534H26.71L27.0323 42.2368Z" fill="#F5F5F5"/>
<path d="M24.1316 42.2368H25.9445L25.7028 41.7534H23.9705L24.1316 42.2368Z" fill="#F5F5F5"/>
<path d="M20.667 42.2368H22.5202L22.4799 41.7534H20.8281L20.667 42.2368Z" fill="#F5F5F5"/>
<path d="M17.4038 42.2368H19.257L19.4181 41.7534H17.6455L17.4038 42.2368Z" fill="#F5F5F5"/>
<path d="M13.9795 42.2368H15.7924L16.0744 41.7534H14.2615L13.9795 42.2368Z" fill="#F5F5F5"/>
<path d="M9.34644 42.2368H13.0125L13.2945 41.7534H9.62844L9.34644 42.2368Z" fill="#F5F5F5"/>
<path d="M30.1343 42.2368H35.6133L35.291 41.7534H29.812L30.1343 42.2368Z" fill="#F5F5F5"/>
<path d="M34.2837 42.962H36.1369L35.7743 42.4785H33.9211L34.2837 42.962Z" fill="#F5F5F5"/>
<path d="M30.8997 42.962H32.7126L32.35 42.4785H30.5371L30.8997 42.962Z" fill="#F5F5F5"/>
<path d="M16.2759 42.962H28.7244L28.4424 42.4785H16.5579L16.2759 42.962Z" fill="#F5F5F5"/>
<path d="M12.3679 42.962H14.2211L14.4225 42.4785H12.6499L12.3679 42.962Z" fill="#F5F5F5"/>
<path d="M8.90332 42.962H10.7162L10.9176 42.4785H9.14504L8.90332 42.962Z" fill="#F5F5F5"/>
<path d="M38.9571 45.5806H6.0833C5.76101 45.5806 5.479 45.2986 5.479 44.9763V44.4526H39.5614V44.9763C39.5614 45.2986 39.2794 45.5806 38.9571 45.5806Z" fill="#9E9E9E"/>
<path opacity="0.2" d="M39.2794 44.7346V44.9763C39.2794 45.1374 39.1182 45.2986 38.9571 45.2986H6.0833C5.92216 45.2986 5.76101 45.1374 5.76101 44.9763V44.7346H39.2794ZM39.5614 44.4526H5.479V44.9763C5.479 45.2986 5.76101 45.5806 6.0833 45.5806H38.9571C39.2794 45.5806 39.5614 45.2986 39.5614 44.9763V44.4526Z" fill="#424242"/>
<defs>
<linearGradient id="paint0_linear_26_223" x1="22.5" y1="0.631845" x2="22.5" y2="29.8688" gradientUnits="userSpaceOnUse">
<stop offset="0.0040657" stop-color="#EEEEEE"/>
<stop offset="1" stop-color="#BDBDBD"/>
</linearGradient>
<linearGradient id="paint1_linear_26_223" x1="22.5202" y1="44.4341" x2="22.5202" y2="39.0683" gradientUnits="userSpaceOnUse">
<stop stop-color="#9E9E9E"/>
<stop offset="1" stop-color="#E0E0E0"/>
</linearGradient>
</defs>
</svg>
