<svg width="1342" height="860" viewBox="0 0 1342 860" fill="none" xmlns="http://www.w3.org/2000/svg">
<path d="M1323.67 473.612C1323.79 473.395 1323.98 473.223 1324.21 473.118C1324.44 473.013 1324.69 472.98 1324.94 473.024C1325.18 473.068 1325.41 473.187 1325.59 473.364C1325.76 473.541 1325.88 473.769 1325.92 474.015L1326.51 477.35C1326.97 479.964 1327.99 482.447 1329.51 484.625C1331.02 486.804 1333 488.625 1335.29 489.963L1338.21 491.668C1338.43 491.794 1338.6 491.983 1338.7 492.209C1338.81 492.436 1338.84 492.69 1338.8 492.936C1338.75 493.182 1338.64 493.409 1338.46 493.585C1338.28 493.761 1338.05 493.878 1337.81 493.921L1334.47 494.506C1331.86 494.965 1329.38 495.989 1327.2 497.506C1325.02 499.022 1323.2 500.996 1321.86 503.288L1320.16 506.211C1320.03 506.427 1319.84 506.599 1319.62 506.705C1319.39 506.81 1319.13 506.842 1318.89 506.798C1318.64 506.754 1318.42 506.636 1318.24 506.458C1318.06 506.281 1317.95 506.054 1317.9 505.807L1317.32 502.475C1316.86 499.861 1315.84 497.378 1314.32 495.199C1312.8 493.021 1310.83 491.2 1308.54 489.862L1305.61 488.156C1305.4 488.031 1305.22 487.842 1305.12 487.615C1305.01 487.388 1304.98 487.134 1305.02 486.888C1305.07 486.642 1305.19 486.416 1305.36 486.24C1305.54 486.063 1305.77 485.946 1306.01 485.903L1309.35 485.318C1311.96 484.859 1314.45 483.836 1316.63 482.319C1318.8 480.802 1320.63 478.829 1321.96 476.536L1323.67 473.612Z" fill="#FDFDFD"/>
<path d="M313.669 96.6118C313.794 96.3955 313.983 96.223 314.21 96.1179C314.436 96.0127 314.69 95.98 314.936 96.024C315.182 96.0681 315.409 96.1869 315.585 96.3642C315.761 96.5415 315.879 96.7688 315.921 97.0151L316.506 100.35C316.965 102.964 317.989 105.447 319.506 107.625C321.022 109.804 322.996 111.625 325.288 112.963L328.21 114.668C328.427 114.794 328.599 114.983 328.704 115.209C328.809 115.436 328.842 115.69 328.798 115.936C328.754 116.182 328.635 116.409 328.458 116.585C328.281 116.761 328.053 116.878 327.807 116.921L324.475 117.506C321.86 117.965 319.377 118.989 317.199 120.506C315.021 122.022 313.199 123.996 311.862 126.288L310.156 129.211C310.031 129.427 309.842 129.599 309.615 129.705C309.388 129.81 309.135 129.842 308.889 129.798C308.643 129.754 308.416 129.636 308.24 129.458C308.064 129.281 307.946 129.054 307.904 128.807L307.318 125.475C306.859 122.861 305.836 120.378 304.319 118.199C302.802 116.021 300.829 114.2 298.536 112.862L295.612 111.156C295.395 111.031 295.223 110.842 295.118 110.615C295.013 110.388 294.98 110.134 295.024 109.888C295.068 109.642 295.187 109.416 295.364 109.24C295.541 109.063 295.769 108.946 296.015 108.903L299.35 108.318C301.964 107.859 304.447 106.836 306.625 105.319C308.804 103.802 310.625 101.829 311.963 99.5363L313.669 96.6118Z" fill="#FDFDFD"/>
<path d="M870.022 824.379C870.087 824.137 870.224 823.922 870.416 823.761C870.607 823.6 870.844 823.503 871.093 823.481C871.342 823.46 871.592 823.515 871.808 823.64C872.024 823.766 872.197 823.955 872.302 824.181L873.736 827.248C874.86 829.653 876.496 831.783 878.527 833.491C880.559 835.199 882.939 836.443 885.501 837.137L888.767 838.022C889.008 838.087 889.224 838.224 889.385 838.416C889.545 838.607 889.643 838.844 889.665 839.093C889.686 839.342 889.631 839.592 889.505 839.808C889.38 840.024 889.191 840.197 888.965 840.302L885.9 841.736C883.495 842.86 881.365 844.495 879.657 846.527C877.949 848.559 876.705 850.939 876.011 853.501L875.126 856.767C875.061 857.008 874.924 857.224 874.732 857.385C874.541 857.545 874.304 857.643 874.055 857.664C873.806 857.686 873.557 857.63 873.34 857.505C873.124 857.38 872.951 857.191 872.846 856.964L871.412 853.9C870.288 851.495 868.653 849.365 866.621 847.657C864.589 845.949 862.209 844.705 859.647 844.011L856.379 843.126C856.138 843.061 855.922 842.924 855.761 842.732C855.601 842.541 855.503 842.304 855.481 842.055C855.46 841.806 855.515 841.557 855.641 841.34C855.766 841.124 855.955 840.951 856.181 840.846L859.249 839.412C861.653 838.288 863.783 836.653 865.491 834.621C867.199 832.589 868.443 830.209 869.137 827.647L870.022 824.379Z" fill="#FDFDFD"/>
<path d="M891.074 27.8946C891.168 27.6633 891.19 27.4084 891.135 27.1645C891.08 26.9207 890.951 26.6997 890.766 26.5317C890.58 26.3636 890.348 26.2566 890.1 26.2253C889.852 26.1939 889.6 26.2396 889.379 26.3562L886.381 27.9279C884.029 29.1597 881.438 29.8641 878.787 29.992C876.135 30.1199 873.488 29.6682 871.029 28.6683L867.895 27.3942C867.664 27.2994 867.409 27.2781 867.165 27.3332C866.921 27.3883 866.7 27.5172 866.532 27.7023C866.364 27.8873 866.257 28.1197 866.226 28.3677C866.194 28.6157 866.24 28.8674 866.356 29.0885L867.926 32.0857C869.158 34.4369 869.863 37.0284 869.99 39.6796C870.118 42.3309 869.667 44.9782 868.667 47.437L867.393 50.5714C867.298 50.8027 867.277 51.0576 867.332 51.3014C867.387 51.5453 867.516 51.7662 867.701 51.9343C867.886 52.1023 868.118 52.2093 868.366 52.2407C868.614 52.2721 868.866 52.2263 869.087 52.1097L872.084 50.5398C874.435 49.308 877.027 48.6036 879.678 48.4757C882.329 48.3479 884.977 48.7996 887.435 49.7994L890.572 51.0752C890.803 51.17 891.058 51.1913 891.302 51.1362C891.546 51.0811 891.766 50.9522 891.935 50.7671C892.103 50.5821 892.21 50.3497 892.241 50.1017C892.272 49.8537 892.227 49.602 892.11 49.3809L890.538 46.3821C889.306 44.0309 888.602 41.4394 888.474 38.7881C888.346 36.1369 888.798 33.4896 889.798 31.0308L891.074 27.8946Z" fill="#5D58FF" fill-opacity="0.8"/>
<path d="M496.774 31.9126C496.695 31.6756 496.544 31.4688 496.343 31.3204C496.142 31.172 495.9 31.0891 495.65 31.083C495.4 31.0769 495.154 31.1479 494.946 31.2864C494.738 31.4248 494.577 31.624 494.486 31.8569L493.246 35.0071C492.273 37.4766 490.773 39.7044 488.851 41.535C486.929 43.3657 484.631 44.7553 482.117 45.607L478.912 46.6931C478.675 46.7726 478.469 46.9232 478.32 47.1244C478.172 47.3255 478.089 47.5675 478.083 47.8174C478.077 48.0674 478.148 48.3131 478.286 48.5212C478.425 48.7294 478.624 48.8899 478.857 48.9808L482.005 50.2215C484.474 51.1945 486.702 52.6943 488.533 54.6163C490.363 56.5383 491.753 58.8364 492.605 61.3504L493.691 64.5548C493.77 64.7918 493.921 64.9985 494.122 65.147C494.323 65.2954 494.565 65.3783 494.815 65.3843C495.065 65.3904 495.311 65.3194 495.519 65.181C495.727 65.0425 495.887 64.8433 495.978 64.6105L497.219 61.4627C498.192 58.9931 499.692 56.7654 501.614 54.9347C503.536 53.1041 505.834 51.7144 508.348 50.8627L511.555 49.7767C511.792 49.6972 511.998 49.5466 512.147 49.3454C512.295 49.1443 512.378 48.9023 512.384 48.6524C512.39 48.4025 512.319 48.1567 512.181 47.9486C512.042 47.7404 511.843 47.58 511.61 47.489L508.46 46.2483C505.991 45.2752 503.763 43.7755 501.932 41.8534C500.102 39.9314 498.712 37.6334 497.86 35.1194L496.774 31.9126Z" fill="#5D58FF" fill-opacity="0.8"/>
<path d="M18.1719 416.49C18.0483 416.273 17.8607 416.099 17.6347 415.992C17.4087 415.885 17.1553 415.85 16.9089 415.892C16.6625 415.935 16.435 416.052 16.2574 416.227C16.0798 416.403 15.9607 416.63 15.9163 416.876L15.3052 420.206C14.8259 422.817 13.783 425.291 12.2494 427.458C10.7158 429.624 8.72825 431.43 6.42527 432.75L3.48989 434.433C3.27264 434.556 3.09874 434.744 2.99183 434.97C2.88491 435.196 2.85017 435.449 2.89231 435.696C2.93446 435.942 3.05145 436.17 3.22739 436.347C3.40333 436.525 3.62968 436.644 3.87569 436.688L7.20343 437.3C9.81412 437.779 12.2889 438.822 14.4554 440.356C16.6218 441.889 18.4279 443.877 19.7476 446.18L21.4303 449.115C21.554 449.332 21.7415 449.506 21.9675 449.613C22.1935 449.72 22.4469 449.755 22.6933 449.713C22.9397 449.671 23.1672 449.554 23.3448 449.378C23.5224 449.202 23.6415 448.975 23.686 448.729L24.2974 445.402C24.7768 442.791 25.8196 440.316 27.3532 438.15C28.8869 435.983 30.8744 434.177 33.1774 432.857L36.1151 431.174C36.3324 431.051 36.5063 430.863 36.6132 430.637C36.7201 430.411 36.7549 430.158 36.7127 429.911C36.6706 429.665 36.5536 429.438 36.3776 429.26C36.2017 429.082 35.9754 428.963 35.7293 428.919L32.3992 428.308C29.7885 427.828 27.3137 426.786 25.1473 425.252C22.9808 423.718 21.1748 421.731 19.855 419.428L18.1719 416.49Z" fill="#5D58FF" fill-opacity="0.8"/>
<path d="M452.882 815.558C452.905 815.309 452.851 815.059 452.728 814.841C452.604 814.624 452.417 814.45 452.191 814.343C451.965 814.236 451.711 814.201 451.465 814.243C451.219 814.285 450.991 814.402 450.813 814.578L448.401 816.953C446.509 818.815 444.234 820.242 441.734 821.135C439.235 822.028 436.57 822.365 433.927 822.123L430.558 821.815C430.309 821.791 430.059 821.845 429.841 821.968C429.624 822.092 429.45 822.28 429.343 822.505C429.236 822.731 429.201 822.985 429.243 823.231C429.285 823.478 429.402 823.705 429.578 823.883L431.951 826.295C433.813 828.186 435.24 830.461 436.133 832.961C437.026 835.461 437.363 838.125 437.121 840.768L436.812 844.138C436.789 844.386 436.843 844.637 436.966 844.854C437.09 845.071 437.277 845.245 437.503 845.352C437.729 845.459 437.982 845.494 438.229 845.452C438.475 845.41 438.703 845.293 438.881 845.117L441.292 842.744C443.184 840.882 445.459 839.455 447.959 838.562C450.458 837.669 453.123 837.332 455.766 837.575L459.137 837.884C459.386 837.907 459.636 837.854 459.854 837.73C460.071 837.607 460.245 837.419 460.352 837.193C460.459 836.967 460.494 836.714 460.452 836.467C460.41 836.221 460.293 835.993 460.117 835.816L457.742 833.403C455.88 831.511 454.453 829.236 453.56 826.737C452.667 824.237 452.33 821.573 452.572 818.929L452.882 815.558Z" fill="#5D58FF" fill-opacity="0.8"/>
<path d="M150.741 7.84948C150.56 7.67706 150.33 7.56456 150.083 7.52727C149.836 7.48998 149.583 7.5297 149.359 7.64103C149.135 7.75237 148.951 7.92992 148.832 8.14956C148.712 8.3692 148.664 8.62027 148.692 8.86866L149.066 12.2337C149.359 14.8718 149.073 17.5421 148.229 20.0585C147.384 22.5748 146.001 24.8768 144.176 26.804L141.849 29.2609C141.677 29.4419 141.564 29.6716 141.527 29.9188C141.49 30.166 141.53 30.4187 141.641 30.6425C141.752 30.8663 141.93 31.0505 142.149 31.1698C142.369 31.2892 142.62 31.3381 142.869 31.3098L146.231 30.9368C148.869 30.6439 151.54 30.9297 154.056 31.7743C156.573 32.6189 158.874 34.0019 160.802 35.8272L163.259 38.1534C163.44 38.3259 163.669 38.4384 163.916 38.4757C164.164 38.513 164.416 38.4732 164.64 38.3619C164.864 38.2506 165.048 38.073 165.168 37.8534C165.287 37.6337 165.336 37.3827 165.307 37.1343L164.934 33.7714C164.642 31.1333 164.927 28.463 165.772 25.9467C166.617 23.4303 168 21.1283 169.825 19.2011L172.153 16.7432C172.326 16.5621 172.438 16.3324 172.475 16.0852C172.513 15.838 172.473 15.5853 172.362 15.3615C172.25 15.1377 172.073 14.9536 171.853 14.8342C171.634 14.7148 171.382 14.6659 171.134 14.6942L167.769 15.0683C165.131 15.3612 162.461 15.0754 159.944 14.2308C157.428 13.3863 155.126 12.0032 153.199 10.178L150.741 7.84948Z" fill="#B182D0" fill-opacity="0.8"/>
</svg>
