<svg width="1254" height="839" viewBox="0 0 1254 839" fill="none" xmlns="http://www.w3.org/2000/svg">
<path d="M200.669 802.612C200.794 802.395 200.983 802.223 201.21 802.118C201.436 802.013 201.69 801.98 201.936 802.024C202.182 802.068 202.409 802.187 202.585 802.364C202.761 802.541 202.879 802.769 202.921 803.015L203.506 806.35C203.965 808.964 204.989 811.447 206.506 813.625C208.022 815.804 209.996 817.625 212.288 818.963L215.21 820.668C215.427 820.794 215.599 820.983 215.704 821.209C215.809 821.436 215.842 821.69 215.798 821.936C215.754 822.182 215.635 822.409 215.458 822.585C215.281 822.761 215.053 822.878 214.807 822.921L211.475 823.506C208.86 823.965 206.377 824.989 204.199 826.506C202.021 828.022 200.199 829.996 198.862 832.288L197.156 835.211C197.031 835.427 196.842 835.599 196.615 835.705C196.388 835.81 196.135 835.842 195.889 835.798C195.643 835.754 195.416 835.636 195.24 835.458C195.064 835.281 194.946 835.054 194.904 834.807L194.318 831.475C193.859 828.861 192.836 826.378 191.319 824.199C189.802 822.021 187.829 820.2 185.536 818.862L182.612 817.156C182.395 817.031 182.223 816.842 182.118 816.615C182.013 816.388 181.98 816.134 182.024 815.888C182.068 815.642 182.187 815.416 182.364 815.24C182.541 815.063 182.769 814.946 183.015 814.903L186.35 814.318C188.964 813.859 191.447 812.836 193.625 811.319C195.804 809.802 197.625 807.829 198.963 805.536L200.669 802.612Z" fill="#FDFDFD"/>
<path d="M74.6686 476.612C74.7939 476.395 74.9829 476.223 75.2097 476.118C75.4365 476.013 75.6901 475.98 75.9362 476.024C76.1823 476.068 76.4088 476.187 76.5851 476.364C76.7613 476.541 76.8786 476.769 76.9212 477.015L77.5062 480.35C77.9653 482.964 78.9888 485.447 80.5055 487.625C82.0222 489.804 83.9956 491.625 86.2882 492.963L89.2104 494.668C89.4267 494.794 89.5991 494.983 89.7043 495.209C89.8094 495.436 89.8422 495.69 89.7982 495.936C89.7541 496.182 89.6353 496.409 89.458 496.585C89.2807 496.761 89.0534 496.878 88.8071 496.921L85.4747 497.506C82.8603 497.965 80.3775 498.989 78.1992 500.506C76.0208 502.022 74.1994 503.996 72.8617 506.288L71.1562 509.211C71.0309 509.427 70.8419 509.599 70.6151 509.704C70.3883 509.81 70.1347 509.842 69.8886 509.798C69.6425 509.754 69.416 509.636 69.2397 509.458C69.0635 509.281 68.9462 509.054 68.9036 508.807L68.3181 505.475C67.8591 502.861 66.8356 500.378 65.3189 498.199C63.8022 496.021 61.8288 494.2 59.5361 492.862L56.6115 491.156C56.3953 491.031 56.2228 490.842 56.1177 490.615C56.0125 490.388 55.9798 490.134 56.0238 489.888C56.0679 489.642 56.1866 489.416 56.364 489.239C56.5413 489.063 56.7685 488.946 57.0149 488.903L60.3497 488.318C62.964 487.859 65.4469 486.836 67.6252 485.319C69.8035 483.802 71.625 481.829 72.9627 479.536L74.6686 476.612Z" fill="#FDFDFD"/>
<path d="M16.0499 91.8197C16.1355 91.5848 16.2913 91.382 16.4962 91.2387C16.701 91.0954 16.9451 91.0187 17.195 91.019C17.445 91.0193 17.6889 91.0965 17.8934 91.2403C18.098 91.384 18.2533 91.5872 18.3384 91.8223L19.4985 95.003C20.4084 97.4965 21.851 99.7617 23.7258 101.641C25.6007 103.52 27.8626 104.967 30.3541 105.883L33.5298 107.05C33.7647 107.135 33.9676 107.291 34.1108 107.496C34.2541 107.701 34.3308 107.945 34.3305 108.195C34.3302 108.445 34.253 108.689 34.1093 108.893C33.9656 109.098 33.7624 109.253 33.5273 109.338L30.349 110.499C27.8554 111.408 25.5903 112.851 23.7113 114.726C21.8323 116.601 20.3847 118.863 19.4693 121.354L18.3021 124.53C18.2165 124.765 18.0607 124.968 17.8558 125.111C17.6509 125.254 17.4069 125.331 17.1569 125.331C16.907 125.33 16.6631 125.253 16.4586 125.109C16.254 124.966 16.0986 124.762 16.0136 124.527L14.8535 121.349C13.9436 118.855 12.501 116.59 10.6262 114.711C8.75134 112.832 6.48939 111.385 3.99789 110.469L0.819719 109.302C0.584822 109.216 0.381963 109.061 0.238709 108.856C0.0954551 108.651 0.0187552 108.407 0.0190329 108.157C0.0193105 107.907 0.0965521 107.663 0.240261 107.459C0.383969 107.254 0.587174 107.099 0.82226 107.014L4.00302 105.853C6.49654 104.944 8.7617 103.501 10.6407 101.626C12.5197 99.7513 13.9673 97.4894 14.8827 94.9979L16.0499 91.8197Z" fill="#FDFDFD"/>
<path d="M1122.17 233.49C1122.05 233.273 1121.86 233.099 1121.63 232.992C1121.41 232.885 1121.16 232.85 1120.91 232.892C1120.66 232.935 1120.44 233.052 1120.26 233.227C1120.08 233.403 1119.96 233.63 1119.92 233.876L1119.31 237.206C1118.83 239.817 1117.78 242.291 1116.25 244.458C1114.72 246.624 1112.73 248.43 1110.43 249.75L1107.49 251.433C1107.27 251.556 1107.1 251.744 1106.99 251.97C1106.88 252.196 1106.85 252.449 1106.89 252.696C1106.93 252.942 1107.05 253.17 1107.23 253.347C1107.4 253.525 1107.63 253.644 1107.88 253.688L1111.2 254.3C1113.81 254.779 1116.29 255.822 1118.46 257.356C1120.62 258.889 1122.43 260.877 1123.75 263.18L1125.43 266.115C1125.55 266.332 1125.74 266.506 1125.97 266.613C1126.19 266.72 1126.45 266.755 1126.69 266.713C1126.94 266.671 1127.17 266.554 1127.34 266.378C1127.52 266.202 1127.64 265.975 1127.69 265.729L1128.3 262.402C1128.78 259.791 1129.82 257.316 1131.35 255.15C1132.89 252.983 1134.87 251.177 1137.18 249.857L1140.12 248.174C1140.33 248.051 1140.51 247.863 1140.61 247.637C1140.72 247.411 1140.75 247.158 1140.71 246.911C1140.67 246.665 1140.55 246.438 1140.38 246.26C1140.2 246.082 1139.98 245.963 1139.73 245.919L1136.4 245.308C1133.79 244.828 1131.31 243.786 1129.15 242.252C1126.98 240.718 1125.17 238.731 1123.85 236.428L1122.17 233.49Z" fill="#5D58FF" fill-opacity="0.8"/>
<path d="M1232.17 698.49C1232.05 698.273 1231.86 698.099 1231.63 697.992C1231.41 697.885 1231.16 697.85 1230.91 697.892C1230.66 697.935 1230.44 698.052 1230.26 698.227C1230.08 698.403 1229.96 698.63 1229.92 698.876L1229.31 702.206C1228.83 704.817 1227.78 707.291 1226.25 709.458C1224.72 711.624 1222.73 713.43 1220.43 714.75L1217.49 716.433C1217.27 716.556 1217.1 716.744 1216.99 716.97C1216.88 717.196 1216.85 717.449 1216.89 717.696C1216.93 717.942 1217.05 718.17 1217.23 718.347C1217.4 718.525 1217.63 718.644 1217.88 718.688L1221.2 719.3C1223.81 719.779 1226.29 720.822 1228.46 722.356C1230.62 723.889 1232.43 725.877 1233.75 728.18L1235.43 731.115C1235.55 731.332 1235.74 731.506 1235.97 731.613C1236.19 731.72 1236.45 731.755 1236.69 731.713C1236.94 731.671 1237.17 731.554 1237.34 731.378C1237.52 731.202 1237.64 730.975 1237.69 730.729L1238.3 727.402C1238.78 724.791 1239.82 722.316 1241.35 720.15C1242.89 717.983 1244.87 716.177 1247.18 714.857L1250.12 713.174C1250.33 713.051 1250.51 712.863 1250.61 712.637C1250.72 712.411 1250.75 712.158 1250.71 711.911C1250.67 711.665 1250.55 711.438 1250.38 711.26C1250.2 711.082 1249.98 710.963 1249.73 710.919L1246.4 710.308C1243.79 709.828 1241.31 708.786 1239.15 707.252C1236.98 705.718 1235.17 703.731 1233.85 701.428L1232.17 698.49Z" fill="#5D58FF" fill-opacity="0.8"/>
<path d="M1015.88 790.558C1015.91 790.309 1015.85 790.059 1015.73 789.841C1015.6 789.624 1015.42 789.45 1015.19 789.343C1014.96 789.236 1014.71 789.201 1014.46 789.243C1014.22 789.285 1013.99 789.402 1013.81 789.578L1011.4 791.953C1009.51 793.815 1007.23 795.242 1004.73 796.135C1002.23 797.028 999.57 797.365 996.927 797.123L993.558 796.815C993.309 796.791 993.059 796.845 992.841 796.968C992.624 797.092 992.45 797.28 992.343 797.505C992.236 797.731 992.201 797.985 992.243 798.231C992.285 798.478 992.402 798.705 992.578 798.883L994.951 801.295C996.813 803.186 998.24 805.461 999.133 807.961C1000.03 810.461 1000.36 813.125 1000.12 815.768L999.812 819.138C999.789 819.386 999.843 819.637 999.966 819.854C1000.09 820.071 1000.28 820.245 1000.5 820.352C1000.73 820.459 1000.98 820.494 1001.23 820.452C1001.48 820.41 1001.7 820.293 1001.88 820.117L1004.29 817.744C1006.18 815.882 1008.46 814.455 1010.96 813.562C1013.46 812.669 1016.12 812.332 1018.77 812.575L1022.14 812.884C1022.39 812.907 1022.64 812.854 1022.85 812.73C1023.07 812.607 1023.24 812.419 1023.35 812.193C1023.46 811.967 1023.49 811.714 1023.45 811.467C1023.41 811.221 1023.29 810.993 1023.12 810.816L1020.74 808.403C1018.88 806.511 1017.45 804.236 1016.56 801.737C1015.67 799.237 1015.33 796.573 1015.57 793.929L1015.88 790.558Z" fill="#5D58FF" fill-opacity="0.8"/>
<path d="M1081.85 476.031C1081.71 475.827 1081.5 475.673 1081.27 475.589C1081.03 475.505 1080.78 475.496 1080.54 475.562C1080.3 475.629 1080.08 475.768 1079.92 475.961C1079.76 476.153 1079.67 476.39 1079.65 476.64L1079.37 480.014C1079.15 482.66 1078.36 485.226 1077.05 487.534C1075.74 489.843 1073.94 491.838 1071.78 493.38L1069.03 495.347C1068.83 495.492 1068.67 495.696 1068.59 495.931C1068.51 496.167 1068.5 496.422 1068.56 496.663C1068.63 496.904 1068.77 497.119 1068.96 497.278C1069.15 497.437 1069.39 497.533 1069.64 497.553L1073.01 497.83C1075.66 498.047 1078.22 498.838 1080.53 500.148C1082.84 501.459 1084.84 503.256 1086.38 505.416L1088.34 508.17C1088.49 508.373 1088.69 508.528 1088.93 508.612C1089.16 508.696 1089.42 508.705 1089.66 508.638C1089.9 508.572 1090.12 508.433 1090.28 508.24C1090.43 508.047 1090.53 507.81 1090.55 507.561L1090.83 504.189C1091.04 501.544 1091.84 498.977 1093.15 496.669C1094.46 494.36 1096.25 492.365 1098.41 490.823L1101.17 488.856C1101.37 488.711 1101.53 488.507 1101.61 488.271C1101.7 488.036 1101.7 487.78 1101.64 487.539C1101.57 487.298 1101.43 487.084 1101.24 486.924C1101.05 486.765 1100.81 486.669 1100.56 486.649L1097.19 486.373C1094.54 486.156 1091.97 485.365 1089.67 484.055C1087.36 482.745 1085.36 480.947 1083.82 478.787L1081.85 476.031Z" fill="#B182D0" fill-opacity="0.8"/>
<path d="M602.029 795.945C602.014 795.695 601.922 795.456 601.767 795.261C601.611 795.065 601.399 794.922 601.159 794.852C600.919 794.781 600.663 794.786 600.426 794.866C600.189 794.945 599.983 795.096 599.834 795.297L597.819 798.018C596.239 800.15 594.212 801.913 591.881 803.182C589.55 804.452 586.97 805.198 584.321 805.368L580.945 805.586C580.696 805.601 580.457 805.693 580.261 805.849C580.066 806.005 579.923 806.217 579.852 806.457C579.782 806.696 579.786 806.952 579.866 807.189C579.946 807.426 580.097 807.633 580.298 807.781L583.016 809.796C585.149 811.376 586.911 813.402 588.181 815.733C589.45 818.064 590.196 820.644 590.366 823.293L590.584 826.67C590.599 826.919 590.691 827.158 590.847 827.353C591.003 827.549 591.215 827.692 591.455 827.762C591.694 827.833 591.95 827.828 592.187 827.749C592.424 827.669 592.631 827.518 592.779 827.317L594.794 824.599C596.374 822.466 598.4 820.703 600.731 819.434C603.063 818.165 605.642 817.419 608.291 817.248L611.67 817.031C611.92 817.016 612.158 816.924 612.354 816.768C612.549 816.613 612.692 816.4 612.763 816.161C612.834 815.921 612.829 815.665 612.749 815.428C612.669 815.191 612.519 814.985 612.317 814.836L609.597 812.821C607.464 811.241 605.702 809.214 604.432 806.883C603.163 804.552 602.417 801.972 602.246 799.323L602.029 795.945Z" fill="#B182D0" fill-opacity="0.8"/>
<path d="M647.029 5.94451C647.014 5.69499 646.922 5.45625 646.767 5.26073C646.611 5.06521 646.399 4.92239 646.159 4.85169C645.919 4.78098 645.663 4.78582 645.426 4.86555C645.189 4.94527 644.983 5.09601 644.834 5.29729L642.819 8.01783C641.239 10.1505 639.212 11.9129 636.881 13.1823C634.55 14.4518 631.97 15.1977 629.321 15.3681L625.945 15.5858C625.696 15.6011 625.457 15.6929 625.261 15.8487C625.066 16.0045 624.923 16.2167 624.852 16.4565C624.782 16.6963 624.786 16.952 624.866 17.1889C624.946 17.4259 625.097 17.6325 625.298 17.7808L628.016 19.7955C630.149 21.3758 631.911 23.4021 633.181 25.7332C634.45 28.0643 635.196 30.6442 635.366 33.2931L635.584 36.6695C635.599 36.919 635.691 37.1578 635.847 37.3533C636.003 37.5488 636.215 37.6916 636.455 37.7623C636.694 37.833 636.95 37.8282 637.187 37.7485C637.424 37.6687 637.631 37.518 637.779 37.3167L639.794 34.5985C641.374 32.4659 643.4 30.7035 645.731 29.434C648.063 28.1646 650.642 27.4187 653.291 27.2482L656.67 27.0313C656.92 27.0159 657.158 26.9241 657.354 26.7683C657.549 26.6125 657.692 26.4003 657.763 26.1606C657.834 25.9208 657.829 25.665 657.749 25.4281C657.669 25.1912 657.519 24.9845 657.317 24.8362L654.597 22.8208C652.464 21.2405 650.702 19.2142 649.432 16.8831C648.163 14.552 647.417 11.9722 647.246 9.32329L647.029 5.94451Z" fill="#B182D0" fill-opacity="0.8"/>
</svg>
