<svg width="753" height="612" viewBox="0 0 753 612" fill="none" xmlns="http://www.w3.org/2000/svg">
<ellipse cx="378.367" cy="300.043" rx="150" ry="142.565" transform="rotate(-17.9637 378.367 300.043)" fill="#D9D9D9"/>
<path d="M316.628 325.94L313.522 327.592C313.248 327.215 312.899 326.885 312.475 326.601C312.06 326.315 311.561 326.131 310.98 326.051C310.398 325.971 309.731 326.053 308.977 326.297C307.947 326.631 307.162 327.141 306.623 327.826C306.081 328.504 305.927 329.203 306.161 329.925C306.364 330.549 306.758 330.977 307.343 331.208C307.929 331.439 308.776 331.509 309.884 331.419L313.073 331.138C314.92 330.978 316.399 331.175 317.511 331.728C318.622 332.282 319.392 333.219 319.82 334.541C320.183 335.66 320.182 336.762 319.817 337.848C319.458 338.923 318.783 339.894 317.792 340.762C316.809 341.627 315.564 342.304 314.056 342.793C311.964 343.471 310.113 343.579 308.503 343.116C306.889 342.644 305.665 341.63 304.828 340.073L308.17 338.399C308.685 339.244 309.36 339.791 310.194 340.041C311.024 340.282 311.987 340.225 313.082 339.87C314.273 339.484 315.146 338.928 315.699 338.202C316.249 337.468 316.408 336.74 316.174 336.019C315.984 335.435 315.606 335.016 315.04 334.76C314.481 334.502 313.723 334.417 312.766 334.503L309.379 334.835C307.507 335.003 306.013 334.788 304.897 334.192C303.789 333.592 303.019 332.628 302.588 331.298C302.231 330.196 302.226 329.131 302.574 328.104C302.922 327.078 303.564 326.157 304.501 325.343C305.435 324.52 306.603 323.882 308.006 323.427C310.024 322.772 311.755 322.695 313.199 323.195C314.639 323.686 315.782 324.601 316.628 325.94ZM327.463 345.771L319.136 320.087L322.687 318.936L323.669 321.964L323.973 321.865C324.057 321.408 324.215 320.859 324.447 320.22C324.679 319.58 325.086 318.955 325.667 318.346C326.246 317.728 327.116 317.231 328.275 316.855C329.783 316.366 331.252 316.311 332.683 316.689C334.114 317.068 335.398 317.865 336.536 319.082C337.683 320.296 338.583 321.913 339.238 323.931C339.892 325.95 340.117 327.79 339.912 329.451C339.704 331.104 339.139 332.511 338.216 333.67C337.29 334.822 336.073 335.642 334.565 336.131C333.43 336.499 332.44 336.609 331.595 336.462C330.758 336.312 330.054 336.048 329.483 335.668C328.912 335.289 328.452 334.936 328.105 334.61L327.886 334.681L331.099 344.592L327.463 345.771ZM325.727 328.271C326.153 329.585 326.717 330.674 327.418 331.54C328.12 332.405 328.923 333.001 329.825 333.326C330.726 333.644 331.699 333.633 332.745 333.294C333.831 332.941 334.646 332.359 335.189 331.547C335.729 330.727 336.024 329.758 336.074 328.639C336.132 327.519 335.958 326.334 335.553 325.086C335.154 323.853 334.608 322.807 333.917 321.947C333.235 321.084 332.432 320.489 331.51 320.161C330.597 319.83 329.593 319.842 328.498 320.196C327.444 320.538 326.641 321.099 326.087 321.879C325.542 322.656 325.24 323.591 325.183 324.685C325.125 325.779 325.307 326.974 325.727 328.271ZM353.941 329.862C352.19 330.429 350.532 330.524 348.966 330.144C347.401 329.765 346.023 328.971 344.834 327.761C343.645 326.552 342.737 324.983 342.111 323.053C341.483 321.116 341.295 319.304 341.546 317.619C341.797 315.934 342.445 314.479 343.49 313.253C344.535 312.027 345.933 311.13 347.684 310.562C349.435 309.995 351.094 309.9 352.659 310.28C354.225 310.659 355.603 311.458 356.795 312.675C357.988 313.892 358.898 315.47 359.526 317.407C360.151 319.337 360.337 321.14 360.084 322.817C359.83 324.494 359.181 325.946 358.136 327.171C357.091 328.397 355.693 329.294 353.941 329.862ZM352.964 326.805C354.099 326.437 354.942 325.833 355.493 324.991C356.045 324.149 356.337 323.172 356.371 322.059C356.412 320.943 356.238 319.786 355.849 318.586C355.463 317.394 354.926 316.359 354.238 315.48C353.555 314.59 352.742 313.962 351.799 313.596C350.856 313.23 349.817 313.231 348.682 313.599C347.539 313.969 346.689 314.581 346.132 315.433C345.583 316.283 345.29 317.27 345.251 318.394C345.217 319.506 345.394 320.659 345.78 321.85C346.169 323.05 346.704 324.091 347.384 324.973C348.072 325.851 348.886 326.47 349.826 326.828C350.775 327.184 351.821 327.176 352.964 326.805ZM366.249 313.198L369.844 324.289L366.208 325.468L360.152 306.789L363.642 305.657L364.628 308.697L364.859 308.623C364.968 307.494 365.383 306.481 366.105 305.584C366.835 304.685 367.901 304.008 369.303 303.553C370.576 303.14 371.778 303.046 372.908 303.271C374.035 303.488 375.032 304.034 375.898 304.909C376.764 305.784 377.447 306.992 377.946 308.532L381.799 320.413L378.163 321.592L374.452 310.149C374.013 308.795 373.318 307.851 372.365 307.318C371.41 306.776 370.317 306.705 369.084 307.105C368.241 307.378 367.55 307.804 367.012 308.381C366.482 308.957 366.14 309.659 365.988 310.487C365.841 311.306 365.928 312.209 366.249 313.198ZM395.718 300.297L392.612 301.95C392.337 301.573 391.988 301.242 391.565 300.959C391.149 300.672 390.651 300.489 390.069 300.409C389.488 300.328 388.82 300.41 388.066 300.655C387.036 300.989 386.252 301.498 385.713 302.184C385.171 302.861 385.017 303.561 385.251 304.282C385.453 304.907 385.847 305.334 386.433 305.566C387.018 305.797 387.866 305.867 388.974 305.777L392.162 305.495C394.01 305.335 395.489 305.532 396.6 306.086C397.712 306.639 398.481 307.577 398.91 308.898C399.273 310.017 399.272 311.12 398.907 312.205C398.548 313.281 397.873 314.252 396.882 315.12C395.899 315.985 394.654 316.662 393.146 317.151C391.054 317.829 389.203 317.937 387.592 317.473C385.979 317.002 384.754 315.988 383.918 314.431L387.259 312.756C387.775 313.602 388.45 314.149 389.283 314.398C390.114 314.64 391.077 314.583 392.171 314.228C393.363 313.842 394.235 313.286 394.788 312.56C395.339 311.826 395.497 311.098 395.263 310.376C395.074 309.793 394.696 309.373 394.129 309.118C393.571 308.86 392.813 308.774 391.855 308.861L388.469 309.193C386.597 309.36 385.103 309.146 383.987 308.549C382.878 307.95 382.109 306.985 381.678 305.656C381.32 304.553 381.316 303.489 381.664 302.462C382.012 301.435 382.654 300.515 383.59 299.7C384.524 298.878 385.693 298.239 387.095 297.785C389.114 297.13 390.845 297.053 392.288 297.552C393.729 298.044 394.872 298.959 395.718 300.297ZM412.272 310.95C410.521 311.518 408.862 311.612 407.297 311.232C405.731 310.853 404.354 310.059 403.165 308.849C401.975 307.64 401.068 306.071 400.442 304.141C399.814 302.204 399.625 300.392 399.876 298.707C400.127 297.022 400.775 295.567 401.82 294.341C402.865 293.115 404.264 292.218 406.015 291.65C407.766 291.083 409.424 290.989 410.99 291.368C412.555 291.747 413.934 292.546 415.126 293.763C416.318 294.98 417.228 296.558 417.856 298.495C418.482 300.425 418.668 302.228 418.414 303.905C418.161 305.582 417.511 307.034 416.466 308.259C415.421 309.485 414.023 310.382 412.272 310.95ZM411.294 307.893C412.43 307.525 413.273 306.921 413.824 306.079C414.375 305.237 414.668 304.26 414.701 303.147C414.743 302.031 414.569 300.874 414.18 299.674C413.794 298.482 413.256 297.447 412.568 296.568C411.885 295.678 411.073 295.05 410.13 294.684C409.187 294.318 408.148 294.319 407.013 294.687C405.869 295.057 405.02 295.669 404.463 296.521C403.914 297.371 403.62 298.358 403.581 299.482C403.548 300.594 403.724 301.747 404.111 302.939C404.5 304.138 405.034 305.179 405.714 306.061C406.402 306.94 407.217 307.558 408.157 307.916C409.106 308.272 410.151 308.264 411.294 307.893ZM424.539 306.556L418.483 287.877L421.997 286.737L422.959 289.705L423.154 289.642C423.168 288.526 423.512 287.541 424.185 286.687C424.863 285.822 425.749 285.212 426.844 284.857C427.071 284.783 427.341 284.705 427.654 284.621C427.976 284.535 428.23 284.475 428.416 284.441L429.544 287.919C429.385 287.926 429.111 287.966 428.722 288.038C428.331 288.102 427.948 288.195 427.576 288.316C426.716 288.594 426.009 289.025 425.455 289.608C424.905 290.18 424.54 290.85 424.359 291.616C424.174 292.375 424.214 293.159 424.477 293.97L428.175 305.377L424.539 306.556ZM447.317 271.647L455.392 296.553L451.622 297.775L444.769 276.64L444.623 276.687L439.926 282.51L438.759 278.911L443.656 272.834L447.317 271.647Z" fill="black"/>
<path d="M582.724 287.198C588.088 315.848 585.929 336.305 578.563 351.329C571.229 366.288 558.426 376.484 541.17 384.015C523.837 391.58 502.332 396.316 478.046 400.498C469.05 402.047 459.641 403.525 449.955 405.046C433.717 407.596 416.697 410.268 399.523 413.609C382.154 416.987 365.433 420.891 349.679 424.57C340.559 426.699 331.762 428.753 323.351 430.586C300.2 435.63 279.786 439.044 262.236 438.281C244.81 437.523 230.5 432.663 219.191 421.373C207.784 409.985 198.976 391.608 193.597 362.882C172.147 248.312 242.16 138.857 349.397 117.999C456.634 97.1423 561.274 172.629 582.724 287.198Z" fill="#74BBFF" fill-opacity="0.2" stroke="#DDDDDD" stroke-width="8"/>
<ellipse cx="317.989" cy="46.4131" rx="317.989" ry="46.4131" transform="matrix(0.973607 -0.228233 0.12654 0.991962 93.2344 431.495)" fill="#959595"/>
<path d="M166.658 431.536C120.165 462.437 103.273 505.385 407.647 429.978C692.878 348.416 683.105 330.585 627.388 321.882" stroke="#B1B1B1" stroke-width="4"/>
<path d="M206.415 415.635C167.242 441.588 153.035 477.652 409.594 414.285C650.007 345.755 641.752 330.785 594.77 323.487" stroke="#B1B1B1" stroke-width="4"/>
<path d="M419.17 176.291C416.431 173.785 418.286 169.225 421.996 169.342L438.687 169.869C440.081 169.914 441.447 169.471 442.549 168.617L448.153 164.28C451.556 161.647 456.148 165.507 454.138 169.312L453.504 170.512C451.986 173.386 453.032 176.946 455.863 178.542L459.127 180.381C462.852 182.481 461.127 188.175 456.863 187.855L447.6 187.159C445.969 187.037 444.359 187.585 443.142 188.678L433.91 196.967C430.939 199.636 426.321 196.78 427.382 192.929L428.414 189.182C429.012 187.009 428.342 184.683 426.679 183.162L419.17 176.291Z" fill="white" fill-opacity="0.25" stroke="white" stroke-width="2"/>
</svg>
