<svg width="346" height="323" viewBox="0 0 346 323" fill="none" xmlns="http://www.w3.org/2000/svg">
<g filter="url(#filter0_i_495_2349)">
<path fill-rule="evenodd" clip-rule="evenodd" d="M141.364 12.2546C108.724 16.7309 73.3751 15.1981 49.9736 39.1113C26.489 63.1093 28.6157 99.8876 22.7523 133.459C14.6214 180.014 -15.2014 229.649 9.76785 269.315C36.4117 311.64 92.7822 327.592 141.364 321.882C186.277 316.603 212.336 272.619 246.058 241.542C283.443 207.09 342.544 185.083 345.824 133.459C349.149 81.1284 304.808 36.3196 260.755 10.2047C224.872 -11.0664 182.381 6.62955 141.364 12.2546Z" fill="#BE8F65"/>
</g>
<g filter="url(#filter1_i_495_2349)">
<path d="M141.723 248.263C144.604 258.185 138.978 267.732 127.129 275.723C109.557 291.194 91.6657 279.273 85.7463 267.086C80.3883 258.097 89.111 249.141 100.038 243.828C110.964 238.516 138.412 236.857 141.723 248.263Z" fill="url(#paint0_linear_495_2349)" fill-opacity="0.15"/>
</g>
<g filter="url(#filter2_i_495_2349)">
<path d="M248.558 68.5084C254.744 74.4617 254.494 84.765 249.009 97.2807C242.358 118.586 224.266 119.297 214.909 113.282C207.274 109.386 210.054 97.8433 215.952 87.8613C221.85 77.8793 241.447 61.6647 248.558 68.5084Z" fill="url(#paint1_linear_495_2349)" fill-opacity="0.15"/>
</g>
<g filter="url(#filter3_i_495_2349)">
<path d="M152.621 134.113C141.355 127.647 128.278 129.488 115.427 137.885C91.9787 148.986 101.667 170.609 114.869 180.837C124.343 189.334 137.53 184.299 146.886 175.79C156.242 167.28 165.571 141.546 152.621 134.113Z" fill="url(#paint2_linear_495_2349)" fill-opacity="0.15"/>
</g>
<g filter="url(#filter4_i_495_2349)">
<path d="M177.43 74.1061C168.472 76.2972 161.621 73.7222 157.391 67.584C148.07 58.6948 161.872 48.0138 173.376 43.9942C182.071 40.4761 187.772 44.8135 189.942 50.5948C192.113 56.376 187.728 71.5873 177.43 74.1061Z" fill="url(#paint3_linear_495_2349)" fill-opacity="0.15"/>
</g>
<g filter="url(#filter5_i_495_2349)">
<path d="M259.172 151.935C266.052 163.574 246.035 183.153 240.233 211.005C213.827 255.414 191.267 249.569 180.408 242.296C169.549 235.023 170.801 215.89 188.103 194.817C205.405 173.744 251.262 138.556 259.172 151.935Z" fill="url(#paint4_linear_495_2349)" fill-opacity="0.15"/>
</g>
<g filter="url(#filter6_i_495_2349)">
<path d="M96.6614 67.9086C100.113 73.6446 90.3402 83.1637 87.6194 96.7981C74.821 118.467 63.6661 115.508 58.2741 111.897C52.8821 108.286 53.4033 98.908 61.8297 88.6453C70.2561 78.3825 92.6935 61.3148 96.6614 67.9086Z" fill="url(#paint5_linear_495_2349)" fill-opacity="0.15"/>
</g>
<circle cx="163" cy="139" r="100" fill="black"/>
<path d="M111.364 131.807L108.284 132.352C108.155 131.958 107.951 131.583 107.67 131.227C107.398 130.871 107.027 130.58 106.557 130.352C106.087 130.125 105.5 130.011 104.795 130.011C103.833 130.011 103.03 130.227 102.386 130.659C101.742 131.083 101.42 131.633 101.42 132.307C101.42 132.89 101.636 133.36 102.068 133.716C102.5 134.072 103.197 134.364 104.159 134.591L106.932 135.227C108.538 135.598 109.735 136.17 110.523 136.943C111.311 137.716 111.705 138.72 111.705 139.955C111.705 141 111.402 141.932 110.795 142.75C110.197 143.561 109.36 144.197 108.284 144.659C107.216 145.121 105.977 145.352 104.568 145.352C102.614 145.352 101.019 144.936 99.7841 144.102C98.5492 143.261 97.7917 142.068 97.5114 140.523L100.795 140.023C101 140.879 101.42 141.527 102.057 141.966C102.693 142.398 103.523 142.614 104.545 142.614C105.659 142.614 106.549 142.383 107.216 141.92C107.883 141.451 108.216 140.879 108.216 140.205C108.216 139.659 108.011 139.201 107.602 138.83C107.201 138.458 106.583 138.178 105.75 137.989L102.795 137.341C101.167 136.97 99.9621 136.379 99.1818 135.568C98.4091 134.758 98.0227 133.731 98.0227 132.489C98.0227 131.458 98.3106 130.557 98.8864 129.784C99.4621 129.011 100.258 128.409 101.273 127.977C102.288 127.538 103.451 127.318 104.761 127.318C106.648 127.318 108.133 127.727 109.216 128.545C110.299 129.356 111.015 130.443 111.364 131.807ZM115.088 151.545V127.545H118.407V130.375H118.691C118.888 130.011 119.172 129.591 119.543 129.114C119.914 128.636 120.429 128.22 121.088 127.864C121.747 127.5 122.619 127.318 123.702 127.318C125.111 127.318 126.369 127.674 127.475 128.386C128.581 129.098 129.448 130.125 130.077 131.466C130.713 132.807 131.032 134.42 131.032 136.307C131.032 138.193 130.717 139.811 130.088 141.159C129.46 142.5 128.596 143.534 127.497 144.261C126.399 144.981 125.145 145.341 123.736 145.341C122.675 145.341 121.808 145.163 121.134 144.807C120.467 144.451 119.944 144.034 119.566 143.557C119.187 143.08 118.895 142.655 118.691 142.284H118.486V151.545H115.088ZM118.418 136.273C118.418 137.5 118.596 138.576 118.952 139.5C119.308 140.424 119.823 141.148 120.497 141.67C121.172 142.186 121.997 142.443 122.975 142.443C123.99 142.443 124.838 142.174 125.52 141.636C126.202 141.091 126.717 140.352 127.066 139.42C127.422 138.489 127.6 137.439 127.6 136.273C127.6 135.121 127.425 134.087 127.077 133.17C126.736 132.254 126.221 131.53 125.532 131C124.85 130.47 123.997 130.205 122.975 130.205C121.99 130.205 121.157 130.458 120.475 130.966C119.8 131.473 119.289 132.182 118.941 133.091C118.592 134 118.418 135.061 118.418 136.273ZM141.839 145.352C140.202 145.352 138.774 144.977 137.555 144.227C136.335 143.477 135.388 142.428 134.714 141.08C134.039 139.731 133.702 138.155 133.702 136.352C133.702 134.542 134.039 132.958 134.714 131.602C135.388 130.246 136.335 129.193 137.555 128.443C138.774 127.693 140.202 127.318 141.839 127.318C143.475 127.318 144.903 127.693 146.123 128.443C147.342 129.193 148.289 130.246 148.964 131.602C149.638 132.958 149.975 134.542 149.975 136.352C149.975 138.155 149.638 139.731 148.964 141.08C148.289 142.428 147.342 143.477 146.123 144.227C144.903 144.977 143.475 145.352 141.839 145.352ZM141.85 142.5C142.911 142.5 143.789 142.22 144.486 141.659C145.183 141.098 145.698 140.352 146.032 139.42C146.373 138.489 146.543 137.462 146.543 136.341C146.543 135.227 146.373 134.205 146.032 133.273C145.698 132.333 145.183 131.58 144.486 131.011C143.789 130.443 142.911 130.159 141.85 130.159C140.782 130.159 139.895 130.443 139.191 131.011C138.494 131.58 137.975 132.333 137.634 133.273C137.301 134.205 137.134 135.227 137.134 136.341C137.134 137.462 137.301 138.489 137.634 139.42C137.975 140.352 138.494 141.098 139.191 141.659C139.895 142.22 140.782 142.5 141.85 142.5ZM156.813 134.636V145H153.416V127.545H156.677V130.386H156.893C157.294 129.462 157.923 128.72 158.779 128.159C159.643 127.598 160.73 127.318 162.041 127.318C163.23 127.318 164.272 127.568 165.166 128.068C166.06 128.561 166.753 129.295 167.245 130.273C167.738 131.25 167.984 132.458 167.984 133.898V145H164.586V134.307C164.586 133.042 164.257 132.053 163.597 131.341C162.938 130.621 162.033 130.261 160.882 130.261C160.094 130.261 159.393 130.432 158.779 130.773C158.173 131.114 157.692 131.614 157.336 132.273C156.988 132.924 156.813 133.712 156.813 134.636ZM185.268 131.807L182.189 132.352C182.06 131.958 181.855 131.583 181.575 131.227C181.302 130.871 180.931 130.58 180.461 130.352C179.992 130.125 179.405 130.011 178.7 130.011C177.738 130.011 176.935 130.227 176.291 130.659C175.647 131.083 175.325 131.633 175.325 132.307C175.325 132.89 175.541 133.36 175.973 133.716C176.405 134.072 177.101 134.364 178.064 134.591L180.836 135.227C182.442 135.598 183.639 136.17 184.427 136.943C185.215 137.716 185.609 138.72 185.609 139.955C185.609 141 185.306 141.932 184.7 142.75C184.101 143.561 183.264 144.197 182.189 144.659C181.12 145.121 179.882 145.352 178.473 145.352C176.518 145.352 174.923 144.936 173.689 144.102C172.454 143.261 171.696 142.068 171.416 140.523L174.7 140.023C174.905 140.879 175.325 141.527 175.961 141.966C176.598 142.398 177.427 142.614 178.45 142.614C179.564 142.614 180.454 142.383 181.12 141.92C181.787 141.451 182.12 140.879 182.12 140.205C182.12 139.659 181.916 139.201 181.507 138.83C181.105 138.458 180.488 138.178 179.655 137.989L176.7 137.341C175.071 136.97 173.867 136.379 173.086 135.568C172.314 134.758 171.927 133.731 171.927 132.489C171.927 131.458 172.215 130.557 172.791 129.784C173.367 129.011 174.162 128.409 175.177 127.977C176.192 127.538 177.355 127.318 178.666 127.318C180.552 127.318 182.037 127.727 183.12 128.545C184.204 129.356 184.92 130.443 185.268 131.807ZM196.345 145.352C194.709 145.352 193.281 144.977 192.061 144.227C190.841 143.477 189.894 142.428 189.22 141.08C188.546 139.731 188.209 138.155 188.209 136.352C188.209 134.542 188.546 132.958 189.22 131.602C189.894 130.246 190.841 129.193 192.061 128.443C193.281 127.693 194.709 127.318 196.345 127.318C197.981 127.318 199.41 127.693 200.629 128.443C201.849 129.193 202.796 130.246 203.47 131.602C204.144 132.958 204.481 134.542 204.481 136.352C204.481 138.155 204.144 139.731 203.47 141.08C202.796 142.428 201.849 143.477 200.629 144.227C199.41 144.977 197.981 145.352 196.345 145.352ZM196.356 142.5C197.417 142.5 198.296 142.22 198.993 141.659C199.69 141.098 200.205 140.352 200.538 139.42C200.879 138.489 201.05 137.462 201.05 136.341C201.05 135.227 200.879 134.205 200.538 133.273C200.205 132.333 199.69 131.58 198.993 131.011C198.296 130.443 197.417 130.159 196.356 130.159C195.288 130.159 194.402 130.443 193.697 131.011C193 131.58 192.481 132.333 192.141 133.273C191.807 134.205 191.641 135.227 191.641 136.341C191.641 137.462 191.807 138.489 192.141 139.42C192.481 140.352 193 141.098 193.697 141.659C194.402 142.22 195.288 142.5 196.356 142.5ZM207.922 145V127.545H211.206V130.318H211.388C211.706 129.379 212.267 128.64 213.07 128.102C213.88 127.557 214.797 127.284 215.82 127.284C216.032 127.284 216.282 127.292 216.57 127.307C216.865 127.322 217.096 127.341 217.263 127.364V130.614C217.127 130.576 216.884 130.534 216.536 130.489C216.187 130.436 215.839 130.409 215.49 130.409C214.687 130.409 213.971 130.58 213.343 130.92C212.721 131.254 212.229 131.72 211.865 132.318C211.502 132.909 211.32 133.583 211.32 134.341V145H207.922Z" fill="white"/>
<defs>
<filter id="filter0_i_495_2349" x="0" y="0" width="351" height="343" filterUnits="userSpaceOnUse" color-interpolation-filters="sRGB">
<feFlood flood-opacity="0" result="BackgroundImageFix"/>
<feBlend mode="normal" in="SourceGraphic" in2="BackgroundImageFix" result="shape"/>
<feColorMatrix in="SourceAlpha" type="matrix" values="0 0 0 0 0 0 0 0 0 0 0 0 0 0 0 0 0 0 127 0" result="hardAlpha"/>
<feOffset dx="5" dy="20"/>
<feGaussianBlur stdDeviation="10"/>
<feComposite in2="hardAlpha" operator="arithmetic" k2="-1" k3="1"/>
<feColorMatrix type="matrix" values="0 0 0 0 0 0 0 0 0 0 0 0 0 0 0 0 0 0 0.25 0"/>
<feBlend mode="normal" in2="shape" result="effect1_innerShadow_495_2349"/>
</filter>
<filter id="filter1_i_495_2349" x="80.1235" y="239.732" width="62.3428" height="54.4379" filterUnits="userSpaceOnUse" color-interpolation-filters="sRGB">
<feFlood flood-opacity="0" result="BackgroundImageFix"/>
<feBlend mode="normal" in="SourceGraphic" in2="BackgroundImageFix" result="shape"/>
<feColorMatrix in="SourceAlpha" type="matrix" values="0 0 0 0 0 0 0 0 0 0 0 0 0 0 0 0 0 0 127 0" result="hardAlpha"/>
<feOffset dx="-4" dy="14"/>
<feGaussianBlur stdDeviation="5.55"/>
<feComposite in2="hardAlpha" operator="arithmetic" k2="-1" k3="1"/>
<feColorMatrix type="matrix" values="0 0 0 0 0 0 0 0 0 0 0 0 0 0 0 0 0 0 0.5 0"/>
<feBlend mode="normal" in2="shape" result="effect1_innerShadow_495_2349"/>
</filter>
<filter id="filter2_i_495_2349" x="206.257" y="66.8724" width="46.9039" height="57.3689" filterUnits="userSpaceOnUse" color-interpolation-filters="sRGB">
<feFlood flood-opacity="0" result="BackgroundImageFix"/>
<feBlend mode="normal" in="SourceGraphic" in2="BackgroundImageFix" result="shape"/>
<feColorMatrix in="SourceAlpha" type="matrix" values="0 0 0 0 0 0 0 0 0 0 0 0 0 0 0 0 0 0 127 0" result="hardAlpha"/>
<feOffset dx="-4" dy="10"/>
<feGaussianBlur stdDeviation="3.85"/>
<feComposite in2="hardAlpha" operator="arithmetic" k2="-1" k3="1"/>
<feColorMatrix type="matrix" values="0 0 0 0 0 0 0 0 0 0 0 0 0 0 0 0 0 0 0.5 0"/>
<feBlend mode="normal" in2="shape" result="effect1_innerShadow_495_2349"/>
</filter>
<filter id="filter3_i_495_2349" x="101.198" y="122.128" width="62.7878" height="63.0943" filterUnits="userSpaceOnUse" color-interpolation-filters="sRGB">
<feFlood flood-opacity="0" result="BackgroundImageFix"/>
<feBlend mode="normal" in="SourceGraphic" in2="BackgroundImageFix" result="shape"/>
<feColorMatrix in="SourceAlpha" type="matrix" values="0 0 0 0 0 0 0 0 0 0 0 0 0 0 0 0 0 0 127 0" result="hardAlpha"/>
<feOffset dx="5" dy="-10"/>
<feGaussianBlur stdDeviation="4.05"/>
<feComposite in2="hardAlpha" operator="arithmetic" k2="-1" k3="1"/>
<feColorMatrix type="matrix" values="0 0 0 0 0 0 0 0 0 0 0 0 0 0 0 0 0 0 0.5 0"/>
<feBlend mode="normal" in2="shape" result="effect1_innerShadow_495_2349"/>
</filter>
<filter id="filter4_i_495_2349" x="154.32" y="36.0284" width="41.1646" height="38.8484" filterUnits="userSpaceOnUse" color-interpolation-filters="sRGB">
<feFlood flood-opacity="0" result="BackgroundImageFix"/>
<feBlend mode="normal" in="SourceGraphic" in2="BackgroundImageFix" result="shape"/>
<feColorMatrix in="SourceAlpha" type="matrix" values="0 0 0 0 0 0 0 0 0 0 0 0 0 0 0 0 0 0 127 0" result="hardAlpha"/>
<feOffset dx="5" dy="-10"/>
<feGaussianBlur stdDeviation="3.35"/>
<feComposite in2="hardAlpha" operator="arithmetic" k2="-1" k3="1"/>
<feColorMatrix type="matrix" values="0 0 0 0 0 0 0 0 0 0 0 0 0 0 0 0 0 0 0.5 0"/>
<feBlend mode="normal" in2="shape" result="effect1_innerShadow_495_2349"/>
</filter>
<filter id="filter5_i_495_2349" x="173.426" y="148.98" width="87.1669" height="108.338" filterUnits="userSpaceOnUse" color-interpolation-filters="sRGB">
<feFlood flood-opacity="0" result="BackgroundImageFix"/>
<feBlend mode="normal" in="SourceGraphic" in2="BackgroundImageFix" result="shape"/>
<feColorMatrix in="SourceAlpha" type="matrix" values="0 0 0 0 0 0 0 0 0 0 0 0 0 0 0 0 0 0 127 0" result="hardAlpha"/>
<feOffset dy="30"/>
<feGaussianBlur stdDeviation="5"/>
<feComposite in2="hardAlpha" operator="arithmetic" k2="-1" k3="1"/>
<feColorMatrix type="matrix" values="0 0 0 0 0 0 0 0 0 0 0 0 0 0 0 0 0 0 0.45 0"/>
<feBlend mode="normal" in2="shape" result="effect1_innerShadow_495_2349"/>
</filter>
<filter id="filter6_i_495_2349" x="54.7564" y="62.0344" width="42.6343" height="52.3907" filterUnits="userSpaceOnUse" color-interpolation-filters="sRGB">
<feFlood flood-opacity="0" result="BackgroundImageFix"/>
<feBlend mode="normal" in="SourceGraphic" in2="BackgroundImageFix" result="shape"/>
<feColorMatrix in="SourceAlpha" type="matrix" values="0 0 0 0 0 0 0 0 0 0 0 0 0 0 0 0 0 0 127 0" result="hardAlpha"/>
<feOffset dy="-5"/>
<feGaussianBlur stdDeviation="2.2"/>
<feComposite in2="hardAlpha" operator="arithmetic" k2="-1" k3="1"/>
<feColorMatrix type="matrix" values="0 0 0 0 0 0 0 0 0 0 0 0 0 0 0 0 0 0 0.5 0"/>
<feBlend mode="normal" in2="shape" result="effect1_innerShadow_495_2349"/>
</filter>
<linearGradient id="paint0_linear_495_2349" x1="118.523" y1="245.44" x2="129.378" y2="277.222" gradientUnits="userSpaceOnUse">
<stop/>
<stop offset="0.868899" stop-color="#BE8F65" stop-opacity="0"/>
</linearGradient>
<linearGradient id="paint1_linear_495_2349" x1="230.266" y1="79.0105" x2="252.491" y2="95.5709" gradientUnits="userSpaceOnUse">
<stop/>
<stop offset="0.79" stop-opacity="0"/>
</linearGradient>
<linearGradient id="paint2_linear_495_2349" x1="154.601" y1="176.84" x2="128.706" y2="133.785" gradientUnits="userSpaceOnUse">
<stop stop-opacity="0.8"/>
<stop offset="0.560256" stop-color="#BE8F65" stop-opacity="0.03"/>
</linearGradient>
<linearGradient id="paint3_linear_495_2349" x1="194.795" y1="50.9442" x2="165.358" y2="73.8112" gradientUnits="userSpaceOnUse">
<stop stop-opacity="0.8"/>
<stop offset="0.560256" stop-color="#BE8F65" stop-opacity="0.03"/>
</linearGradient>
<linearGradient id="paint4_linear_495_2349" x1="198.308" y1="182.388" x2="238.677" y2="215.533" gradientUnits="userSpaceOnUse">
<stop/>
<stop offset="0.720121" stop-color="#BE8F65" stop-opacity="0.15"/>
</linearGradient>
<linearGradient id="paint5_linear_495_2349" x1="84.9899" y1="101.308" x2="64.4842" y2="93.4494" gradientUnits="userSpaceOnUse">
<stop/>
<stop offset="0.495" stop-opacity="0.07"/>
</linearGradient>
</defs>
</svg>
