<svg width="479" height="485" viewBox="0 0 479 485" fill="none" xmlns="http://www.w3.org/2000/svg">
<g filter="url(#filter0_i_495_2272)">
<path d="M374.815 119.364C430.315 187.286 404.673 204.476 367.588 332.832C335.653 409.047 196.059 441.728 127.731 386.363C59.4022 330.998 32.6032 244.084 84.7569 179.719C136.911 115.354 311.015 41.2831 374.815 119.364Z" fill="#BE8F65"/>
</g>
<g filter="url(#filter1_i_495_2272)">
<path d="M265.481 331.831C272.246 344.072 268.732 358.392 257.267 372.542C241.48 398.311 216.127 387.973 204.975 373.659C195.566 363.401 202.975 348.924 214.236 338.594C225.498 328.264 257.705 317.759 265.481 331.831Z" fill="url(#paint0_linear_495_2272)" fill-opacity="0.15"/>
</g>
<g filter="url(#filter2_i_495_2272)">
<path d="M331.973 325.742C336.429 330.21 336.422 337.847 332.764 347.08C328.428 362.819 315.694 363.188 309.003 358.647C303.561 355.692 305.329 347.157 309.32 339.807C313.311 332.457 326.85 320.605 331.973 325.742Z" fill="url(#paint1_linear_495_2272)" fill-opacity="0.15"/>
</g>
<g filter="url(#filter3_i_495_2272)">
<path d="M144.781 281.549C148.309 292.706 142.283 304.694 129.228 315.795C109.977 336.486 89.5486 325.235 82.5432 311.887C76.2633 302.189 85.7815 290.428 97.8813 282.593C109.981 274.758 140.725 268.723 144.781 281.549Z" fill="url(#paint2_linear_495_2272)" fill-opacity="0.15"/>
</g>
<g filter="url(#filter4_i_495_2272)">
<path d="M234.72 221.075C219.105 215.941 204.112 222.334 191.588 237.323C167.321 259.095 186.136 284.739 205.324 294.259C219.481 302.62 233.533 291.972 241.848 277.893C250.163 263.813 252.67 226.977 234.72 221.075Z" fill="url(#paint3_linear_495_2272)" fill-opacity="0.15"/>
</g>
<g filter="url(#filter5_i_495_2272)">
<path d="M219.771 136.536C210.047 133.665 200.262 138.6 191.708 149.276C175.421 165.025 186.369 181.702 198.192 187.411C206.862 192.531 216.216 184.743 222.059 174.85C227.901 164.958 230.95 139.836 219.771 136.536Z" fill="url(#paint4_linear_495_2272)" fill-opacity="0.15"/>
</g>
<g filter="url(#filter6_i_495_2272)">
<path d="M299.907 136.285C288.56 136.565 281.308 133.281 278.354 127.51C270.291 118.609 290.224 112.165 305.201 110.813C316.681 109.396 321.981 113.935 322.613 119.062C323.246 124.189 312.952 135.963 299.907 136.285Z" fill="url(#paint5_linear_495_2272)" fill-opacity="0.15"/>
</g>
<g filter="url(#filter7_i_495_2272)">
<path d="M369.135 138.801C381.25 152.1 363.921 184.037 366.334 222.603C349.705 289.291 320.817 288.398 305.416 282.074C290.015 275.75 285.095 250.085 298.682 216.995C312.269 183.906 355.208 123.513 369.135 138.801Z" fill="url(#paint6_linear_495_2272)" fill-opacity="0.15"/>
</g>
<g filter="url(#filter8_i_495_2272)">
<path d="M126.661 161.32C132.705 167.855 124.231 183.395 125.555 202.238C117.543 234.753 103.236 234.22 95.5891 231.08C87.942 227.94 85.42 215.388 92.0372 199.273C98.6545 183.158 119.714 153.807 126.661 161.32Z" fill="url(#paint7_linear_495_2272)" fill-opacity="0.15"/>
</g>
<defs>
<filter id="filter0_i_495_2272" x="57.3814" y="85.7883" width="369.589" height="348.266" filterUnits="userSpaceOnUse" color-interpolation-filters="sRGB">
<feFlood flood-opacity="0" result="BackgroundImageFix"/>
<feBlend mode="normal" in="SourceGraphic" in2="BackgroundImageFix" result="shape"/>
<feColorMatrix in="SourceAlpha" type="matrix" values="0 0 0 0 0 0 0 0 0 0 0 0 0 0 0 0 0 0 127 0" result="hardAlpha"/>
<feOffset dx="20" dy="20"/>
<feGaussianBlur stdDeviation="10"/>
<feComposite in2="hardAlpha" operator="arithmetic" k2="-1" k3="1"/>
<feColorMatrix type="matrix" values="0 0 0 0 0 0 0 0 0 0 0 0 0 0 0 0 0 0 0.25 0"/>
<feBlend mode="normal" in2="shape" result="effect1_innerShadow_495_2272"/>
</filter>
<filter id="filter1_i_495_2272" x="196.684" y="325.026" width="72.2246" height="74.399" filterUnits="userSpaceOnUse" color-interpolation-filters="sRGB">
<feFlood flood-opacity="0" result="BackgroundImageFix"/>
<feBlend mode="normal" in="SourceGraphic" in2="BackgroundImageFix" result="shape"/>
<feColorMatrix in="SourceAlpha" type="matrix" values="0 0 0 0 0 0 0 0 0 0 0 0 0 0 0 0 0 0 127 0" result="hardAlpha"/>
<feOffset dx="-4" dy="14"/>
<feGaussianBlur stdDeviation="5.55"/>
<feComposite in2="hardAlpha" operator="arithmetic" k2="-1" k3="1"/>
<feColorMatrix type="matrix" values="0 0 0 0 0 0 0 0 0 0 0 0 0 0 0 0 0 0 0.5 0"/>
<feBlend mode="normal" in2="shape" result="effect1_innerShadow_495_2272"/>
</filter>
<filter id="filter2_i_495_2272" x="301.682" y="324.49" width="33.7361" height="40.5755" filterUnits="userSpaceOnUse" color-interpolation-filters="sRGB">
<feFlood flood-opacity="0" result="BackgroundImageFix"/>
<feBlend mode="normal" in="SourceGraphic" in2="BackgroundImageFix" result="shape"/>
<feColorMatrix in="SourceAlpha" type="matrix" values="0 0 0 0 0 0 0 0 0 0 0 0 0 0 0 0 0 0 127 0" result="hardAlpha"/>
<feOffset dx="-4" dy="10"/>
<feGaussianBlur stdDeviation="1.95"/>
<feComposite in2="hardAlpha" operator="arithmetic" k2="-1" k3="1"/>
<feColorMatrix type="matrix" values="0 0 0 0 0 0 0 0 0 0 0 0 0 0 0 0 0 0 0.5 0"/>
<feBlend mode="normal" in2="shape" result="effect1_innerShadow_495_2272"/>
</filter>
<filter id="filter3_i_495_2272" x="76.5516" y="274.105" width="69.2231" height="60.7972" filterUnits="userSpaceOnUse" color-interpolation-filters="sRGB">
<feFlood flood-opacity="0" result="BackgroundImageFix"/>
<feBlend mode="normal" in="SourceGraphic" in2="BackgroundImageFix" result="shape"/>
<feColorMatrix in="SourceAlpha" type="matrix" values="0 0 0 0 0 0 0 0 0 0 0 0 0 0 0 0 0 0 127 0" result="hardAlpha"/>
<feOffset dx="-4" dy="10"/>
<feGaussianBlur stdDeviation="3.85"/>
<feComposite in2="hardAlpha" operator="arithmetic" k2="-1" k3="1"/>
<feColorMatrix type="matrix" values="0 0 0 0 0 0 0 0 0 0 0 0 0 0 0 0 0 0 0.5 0"/>
<feBlend mode="normal" in2="shape" result="effect1_innerShadow_495_2272"/>
</filter>
<filter id="filter4_i_495_2272" x="180.097" y="211.227" width="73.1134" height="85.9835" filterUnits="userSpaceOnUse" color-interpolation-filters="sRGB">
<feFlood flood-opacity="0" result="BackgroundImageFix"/>
<feBlend mode="normal" in="SourceGraphic" in2="BackgroundImageFix" result="shape"/>
<feColorMatrix in="SourceAlpha" type="matrix" values="0 0 0 0 0 0 0 0 0 0 0 0 0 0 0 0 0 0 127 0" result="hardAlpha"/>
<feOffset dx="5" dy="-10"/>
<feGaussianBlur stdDeviation="4.05"/>
<feComposite in2="hardAlpha" operator="arithmetic" k2="-1" k3="1"/>
<feColorMatrix type="matrix" values="0 0 0 0 0 0 0 0 0 0 0 0 0 0 0 0 0 0 0.5 0"/>
<feBlend mode="normal" in2="shape" result="effect1_innerShadow_495_2272"/>
</filter>
<filter id="filter5_i_495_2272" x="183.477" y="129.031" width="48.8241" height="60" filterUnits="userSpaceOnUse" color-interpolation-filters="sRGB">
<feFlood flood-opacity="0" result="BackgroundImageFix"/>
<feBlend mode="normal" in="SourceGraphic" in2="BackgroundImageFix" result="shape"/>
<feColorMatrix in="SourceAlpha" type="matrix" values="0 0 0 0 0 0 0 0 0 0 0 0 0 0 0 0 0 0 127 0" result="hardAlpha"/>
<feOffset dx="5" dy="-10"/>
<feGaussianBlur stdDeviation="3.35"/>
<feComposite in2="hardAlpha" operator="arithmetic" k2="-1" k3="1"/>
<feColorMatrix type="matrix" values="0 0 0 0 0 0 0 0 0 0 0 0 0 0 0 0 0 0 0.5 0"/>
<feBlend mode="normal" in2="shape" result="effect1_innerShadow_495_2272"/>
</filter>
<filter id="filter6_i_495_2272" x="276.499" y="103.85" width="51.1424" height="32.4515" filterUnits="userSpaceOnUse" color-interpolation-filters="sRGB">
<feFlood flood-opacity="0" result="BackgroundImageFix"/>
<feBlend mode="normal" in="SourceGraphic" in2="BackgroundImageFix" result="shape"/>
<feColorMatrix in="SourceAlpha" type="matrix" values="0 0 0 0 0 0 0 0 0 0 0 0 0 0 0 0 0 0 127 0" result="hardAlpha"/>
<feOffset dx="5" dy="-10"/>
<feGaussianBlur stdDeviation="3.35"/>
<feComposite in2="hardAlpha" operator="arithmetic" k2="-1" k3="1"/>
<feColorMatrix type="matrix" values="0 0 0 0 0 0 0 0 0 0 0 0 0 0 0 0 0 0 0.5 0"/>
<feBlend mode="normal" in2="shape" result="effect1_innerShadow_495_2272"/>
</filter>
<filter id="filter7_i_495_2272" x="290.747" y="136.366" width="82.7323" height="158.465" filterUnits="userSpaceOnUse" color-interpolation-filters="sRGB">
<feFlood flood-opacity="0" result="BackgroundImageFix"/>
<feBlend mode="normal" in="SourceGraphic" in2="BackgroundImageFix" result="shape"/>
<feColorMatrix in="SourceAlpha" type="matrix" values="0 0 0 0 0 0 0 0 0 0 0 0 0 0 0 0 0 0 127 0" result="hardAlpha"/>
<feOffset dy="30"/>
<feGaussianBlur stdDeviation="5"/>
<feComposite in2="hardAlpha" operator="arithmetic" k2="-1" k3="1"/>
<feColorMatrix type="matrix" values="0 0 0 0 0 0 0 0 0 0 0 0 0 0 0 0 0 0 0.45 0"/>
<feBlend mode="normal" in2="shape" result="effect1_innerShadow_495_2272"/>
</filter>
<filter id="filter8_i_495_2272" x="88.2262" y="155.712" width="40.6341" height="76.7589" filterUnits="userSpaceOnUse" color-interpolation-filters="sRGB">
<feFlood flood-opacity="0" result="BackgroundImageFix"/>
<feBlend mode="normal" in="SourceGraphic" in2="BackgroundImageFix" result="shape"/>
<feColorMatrix in="SourceAlpha" type="matrix" values="0 0 0 0 0 0 0 0 0 0 0 0 0 0 0 0 0 0 127 0" result="hardAlpha"/>
<feOffset dy="-5"/>
<feGaussianBlur stdDeviation="2.2"/>
<feComposite in2="hardAlpha" operator="arithmetic" k2="-1" k3="1"/>
<feColorMatrix type="matrix" values="0 0 0 0 0 0 0 0 0 0 0 0 0 0 0 0 0 0 0.5 0"/>
<feBlend mode="normal" in2="shape" result="effect1_innerShadow_495_2272"/>
</filter>
<linearGradient id="paint0_linear_495_2272" x1="236.841" y1="335.126" x2="262.77" y2="372.223" gradientUnits="userSpaceOnUse">
<stop/>
<stop offset="0.868899" stop-color="#BE8F65" stop-opacity="0"/>
</linearGradient>
<linearGradient id="paint1_linear_495_2272" x1="319.259" y1="333.369" x2="335.868" y2="344.86" gradientUnits="userSpaceOnUse">
<stop/>
<stop offset="0.868899" stop-color="#BE8F65" stop-opacity="0"/>
</linearGradient>
<linearGradient id="paint2_linear_495_2272" x1="118.668" y1="281.716" x2="135.314" y2="315.475" gradientUnits="userSpaceOnUse">
<stop/>
<stop offset="0.79" stop-opacity="0"/>
</linearGradient>
<linearGradient id="paint3_linear_495_2272" x1="251.409" y1="276.944" x2="202.044" y2="232.332" gradientUnits="userSpaceOnUse">
<stop stop-opacity="0.8"/>
<stop offset="0.560256" stop-color="#BE8F65" stop-opacity="0.03"/>
</linearGradient>
<linearGradient id="paint4_linear_495_2272" x1="228.174" y1="173.828" x2="197.111" y2="147.151" gradientUnits="userSpaceOnUse">
<stop stop-opacity="0.8"/>
<stop offset="0.560256" stop-color="#BE8F65" stop-opacity="0.03"/>
</linearGradient>
<linearGradient id="paint5_linear_495_2272" x1="328.245" y1="120.175" x2="291.157" y2="142.892" gradientUnits="userSpaceOnUse">
<stop stop-opacity="0.8"/>
<stop offset="0.560256" stop-color="#BE8F65" stop-opacity="0.03"/>
</linearGradient>
<linearGradient id="paint6_linear_495_2272" x1="306.696" y1="197.478" x2="368.536" y2="222.871" gradientUnits="userSpaceOnUse">
<stop/>
<stop offset="0.720121" stop-color="#BE8F65" stop-opacity="0.15"/>
</linearGradient>
<linearGradient id="paint7_linear_495_2272" x1="123.928" y1="208.995" x2="96.6586" y2="206.678" gradientUnits="userSpaceOnUse">
<stop/>
<stop offset="0.495" stop-opacity="0.07"/>
</linearGradient>
</defs>
</svg>
