<?xml version="1.0" encoding="UTF-8"?>
<svg id="Layer_1" data-name="Layer 1" xmlns="http://www.w3.org/2000/svg" viewBox="0 0 1724 1200">
  <defs>
    <style>
      .cls-1 {
        fill: rgba(177, 130, 208, .8);
      }

      .cls-2 {
        fill: #fdfdfd;
      }
    </style>
  </defs>
  <path class="cls-1" d="M355.46,417.52c.65.28,1.38.37,2.09.25.71-.11,1.37-.42,1.88-.88.51-.46.85-1.05.98-1.69.13-.64.03-1.3-.27-1.89l-4.09-8c-3.2-6.27-4.85-13.1-4.83-20,.02-6.9,1.71-13.72,4.95-19.98l4.13-7.98c.31-.59.41-1.25.28-1.89-.12-.64-.46-1.23-.97-1.69-.51-.46-1.16-.77-1.87-.88-.71-.12-1.44-.03-2.1.24l-8.86,3.68c-6.95,2.89-14.52,4.38-22.18,4.36-7.66-.02-15.22-1.54-22.15-4.46l-8.84-3.73c-.65-.28-1.38-.37-2.09-.25-.71.11-1.37.42-1.88.88-.51.46-.85,1.05-.98,1.69-.13.64-.03,1.3.27,1.89l4.08,7.99c3.2,6.27,4.85,13.1,4.83,20-.02,6.9-1.71,13.72-4.95,19.98l-4.14,7.98c-.31.59-.41,1.25-.28,1.89.12.64.46,1.23.97,1.69.51.46,1.16.77,1.87.88.71.11,1.44.03,2.1-.24l8.87-3.69c6.95-2.89,14.52-4.38,22.18-4.36,7.66.02,15.22,1.54,22.15,4.46l8.85,3.73Z"/>
  <path class="cls-2" d="M1275.07,362.24c.57.18,1.06.52,1.4.96.35.44.54.97.54,1.51.01.54-.17,1.07-.52,1.52-.34.45-.82.79-1.39.97l-7.62,2.56c-5.97,2.01-11.39,5.17-15.87,9.26-4.48,4.09-7.92,9.01-10.08,14.42l-2.75,6.9c-.2.51-.57.95-1.06,1.27-.49.31-1.07.48-1.67.49-.6,0-1.19-.16-1.68-.47-.5-.31-.87-.75-1.08-1.25l-2.84-6.87c-2.23-5.39-5.73-10.27-10.27-14.31-4.53-4.04-9.99-7.14-15.99-9.09l-7.64-2.48c-.57-.18-1.06-.52-1.41-.96s-.53-.97-.54-1.51c0-.54.18-1.07.52-1.52.34-.45.83-.78,1.39-.97l7.62-2.56c5.97-2.01,11.39-5.17,15.87-9.26,4.48-4.09,7.92-9.01,10.08-14.42l2.75-6.9c.2-.51.57-.95,1.06-1.26.49-.31,1.07-.48,1.67-.49.6,0,1.19.16,1.68.47.5.31.87.75,1.08,1.25l2.84,6.87c2.23,5.39,5.73,10.27,10.27,14.31,4.53,4.04,9.99,7.14,15.99,9.09l7.65,2.48Z"/>
  <path class="cls-1" d="M1387.58,501.91c-.65-.28-1.38-.37-2.09-.25-.71.11-1.37.42-1.88.88-.51.46-.85,1.05-.98,1.69-.12.64-.03,1.3.27,1.89l4.09,8c3.21,6.27,4.85,13.1,4.83,20-.02,6.9-1.71,13.72-4.95,19.98l-4.13,7.97c-.3.59-.4,1.25-.28,1.89.12.64.46,1.23.97,1.69.51.46,1.16.77,1.87.88.71.11,1.44.03,2.1-.24l8.86-3.68c6.96-2.89,14.53-4.38,22.18-4.36,7.66.02,15.22,1.54,22.16,4.47l8.84,3.72c.65.28,1.38.37,2.09.26.71-.11,1.37-.42,1.88-.88.51-.46.85-1.05.98-1.69s.03-1.3-.27-1.89l-4.08-7.99c-3.21-6.27-4.86-13.1-4.84-20s1.71-13.72,4.95-19.98l4.14-7.98c.31-.59.41-1.25.28-1.89-.12-.64-.46-1.23-.97-1.69s-1.16-.77-1.87-.88c-.71-.11-1.44-.03-2.1.25l-8.86,3.69c-6.96,2.89-14.53,4.38-22.18,4.36-7.66-.02-15.22-1.54-22.16-4.46l-8.85-3.73Z"/>
  <path class="cls-1" d="M273.06,866.48c.65-.28,1.38-.37,2.09-.26.71.11,1.37.42,1.88.88.51.46.85,1.05.98,1.69.13.64.03,1.3-.27,1.89l-4.09,8c-3.2,6.27-4.85,13.1-4.83,20,.02,6.91,1.71,13.72,4.95,19.98l4.13,7.97c.31.59.41,1.25.28,1.89s-.46,1.23-.97,1.69c-.51.46-1.16.77-1.87.88-.71.11-1.44.03-2.1-.24l-8.86-3.68c-6.95-2.89-14.52-4.38-22.18-4.36-7.66.02-15.22,1.54-22.15,4.47l-8.84,3.72c-.65.28-1.38.37-2.1.26-.71-.11-1.37-.42-1.88-.88-.51-.46-.85-1.05-.98-1.69-.13-.64-.03-1.3.27-1.89l4.08-7.99c3.2-6.27,4.85-13.1,4.83-20-.02-6.9-1.71-13.72-4.95-19.98l-4.13-7.98c-.31-.59-.41-1.25-.28-1.89.12-.64.46-1.23.97-1.69.51-.46,1.16-.77,1.87-.88.71-.12,1.44-.03,2.1.24l8.87,3.69c6.95,2.89,14.52,4.38,22.18,4.36,7.66-.02,15.22-1.54,22.15-4.47l8.85-3.73Z"/>
  <path class="cls-2" d="M467.98,557.19c-.56-.18-1.05-.52-1.4-.96-.35-.44-.54-.97-.54-1.51,0-.54.18-1.07.52-1.52.34-.45.83-.78,1.39-.97l7.62-2.56c5.97-2.01,11.39-5.17,15.87-9.26,4.48-4.09,7.92-9.01,10.08-14.42l2.75-6.9c.2-.51.57-.95,1.06-1.26.49-.31,1.07-.48,1.67-.49.6,0,1.19.16,1.68.47.49.31.87.75,1.08,1.25l2.84,6.87c2.23,5.39,5.73,10.27,10.26,14.31,4.53,4.04,9.99,7.14,15.99,9.09l7.65,2.48c.57.18,1.06.52,1.4.96.35.44.54.97.54,1.51,0,.54-.18,1.07-.52,1.52-.34.44-.83.79-1.39.97l-7.61,2.56c-5.97,2.01-11.39,5.17-15.87,9.26-4.48,4.09-7.92,9.01-10.08,14.42l-2.75,6.9c-.2.51-.57.95-1.06,1.27-.49.31-1.08.48-1.67.49-.6,0-1.19-.16-1.68-.47-.49-.31-.87-.75-1.08-1.25l-2.84-6.87c-2.23-5.39-5.73-10.27-10.27-14.31-4.53-4.04-9.99-7.14-15.99-9.09l-7.65-2.48Z"/>
</svg>