<?xml version="1.0" encoding="UTF-8"?>
<svg id="Layer_1" data-name="Layer 1" xmlns="http://www.w3.org/2000/svg" viewBox="0 0 1724 1200">
  <defs>
    <style>
      .cls-1 {
        fill: rgba(93, 88, 255, .8);
      }

      .cls-2 {
        fill: rgba(177, 130, 208, .8);
      }

      .cls-3 {
        fill: #fdfdfd;
      }
    </style>
  </defs>
  <path class="cls-2" d="M422.62,330.82c-.18.21-.29.47-.31.74-.02.27.06.54.22.77.16.23.39.41.67.51.27.11.58.13.87.08l3.97-.74c3.11-.58,6.33-.54,9.42.11,3.09.65,5.99,1.91,8.49,3.68l3.19,2.25c.24.17.52.26.82.28s.6-.05.85-.19c.25-.14.45-.35.57-.6.12-.25.15-.52.09-.79l-.82-3.58c-.64-2.81-.6-5.71.12-8.5s2.12-5.4,4.08-7.66l2.5-2.88c.18-.21.29-.47.31-.74.02-.27-.06-.54-.22-.77-.16-.23-.39-.41-.67-.52-.27-.11-.58-.13-.87-.08l-3.97.74c-3.11.58-6.33.54-9.42-.11-3.09-.65-5.99-1.91-8.49-3.68l-3.19-2.26c-.24-.17-.52-.26-.82-.28-.3-.02-.6.05-.85.2-.25.14-.45.35-.57.6-.12.25-.15.52-.09.79l.82,3.58c.64,2.81.6,5.71-.12,8.5-.73,2.79-2.12,5.4-4.08,7.66l-2.5,2.88Z"/>
  <path class="cls-1" d="M144.69,419.55c.08.26.25.49.49.66.23.17.52.27.82.29.3.02.6-.05.85-.19.26-.14.46-.35.58-.59l1.65-3.34c1.29-2.62,3.2-4.95,5.59-6.84,2.39-1.89,5.21-3.28,8.26-4.08l3.89-1.02c.29-.08.54-.23.73-.44.19-.21.3-.47.32-.74.02-.27-.05-.54-.21-.77-.15-.23-.38-.41-.66-.52l-3.7-1.48c-2.9-1.16-5.49-2.88-7.58-5.04-2.09-2.16-3.64-4.7-4.53-7.45l-1.14-3.51c-.08-.26-.25-.49-.49-.66-.23-.17-.52-.27-.82-.29-.3-.02-.6.05-.85.19-.26.14-.46.35-.58.59l-1.65,3.34c-1.29,2.62-3.2,4.95-5.59,6.84-2.39,1.89-5.21,3.28-8.26,4.08l-3.89,1.02c-.29.07-.54.23-.73.44-.19.21-.3.47-.32.74-.02.27.05.54.21.77s.38.41.66.52l3.7,1.48c2.9,1.16,5.49,2.88,7.58,5.04,2.09,2.16,3.64,4.7,4.53,7.45l1.13,3.51Z"/>
  <path class="cls-1" d="M872.35,439.3c.08.26.25.49.48.66.23.17.52.27.82.29.3.02.6-.05.85-.19.26-.14.46-.35.58-.59l1.65-3.34c1.29-2.62,3.2-4.95,5.59-6.84s5.21-3.28,8.26-4.08l3.89-1.02c.29-.08.54-.23.73-.44.19-.21.3-.47.32-.74.02-.27-.05-.54-.21-.77-.15-.23-.39-.41-.66-.52l-3.7-1.48c-2.9-1.16-5.49-2.88-7.58-5.04-2.09-2.16-3.64-4.7-4.53-7.45l-1.14-3.51c-.08-.26-.25-.49-.48-.66-.23-.17-.52-.27-.82-.29-.3-.02-.6.05-.85.19-.26.14-.46.35-.58.59l-1.65,3.34c-1.29,2.62-3.2,4.95-5.59,6.84-2.39,1.88-5.21,3.28-8.26,4.08l-3.89,1.02c-.29.07-.54.23-.73.44-.19.21-.3.47-.32.74-.02.27.05.54.21.77.15.23.39.41.66.52l3.7,1.48c2.9,1.16,5.49,2.88,7.58,5.04,2.09,2.16,3.64,4.7,4.53,7.45l1.14,3.51Z"/>
  <path class="cls-1" d="M417.66,979.13c.08.26.25.49.49.66.23.17.52.27.82.29.3.02.6-.05.85-.19.26-.14.46-.35.58-.59l1.65-3.34c1.29-2.62,3.2-4.95,5.59-6.84s5.21-3.28,8.26-4.08l3.89-1.02c.29-.08.54-.23.73-.44.19-.21.3-.47.32-.74.02-.27-.05-.54-.21-.77-.15-.23-.38-.41-.66-.52l-3.7-1.48c-2.9-1.16-5.49-2.88-7.58-5.04-2.09-2.16-3.64-4.7-4.53-7.45l-1.13-3.51c-.08-.26-.25-.49-.49-.66-.23-.17-.52-.27-.82-.29-.3-.02-.6.05-.85.19-.26.14-.46.35-.58.59l-1.65,3.34c-1.29,2.62-3.2,4.95-5.59,6.84-2.39,1.89-5.21,3.28-8.26,4.08l-3.89,1.02c-.29.07-.54.23-.73.44-.19.21-.3.47-.32.74-.02.27.05.54.21.77.15.23.39.41.66.52l3.7,1.48c2.9,1.16,5.49,2.88,7.58,5.04,2.09,2.16,3.64,4.7,4.53,7.45l1.14,3.51Z"/>
  <path class="cls-3" d="M275.88,258.19c-.03.27-.15.52-.35.73-.2.2-.46.35-.75.42-.29.07-.6.05-.88-.05-.28-.1-.52-.27-.69-.49l-2.28-3.02c-1.79-2.37-4.14-4.35-6.87-5.82-2.73-1.47-5.78-2.38-8.94-2.67l-4.03-.38c-.3-.03-.58-.14-.81-.31-.23-.18-.39-.41-.46-.67-.07-.26-.06-.54.05-.79.11-.25.3-.47.54-.62l3.35-2.06c2.62-1.62,4.83-3.73,6.45-6.19,1.63-2.46,2.64-5.21,2.96-8.07l.42-3.63c.03-.27.15-.52.35-.73.2-.2.46-.35.75-.42.29-.07.6-.05.88.05s.52.27.69.49l2.29,3.02c1.79,2.37,4.13,4.35,6.86,5.82,2.73,1.47,5.78,2.38,8.94,2.67l4.03.37c.3.03.58.14.81.31.23.18.39.41.46.67.07.26.06.54-.05.79-.11.25-.3.47-.54.62l-3.35,2.06c-2.62,1.62-4.83,3.73-6.45,6.19-1.63,2.46-2.64,5.21-2.96,8.07l-.42,3.64Z"/>
  <path class="cls-3" d="M1027.91,316.12c-.03.27-.15.52-.35.73-.2.2-.46.35-.75.42-.29.07-.6.05-.88-.05-.28-.1-.52-.27-.69-.49l-2.29-3.02c-1.79-2.37-4.14-4.35-6.86-5.82-2.73-1.47-5.78-2.38-8.94-2.67l-4.03-.38c-.3-.03-.58-.14-.81-.31-.23-.18-.39-.41-.46-.67-.07-.26-.06-.54.05-.79.11-.25.3-.47.54-.62l3.35-2.06c2.62-1.62,4.83-3.73,6.45-6.19,1.63-2.46,2.64-5.21,2.96-8.06l.42-3.63c.03-.27.15-.52.35-.73.2-.2.46-.35.75-.42.29-.07.6-.05.88.05.28.1.52.27.69.49l2.28,3.02c1.79,2.37,4.13,4.35,6.86,5.82,2.73,1.47,5.78,2.38,8.94,2.67l4.03.37c.3.03.58.14.8.31.23.18.39.41.46.67.07.26.06.54-.05.79-.11.25-.3.47-.54.62l-3.35,2.06c-2.62,1.62-4.83,3.73-6.45,6.19-1.63,2.46-2.64,5.21-2.96,8.07l-.41,3.64Z"/>
  <path class="cls-2" d="M1526.08,452.67c-.28-.09-.59-.1-.88-.02-.29.07-.54.23-.73.44-.19.21-.3.47-.32.74-.03.27.04.54.2.77l2.07,3.14c1.62,2.46,2.63,5.22,2.96,8.07.32,2.85-.05,5.73-1.09,8.44l-1.32,3.45c-.1.26-.11.53-.03.79.08.26.25.49.49.66.23.17.51.27.81.29.3.02.6-.04.85-.18l3.49-1.87c2.73-1.46,5.78-2.37,8.94-2.66,3.16-.29,6.36.04,9.36.98l3.83,1.19c.28.09.59.1.88.02.28-.07.54-.23.73-.43.19-.21.3-.47.32-.74.02-.27-.05-.54-.2-.77l-2.07-3.14c-1.62-2.46-2.63-5.22-2.95-8.07-.33-2.85.04-5.73,1.08-8.44l1.32-3.46c.1-.25.11-.53.03-.79-.08-.26-.25-.49-.48-.66-.23-.17-.52-.27-.82-.29-.3-.02-.59.04-.85.18l-3.49,1.87c-2.73,1.46-5.78,2.37-8.94,2.67-3.16.29-6.36-.04-9.36-.98l-3.83-1.19Z"/>
  <path class="cls-2" d="M1240.88,496.57c.18.21.43.37.72.45.29.08.59.08.88,0,.28-.08.53-.24.71-.46.18-.21.28-.48.3-.74l.15-3.65c.12-2.86.93-5.67,2.38-8.22,1.45-2.55,3.49-4.79,5.99-6.55l3.19-2.25c.24-.17.41-.39.5-.65.09-.26.09-.53,0-.79-.1-.26-.27-.48-.51-.64-.24-.16-.53-.26-.83-.26l-4.05-.14c-3.17-.11-6.28-.84-9.11-2.15-2.83-1.3-5.31-3.15-7.27-5.41l-2.5-2.88c-.18-.21-.43-.37-.72-.45-.29-.08-.59-.08-.88,0-.28.08-.53.24-.71.46-.18.21-.28.48-.29.74l-.16,3.65c-.12,2.86-.93,5.67-2.38,8.22-1.44,2.55-3.49,4.79-5.99,6.55l-3.2,2.25c-.23.17-.41.39-.49.65-.09.26-.09.53,0,.79.09.26.27.48.51.64.24.16.53.26.83.27l4.05.14c3.17.11,6.28.84,9.11,2.14,2.83,1.3,5.31,3.15,7.27,5.41l2.5,2.88Z"/>
  <path class="cls-2" d="M690.99,297.87c.18.21.44.37.72.45s.59.08.88,0c.28-.08.53-.24.71-.46.18-.22.28-.48.29-.75l.15-3.65c.12-2.86.93-5.67,2.38-8.22,1.45-2.55,3.49-4.79,5.99-6.55l3.19-2.25c.24-.17.41-.39.5-.65s.09-.53,0-.79c-.09-.26-.27-.48-.51-.64-.24-.16-.53-.26-.83-.26l-4.05-.14c-3.17-.11-6.29-.84-9.12-2.15-2.83-1.3-5.31-3.15-7.27-5.41l-2.5-2.88c-.18-.21-.44-.37-.72-.45-.29-.08-.59-.08-.88,0-.28.08-.53.24-.71.46-.18.22-.28.48-.29.75l-.15,3.65c-.12,2.86-.93,5.67-2.38,8.22-1.45,2.55-3.49,4.79-5.99,6.55l-3.19,2.25c-.24.17-.41.39-.5.65-.09.26-.09.53,0,.79.09.26.27.48.51.64.24.16.53.25.83.26l4.05.14c3.18.11,6.29.84,9.12,2.15,2.83,1.3,5.31,3.15,7.27,5.41l2.5,2.88Z"/>
  <path class="cls-1" d="M1342.45,244.66c-.24.16-.43.37-.53.63-.1.25-.11.53-.04.79.08.26.25.49.48.67.23.17.51.28.81.3l4.04.31c3.16.25,6.23,1.11,8.99,2.54s5.14,3.38,6.97,5.71l2.34,2.98c.17.22.42.39.7.48.28.09.59.1.88.03.28-.07.54-.22.73-.43.2-.21.31-.46.34-.73l.34-3.64c.28-2.86,1.24-5.62,2.82-8.11,1.58-2.49,3.74-4.63,6.33-6.29l3.31-2.11c.25-.16.43-.37.53-.63.1-.25.12-.53.04-.79-.08-.26-.25-.49-.48-.67-.23-.17-.51-.28-.81-.3l-4.03-.31c-3.17-.25-6.24-1.11-8.99-2.54-2.76-1.43-5.14-3.38-6.98-5.71l-2.34-2.98c-.17-.22-.41-.39-.7-.48-.28-.09-.58-.1-.87-.03-.29.07-.55.22-.74.43-.19.21-.31.46-.33.73l-.35,3.64c-.27,2.86-1.23,5.62-2.81,8.11-1.58,2.49-3.75,4.63-6.34,6.29l-3.31,2.11Z"/>
  <path class="cls-3" d="M1554.38,303.89c-.29.06-.6.04-.88-.06s-.51-.27-.68-.5c-.16-.23-.24-.49-.24-.76.01-.27.12-.53.29-.75l2.42-2.93c1.9-2.3,3.22-4.94,3.87-7.75.64-2.81.6-5.71-.12-8.5l-.92-3.56c-.07-.26-.04-.54.07-.79.11-.25.3-.46.55-.61.25-.15.55-.22.85-.21.3,0,.58.1.82.26l3.25,2.18c2.55,1.71,5.49,2.9,8.6,3.48,3.11.58,6.32.55,9.42-.1l3.94-.83c.29-.06.6-.04.88.06.28.1.51.27.68.5.16.23.24.49.24.76-.01.27-.12.53-.29.75l-2.42,2.93c-1.9,2.3-3.22,4.94-3.86,7.75-.65,2.81-.61,5.7.11,8.5l.92,3.56c.07.26.05.54-.06.79-.11.25-.31.46-.56.61-.25.15-.54.22-.84.21-.3,0-.59-.1-.83-.26l-3.25-2.18c-2.55-1.71-5.48-2.9-8.6-3.48-3.11-.58-6.32-.55-9.42.1l-3.94.83Z"/>
  <path class="cls-2" d="M1320.42,588.61c.19-.21.29-.47.31-.74.02-.27-.06-.54-.22-.77-.15-.23-.39-.41-.66-.52-.28-.11-.58-.13-.87-.08l-3.97.74c-3.11.58-6.33.54-9.42-.11-3.1-.65-6-1.91-8.5-3.68l-3.19-2.25c-.23-.17-.52-.26-.82-.28-.29-.01-.59.05-.85.2-.25.14-.45.35-.57.6-.12.25-.15.52-.08.79l.82,3.58c.64,2.81.6,5.71-.13,8.5-.72,2.79-2.11,5.4-4.07,7.66l-2.5,2.88c-.19.21-.29.47-.31.74-.02.27.06.54.22.77.15.23.39.41.66.52.28.11.58.13.87.08l3.97-.74c3.11-.58,6.33-.54,9.42.11,3.1.65,5.99,1.91,8.5,3.68l3.19,2.26c.23.17.52.27.82.28.29.02.59-.05.85-.2.25-.14.45-.35.57-.6.12-.25.15-.52.08-.79l-.82-3.58c-.64-2.81-.6-5.71.12-8.5.73-2.79,2.12-5.4,4.08-7.66l2.5-2.88Z"/>
  <path class="cls-2" d="M1653.25,726.55c.19-.21.29-.47.31-.74.02-.27-.06-.54-.22-.77-.15-.23-.39-.41-.66-.51-.28-.11-.58-.13-.87-.08l-3.97.74c-3.11.58-6.33.54-9.42-.11-3.1-.65-6-1.91-8.5-3.68l-3.19-2.25c-.23-.17-.52-.26-.82-.28-.3-.02-.59.05-.85.2-.25.14-.45.35-.57.6-.12.25-.15.52-.08.79l.82,3.58c.64,2.81.6,5.71-.13,8.5-.72,2.79-2.11,5.4-4.07,7.66l-2.5,2.88c-.19.21-.29.47-.31.74-.02.27.06.54.22.77.15.23.39.41.66.52.28.11.58.13.87.08l3.97-.74c3.11-.58,6.33-.54,9.42.11,3.09.65,5.99,1.91,8.49,3.68l3.2,2.26c.23.17.52.26.82.28.29.01.59-.05.85-.2.25-.14.45-.35.57-.6.11-.25.15-.52.08-.79l-.82-3.58c-.64-2.81-.6-5.7.12-8.5.73-2.79,2.12-5.4,4.08-7.66l2.5-2.88Z"/>
  <path class="cls-1" d="M1598.35,499.88c-.08-.26-.25-.49-.49-.66-.23-.17-.51-.27-.81-.29s-.6.05-.86.19c-.25.14-.45.35-.57.59l-1.65,3.34c-1.29,2.62-3.2,4.95-5.59,6.84-2.39,1.89-5.21,3.28-8.26,4.08l-3.89,1.02c-.29.07-.55.23-.73.44-.19.21-.3.47-.32.74-.02.27.05.54.2.77.16.23.39.41.66.52l3.71,1.48c2.9,1.16,5.49,2.88,7.58,5.04s3.63,4.7,4.52,7.45l1.14,3.51c.08.26.25.49.48.66.24.17.52.27.82.29.3.02.6-.05.85-.19.26-.14.46-.35.58-.59l1.65-3.34c1.29-2.62,3.2-4.95,5.59-6.84s5.21-3.28,8.26-4.08l3.89-1.02c.29-.07.55-.23.73-.44.19-.21.3-.47.32-.74.02-.27-.05-.54-.2-.77-.16-.23-.39-.41-.66-.52l-3.71-1.48c-2.9-1.16-5.49-2.88-7.58-5.04-2.09-2.16-3.64-4.7-4.53-7.45l-1.13-3.51Z"/>
  <path class="cls-1" d="M644.61,321.95c-.08-.26-.25-.49-.49-.66-.23-.17-.52-.27-.82-.29-.3-.02-.6.05-.85.19-.26.14-.46.35-.58.59l-1.65,3.34c-1.29,2.62-3.2,4.95-5.59,6.84-2.39,1.89-5.21,3.28-8.26,4.08l-3.89,1.02c-.29.07-.54.23-.73.44-.19.21-.3.47-.32.74-.02.27.05.54.21.77.16.23.39.41.66.52l3.7,1.48c2.9,1.16,5.49,2.88,7.58,5.04,2.09,2.16,3.63,4.7,4.52,7.45l1.14,3.51c.08.26.25.49.49.66.23.17.52.27.82.29.3.02.6-.05.85-.19.26-.14.46-.35.58-.59l1.65-3.34c1.29-2.62,3.2-4.95,5.59-6.84,2.39-1.89,5.21-3.28,8.26-4.08l3.89-1.02c.29-.07.54-.23.73-.44.19-.21.3-.47.32-.74.02-.27-.05-.54-.21-.77-.16-.23-.39-.41-.66-.52l-3.71-1.48c-2.9-1.16-5.49-2.88-7.58-5.04-2.09-2.16-3.64-4.7-4.53-7.45l-1.13-3.51Z"/>
  <path class="cls-3" d="M1467.16,661.24c.03-.27.16-.52.35-.73.2-.2.46-.35.75-.42.29-.07.59-.05.87.04.28.1.52.27.69.49l2.29,3.02c1.79,2.37,4.13,4.35,6.86,5.82,2.73,1.47,5.78,2.38,8.94,2.67l4.03.38c.3.03.58.14.81.31.23.18.39.41.46.67.07.26.06.54-.05.79-.11.25-.3.47-.54.62l-3.35,2.06c-2.62,1.62-4.83,3.73-6.45,6.19-1.63,2.46-2.64,5.21-2.97,8.07l-.41,3.63c-.03.27-.15.52-.35.73-.19.21-.45.35-.74.42-.29.07-.6.05-.88-.05-.28-.1-.52-.27-.69-.49l-2.28-3.02c-1.79-2.37-4.14-4.35-6.87-5.82-2.73-1.47-5.78-2.38-8.94-2.67l-4.03-.38c-.3-.03-.58-.14-.81-.31-.23-.18-.39-.41-.46-.67-.07-.26-.06-.54.05-.79.11-.25.3-.47.54-.62l3.35-2.06c2.63-1.62,4.83-3.73,6.45-6.19,1.63-2.46,2.64-5.21,2.97-8.07l.41-3.64Z"/>
  <path class="cls-3" d="M1661.72,842.4c-.03-.27-.15-.52-.35-.73-.2-.2-.46-.35-.75-.42-.29-.07-.59-.05-.87.05-.28.1-.52.27-.69.49l-2.29,3.02c-1.79,2.37-4.13,4.35-6.86,5.82-2.73,1.47-5.78,2.38-8.94,2.67l-4.03.38c-.3.03-.58.14-.81.31-.23.18-.39.41-.46.67-.07.26-.06.54.05.79s.3.47.54.62l3.35,2.06c2.62,1.62,4.83,3.73,6.45,6.19,1.63,2.46,2.64,5.21,2.97,8.07l.41,3.63c.03.27.15.52.35.73.19.21.45.35.74.42.29.07.6.05.88-.05.28-.1.52-.27.69-.49l2.28-3.02c1.79-2.37,4.14-4.35,6.87-5.82,2.73-1.47,5.78-2.38,8.94-2.67l4.03-.38c.3-.03.58-.14.81-.31s.39-.41.46-.67c.07-.26.06-.54-.05-.79-.11-.25-.3-.47-.54-.62l-3.35-2.06c-2.63-1.62-4.83-3.73-6.45-6.19-1.63-2.46-2.64-5.21-2.97-8.07l-.41-3.64Z"/>
  <path class="cls-3" d="M715.14,603.31c.03-.27.15-.52.35-.73.2-.2.46-.35.75-.42.29-.07.6-.05.88.05.28.1.52.27.69.49l2.28,3.02c1.79,2.37,4.14,4.35,6.86,5.82,2.73,1.47,5.78,2.38,8.94,2.67l4.03.38c.3.03.58.14.81.31.23.18.39.41.46.67.07.26.06.54-.05.79-.11.25-.3.47-.54.62l-3.34,2.06c-2.62,1.62-4.83,3.73-6.45,6.19-1.63,2.46-2.64,5.21-2.96,8.06l-.42,3.63c-.03.27-.15.52-.35.73-.2.2-.46.35-.75.42-.29.07-.59.05-.88-.04-.28-.1-.52-.27-.69-.49l-2.28-3.02c-1.79-2.37-4.14-4.35-6.86-5.82-2.73-1.47-5.78-2.38-8.94-2.67l-4.03-.38c-.3-.03-.58-.14-.81-.31s-.39-.41-.46-.67c-.07-.26-.06-.54.05-.79.11-.25.3-.47.54-.62l3.35-2.06c2.62-1.62,4.83-3.73,6.45-6.19s2.64-5.21,2.96-8.07l.42-3.64Z"/>
  <path class="cls-3" d="M1379.8,886.67c.03-.27.15-.52.35-.73.19-.21.45-.35.74-.42.29-.07.6-.05.88.04.28.1.52.27.69.49l2.28,3.02c1.8,2.37,4.14,4.35,6.87,5.82,2.73,1.47,5.78,2.38,8.94,2.67l4.03.38c.3.03.58.14.81.31.22.18.38.41.46.67.07.26.05.54-.05.79-.11.25-.3.47-.55.62l-3.34,2.06c-2.63,1.62-4.83,3.73-6.45,6.19-1.63,2.46-2.64,5.22-2.97,8.07l-.41,3.63c-.03.27-.16.52-.35.73-.2.2-.46.35-.75.42-.29.07-.59.05-.87-.05-.28-.1-.52-.27-.69-.49l-2.29-3.02c-1.79-2.37-4.13-4.35-6.86-5.82-2.73-1.47-5.78-2.38-8.94-2.67l-4.04-.37c-.29-.03-.57-.14-.8-.31-.23-.18-.39-.41-.46-.67-.08-.26-.06-.54.05-.79.1-.25.29-.47.54-.62l3.35-2.06c2.62-1.62,4.83-3.73,6.45-6.19,1.63-2.46,2.64-5.21,2.97-8.06l.41-3.64Z"/>
  <path class="cls-2" d="M216.97,466.76c.28.09.59.1.88.02.29-.07.54-.22.73-.43.19-.21.3-.47.32-.74.02-.27-.05-.54-.2-.77l-2.07-3.14c-1.62-2.46-2.63-5.22-2.95-8.07-.32-2.85.05-5.73,1.08-8.44l1.32-3.45c.1-.25.11-.53.03-.79-.08-.26-.25-.49-.48-.66-.23-.17-.52-.27-.82-.29-.3-.02-.6.04-.85.18l-3.48,1.87c-2.73,1.46-5.79,2.37-8.95,2.67-3.16.29-6.36-.04-9.36-.98l-3.83-1.19c-.28-.09-.59-.1-.88-.02-.29.07-.54.23-.73.44-.19.21-.3.47-.32.74-.02.27.05.54.2.77l2.07,3.14c1.62,2.46,2.63,5.22,2.96,8.07.32,2.85-.05,5.73-1.08,8.44l-1.32,3.46c-.1.26-.11.53-.03.79.08.26.25.49.48.66.23.17.52.27.82.29.3.02.6-.04.85-.18l3.48-1.87c2.73-1.46,5.78-2.37,8.95-2.66,3.16-.29,6.36.04,9.36.98l3.83,1.19Z"/>
  <path class="cls-2" d="M502.17,422.86c-.18-.21-.44-.37-.72-.45-.29-.08-.59-.08-.88,0s-.53.24-.71.46c-.18.22-.28.47-.29.75l-.15,3.65c-.12,2.86-.93,5.67-2.38,8.22-1.45,2.55-3.49,4.79-5.99,6.55l-3.19,2.25c-.24.17-.41.39-.5.65-.09.26-.09.53,0,.79.09.26.27.48.51.64.24.16.53.25.83.26l4.05.14c3.18.11,6.29.84,9.12,2.15,2.83,1.3,5.31,3.15,7.27,5.41l2.5,2.88c.18.21.44.37.72.45.29.08.59.08.88,0,.29-.08.53-.24.71-.46.18-.22.28-.48.29-.75l.15-3.65c.12-2.86.93-5.67,2.38-8.22,1.45-2.55,3.49-4.79,5.99-6.55l3.19-2.25c.24-.17.41-.39.5-.65.09-.26.09-.53,0-.79-.09-.26-.27-.48-.51-.65-.24-.16-.53-.25-.83-.26l-4.05-.14c-3.18-.11-6.29-.84-9.12-2.15-2.83-1.3-5.31-3.15-7.27-5.41l-2.5-2.88Z"/>
  <path class="cls-2" d="M1052.06,621.56c-.18-.21-.44-.37-.72-.45-.29-.08-.59-.08-.88,0-.28.08-.53.24-.71.46-.18.22-.28.48-.29.75l-.15,3.65c-.12,2.86-.93,5.67-2.38,8.22-1.45,2.55-3.49,4.79-5.99,6.55l-3.19,2.25c-.24.17-.41.39-.5.65s-.09.53,0,.79c.09.26.27.48.51.64.24.16.53.26.83.26l4.05.14c3.17.11,6.29.84,9.12,2.15,2.83,1.3,5.31,3.15,7.27,5.41l2.5,2.88c.18.21.44.37.72.45.29.08.59.08.88,0,.28-.08.53-.24.71-.46.18-.21.28-.48.29-.74l.15-3.65c.12-2.86.93-5.67,2.38-8.22,1.45-2.55,3.49-4.79,6-6.55l3.19-2.25c.23-.17.41-.39.5-.65.08-.26.08-.53-.01-.79-.09-.26-.27-.48-.51-.64-.24-.16-.53-.26-.83-.26l-4.05-.14c-3.17-.11-6.28-.84-9.11-2.14-2.83-1.31-5.31-3.15-7.27-5.41l-2.5-2.88Z"/>
  <path class="cls-1" d="M400.6,674.77c.25-.15.43-.38.53-.63.1-.25.11-.53.04-.79-.08-.26-.24-.49-.47-.67-.23-.17-.51-.28-.81-.3l-4.04-.31c-3.17-.25-6.23-1.11-8.99-2.54-2.76-1.42-5.14-3.38-6.97-5.71l-2.34-2.98c-.17-.22-.42-.39-.7-.48-.28-.09-.59-.1-.88-.03-.29.07-.55.22-.74.43-.19.21-.31.46-.33.73l-.35,3.64c-.27,2.86-1.23,5.62-2.81,8.11-1.58,2.49-3.74,4.63-6.34,6.29l-3.31,2.11c-.25.16-.43.38-.53.63-.1.25-.11.53-.04.79.08.26.24.49.47.67.23.17.51.28.81.3l4.04.31c3.17.25,6.23,1.11,8.99,2.54,2.76,1.42,5.14,3.38,6.97,5.71l2.34,2.98c.17.22.42.39.7.48.28.09.59.1.88.03.29-.07.55-.22.74-.43.19-.21.31-.46.33-.73l.35-3.64c.27-2.86,1.23-5.62,2.81-8.11,1.58-2.49,3.74-4.63,6.34-6.29l3.31-2.11Z"/>
  <path class="cls-1" d="M113.64,773.95c.24-.15.43-.37.53-.63s.11-.53.04-.79c-.08-.26-.24-.49-.47-.67-.23-.17-.51-.28-.81-.3l-4.04-.31c-3.17-.25-6.23-1.11-8.99-2.54s-5.14-3.38-6.97-5.71l-2.34-2.98c-.17-.22-.42-.39-.7-.48-.28-.09-.59-.1-.88-.03-.29.07-.55.22-.74.43-.19.21-.31.46-.33.73l-.35,3.64c-.27,2.86-1.23,5.62-2.81,8.11-1.58,2.49-3.74,4.63-6.34,6.29l-3.31,2.11c-.24.15-.43.37-.53.63s-.11.53-.04.79c.08.26.24.49.47.67.23.17.51.28.81.3l4.04.31c3.17.25,6.23,1.11,8.99,2.54,2.76,1.42,5.14,3.38,6.97,5.71l2.34,2.98c.17.22.42.39.7.48.28.09.59.1.88.03.29-.07.55-.22.74-.43.19-.21.31-.46.33-.73l.35-3.64c.27-2.86,1.23-5.62,2.81-8.11,1.58-2.49,3.74-4.63,6.34-6.29l3.31-2.11Z"/>
  <path class="cls-3" d="M188.67,615.54c.29-.06.6-.04.88.06s.51.27.68.5c.16.23.25.49.24.76,0,.27-.11.53-.29.75l-2.42,2.93c-1.9,2.3-3.21,4.94-3.86,7.75-.65,2.81-.61,5.7.11,8.5l.92,3.56c.07.26.05.54-.06.79-.11.25-.31.47-.56.61-.25.15-.55.22-.84.21-.3,0-.59-.1-.83-.26l-3.25-2.18c-2.55-1.71-5.48-2.9-8.59-3.48-3.11-.58-6.33-.55-9.42.1l-3.94.83c-.29.06-.6.04-.87-.06-.28-.1-.52-.27-.68-.5-.16-.23-.25-.49-.24-.76,0-.27.11-.53.29-.75l2.42-2.93c1.9-2.3,3.21-4.94,3.86-7.75.65-2.81.61-5.7-.11-8.5l-.92-3.56c-.07-.26-.05-.54.06-.79.11-.25.3-.46.55-.61.25-.15.55-.22.84-.21.3,0,.59.1.83.26l3.25,2.18c2.55,1.71,5.48,2.9,8.59,3.48,3.11.58,6.33.55,9.42-.1l3.95-.83Z"/>
</svg>