<svg width="1612" height="889" viewBox="0 0 1612 889" fill="none" xmlns="http://www.w3.org/2000/svg">
<g filter="url(#filter0_f_1_4)">
<path d="M391.828 113.021C391.643 113.233 391.534 113.491 391.518 113.76C391.501 114.03 391.577 114.298 391.734 114.527C391.892 114.756 392.124 114.936 392.399 115.042C392.675 115.149 392.979 115.176 393.272 115.12L397.241 114.379C400.353 113.798 403.568 113.835 406.662 114.489C409.756 115.143 412.655 116.398 415.156 118.165L418.345 120.418C418.58 120.585 418.866 120.683 419.165 120.698C419.464 120.713 419.761 120.645 420.015 120.503C420.27 120.36 420.469 120.151 420.587 119.903C420.705 119.655 420.735 119.38 420.673 119.116L419.852 115.539C419.208 112.732 419.25 109.833 419.975 107.043C420.7 104.253 422.091 101.639 424.051 99.3829L426.549 96.5072C426.735 96.2952 426.843 96.0369 426.86 95.7674C426.877 95.4979 426.801 95.2303 426.643 95.001C426.485 94.7716 426.253 94.5916 425.978 94.4854C425.703 94.3792 425.398 94.352 425.105 94.4075L421.139 95.1478C418.027 95.7289 414.812 95.6911 411.718 95.0371C408.624 94.3831 405.725 93.1287 403.224 91.3611L400.033 89.1062C399.798 88.9391 399.512 88.8413 399.213 88.8262C398.914 88.8111 398.618 88.8792 398.363 89.0215C398.109 89.1638 397.909 89.3732 397.792 89.6214C397.674 89.8695 397.644 90.1443 397.705 90.4085L398.528 93.9879C399.172 96.7942 399.13 99.6934 398.405 102.484C397.68 105.274 396.289 107.888 394.329 110.144L391.828 113.021Z" fill="#B182D0" fill-opacity="0.8"/>
</g>
<g filter="url(#filter1_f_1_4)">
<path d="M324.665 199.72C325.318 199.997 326.049 200.086 326.759 199.975C327.47 199.864 328.125 199.559 328.637 199.1C329.148 198.641 329.49 198.052 329.617 197.412C329.744 196.772 329.649 196.112 329.345 195.522L325.258 187.523C322.054 181.252 320.405 174.426 320.425 167.521C320.446 160.616 322.136 153.799 325.377 147.543L329.507 139.569C329.814 138.98 329.913 138.321 329.79 137.68C329.667 137.039 329.328 136.448 328.82 135.987C328.311 135.526 327.658 135.217 326.948 135.103C326.238 134.989 325.506 135.074 324.852 135.348L315.987 139.03C309.033 141.919 301.464 143.406 293.808 143.388C286.151 143.369 278.591 141.845 271.654 138.922L262.812 135.198C262.159 134.921 261.428 134.832 260.717 134.943C260.007 135.053 259.351 135.359 258.84 135.818C258.329 136.276 257.987 136.866 257.86 137.506C257.733 138.146 257.828 138.806 258.131 139.396L262.214 147.39C265.418 153.661 267.067 160.487 267.046 167.392C267.026 174.297 265.336 181.114 262.095 187.37L257.96 195.349C257.653 195.937 257.554 196.597 257.677 197.237C257.8 197.878 258.139 198.469 258.647 198.93C259.156 199.391 259.809 199.7 260.519 199.814C261.229 199.929 261.961 199.843 262.615 199.569L271.484 195.883C278.439 192.994 286.008 191.507 293.664 191.525C301.321 191.544 308.881 193.068 315.818 195.991L324.665 199.72Z" fill="#B182D0" fill-opacity="0.8"/>
</g>
<g filter="url(#filter2_f_1_4)">
<path d="M113.9 201.753C113.983 202.012 114.153 202.242 114.386 202.412C114.619 202.581 114.904 202.682 115.203 202.7C115.501 202.718 115.799 202.652 116.055 202.513C116.311 202.373 116.513 202.166 116.634 201.919L118.279 198.578C119.57 195.959 121.478 193.625 123.87 191.739C126.263 189.853 129.083 188.461 132.134 187.658L136.022 186.635C136.31 186.56 136.565 186.407 136.753 186.197C136.941 185.986 137.052 185.729 137.072 185.46C137.092 185.191 137.02 184.922 136.865 184.691C136.71 184.461 136.48 184.278 136.206 184.169L132.505 182.686C129.6 181.522 127.013 179.801 124.921 177.644C122.83 175.486 121.286 172.943 120.396 170.192L119.261 166.685C119.178 166.426 119.008 166.196 118.775 166.026C118.542 165.857 118.257 165.756 117.958 165.738C117.66 165.72 117.362 165.785 117.106 165.925C116.85 166.065 116.648 166.272 116.527 166.519L114.882 169.857C113.592 172.476 111.684 174.81 109.291 176.696C106.898 178.582 104.078 179.975 101.027 180.777L97.1361 181.8C96.8485 181.875 96.5935 182.028 96.4057 182.238C96.2178 182.448 96.1063 182.706 96.0862 182.975C96.0661 183.244 96.1385 183.513 96.2934 183.744C96.4484 183.974 96.6784 184.157 96.9523 184.266L100.657 185.749C103.561 186.913 106.149 188.634 108.24 190.792C110.331 192.949 111.876 195.492 112.766 198.244L113.9 201.753Z" fill="#5D58FF" fill-opacity="0.8"/>
</g>
<g filter="url(#filter3_f_1_4)">
<path d="M841.554 221.501C841.637 221.76 841.807 221.99 842.04 222.16C842.273 222.329 842.558 222.43 842.857 222.448C843.155 222.466 843.453 222.401 843.709 222.261C843.965 222.121 844.167 221.914 844.288 221.667L845.933 218.326C847.224 215.707 849.132 213.373 851.524 211.487C853.917 209.601 856.737 208.209 859.788 207.406L863.676 206.383C863.964 206.308 864.219 206.155 864.407 205.945C864.595 205.735 864.706 205.477 864.726 205.208C864.746 204.939 864.674 204.67 864.519 204.439C864.364 204.209 864.134 204.026 863.86 203.917L860.158 202.434C857.254 201.27 854.667 199.549 852.575 197.392C850.484 195.234 848.94 192.691 848.05 189.94L846.915 186.433C846.832 186.174 846.662 185.944 846.429 185.774C846.196 185.605 845.911 185.504 845.612 185.486C845.314 185.468 845.016 185.533 844.76 185.673C844.504 185.813 844.302 186.02 844.181 186.267L842.536 189.605C841.246 192.224 839.338 194.558 836.945 196.444C834.552 198.33 831.732 199.723 828.681 200.525L824.79 201.549C824.502 201.623 824.247 201.776 824.06 201.986C823.872 202.197 823.76 202.454 823.74 202.723C823.72 202.992 823.792 203.261 823.947 203.492C824.102 203.722 824.332 203.905 824.606 204.014L828.311 205.498C831.215 206.661 833.803 208.382 835.894 210.54C837.985 212.697 839.53 215.24 840.42 217.992L841.554 221.501Z" fill="#5D58FF" fill-opacity="0.8"/>
</g>
<g filter="url(#filter4_f_1_4)">
<path d="M386.867 761.333C386.95 761.593 387.12 761.823 387.353 761.992C387.586 762.162 387.871 762.262 388.169 762.28C388.468 762.298 388.766 762.233 389.022 762.093C389.278 761.954 389.48 761.746 389.601 761.499L391.246 758.158C392.536 755.54 394.444 753.206 396.837 751.32C399.23 749.434 402.05 748.041 405.101 747.239L408.989 746.215C409.277 746.14 409.532 745.987 409.719 745.777C409.907 745.567 410.019 745.31 410.039 745.041C410.059 744.771 409.987 744.503 409.832 744.272C409.677 744.041 409.447 743.859 409.173 743.75L405.471 742.266C402.567 741.103 399.979 739.382 397.888 737.224C395.797 735.066 394.252 732.523 393.362 729.772L392.227 726.265C392.144 726.006 391.975 725.776 391.742 725.607C391.509 725.437 391.224 725.337 390.925 725.319C390.626 725.301 390.329 725.366 390.073 725.506C389.817 725.645 389.615 725.853 389.494 726.1L387.849 729.438C386.558 732.057 384.65 734.39 382.257 736.276C379.865 738.162 377.045 739.555 373.994 740.358L370.103 741.381C369.815 741.456 369.56 741.609 369.372 741.819C369.185 742.029 369.073 742.286 369.053 742.556C369.033 742.825 369.105 743.093 369.26 743.324C369.415 743.555 369.645 743.737 369.919 743.846L373.623 745.33C376.528 746.494 379.115 748.214 381.207 750.372C383.298 752.53 384.842 755.073 385.732 757.824L386.867 761.333Z" fill="#5D58FF" fill-opacity="0.8"/>
</g>
<g filter="url(#filter5_f_1_4)">
<path d="M245.085 40.39C245.056 40.6585 244.935 40.9123 244.739 41.1167C244.544 41.3212 244.283 41.4664 243.993 41.5327C243.703 41.599 243.397 41.5832 243.118 41.4873C242.838 41.3914 242.598 41.2202 242.43 40.9968L240.144 37.9778C238.352 35.6112 236.009 33.6254 233.279 32.1588C230.549 30.6922 227.497 29.78 224.336 29.4858L220.307 29.1104C220.009 29.0835 219.727 28.9745 219.501 28.7983C219.274 28.6221 219.113 28.3872 219.039 28.1256C218.966 27.8639 218.984 27.5882 219.09 27.3359C219.196 27.0836 219.386 26.867 219.634 26.7154L222.979 24.655C225.603 23.0388 227.805 20.9261 229.431 18.464C231.058 16.0019 232.069 13.2497 232.395 10.399L232.812 6.76537C232.841 6.49681 232.962 6.24306 233.158 6.03861C233.353 5.83415 233.613 5.68891 233.904 5.62261C234.194 5.55632 234.499 5.57219 234.779 5.66807C235.059 5.76394 235.299 5.93518 235.467 6.1585L237.752 9.17496C239.544 11.5416 241.887 13.5274 244.617 14.994C247.347 16.4606 250.399 17.3728 253.56 17.667L257.592 18.0417C257.89 18.0687 258.172 18.1776 258.398 18.3539C258.625 18.5301 258.786 18.7649 258.86 19.0266C258.933 19.2882 258.915 19.5639 258.809 19.8162C258.703 20.0685 258.513 20.2852 258.265 20.4368L254.918 22.4978C252.293 24.114 250.091 26.2267 248.465 28.6888C246.839 31.1509 245.827 33.9031 245.501 36.7538L245.085 40.39Z" fill="#FDFDFD"/>
</g>
<g filter="url(#filter6_f_1_4)">
<path d="M997.119 98.3192C997.089 98.5877 996.968 98.8415 996.773 99.0459C996.577 99.2504 996.317 99.3956 996.027 99.4619C995.737 99.5282 995.431 99.5124 995.151 99.4165C994.871 99.3206 994.631 99.1494 994.463 98.926L992.177 95.907C990.385 93.5404 988.043 91.5546 985.312 90.088C982.582 88.6214 979.53 87.7092 976.369 87.415L972.34 87.0396C972.042 87.0127 971.761 86.9037 971.534 86.7275C971.307 86.5513 971.146 86.3164 971.073 86.0548C970.999 85.7931 971.017 85.5174 971.123 85.2651C971.23 85.0128 971.419 84.7962 971.667 84.6446L975.012 82.5842C977.636 80.968 979.838 78.8553 981.465 76.3932C983.091 73.9311 984.102 71.1789 984.429 68.3282L984.845 64.6946C984.875 64.426 984.996 64.1723 985.191 63.9678C985.386 63.7633 985.647 63.6181 985.937 63.5518C986.227 63.4855 986.533 63.5014 986.813 63.5973C987.092 63.6931 987.333 63.8644 987.501 64.0877L989.785 67.1042C991.578 69.4708 993.92 71.4566 996.65 72.9232C999.381 74.3898 1002.43 75.302 1005.59 75.5962L1009.63 75.9709C1009.92 75.9979 1010.2 76.1068 1010.43 76.2831C1010.66 76.4593 1010.82 76.6941 1010.89 76.9558C1010.97 77.2174 1010.95 77.4931 1010.84 77.7454C1010.74 77.9977 1010.55 78.2144 1010.3 78.366L1006.95 80.427C1004.33 82.0432 1002.12 84.1559 1000.5 86.618C998.872 89.0801 997.861 91.8323 997.534 94.683L997.119 98.3192Z" fill="#FDFDFD"/>
</g>
<g filter="url(#filter7_f_1_4)">
<path d="M1495.29 234.874C1495 234.785 1494.7 234.777 1494.41 234.85C1494.12 234.924 1493.87 235.075 1493.68 235.285C1493.49 235.494 1493.38 235.751 1493.35 236.02C1493.33 236.289 1493.4 236.558 1493.56 236.789L1495.63 239.931C1497.25 242.395 1498.26 245.148 1498.58 247.999C1498.91 250.85 1498.54 253.73 1497.5 256.439L1496.18 259.892C1496.08 260.147 1496.07 260.423 1496.15 260.683C1496.23 260.942 1496.4 261.173 1496.63 261.344C1496.87 261.514 1497.15 261.616 1497.45 261.635C1497.75 261.655 1498.04 261.591 1498.3 261.452L1501.78 259.586C1504.52 258.122 1507.57 257.213 1510.73 256.921C1513.89 256.63 1517.09 256.963 1520.09 257.899L1523.92 259.091C1524.2 259.18 1524.51 259.188 1524.79 259.114C1525.08 259.041 1525.34 258.889 1525.53 258.68C1525.72 258.471 1525.83 258.214 1525.85 257.945C1525.87 257.676 1525.8 257.407 1525.65 257.175L1523.58 254.035C1521.96 251.571 1520.95 248.818 1520.62 245.967C1520.3 243.116 1520.67 240.236 1521.71 237.527L1523.03 234.072C1523.13 233.817 1523.14 233.541 1523.06 233.282C1522.98 233.022 1522.81 232.791 1522.58 232.621C1522.34 232.45 1522.06 232.348 1521.76 232.329C1521.46 232.309 1521.16 232.373 1520.91 232.512L1517.42 234.38C1514.69 235.844 1511.64 236.754 1508.48 237.045C1505.32 237.337 1502.12 237.003 1499.12 236.067L1495.29 234.874Z" fill="#B182D0" fill-opacity="0.8"/>
</g>
<g filter="url(#filter8_f_1_4)">
<path d="M1210.09 278.771C1210.27 278.984 1210.52 279.141 1210.81 279.221C1211.09 279.3 1211.4 279.298 1211.69 279.215C1211.97 279.132 1212.22 278.972 1212.4 278.756C1212.58 278.541 1212.68 278.281 1212.69 278.011L1212.85 274.358C1212.97 271.494 1213.78 268.689 1215.23 266.137C1216.67 263.585 1218.72 261.348 1221.22 259.583L1224.41 257.331C1224.65 257.166 1224.82 256.938 1224.91 256.68C1225 256.422 1225 256.146 1224.9 255.89C1224.81 255.633 1224.63 255.408 1224.4 255.245C1224.16 255.083 1223.87 254.99 1223.57 254.981L1219.52 254.841C1216.35 254.732 1213.23 254 1210.41 252.695C1207.58 251.391 1205.1 249.546 1203.14 247.289L1200.64 244.412C1200.46 244.199 1200.21 244.042 1199.92 243.963C1199.63 243.883 1199.33 243.885 1199.04 243.968C1198.76 244.051 1198.51 244.212 1198.33 244.427C1198.15 244.642 1198.04 244.903 1198.03 245.172L1197.88 248.823C1197.76 251.687 1196.95 254.492 1195.5 257.044C1194.05 259.596 1192.01 261.832 1189.5 263.598L1186.31 265.85C1186.08 266.016 1185.9 266.243 1185.81 266.501C1185.73 266.759 1185.73 267.035 1185.82 267.292C1185.91 267.549 1186.09 267.774 1186.33 267.936C1186.57 268.099 1186.86 268.191 1187.16 268.201L1191.21 268.34C1194.38 268.449 1197.49 269.181 1200.32 270.485C1203.15 271.79 1205.63 273.635 1207.59 275.892L1210.09 278.771Z" fill="#B182D0" fill-opacity="0.8"/>
</g>
<g filter="url(#filter9_f_1_4)">
<path d="M660.197 80.0716C660.381 80.2846 660.633 80.4415 660.919 80.5208C661.205 80.6002 661.511 80.5982 661.796 80.5151C662.081 80.4321 662.33 80.2719 662.511 80.0565C662.691 79.8411 662.794 79.5808 662.804 79.3111L662.958 75.6583C663.079 72.7945 663.891 69.9891 665.337 67.4373C666.784 64.8855 668.83 62.6488 671.332 60.8829L674.523 58.6317C674.759 58.466 674.933 58.2387 675.021 57.9808C675.109 57.7228 675.107 57.4466 675.014 57.1898C674.922 56.933 674.745 56.708 674.506 56.5454C674.267 56.3828 673.978 56.2905 673.679 56.2809L669.631 56.1413C666.456 56.0321 663.345 55.2999 660.515 53.9956C657.686 52.6913 655.205 50.8463 653.247 48.5891L650.751 45.7123C650.567 45.4992 650.315 45.3423 650.029 45.263C649.743 45.1836 649.437 45.1856 649.152 45.2687C648.867 45.3518 648.618 45.5119 648.438 45.7273C648.257 45.9428 648.155 46.203 648.144 46.4728L647.99 50.1231C647.868 52.9868 647.056 55.7923 645.61 58.3441C644.164 60.8959 642.118 63.1326 639.615 64.8984L636.422 67.1504C636.186 67.3161 636.012 67.5434 635.924 67.8014C635.836 68.0594 635.838 68.3355 635.93 68.5923C636.022 68.8491 636.2 69.0741 636.439 69.2367C636.678 69.3994 636.966 69.4917 637.265 69.5012L641.316 69.64C644.492 69.7492 647.602 70.4815 650.432 71.7858C653.262 73.0901 655.742 74.9351 657.7 77.1922L660.197 80.0716Z" fill="#B182D0" fill-opacity="0.8"/>
</g>
<g filter="url(#filter10_f_1_4)">
<path d="M1311.66 26.8597C1311.41 27.015 1311.23 27.2345 1311.13 27.4884C1311.03 27.7423 1311.01 28.0182 1311.09 28.2787C1311.17 28.5392 1311.34 28.7716 1311.57 28.9443C1311.8 29.1171 1312.08 29.2218 1312.38 29.2442L1316.42 29.5578C1319.58 29.8041 1322.65 30.6698 1325.41 32.0949C1328.16 33.5199 1330.54 35.4699 1332.38 37.8091L1334.72 40.7905C1334.89 41.0112 1335.14 41.1788 1335.42 41.2704C1335.7 41.362 1336.01 41.3733 1336.29 41.3026C1336.58 41.2319 1336.84 41.0827 1337.03 40.8753C1337.22 40.6679 1337.34 40.4124 1337.36 40.1434L1337.71 36.504C1337.99 33.6488 1338.95 30.8816 1340.53 28.3952C1342.11 25.9088 1344.27 23.763 1346.86 22.1073L1350.17 19.9965C1350.41 19.8412 1350.6 19.6217 1350.7 19.3678C1350.8 19.1139 1350.82 18.838 1350.74 18.5775C1350.66 18.317 1350.49 18.0846 1350.26 17.9119C1350.03 17.7391 1349.75 17.6344 1349.45 17.612L1345.42 17.2977C1342.25 17.0515 1339.18 16.1857 1336.42 14.7606C1333.67 13.3356 1331.29 11.3856 1329.45 9.04648L1327.11 6.06254C1326.94 5.8418 1326.69 5.67423 1326.41 5.58261C1326.13 5.49098 1325.83 5.47975 1325.54 5.55043C1325.25 5.62111 1324.99 5.77028 1324.8 5.97767C1324.61 6.18505 1324.49 6.4406 1324.47 6.70957L1324.12 10.3516C1323.85 13.2068 1322.88 15.9739 1321.3 18.4603C1319.72 20.9467 1317.56 23.0925 1314.97 24.7482L1311.66 26.8597Z" fill="#5D58FF" fill-opacity="0.8"/>
</g>
<g filter="url(#filter11_f_1_4)">
<path d="M1523.59 86.0915C1523.29 86.1536 1522.99 86.1333 1522.71 86.0334C1522.43 85.9335 1522.2 85.7588 1522.03 85.5331C1521.87 85.3073 1521.78 85.0415 1521.79 84.7717C1521.8 84.502 1521.9 84.2413 1522.08 84.0252L1524.5 81.0925C1526.4 78.793 1527.72 76.1483 1528.36 73.3426C1529.01 70.5369 1528.97 67.6377 1528.25 64.8468L1527.33 61.2893C1527.26 61.0267 1527.28 60.7513 1527.4 60.5005C1527.51 60.2498 1527.7 60.0359 1527.95 59.8879C1528.2 59.74 1528.5 59.6651 1528.79 59.6735C1529.09 59.6818 1529.38 59.7731 1529.62 59.9348L1532.87 62.1147C1535.42 63.8251 1538.36 65.0136 1541.47 65.5973C1544.58 66.1811 1547.79 66.1461 1550.89 65.4949L1554.83 64.6651C1555.12 64.603 1555.43 64.6233 1555.71 64.7232C1555.98 64.8231 1556.22 64.9978 1556.39 65.2236C1556.55 65.4493 1556.63 65.7151 1556.62 65.9849C1556.61 66.2547 1556.51 66.5153 1556.33 66.7314L1553.92 69.6627C1552.02 71.9621 1550.7 74.6068 1550.05 77.4125C1549.41 80.2183 1549.45 83.1175 1550.17 85.9083L1551.09 89.468C1551.16 89.7307 1551.14 90.0061 1551.03 90.2568C1550.91 90.5076 1550.72 90.7215 1550.47 90.8694C1550.22 91.0174 1549.93 91.0923 1549.63 91.0839C1549.33 91.0755 1549.04 90.9843 1548.8 90.8226L1545.55 88.6405C1543 86.9301 1540.06 85.7416 1536.95 85.1578C1533.84 84.5741 1530.63 84.609 1527.53 85.2603L1523.59 86.0915Z" fill="#FDFDFD"/>
</g>
<g filter="url(#filter12_f_1_4)">
<path d="M1244.28 144.44C1244.85 144.622 1245.34 144.956 1245.68 145.398C1246.03 145.84 1246.22 146.367 1246.22 146.908C1246.23 147.45 1246.04 147.979 1245.7 148.424C1245.36 148.87 1244.88 149.209 1244.31 149.397L1236.69 151.958C1230.72 153.966 1225.3 157.125 1220.82 161.215C1216.34 165.304 1212.9 170.225 1210.74 175.635L1207.99 182.532C1207.79 183.042 1207.42 183.484 1206.93 183.797C1206.44 184.11 1205.86 184.28 1205.26 184.283C1204.66 184.286 1204.07 184.123 1203.57 183.815C1203.08 183.506 1202.7 183.069 1202.5 182.561L1199.66 175.694C1197.43 170.307 1193.93 165.423 1189.39 161.381C1184.86 157.34 1179.4 154.238 1173.4 152.293L1165.75 149.813C1165.19 149.631 1164.7 149.297 1164.35 148.855C1164 148.414 1163.82 147.886 1163.81 147.345C1163.81 146.803 1163.99 146.274 1164.33 145.829C1164.67 145.384 1165.16 145.044 1165.72 144.856L1173.34 142.295C1179.31 140.287 1184.73 137.128 1189.21 133.039C1193.69 128.95 1197.13 124.028 1199.28 118.618L1202.03 111.716C1202.24 111.206 1202.61 110.765 1203.1 110.451C1203.59 110.138 1204.17 109.968 1204.77 109.965C1205.37 109.962 1205.96 110.125 1206.45 110.433C1206.95 110.742 1207.32 111.179 1207.53 111.687L1210.37 118.559C1212.6 123.946 1216.1 128.831 1220.64 132.872C1225.17 136.914 1230.63 140.015 1236.63 141.96L1244.28 144.44Z" fill="#FDFDFD"/>
</g>
<g filter="url(#filter13_f_1_4)">
<path d="M1251.37 514.849C1251.56 514.637 1251.66 514.379 1251.68 514.109C1251.7 513.84 1251.62 513.572 1251.46 513.343C1251.31 513.113 1251.07 512.933 1250.8 512.827C1250.52 512.721 1250.22 512.694 1249.93 512.749L1245.96 513.491C1242.84 514.072 1239.63 514.034 1236.54 513.38C1233.44 512.726 1230.54 511.472 1228.04 509.704L1224.85 507.452C1224.62 507.284 1224.33 507.187 1224.03 507.172C1223.73 507.156 1223.44 507.225 1223.18 507.367C1222.93 507.509 1222.73 507.719 1222.61 507.967C1222.49 508.215 1222.46 508.49 1222.52 508.754L1223.35 512.331C1223.99 515.137 1223.95 518.037 1223.22 520.827C1222.5 523.617 1221.11 526.231 1219.15 528.487L1216.65 531.362C1216.46 531.574 1216.36 531.833 1216.34 532.102C1216.32 532.372 1216.4 532.639 1216.55 532.869C1216.71 533.098 1216.94 533.278 1217.22 533.384C1217.5 533.49 1217.8 533.518 1218.09 533.462L1222.06 532.722C1225.17 532.141 1228.39 532.179 1231.48 532.833C1234.57 533.487 1237.47 534.741 1239.97 536.509L1243.16 538.763C1243.4 538.931 1243.69 539.028 1243.99 539.043C1244.28 539.059 1244.58 538.99 1244.83 538.848C1245.09 538.706 1245.29 538.496 1245.41 538.248C1245.52 538 1245.55 537.725 1245.49 537.461L1244.67 533.882C1244.03 531.075 1244.07 528.176 1244.79 525.386C1245.52 522.596 1246.91 519.982 1248.87 517.726L1251.37 514.849Z" fill="#B182D0" fill-opacity="0.8"/>
</g>
<g filter="url(#filter14_f_1_4)">
<path d="M1584.2 652.789C1584.38 652.577 1584.49 652.319 1584.51 652.05C1584.53 651.78 1584.45 651.513 1584.29 651.283C1584.14 651.054 1583.9 650.874 1583.63 650.768C1583.35 650.661 1583.05 650.634 1582.76 650.69L1578.79 651.431C1575.67 652.012 1572.46 651.975 1569.37 651.321C1566.27 650.667 1563.37 649.412 1560.87 647.645L1557.68 645.392C1557.45 645.225 1557.16 645.127 1556.86 645.112C1556.56 645.097 1556.27 645.165 1556.01 645.307C1555.76 645.45 1555.56 645.659 1555.44 645.907C1555.32 646.155 1555.29 646.43 1555.35 646.694L1556.18 650.271C1556.82 653.078 1556.78 655.977 1556.05 658.767C1555.33 661.557 1553.94 664.171 1551.98 666.427L1549.48 669.303C1549.29 669.515 1549.18 669.773 1549.17 670.043C1549.15 670.312 1549.23 670.58 1549.38 670.809C1549.54 671.038 1549.77 671.218 1550.05 671.325C1550.32 671.431 1550.63 671.458 1550.92 671.403L1554.89 670.662C1558 670.081 1561.22 670.119 1564.31 670.773C1567.4 671.427 1570.3 672.681 1572.8 674.449L1575.99 676.704C1576.23 676.871 1576.52 676.969 1576.81 676.984C1577.11 676.999 1577.41 676.931 1577.66 676.789C1577.92 676.646 1578.12 676.437 1578.24 676.189C1578.35 675.941 1578.38 675.666 1578.32 675.402L1577.5 671.822C1576.86 669.016 1576.9 666.117 1577.62 663.326C1578.35 660.536 1579.74 657.922 1581.7 655.666L1584.2 652.789Z" fill="#B182D0" fill-opacity="0.8"/>
</g>
<g filter="url(#filter15_f_1_4)">
<path d="M1318.53 428.15C1317.88 427.873 1317.15 427.784 1316.44 427.895C1315.73 428.006 1315.07 428.311 1314.56 428.77C1314.05 429.228 1313.71 429.818 1313.58 430.458C1313.45 431.098 1313.55 431.758 1313.85 432.348L1317.94 440.347C1321.14 446.618 1322.79 453.444 1322.77 460.348C1322.75 467.253 1321.06 474.071 1317.82 480.327L1313.69 488.301C1313.38 488.889 1313.29 489.549 1313.41 490.189C1313.53 490.83 1313.87 491.421 1314.38 491.882C1314.89 492.343 1315.54 492.652 1316.25 492.767C1316.96 492.881 1317.69 492.795 1318.35 492.522L1327.21 488.84C1334.17 485.951 1341.73 484.463 1349.39 484.482C1357.05 484.501 1364.61 486.024 1371.54 488.947L1380.39 492.672C1381.04 492.949 1381.77 493.038 1382.48 492.927C1383.19 492.816 1383.85 492.511 1384.36 492.052C1384.87 491.593 1385.21 491.004 1385.34 490.364C1385.47 489.724 1385.37 489.064 1385.07 488.474L1380.98 480.48C1377.78 474.208 1376.13 467.383 1376.15 460.478C1376.17 453.573 1377.86 446.755 1381.1 440.5L1385.24 432.521C1385.55 431.932 1385.64 431.273 1385.52 430.632C1385.4 429.991 1385.06 429.4 1384.55 428.939C1384.04 428.478 1383.39 428.17 1382.68 428.055C1381.97 427.941 1381.24 428.026 1380.58 428.3L1371.71 431.986C1364.76 434.876 1357.19 436.363 1349.53 436.344C1341.88 436.326 1334.32 434.802 1327.38 431.879L1318.53 428.15Z" fill="#B182D0" fill-opacity="0.8"/>
</g>
<g filter="url(#filter16_f_1_4)">
<path d="M204.004 792.718C204.656 792.441 205.388 792.352 206.098 792.463C206.809 792.574 207.464 792.879 207.975 793.338C208.487 793.797 208.829 794.386 208.956 795.026C209.083 795.666 208.988 796.326 208.684 796.916L204.597 804.915C201.393 811.186 199.744 818.012 199.764 824.917C199.785 831.822 201.475 838.639 204.716 844.895L208.846 852.869C209.153 853.458 209.252 854.117 209.129 854.758C209.006 855.399 208.667 855.99 208.159 856.451C207.65 856.912 206.996 857.221 206.287 857.335C205.577 857.449 204.845 857.364 204.191 857.09L195.326 853.408C188.372 850.519 180.803 849.032 173.146 849.05C165.49 849.069 157.93 850.593 150.993 853.516L142.15 857.24C141.498 857.517 140.767 857.606 140.056 857.495C139.346 857.385 138.69 857.079 138.179 856.62C137.668 856.162 137.325 855.572 137.199 854.932C137.072 854.292 137.167 853.632 137.47 853.042L141.553 845.048C144.757 838.777 146.406 831.951 146.385 825.046C146.365 818.141 144.675 811.324 141.434 805.068L137.298 797.089C136.991 796.501 136.893 795.841 137.016 795.201C137.139 794.56 137.477 793.969 137.986 793.508C138.494 793.047 139.148 792.738 139.858 792.624C140.568 792.509 141.299 792.595 141.954 792.869L150.823 796.555C157.777 799.444 165.346 800.931 173.003 800.913C180.66 800.894 188.22 799.37 195.156 796.447L204.004 792.718Z" fill="#B182D0" fill-opacity="0.8"/>
</g>
<g filter="url(#filter17_f_1_4)">
<path d="M1529.3 426.117C1529.22 425.857 1529.05 425.627 1528.81 425.458C1528.58 425.289 1528.29 425.188 1528 425.17C1527.7 425.152 1527.4 425.217 1527.14 425.357C1526.89 425.497 1526.69 425.704 1526.56 425.951L1524.92 429.292C1523.63 431.911 1521.72 434.244 1519.33 436.13C1516.94 438.016 1514.12 439.409 1511.06 440.212L1507.18 441.235C1506.89 441.31 1506.63 441.463 1506.45 441.673C1506.26 441.883 1506.15 442.14 1506.13 442.41C1506.11 442.679 1506.18 442.947 1506.33 443.178C1506.49 443.409 1506.72 443.591 1506.99 443.7L1510.69 445.184C1513.6 446.348 1516.19 448.068 1518.28 450.226C1520.37 452.384 1521.91 454.927 1522.8 457.678L1523.94 461.185C1524.02 461.444 1524.19 461.674 1524.42 461.843C1524.66 462.013 1524.94 462.113 1525.24 462.132C1525.54 462.15 1525.84 462.084 1526.09 461.945C1526.35 461.805 1526.55 461.597 1526.67 461.35L1528.32 458.012C1529.61 455.393 1531.52 453.06 1533.91 451.174C1536.3 449.288 1539.12 447.895 1542.17 447.092L1546.06 446.069C1546.35 445.994 1546.61 445.841 1546.79 445.631C1546.98 445.421 1547.09 445.164 1547.11 444.895C1547.13 444.625 1547.06 444.357 1546.91 444.126C1546.75 443.895 1546.52 443.713 1546.25 443.604L1542.54 442.12C1539.64 440.956 1537.05 439.236 1534.96 437.078C1532.87 434.92 1531.32 432.377 1530.43 429.626L1529.3 426.117Z" fill="#5D58FF" fill-opacity="0.8"/>
</g>
<g filter="url(#filter18_f_1_4)">
<path d="M801.645 406.369C801.562 406.109 801.393 405.879 801.16 405.71C800.927 405.541 800.641 405.44 800.343 405.422C800.044 405.404 799.747 405.469 799.491 405.609C799.235 405.749 799.032 405.956 798.912 406.203L797.266 409.544C795.976 412.163 794.068 414.496 791.675 416.382C789.282 418.268 786.462 419.661 783.412 420.464L779.523 421.487C779.236 421.562 778.981 421.715 778.793 421.925C778.605 422.135 778.493 422.392 778.473 422.662C778.453 422.931 778.526 423.199 778.681 423.43C778.836 423.661 779.066 423.843 779.339 423.952L783.041 425.436C785.945 426.6 788.533 428.32 790.624 430.478C792.715 432.636 794.26 435.179 795.15 437.93L796.285 441.437C796.368 441.696 796.537 441.926 796.77 442.095C797.003 442.265 797.289 442.365 797.587 442.383C797.886 442.402 798.183 442.336 798.439 442.197C798.696 442.057 798.898 441.849 799.018 441.602L800.664 438.264C801.954 435.645 803.862 433.312 806.255 431.426C808.648 429.54 811.467 428.147 814.518 427.344L818.41 426.321C818.697 426.246 818.952 426.093 819.14 425.883C819.328 425.673 819.439 425.416 819.459 425.147C819.479 424.877 819.407 424.609 819.252 424.378C819.097 424.147 818.867 423.965 818.593 423.856L814.889 422.372C811.985 421.208 809.397 419.488 807.306 417.33C805.214 415.172 803.67 412.629 802.78 409.878L801.645 406.369Z" fill="#5D58FF" fill-opacity="0.8"/>
</g>
<g filter="url(#filter19_f_1_4)">
<path d="M1398.11 587.48C1398.14 587.211 1398.26 586.957 1398.46 586.753C1398.65 586.548 1398.92 586.403 1399.21 586.337C1399.5 586.271 1399.8 586.286 1400.08 586.382C1400.36 586.478 1400.6 586.649 1400.77 586.873L1403.05 589.892C1404.85 592.258 1407.19 594.244 1409.92 595.711C1412.65 597.177 1415.7 598.09 1418.86 598.384L1422.89 598.759C1423.19 598.786 1423.47 598.895 1423.7 599.071C1423.92 599.248 1424.09 599.482 1424.16 599.744C1424.23 600.006 1424.21 600.281 1424.11 600.534C1424 600.786 1423.81 601.003 1423.56 601.154L1420.22 603.215C1417.6 604.831 1415.39 606.944 1413.77 609.406C1412.14 611.868 1411.13 614.62 1410.8 617.471L1410.39 621.104C1410.36 621.373 1410.24 621.627 1410.04 621.831C1409.85 622.035 1409.59 622.181 1409.29 622.247C1409 622.313 1408.7 622.297 1408.42 622.202C1408.14 622.106 1407.9 621.934 1407.73 621.711L1405.45 618.695C1403.65 616.328 1401.31 614.342 1398.58 612.876C1395.85 611.409 1392.8 610.497 1389.64 610.203L1385.61 609.828C1385.31 609.801 1385.03 609.692 1384.8 609.516C1384.57 609.34 1384.41 609.105 1384.34 608.843C1384.27 608.581 1384.28 608.306 1384.39 608.053C1384.5 607.801 1384.69 607.584 1384.93 607.433L1388.28 605.372C1390.91 603.756 1393.11 601.643 1394.73 599.181C1396.36 596.719 1397.37 593.967 1397.7 591.116L1398.11 587.48Z" fill="#FDFDFD"/>
</g>
<g filter="url(#filter20_f_1_4)">
<path d="M1592.66 768.636C1592.64 768.367 1592.51 768.114 1592.32 767.909C1592.12 767.705 1591.86 767.559 1591.57 767.493C1591.28 767.427 1590.98 767.443 1590.7 767.539C1590.42 767.634 1590.18 767.806 1590.01 768.029L1587.72 771.048C1585.93 773.415 1583.59 775.4 1580.86 776.867C1578.13 778.334 1575.08 779.246 1571.92 779.54L1567.89 779.915C1567.59 779.942 1567.31 780.051 1567.08 780.228C1566.85 780.404 1566.69 780.639 1566.62 780.9C1566.55 781.162 1566.56 781.438 1566.67 781.69C1566.78 781.942 1566.97 782.159 1567.21 782.311L1570.56 784.371C1573.18 785.987 1575.38 788.1 1577.01 790.562C1578.64 793.024 1579.65 795.776 1579.97 798.627L1580.39 802.261C1580.42 802.529 1580.54 802.783 1580.74 802.987C1580.93 803.192 1581.19 803.337 1581.48 803.403C1581.77 803.47 1582.08 803.454 1582.36 803.358C1582.64 803.262 1582.88 803.091 1583.05 802.867L1585.33 799.851C1587.12 797.484 1589.47 795.499 1592.2 794.032C1594.93 792.565 1597.98 791.653 1601.14 791.359L1605.17 790.984C1605.47 790.957 1605.75 790.848 1605.98 790.672C1606.2 790.496 1606.37 790.261 1606.44 789.999C1606.51 789.738 1606.5 789.462 1606.39 789.21C1606.28 788.957 1606.09 788.741 1605.84 788.589L1602.5 786.528C1599.87 784.912 1597.67 782.799 1596.04 780.337C1594.42 777.875 1593.41 775.123 1593.08 772.272L1592.66 768.636Z" fill="#FDFDFD"/>
</g>
<g filter="url(#filter21_f_1_4)">
<path d="M646.082 529.55C646.111 529.281 646.232 529.028 646.428 528.823C646.623 528.619 646.884 528.474 647.174 528.407C647.464 528.341 647.77 528.357 648.049 528.453C648.329 528.549 648.569 528.72 648.737 528.943L651.023 531.962C652.815 534.329 655.158 536.315 657.888 537.781C660.618 539.248 663.67 540.16 666.831 540.454L670.86 540.83C671.158 540.856 671.44 540.965 671.666 541.142C671.893 541.318 672.054 541.553 672.128 541.814C672.201 542.076 672.183 542.352 672.077 542.604C671.971 542.856 671.781 543.073 671.533 543.225L668.188 545.285C665.564 546.901 663.362 549.014 661.736 551.476C660.109 553.938 659.098 556.69 658.772 559.541L658.355 563.175C658.326 563.443 658.205 563.697 658.009 563.901C657.814 564.106 657.554 564.251 657.263 564.317C656.973 564.384 656.668 564.368 656.388 564.272C656.108 564.176 655.868 564.005 655.7 563.781L653.415 560.765C651.623 558.398 649.28 556.413 646.55 554.946C643.82 553.479 640.768 552.567 637.607 552.273L633.575 551.898C633.277 551.871 632.995 551.762 632.769 551.586C632.542 551.41 632.381 551.175 632.307 550.913C632.234 550.652 632.252 550.376 632.358 550.124C632.464 549.871 632.654 549.655 632.902 549.503L636.249 547.442C638.874 545.826 641.076 543.713 642.702 541.251C644.328 538.789 645.34 536.037 645.666 533.186L646.082 529.55Z" fill="#FDFDFD"/>
</g>
<g filter="url(#filter22_f_1_4)">
<path d="M1310.75 812.903C1310.78 812.634 1310.9 812.38 1311.1 812.176C1311.29 811.971 1311.55 811.826 1311.84 811.76C1312.13 811.693 1312.44 811.709 1312.72 811.805C1313 811.901 1313.24 812.072 1313.41 812.296L1315.69 815.315C1317.48 817.681 1319.83 819.667 1322.56 821.134C1325.29 822.6 1328.34 823.512 1331.5 823.807L1335.53 824.182C1335.83 824.209 1336.11 824.318 1336.34 824.494C1336.56 824.67 1336.72 824.905 1336.8 825.167C1336.87 825.429 1336.85 825.704 1336.75 825.957C1336.64 826.209 1336.45 826.426 1336.2 826.577L1332.86 828.638C1330.23 830.254 1328.03 832.366 1326.4 834.828C1324.78 837.291 1323.77 840.043 1323.44 842.893L1323.02 846.527C1322.99 846.796 1322.87 847.049 1322.68 847.254C1322.48 847.458 1322.22 847.604 1321.93 847.67C1321.64 847.736 1321.34 847.72 1321.06 847.624C1320.78 847.529 1320.54 847.357 1320.37 847.134L1318.08 844.118C1316.29 841.751 1313.95 839.765 1311.22 838.298C1308.49 836.832 1305.44 835.92 1302.28 835.626L1298.24 835.251C1297.95 835.224 1297.66 835.115 1297.44 834.939C1297.21 834.762 1297.05 834.528 1296.98 834.266C1296.9 834.004 1296.92 833.729 1297.03 833.476C1297.13 833.224 1297.32 833.007 1297.57 832.856L1300.92 830.795C1303.54 829.178 1305.74 827.066 1307.37 824.604C1309 822.142 1310.01 819.389 1310.34 816.539L1310.75 812.903Z" fill="#FDFDFD"/>
</g>
<g filter="url(#filter23_f_1_4)">
<path d="M147.913 392.996C148.196 393.085 148.502 393.093 148.79 393.019C149.078 392.946 149.334 392.794 149.523 392.585C149.712 392.376 149.825 392.119 149.846 391.85C149.868 391.581 149.797 391.312 149.643 391.08L147.572 387.938C145.948 385.475 144.94 382.722 144.616 379.871C144.293 377.02 144.663 374.139 145.701 371.431L147.023 367.978C147.121 367.723 147.13 367.447 147.049 367.187C146.967 366.927 146.799 366.697 146.567 366.526C146.335 366.356 146.05 366.254 145.752 366.234C145.453 366.215 145.155 366.279 144.898 366.417L141.416 368.283C138.684 369.748 135.631 370.657 132.47 370.949C129.309 371.24 126.115 370.906 123.111 369.971L119.282 368.779C118.999 368.69 118.693 368.682 118.405 368.755C118.117 368.829 117.862 368.98 117.673 369.19C117.484 369.399 117.371 369.656 117.349 369.925C117.327 370.194 117.398 370.463 117.552 370.694L119.621 373.835C121.245 376.298 122.253 379.051 122.576 381.902C122.9 384.753 122.53 387.634 121.492 390.342L120.169 393.797C120.07 394.052 120.061 394.328 120.142 394.588C120.224 394.848 120.392 395.078 120.624 395.249C120.856 395.419 121.141 395.521 121.44 395.541C121.738 395.56 122.036 395.496 122.293 395.358L125.777 393.49C128.509 392.025 131.562 391.116 134.723 390.824C137.884 390.533 141.078 390.867 144.082 391.802L147.913 392.996Z" fill="#B182D0" fill-opacity="0.8"/>
</g>
<g filter="url(#filter24_f_1_4)">
<path d="M433.112 349.099C432.929 348.886 432.677 348.729 432.391 348.65C432.105 348.57 431.798 348.572 431.514 348.655C431.229 348.738 430.979 348.898 430.799 349.114C430.619 349.329 430.516 349.59 430.506 349.859L430.352 353.512C430.231 356.376 429.419 359.181 427.972 361.733C426.526 364.285 424.48 366.522 421.977 368.287L418.787 370.539C418.551 370.704 418.377 370.932 418.289 371.19C418.201 371.448 418.203 371.724 418.295 371.981C418.387 372.237 418.565 372.462 418.804 372.625C419.043 372.788 419.331 372.88 419.63 372.889L423.678 373.029C426.854 373.138 429.965 373.871 432.794 375.175C435.624 376.479 438.104 378.324 440.062 380.581L442.559 383.458C442.742 383.671 442.994 383.828 443.281 383.907C443.567 383.987 443.873 383.985 444.158 383.902C444.442 383.819 444.692 383.658 444.872 383.443C445.052 383.228 445.155 382.967 445.165 382.698L445.32 379.047C445.441 376.184 446.253 373.378 447.7 370.826C449.146 368.275 451.192 366.038 453.695 364.272L456.888 362.02C457.124 361.854 457.298 361.627 457.386 361.369C457.474 361.111 457.472 360.835 457.379 360.578C457.287 360.321 457.11 360.096 456.871 359.934C456.632 359.771 456.343 359.679 456.044 359.669L451.994 359.53C448.818 359.421 445.707 358.689 442.878 357.385C440.048 356.08 437.568 354.235 435.61 351.978L433.112 349.099Z" fill="#B182D0" fill-opacity="0.8"/>
</g>
<g filter="url(#filter25_f_1_4)">
<path d="M983.002 547.798C982.818 547.585 982.566 547.428 982.28 547.348C981.994 547.269 981.688 547.271 981.403 547.354C981.118 547.437 980.869 547.597 980.688 547.813C980.508 548.028 980.405 548.288 980.395 548.558L980.241 552.211C980.12 555.075 979.308 557.88 977.862 560.432C976.415 562.984 974.369 565.22 971.867 566.986L968.676 569.237C968.44 569.403 968.266 569.63 968.178 569.888C968.09 570.146 968.092 570.423 968.185 570.679C968.277 570.936 968.454 571.161 968.693 571.324C968.932 571.486 969.221 571.579 969.52 571.588L973.567 571.728C976.743 571.837 979.854 572.569 982.684 573.874C985.513 575.178 987.993 577.023 989.952 579.28L992.448 582.157C992.632 582.37 992.884 582.527 993.17 582.606C993.456 582.686 993.762 582.684 994.047 582.6C994.332 582.517 994.581 582.357 994.761 582.142C994.942 581.926 995.044 581.666 995.055 581.396L995.209 577.746C995.331 574.882 996.143 572.077 997.589 569.525C999.035 566.973 1001.08 564.737 1003.58 562.971L1006.78 560.719C1007.01 560.553 1007.19 560.326 1007.28 560.068C1007.36 559.81 1007.36 559.534 1007.27 559.277C1007.18 559.02 1007 558.795 1006.76 558.632C1006.52 558.47 1006.23 558.377 1005.93 558.368L1001.88 558.229C998.707 558.12 995.597 557.388 992.767 556.083C989.937 554.779 987.457 552.934 985.499 550.677L983.002 547.798Z" fill="#B182D0" fill-opacity="0.8"/>
</g>
<g filter="url(#filter26_f_1_4)">
<path d="M331.541 601.01C331.786 600.855 331.972 600.635 332.073 600.381C332.175 600.127 332.188 599.851 332.109 599.591C332.031 599.33 331.865 599.098 331.635 598.925C331.405 598.753 331.122 598.648 330.824 598.625L326.785 598.312C323.619 598.066 320.551 597.2 317.794 595.775C315.036 594.35 312.657 592.4 310.821 590.061L308.48 587.079C308.308 586.858 308.065 586.691 307.783 586.599C307.502 586.508 307.196 586.496 306.907 586.567C306.618 586.638 306.36 586.787 306.169 586.994C305.977 587.202 305.861 587.457 305.836 587.726L305.488 591.366C305.215 594.221 304.255 596.988 302.674 599.474C301.094 601.961 298.932 604.107 296.338 605.762L293.032 607.873C292.787 608.028 292.602 608.248 292.5 608.502C292.398 608.756 292.386 609.032 292.464 609.292C292.543 609.553 292.708 609.785 292.938 609.958C293.168 610.13 293.451 610.235 293.75 610.258L297.785 610.572C300.951 610.818 304.02 611.684 306.777 613.109C309.534 614.534 311.914 616.484 313.749 618.823L316.091 621.807C316.263 622.028 316.507 622.195 316.788 622.287C317.07 622.379 317.376 622.39 317.664 622.319C317.953 622.249 318.211 622.099 318.403 621.892C318.594 621.685 318.71 621.429 318.735 621.16L319.083 617.518C319.356 614.663 320.316 611.896 321.896 609.409C323.476 606.923 325.639 604.777 328.232 603.121L331.541 601.01Z" fill="#5D58FF" fill-opacity="0.8"/>
</g>
<g filter="url(#filter27_f_1_4)">
<path d="M44.5843 700.183C44.829 700.028 45.0148 699.808 45.1164 699.555C45.2181 699.301 45.2305 699.025 45.1521 698.764C45.0738 698.504 44.9083 698.271 44.6784 698.099C44.4484 697.926 44.165 697.821 43.8668 697.799L39.8282 697.485C36.6622 697.239 33.5937 696.373 30.8366 694.948C28.0795 693.523 25.7 691.573 23.8641 689.234L21.5234 686.253C21.3512 686.032 21.1078 685.864 20.8263 685.773C20.5447 685.681 20.2388 685.67 19.9499 685.74C19.6611 685.811 19.4033 685.96 19.2118 686.168C19.0202 686.375 18.9041 686.631 18.8793 686.9L18.5308 690.539C18.2577 693.394 17.2976 696.161 15.7174 698.648C14.1372 701.134 11.9749 703.28 9.38111 704.936L6.07508 707.046C5.8303 707.202 5.64448 707.421 5.54288 707.675C5.44128 707.929 5.42883 708.205 5.50721 708.465C5.58558 708.726 5.75099 708.958 5.98096 709.131C6.21093 709.304 6.4943 709.409 6.79256 709.431L10.8283 709.745C13.9944 709.991 17.0628 710.857 19.82 712.282C22.5771 713.707 24.9565 715.657 26.7925 717.996L29.1339 720.98C29.3061 721.201 29.5495 721.369 29.831 721.46C30.1126 721.552 30.4185 721.563 30.7074 721.493C30.9962 721.422 31.2539 721.273 31.4455 721.065C31.6371 720.858 31.7532 720.602 31.778 720.333L32.1258 716.691C32.3988 713.836 33.3589 711.069 34.9391 708.583C36.5193 706.096 38.6816 703.95 41.2754 702.295L44.5843 700.183Z" fill="#5D58FF" fill-opacity="0.8"/>
</g>
<g filter="url(#filter28_f_1_4)">
<path d="M119.615 541.778C119.906 541.716 120.211 541.736 120.49 541.836C120.768 541.936 121.005 542.111 121.169 542.337C121.333 542.562 121.416 542.828 121.407 543.098C121.397 543.368 121.296 543.628 121.117 543.844L118.697 546.777C116.801 549.077 115.483 551.721 114.835 554.527C114.188 557.333 114.227 560.232 114.949 563.023L115.869 566.58C115.938 566.843 115.915 567.118 115.805 567.369C115.694 567.62 115.5 567.834 115.25 567.982C114.999 568.13 114.705 568.205 114.406 568.196C114.106 568.188 113.817 568.097 113.578 567.935L110.327 565.755C107.778 564.045 104.845 562.856 101.734 562.272C98.6224 561.689 95.4075 561.723 92.3128 562.375L88.368 563.205C88.0767 563.267 87.7713 563.246 87.4933 563.146C87.2152 563.046 86.9781 562.872 86.814 562.646C86.6499 562.42 86.5668 562.155 86.5761 561.885C86.5854 561.615 86.6866 561.354 86.8659 561.138L89.2832 558.207C91.1798 555.907 92.4977 553.263 93.145 550.457C93.7924 547.651 93.7536 544.752 93.0314 541.961L92.1097 538.402C92.0408 538.139 92.0633 537.864 92.1741 537.613C92.2849 537.362 92.4786 537.148 92.729 537C92.9793 536.852 93.274 536.777 93.5732 536.786C93.8723 536.794 94.1614 536.885 94.401 537.047L97.653 539.229C100.203 540.94 103.135 542.128 106.247 542.712C109.358 543.296 112.573 543.261 115.668 542.609L119.615 541.778Z" fill="#FDFDFD"/>
</g>
<g filter="url(#filter29_f_1_4)">
<path d="M398.92 483.429C398.354 483.248 397.865 482.913 397.517 482.472C397.17 482.03 396.981 481.503 396.978 480.961C396.974 480.42 397.156 479.89 397.497 479.445C397.839 479 398.325 478.66 398.888 478.473L406.508 475.912C412.482 473.903 417.898 470.744 422.379 466.655C426.861 462.566 430.3 457.645 432.457 452.234L435.207 445.338C435.409 444.828 435.779 444.386 436.269 444.073C436.759 443.759 437.343 443.59 437.944 443.586C438.544 443.583 439.131 443.747 439.625 444.055C440.119 444.363 440.495 444.801 440.703 445.309L443.543 452.175C445.77 457.563 449.273 462.447 453.808 466.489C458.342 470.53 463.799 473.631 469.799 475.576L477.446 478.057C478.011 478.238 478.501 478.573 478.849 479.014C479.196 479.456 479.385 479.983 479.388 480.525C479.392 481.066 479.21 481.596 478.869 482.041C478.527 482.486 478.041 482.826 477.478 483.013L469.864 485.574C463.89 487.583 458.474 490.742 453.992 494.831C449.511 498.92 446.072 503.841 443.915 509.252L441.165 516.153C440.963 516.663 440.592 517.105 440.103 517.418C439.613 517.732 439.028 517.902 438.428 517.905C437.827 517.908 437.24 517.744 436.747 517.436C436.253 517.128 435.877 516.69 435.668 516.182L432.828 509.31C430.601 503.923 427.098 499.039 422.564 494.997C418.03 490.956 412.572 487.855 406.573 485.909L398.92 483.429Z" fill="#FDFDFD"/>
</g>
<defs>
<filter id="filter0_f_1_4" x="387.515" y="84.8242" width="43.3467" height="39.876" filterUnits="userSpaceOnUse" color-interpolation-filters="sRGB">
<feFlood flood-opacity="0" result="BackgroundImageFix"/>
<feBlend mode="normal" in="SourceGraphic" in2="BackgroundImageFix" result="shape"/>
<feGaussianBlur stdDeviation="2" result="effect1_foregroundBlur_1_4"/>
</filter>
<filter id="filter1_f_1_4" x="253.625" y="130.896" width="80.2162" height="73.1255" filterUnits="userSpaceOnUse" color-interpolation-filters="sRGB">
<feFlood flood-opacity="0" result="BackgroundImageFix"/>
<feBlend mode="normal" in="SourceGraphic" in2="BackgroundImageFix" result="shape"/>
<feGaussianBlur stdDeviation="2" result="effect1_foregroundBlur_1_4"/>
</filter>
<filter id="filter2_f_1_4" x="92.0829" y="161.735" width="48.9926" height="44.9673" filterUnits="userSpaceOnUse" color-interpolation-filters="sRGB">
<feFlood flood-opacity="0" result="BackgroundImageFix"/>
<feBlend mode="normal" in="SourceGraphic" in2="BackgroundImageFix" result="shape"/>
<feGaussianBlur stdDeviation="2" result="effect1_foregroundBlur_1_4"/>
</filter>
<filter id="filter3_f_1_4" x="819.737" y="181.483" width="48.9925" height="44.9673" filterUnits="userSpaceOnUse" color-interpolation-filters="sRGB">
<feFlood flood-opacity="0" result="BackgroundImageFix"/>
<feBlend mode="normal" in="SourceGraphic" in2="BackgroundImageFix" result="shape"/>
<feGaussianBlur stdDeviation="2" result="effect1_foregroundBlur_1_4"/>
</filter>
<filter id="filter4_f_1_4" x="365.05" y="721.316" width="48.9926" height="44.9673" filterUnits="userSpaceOnUse" color-interpolation-filters="sRGB">
<feFlood flood-opacity="0" result="BackgroundImageFix"/>
<feBlend mode="normal" in="SourceGraphic" in2="BackgroundImageFix" result="shape"/>
<feGaussianBlur stdDeviation="2" result="effect1_foregroundBlur_1_4"/>
</filter>
<filter id="filter5_f_1_4" x="214.995" y="1.58252" width="47.9094" height="43.9902" filterUnits="userSpaceOnUse" color-interpolation-filters="sRGB">
<feFlood flood-opacity="0" result="BackgroundImageFix"/>
<feBlend mode="normal" in="SourceGraphic" in2="BackgroundImageFix" result="shape"/>
<feGaussianBlur stdDeviation="2" result="effect1_foregroundBlur_1_4"/>
</filter>
<filter id="filter6_f_1_4" x="967.028" y="59.5117" width="47.9094" height="43.9902" filterUnits="userSpaceOnUse" color-interpolation-filters="sRGB">
<feFlood flood-opacity="0" result="BackgroundImageFix"/>
<feBlend mode="normal" in="SourceGraphic" in2="BackgroundImageFix" result="shape"/>
<feGaussianBlur stdDeviation="2" result="effect1_foregroundBlur_1_4"/>
</filter>
<filter id="filter7_f_1_4" x="1489.35" y="228.326" width="40.5049" height="37.313" filterUnits="userSpaceOnUse" color-interpolation-filters="sRGB">
<feFlood flood-opacity="0" result="BackgroundImageFix"/>
<feBlend mode="normal" in="SourceGraphic" in2="BackgroundImageFix" result="shape"/>
<feGaussianBlur stdDeviation="2" result="effect1_foregroundBlur_1_4"/>
</filter>
<filter id="filter8_f_1_4" x="1181.75" y="239.905" width="47.2257" height="43.374" filterUnits="userSpaceOnUse" color-interpolation-filters="sRGB">
<feFlood flood-opacity="0" result="BackgroundImageFix"/>
<feBlend mode="normal" in="SourceGraphic" in2="BackgroundImageFix" result="shape"/>
<feGaussianBlur stdDeviation="2" result="effect1_foregroundBlur_1_4"/>
</filter>
<filter id="filter9_f_1_4" x="631.86" y="41.2051" width="47.2257" height="43.374" filterUnits="userSpaceOnUse" color-interpolation-filters="sRGB">
<feFlood flood-opacity="0" result="BackgroundImageFix"/>
<feBlend mode="normal" in="SourceGraphic" in2="BackgroundImageFix" result="shape"/>
<feGaussianBlur stdDeviation="2" result="effect1_foregroundBlur_1_4"/>
</filter>
<filter id="filter10_f_1_4" x="1307.04" y="1.50439" width="47.7466" height="43.8442" filterUnits="userSpaceOnUse" color-interpolation-filters="sRGB">
<feFlood flood-opacity="0" result="BackgroundImageFix"/>
<feBlend mode="normal" in="SourceGraphic" in2="BackgroundImageFix" result="shape"/>
<feGaussianBlur stdDeviation="2" result="effect1_foregroundBlur_1_4"/>
</filter>
<filter id="filter11_f_1_4" x="1517.79" y="55.6729" width="42.8319" height="39.4116" filterUnits="userSpaceOnUse" color-interpolation-filters="sRGB">
<feFlood flood-opacity="0" result="BackgroundImageFix"/>
<feBlend mode="normal" in="SourceGraphic" in2="BackgroundImageFix" result="shape"/>
<feGaussianBlur stdDeviation="2" result="effect1_foregroundBlur_1_4"/>
</filter>
<filter id="filter12_f_1_4" x="1159.81" y="105.965" width="90.4106" height="82.3184" filterUnits="userSpaceOnUse" color-interpolation-filters="sRGB">
<feFlood flood-opacity="0" result="BackgroundImageFix"/>
<feBlend mode="normal" in="SourceGraphic" in2="BackgroundImageFix" result="shape"/>
<feGaussianBlur stdDeviation="2" result="effect1_foregroundBlur_1_4"/>
</filter>
<filter id="filter13_f_1_4" x="1212.34" y="503.169" width="43.3467" height="39.876" filterUnits="userSpaceOnUse" color-interpolation-filters="sRGB">
<feFlood flood-opacity="0" result="BackgroundImageFix"/>
<feBlend mode="normal" in="SourceGraphic" in2="BackgroundImageFix" result="shape"/>
<feGaussianBlur stdDeviation="2" result="effect1_foregroundBlur_1_4"/>
</filter>
<filter id="filter14_f_1_4" x="1545.17" y="641.11" width="43.3467" height="39.876" filterUnits="userSpaceOnUse" color-interpolation-filters="sRGB">
<feFlood flood-opacity="0" result="BackgroundImageFix"/>
<feBlend mode="normal" in="SourceGraphic" in2="BackgroundImageFix" result="shape"/>
<feGaussianBlur stdDeviation="2" result="effect1_foregroundBlur_1_4"/>
</filter>
<filter id="filter15_f_1_4" x="1309.36" y="423.848" width="80.2162" height="73.1255" filterUnits="userSpaceOnUse" color-interpolation-filters="sRGB">
<feFlood flood-opacity="0" result="BackgroundImageFix"/>
<feBlend mode="normal" in="SourceGraphic" in2="BackgroundImageFix" result="shape"/>
<feGaussianBlur stdDeviation="2" result="effect1_foregroundBlur_1_4"/>
</filter>
<filter id="filter16_f_1_4" x="132.964" y="788.417" width="80.2162" height="73.1255" filterUnits="userSpaceOnUse" color-interpolation-filters="sRGB">
<feFlood flood-opacity="0" result="BackgroundImageFix"/>
<feBlend mode="normal" in="SourceGraphic" in2="BackgroundImageFix" result="shape"/>
<feGaussianBlur stdDeviation="2" result="effect1_foregroundBlur_1_4"/>
</filter>
<filter id="filter17_f_1_4" x="1502.12" y="421.167" width="48.9926" height="44.9673" filterUnits="userSpaceOnUse" color-interpolation-filters="sRGB">
<feFlood flood-opacity="0" result="BackgroundImageFix"/>
<feBlend mode="normal" in="SourceGraphic" in2="BackgroundImageFix" result="shape"/>
<feGaussianBlur stdDeviation="2" result="effect1_foregroundBlur_1_4"/>
</filter>
<filter id="filter18_f_1_4" x="774.47" y="401.419" width="48.9925" height="44.9673" filterUnits="userSpaceOnUse" color-interpolation-filters="sRGB">
<feFlood flood-opacity="0" result="BackgroundImageFix"/>
<feBlend mode="normal" in="SourceGraphic" in2="BackgroundImageFix" result="shape"/>
<feGaussianBlur stdDeviation="2" result="effect1_foregroundBlur_1_4"/>
</filter>
<filter id="filter19_f_1_4" x="1380.29" y="582.297" width="47.9094" height="43.9902" filterUnits="userSpaceOnUse" color-interpolation-filters="sRGB">
<feFlood flood-opacity="0" result="BackgroundImageFix"/>
<feBlend mode="normal" in="SourceGraphic" in2="BackgroundImageFix" result="shape"/>
<feGaussianBlur stdDeviation="2" result="effect1_foregroundBlur_1_4"/>
</filter>
<filter id="filter20_f_1_4" x="1562.57" y="763.453" width="47.9094" height="43.9902" filterUnits="userSpaceOnUse" color-interpolation-filters="sRGB">
<feFlood flood-opacity="0" result="BackgroundImageFix"/>
<feBlend mode="normal" in="SourceGraphic" in2="BackgroundImageFix" result="shape"/>
<feGaussianBlur stdDeviation="2" result="effect1_foregroundBlur_1_4"/>
</filter>
<filter id="filter21_f_1_4" x="628.263" y="524.367" width="47.9094" height="43.9902" filterUnits="userSpaceOnUse" color-interpolation-filters="sRGB">
<feFlood flood-opacity="0" result="BackgroundImageFix"/>
<feBlend mode="normal" in="SourceGraphic" in2="BackgroundImageFix" result="shape"/>
<feGaussianBlur stdDeviation="2" result="effect1_foregroundBlur_1_4"/>
</filter>
<filter id="filter22_f_1_4" x="1292.93" y="807.72" width="47.9094" height="43.9902" filterUnits="userSpaceOnUse" color-interpolation-filters="sRGB">
<feFlood flood-opacity="0" result="BackgroundImageFix"/>
<feBlend mode="normal" in="SourceGraphic" in2="BackgroundImageFix" result="shape"/>
<feGaussianBlur stdDeviation="2" result="effect1_foregroundBlur_1_4"/>
</filter>
<filter id="filter23_f_1_4" x="113.345" y="362.231" width="40.5049" height="37.313" filterUnits="userSpaceOnUse" color-interpolation-filters="sRGB">
<feFlood flood-opacity="0" result="BackgroundImageFix"/>
<feBlend mode="normal" in="SourceGraphic" in2="BackgroundImageFix" result="shape"/>
<feGaussianBlur stdDeviation="2" result="effect1_foregroundBlur_1_4"/>
</filter>
<filter id="filter24_f_1_4" x="414.225" y="344.591" width="47.2256" height="43.374" filterUnits="userSpaceOnUse" color-interpolation-filters="sRGB">
<feFlood flood-opacity="0" result="BackgroundImageFix"/>
<feBlend mode="normal" in="SourceGraphic" in2="BackgroundImageFix" result="shape"/>
<feGaussianBlur stdDeviation="2" result="effect1_foregroundBlur_1_4"/>
</filter>
<filter id="filter25_f_1_4" x="964.114" y="543.29" width="47.2256" height="43.374" filterUnits="userSpaceOnUse" color-interpolation-filters="sRGB">
<feFlood flood-opacity="0" result="BackgroundImageFix"/>
<feBlend mode="normal" in="SourceGraphic" in2="BackgroundImageFix" result="shape"/>
<feGaussianBlur stdDeviation="2" result="effect1_foregroundBlur_1_4"/>
</filter>
<filter id="filter26_f_1_4" x="288.413" y="582.521" width="47.7466" height="43.8442" filterUnits="userSpaceOnUse" color-interpolation-filters="sRGB">
<feFlood flood-opacity="0" result="BackgroundImageFix"/>
<feBlend mode="normal" in="SourceGraphic" in2="BackgroundImageFix" result="shape"/>
<feGaussianBlur stdDeviation="2" result="effect1_foregroundBlur_1_4"/>
</filter>
<filter id="filter27_f_1_4" x="1.45636" y="681.694" width="47.7466" height="43.8442" filterUnits="userSpaceOnUse" color-interpolation-filters="sRGB">
<feFlood flood-opacity="0" result="BackgroundImageFix"/>
<feBlend mode="normal" in="SourceGraphic" in2="BackgroundImageFix" result="shape"/>
<feGaussianBlur stdDeviation="2" result="effect1_foregroundBlur_1_4"/>
</filter>
<filter id="filter28_f_1_4" x="82.5754" y="532.785" width="42.8319" height="39.4116" filterUnits="userSpaceOnUse" color-interpolation-filters="sRGB">
<feFlood flood-opacity="0" result="BackgroundImageFix"/>
<feBlend mode="normal" in="SourceGraphic" in2="BackgroundImageFix" result="shape"/>
<feGaussianBlur stdDeviation="2" result="effect1_foregroundBlur_1_4"/>
</filter>
<filter id="filter29_f_1_4" x="392.978" y="439.586" width="90.4106" height="82.3184" filterUnits="userSpaceOnUse" color-interpolation-filters="sRGB">
<feFlood flood-opacity="0" result="BackgroundImageFix"/>
<feBlend mode="normal" in="SourceGraphic" in2="BackgroundImageFix" result="shape"/>
<feGaussianBlur stdDeviation="2" result="effect1_foregroundBlur_1_4"/>
</filter>
</defs>
</svg>
