<svg width="45" height="46" viewBox="0 0 45 46" fill="none" xmlns="http://www.w3.org/2000/svg">
<path d="M22.5 44.3202C11.6767 44.3202 0 37.5314 0 22.6348C0 7.73829 11.6767 0.949493 22.5 0.949493C28.5129 0.949493 34.0603 2.92794 38.1724 6.5357C42.6336 10.4926 45 16.0788 45 22.6348C45 29.1909 42.6336 34.7383 38.1724 38.6952C34.0603 42.3029 28.4741 44.3202 22.5 44.3202Z" fill="url(#paint0_radial_26_289)"/>
<path d="M22.5 44.3202C11.6767 44.3202 0 37.5314 0 22.6348C0 7.73829 11.6767 0.949493 22.5 0.949493C28.5129 0.949493 34.0603 2.92794 38.1724 6.5357C42.6336 10.4926 45 16.0788 45 22.6348C45 29.1909 42.6336 34.7383 38.1724 38.6952C34.0603 42.3029 28.4741 44.3202 22.5 44.3202Z" fill="url(#paint1_linear_26_289)"/>
<path d="M41.0781 9.74387C43.1458 13.0801 44.2242 17.0525 44.2242 21.471C44.2242 28.0271 41.8578 33.5745 37.3966 37.5314C33.2846 41.1391 27.6983 43.1564 21.7242 43.1564C14.7182 43.1564 7.37076 40.3051 3.03369 34.2572C7.20783 41.1081 15.0596 44.3202 22.5001 44.3202C28.4742 44.3202 34.0604 42.3029 38.1725 38.6952C42.6337 34.7383 45.0001 29.1908 45.0001 22.6348C45.0001 17.6926 43.6539 13.3012 41.0781 9.74387Z" fill="#EB8F00"/>
<path opacity="0.66" d="M0.341309 27.3715C0.72924 26.359 2.44389 26.3434 3.71243 26.9564C6.16803 28.1473 5.87708 30.7542 7.10683 31.274C8.33657 31.7939 12.2198 28.609 17.6779 28.1047C18.2909 28.0465 21.9103 27.5926 22.2672 29.1133C22.4068 29.7146 21.3827 29.8309 21.3827 29.8309C19.1637 30.6534 16.906 31.4913 14.9198 32.7909C12.6659 34.2611 10.6952 36.3404 8.07665 36.9534C7.05639 37.19 5.90424 37.1551 5.07407 36.5228C4.04217 35.7469 3.81329 34.3232 3.437 33.0857C3.00639 31.6697 2.29648 30.3508 1.35769 29.2064" fill="url(#paint2_linear_26_289)"/>
<path d="M0.294933 27.3676C-0.411102 28.2249 1.09019 30.502 1.35786 31.662C2.00183 34.4628 1.35786 35.1533 1.30743 37.6438C1.26476 40.3826 2.08329 42.687 4.17036 44.1572C6.1333 45.5499 8.29407 45.7089 11.3199 44.8167C14.3458 43.9245 16.3902 43.4938 16.5454 42.0042C16.6307 41.3874 16.3048 40.7822 15.7385 40.5184C16.0411 40.3749 16.2816 40.1305 16.4173 39.824C17.1389 38.1016 15.6997 37.737 15.6997 37.737C15.8975 37.5003 16.0643 37.2404 16.1962 36.9611C16.6268 36.1038 16.557 34.94 15.3156 34.5598C14.7454 34.3852 14.5902 34.4783 14.5902 34.4783C15.1798 33.8732 15.8859 33.3882 16.6656 33.0624C18.7527 32.1663 21.2277 31.6232 21.8445 31.0995C22.7406 30.3236 22.7949 28.8301 21.2122 28.3839C18.9389 27.7167 14.757 29.2684 12.2122 30.8861C9.66735 32.5038 7.332 33.3766 6.55614 33.0818C5.78028 32.787 5.29924 32.3059 5.00442 31.1421C4.45743 28.9775 4.03459 28.1395 3.10743 27.3288C2.33933 26.6693 0.838036 26.7081 0.294933 27.3676Z" fill="url(#paint3_radial_26_289)"/>
<path d="M12.9104 35.7779C12.9104 35.7779 12.3402 35.39 14.6173 33.5706C16.169 32.3253 17.0652 32.1003 18.9234 31.6309C22.6785 30.7115 22.4419 29.5284 22.4419 29.5284C22.6436 31.2702 20.9212 31.6581 19.6604 32.0538C19.5285 32.0926 19.4044 32.143 19.2725 32.174C14.9548 33.2758 13.4458 36.1232 12.9104 35.7779Z" fill="url(#paint4_linear_26_289)"/>
<path d="M16.4482 40.0956C16.7857 39.537 16.8788 38.8581 16.7004 38.2296C16.5762 37.8611 16.3396 37.5391 16.0176 37.318C16.0642 37.2559 16.1107 37.1978 16.1534 37.1279C16.4987 36.5887 16.5491 35.9098 16.2892 35.324C15.9943 34.8624 15.5133 34.5559 14.9741 34.4861C15.3426 34.6646 15.6181 34.9943 15.7267 35.39C15.7887 35.8671 15.7189 36.3559 15.5327 36.7982C15.2844 37.4034 14.7297 37.8262 14.0818 37.9115C13.1431 38.0978 13.4301 38.4857 13.4301 38.4857C13.5116 38.796 14.6211 38.509 15.4629 37.8805C15.6995 38.0046 15.878 38.218 15.9633 38.4702C16.0525 38.862 15.9982 39.2771 15.812 39.634C15.5521 40.2042 15.0478 40.6309 14.4426 40.7978C13.6086 41.0266 13.8374 41.3331 13.8374 41.3331C13.8374 41.3331 13.8762 41.9926 15.5909 40.9064C15.7926 41.2943 16.0603 42.1594 15.5249 42.718C13.7094 44.6305 8.35986 45.3676 8.35986 45.3676C11.0754 45.3676 14.8073 44.3202 15.9633 43.362C16.4133 43.009 16.6771 42.4736 16.681 41.9034C16.7314 41.3719 16.5336 40.8443 16.1495 40.4719C16.2581 40.3555 16.359 40.2314 16.4482 40.0956Z" fill="url(#paint5_linear_26_289)"/>
<path d="M27.6479 25.8973C27.5237 25.874 27.4074 25.8236 27.3104 25.7421C25.5608 24.3378 23.4737 23.4223 21.2587 23.0809C19.0436 22.6969 16.7703 22.9064 14.6638 23.6861C14.5475 23.7326 14.4233 23.7482 14.2992 23.7288C14.0276 23.6822 13.8065 23.4805 13.7328 23.2128C13.6591 22.949 13.7483 22.6697 13.9578 22.4951C18.0699 19.0814 24.1681 19.6477 27.5819 23.7598C27.8612 24.0973 28.1173 24.4542 28.35 24.8227C28.4975 25.0516 28.4975 25.3464 28.35 25.5753C28.1987 25.812 27.9233 25.9361 27.6479 25.8973Z" fill="#422B0D"/>
<path d="M29.1608 10.3025C30.7863 10.3025 32.2643 11.6758 32.2643 13.9568C32.2643 16.2378 30.7863 17.6072 29.1608 17.6072C27.5354 17.6072 26.0574 16.234 26.0574 13.9568C26.0574 11.6796 27.5354 10.3025 29.1608 10.3025Z" fill="#422B0D"/>
<path d="M15.7267 6.76843C14.1013 6.76843 12.6233 8.14171 12.6233 10.4189C12.6233 12.696 14.1013 14.0732 15.7267 14.0732C17.356 14.0732 18.8302 12.6999 18.8302 10.4189C18.8302 8.13783 17.356 6.76843 15.7267 6.76843Z" fill="#422B0D"/>
<path d="M13.2402 2.35766C13.0656 2.07059 13.0423 1.71369 13.1781 1.40723C13.3255 1.10076 13.6165 0.891281 13.954 0.848609C16.0682 0.518867 18.2251 1.0193 19.9785 2.24128C20.6342 2.69128 21.2161 3.23438 21.7087 3.85895C21.7398 3.89775 21.7669 3.94042 21.7941 3.98697C22.0579 4.39818 21.9686 4.94128 21.5885 5.24775C21.1811 5.58525 20.5837 5.57361 20.1919 5.21671L20.3548 4.95292L20.157 5.18568C18.4579 3.76585 16.332 2.95507 14.1208 2.88913C13.7523 2.88913 13.4109 2.69516 13.2247 2.37706L13.2402 2.35766Z" fill="#422B0D"/>
<path d="M33.9052 9.29775C34.1923 9.1387 34.3863 8.84775 34.425 8.52189C34.4483 8.18439 34.3048 7.85852 34.0371 7.65292C32.3574 6.31456 30.2238 5.67447 28.0863 5.8762C27.2949 5.94214 26.519 6.12835 25.7819 6.42706L25.6423 6.49301C25.2117 6.72189 25.0216 7.23783 25.2 7.69171C25.3901 8.18439 25.9061 8.4637 26.422 8.3512V8.04085L26.4763 8.34344C28.6488 7.93999 30.8949 8.27749 32.8539 9.30163C33.1759 9.48395 33.5677 9.48395 33.8897 9.30163L33.9052 9.29775Z" fill="#422B0D"/>
<defs>
<radialGradient id="paint0_radial_26_289" cx="0" cy="0" r="1" gradientUnits="userSpaceOnUse" gradientTransform="translate(22.5 22.6348) scale(22.0964)">
<stop offset="0.5" stop-color="#FDE030"/>
<stop offset="0.92" stop-color="#F7C02B"/>
<stop offset="1" stop-color="#F4A223"/>
</radialGradient>
<linearGradient id="paint1_linear_26_289" x1="22.5" y1="44.3202" x2="22.5" y2="0.949493" gradientUnits="userSpaceOnUse">
<stop stop-color="#F4A223"/>
<stop offset="0.08" stop-color="#F7C02B"/>
<stop offset="0.54" stop-color="#FDE030" stop-opacity="0"/>
</linearGradient>
<linearGradient id="paint2_linear_26_289" x1="11.3948" y1="39.5137" x2="11.2978" y2="26.5646" gradientUnits="userSpaceOnUse">
<stop stop-color="#BF360C"/>
<stop offset="1" stop-color="#BF360C" stop-opacity="0.2"/>
</linearGradient>
<radialGradient id="paint3_radial_26_289" cx="0" cy="0" r="1" gradientUnits="userSpaceOnUse" gradientTransform="translate(13.9074 30.5529) scale(22.9694 21.5912)">
<stop offset="0.27" stop-color="#FFF176"/>
<stop offset="1" stop-color="#FFC400"/>
</radialGradient>
<linearGradient id="paint4_linear_26_289" x1="13.0661" y1="34.9449" x2="22.8381" y2="30.0919" gradientUnits="userSpaceOnUse">
<stop offset="0.13" stop-color="#DA6727"/>
<stop offset="1" stop-color="#FFC400"/>
</linearGradient>
<linearGradient id="paint5_linear_26_289" x1="12.5608" y1="44.5801" x2="12.6423" y2="29.8503" gradientUnits="userSpaceOnUse">
<stop offset="0.13" stop-color="#DA6727"/>
<stop offset="1" stop-color="#FFC400"/>
</linearGradient>
</defs>
</svg>
