<svg width="547" height="465" viewBox="0 0 547 465" fill="none" xmlns="http://www.w3.org/2000/svg">
<path d="M399.756 251.022C402.65 254.157 414.567 248.689 423.974 244.305C431.023 241.029 459.23 229.455 473.251 223.452C477.036 221.833 482.543 219.717 486.507 214.504C490.025 209.864 499.355 190.159 480.567 170.198C461.499 149.932 441.857 155.527 434.515 160.728C430.194 163.787 426.676 170.683 425.096 174.188C418.417 188.999 408.895 216.136 405.02 226.804C402.178 234.669 396.888 247.912 399.756 251.022Z" fill="#FFC107"/>
<path d="M423.209 178.649C423.388 180.867 423.834 184.474 425.363 191.421C426.409 196.188 428.116 201.184 429.506 204.486C433.674 214.415 439.524 218.417 445.451 221.629C455.521 227.085 462.366 228.104 462.366 228.104L454.157 231.457C454.157 231.457 449.186 230.424 442.405 227.085C435.943 223.898 429.213 218.506 424.293 207.953C422.164 203.377 420.928 198.941 420.214 195.423C419.334 191.064 419.194 188.591 419.194 188.591L423.209 178.649Z" fill="#FF8F00"/>
<path d="M413.127 204.498C413.127 204.498 414.147 212.77 420.979 223.209C428.983 235.42 440.162 237.421 440.162 237.421L432.731 240.48C432.731 240.48 424.433 237.944 416.543 227.173C411.623 220.456 410.246 212.426 410.246 212.426L413.127 204.498Z" fill="#FF8F00"/>
<path d="M406.053 224.102C406.053 224.102 407.914 231.24 411.993 236.568C416.849 242.928 423.031 244.776 423.031 244.776L417.333 247.3C417.333 247.3 413.012 246.395 408.283 240.404C404.689 235.854 403.669 230.628 403.669 230.628L406.053 224.102Z" fill="#FF8F00"/>
<path opacity="0.44" d="M402.956 242.227C402.701 241.653 402.701 241.003 402.968 240.442L435.433 173.117L440.774 193.192L406.614 242.533C405.696 243.909 403.631 243.731 402.956 242.227Z" fill="#FFFDE7"/>
<path d="M443.348 199.935C458.516 217.678 475.787 215.46 481.536 210.973C487.297 206.474 491.848 191.013 476.743 173.563C460.912 155.285 442.991 160.498 438.849 164.449C434.706 168.401 429.429 183.658 443.348 199.935Z" fill="url(#paint0_linear_208_2128)"/>
<path d="M495.442 207.239C489.91 202.599 486.966 203.427 483.014 205.072C477.916 207.188 469.899 208.755 459.013 205.072L462.289 197.182C468.751 199.361 473.429 198.303 477.47 195.92C482.67 192.861 489.783 188.667 500.846 197.959C505.461 201.834 510.189 204.409 513.656 203.236C516.18 202.395 517.518 198.635 518.194 195.639C518.258 195.372 518.36 194.607 518.436 193.931C519.048 189.254 520.068 179.159 527.588 173.996C535.631 168.477 544.082 168.477 544.082 168.477L545.611 183.671C541.723 183.097 539.021 183.887 536.74 185.149C528.149 189.929 535.631 208.284 522.26 214.453C509.399 220.431 498.883 210.119 495.442 207.239Z" fill="#03A9F4"/>
<path d="M448.128 187.864L442.596 182.906C452.755 171.562 450.078 163.226 448.128 157.159C447.733 155.935 447.363 154.775 447.121 153.666C446.254 149.74 446.076 146.324 446.344 143.342C442.443 138.486 440.723 133.4 440.608 133.056C438.237 125.88 440.021 118.882 444.113 112.318C452.385 98.9978 467.362 98.9978 467.362 98.9978L472.359 112.369C468.56 112.216 456.107 112.407 452.283 118.436C447.453 126.033 450.626 130.723 450.856 131.258C451.786 130.048 452.729 129.079 453.571 128.327C459.676 122.91 464.979 122.132 468.356 122.438C472.155 122.782 475.596 124.694 478.056 127.83C480.746 131.271 481.855 135.745 481.001 139.811C480.172 143.775 477.534 147.127 473.57 149.256C466.648 152.978 460.887 152.468 457.025 151.181C457.05 151.27 457.063 151.372 457.089 151.461C457.229 152.098 457.509 152.991 457.841 154.023C460.097 161.008 464.29 172.097 448.128 187.864ZM457.497 140.028C458.236 140.563 459.013 141.009 459.816 141.328C462.493 142.399 465.412 142.042 468.726 140.257C470.676 139.212 470.906 138.09 470.982 137.721C471.211 136.612 470.829 135.197 470.001 134.139C469.274 133.209 468.433 132.724 467.426 132.622C465.514 132.457 462.926 133.667 460.339 135.975C459.103 137.083 458.159 138.447 457.497 140.028Z" fill="#F44336"/>
<path d="M470.268 189.942L462.353 189.725C462.353 189.725 466.113 168.49 478.286 164.921C480.567 164.258 483.065 163.583 485.576 163.213C487.068 162.984 489.426 162.639 490.586 162.206C490.853 160.205 490.012 157.656 489.069 154.762C488.33 152.519 487.565 150.212 487.157 147.688C486.367 142.768 487.68 138.422 490.853 135.426C494.728 131.794 500.987 130.634 508.048 132.24C512.076 133.157 515.046 135.133 517.659 136.867C521.393 139.352 523.573 140.614 528.136 137.542C533.655 133.82 526.441 119.251 522.604 110.839L536.918 104.874C538.843 109.08 548.135 130.723 542.004 143.074C539.939 147.229 536.383 149.982 531.718 151.015C521.572 153.284 515.632 149.332 511.298 146.452C509.246 145.088 507.449 144.017 505.499 143.456C491.95 139.594 510.865 159.529 502.006 168.49C496.691 173.856 483.703 175.271 482.861 175.475C474.5 177.489 470.268 189.942 470.268 189.942Z" fill="#F48FB1"/>
<path d="M446.331 143.342C446.089 146.146 445.974 147.816 446.7 151.461C450.206 154.036 457.841 154.036 457.841 154.036C457.509 153.003 457.216 152.111 457.089 151.474C457.063 151.384 457.05 151.282 457.025 151.193C449.262 147.318 446.331 143.342 446.331 143.342Z" fill="#C92B27"/>
<path d="M430.449 155.896L417.27 149.434L423.834 139.951L434.171 146.796L430.449 155.896Z" fill="#FFC107"/>
<path d="M411.024 138.001C404.294 137.096 397.436 131.386 396.684 130.736L403.3 122.973C405.301 124.669 409.545 127.511 412.388 127.893L411.024 138.001Z" fill="#FB8C00"/>
<path d="M422.903 121.01L413.216 117.837C414.325 114.446 414.618 110.788 414.045 107.257L424.114 105.638C424.943 110.762 424.522 116.078 422.903 121.01Z" fill="#03A9F4"/>
<path d="M483.401 113.433L493.362 111.254L496.238 124.403L486.277 126.582L483.401 113.433Z" fill="#FB8C00"/>
<path d="M508.112 116.549L501.101 109.144C504.772 105.664 505.613 101.114 505.613 101.063L515.683 102.707C515.556 103.51 514.268 110.724 508.112 116.549Z" fill="#FFC107"/>
<path d="M512.007 155.822L520.913 153.038L523.955 162.771L515.049 165.555L512.007 155.822Z" fill="#FB8C00"/>
<path d="M514.6 237.97L504.466 236.772C504.9 233.164 502.21 228.741 501.471 227.76L509.629 221.642C510.24 222.445 515.556 229.799 514.6 237.97Z" fill="#F44336"/>
<path d="M543.686 225.045C539.875 224.471 535.975 224.242 532.126 224.382L531.781 214.185C536.255 214.032 540.78 214.287 545.203 214.963L543.686 225.045Z" fill="#FB8C00"/>
<path d="M529.976 239.081L537.141 231.825L547 241.56L539.836 248.816L529.976 239.081Z" fill="#F48FB1"/>
<path d="M508.926 174.622L516.293 183.046L507.87 190.413L500.503 181.989L508.926 174.622Z" fill="#F44336"/>
<path d="M317.215 227.904C318.417 231.91 329.76 249.495 334.079 255.117C338.397 260.74 348.504 297.496 347.968 303.241C347.474 309.004 324.869 303.783 320.955 313.071C317.041 322.358 283.753 254.024 277.487 257.814C271.251 261.592 276.27 274.013 273.977 263.948C271.683 253.884 289.731 297.496 289.731 297.496L275.035 285.909L247.846 301.554C247.846 301.554 215.274 241.58 220.096 253.021C224.919 264.463 239.251 283.113 234.822 290.27C229.876 298.264 207.899 306.547 200.625 303.241C193.352 299.936 188.87 276.507 181.502 267.2C174.135 257.893 202.929 328.632 202.929 328.632L132.808 228.473L128.301 180.633C128.301 180.633 126.389 174.94 125.242 169.908C124.095 164.876 125.632 151.104 125.826 148.014C126.019 144.924 219.257 87.2874 219.257 87.2874L251.469 64.9009L246.615 52.9729L306.656 34.2881L341.368 60.0993L375.846 120.271C375.846 120.271 393.459 139.606 393.67 145.556C393.881 151.505 393.948 167.924 386.616 174.55C379.284 181.175 363.391 192.256 363.391 192.256L347.968 212.21C347.968 212.21 333.008 211.468 325.177 216.993C314.879 224.259 317.215 227.904 317.215 227.904Z" fill="#878787"/>
<path d="M299.104 7.84315C308.897 6.44428 334.386 17.4186 342.203 28.3033C350.019 39.188 354.241 68.4597 358.765 75.8342C364.479 85.1323 380.812 107.905 387.117 121.462C393.422 135.019 386.764 149.687 386.764 149.687L375.165 152.216C375.165 152.216 356.975 104.062 352.219 98.1444C347.447 92.2704 341.277 90.5134 341.277 90.5134C341.277 90.5134 333.214 65.3856 317.605 56.3211C301.996 47.2566 282.26 46.5956 270.712 50.4197C259.165 54.2437 249.84 61.452 249.84 61.452C249.84 61.452 239.759 44.0675 247.649 31.8395C256.614 17.9899 292.122 8.83667 299.104 7.84315Z" fill="#BEBEBE"/>
<path d="M257.91 221.509C257.91 221.509 254.804 235.236 243.674 239.233C232.544 243.229 212.639 238.792 201.963 235.263C191.287 231.734 163.671 221.408 155.135 215.888C146.6 210.368 140.457 204.379 135.635 195.95C130.488 186.991 128.903 181.446 128.903 181.446C128.903 181.446 119.688 188.849 113.803 204.213C109.447 215.622 104.512 228.321 108.898 253.686C113.285 279.052 117.398 292.812 117.218 295.558C117.038 298.305 114.494 307.692 112.519 313.589C109.866 321.461 106.096 326.494 104.712 326.865C100.768 327.639 96.7628 329.435 92.1052 333.017C87.4476 336.599 83.7482 347.571 81.6894 353.435C79.0035 361.144 75.5856 367.688 76.0238 368.736C76.9254 370.891 93.4723 365.211 106.691 351.996C114.85 343.822 114.652 332.146 114.652 332.146C114.652 332.146 120.372 322.827 123.467 316.179C125.128 312.626 127.451 306.892 127.451 306.892C127.451 306.892 132.968 314.477 138.215 320.831C144.22 328.161 150.943 337.124 154.439 347.819C157.934 358.514 158.565 372.982 158.057 384.726C157.549 396.47 158.18 410.938 167.276 417.379C176.373 423.82 200.807 429.887 207.55 418.332C211.705 411.208 208.309 392.471 206.607 381.967C204.905 371.463 204.553 347.629 204.607 344.832C204.673 342.065 206.738 331.116 206.738 331.116C206.738 331.116 224.17 324.542 240.87 316.803C257.57 309.064 266.617 303.016 266.617 303.016C266.617 303.016 289.206 321.142 299.712 332.709C310.218 344.276 321.85 363.3 327.351 367.586C332.852 371.872 342.362 379.301 361.996 368.042C378.082 358.837 377.121 346.508 377.121 346.508C377.121 346.508 374.981 334.956 360.303 317.512C345.624 300.068 330.073 283.548 318.719 269.873C314.766 265.106 309.012 256.703 309.012 256.703C309.012 256.703 315.294 237.607 315.711 235.678C316.128 233.749 318.366 228.481 318.366 228.481L317.656 225.28C317.656 225.28 307.326 230.518 293.328 232.175C272.092 234.84 257.91 221.509 257.91 221.509Z" fill="#BEBEBE"/>
<path d="M220.17 76.9395C220.17 76.9395 202.669 63.4025 193.625 66.1421C184.581 68.8817 155.396 78.3056 143.18 90.1184C137.042 96.0381 126.817 121.902 125.245 133.461C123.724 144.64 121.886 159.413 130.075 173.461C138.222 187.492 142.379 185.627 143.909 189.282C145.438 192.938 147.7 202.278 155.951 206.263C164.202 210.249 167.807 201.622 173.285 204.503C178.762 207.384 182.385 219.139 189.57 222.25C196.784 225.348 207.085 220.088 212.617 221.593C218.191 223.114 224.096 234.129 235.575 231.685C247.042 229.212 246.694 216.664 241.65 195.904C236.564 175.127 224.759 142.561 229.645 140.512C234.648 138.41 236.874 148.834 241.7 162.042C246.784 175.952 253.938 206.441 268.143 214.446C282.348 222.451 294.138 223.177 304.33 219.246C314.534 215.346 321.028 204 325.802 202.856C330.576 201.711 330.292 208.314 339.917 211.648C349.907 215.103 358.183 219.148 362.751 223.789C367.319 228.43 378.249 237.228 383.006 249.434C387.764 261.641 386.142 268.311 380.96 269.318C375.766 270.295 372.98 255.853 367.593 255.03C362.589 254.286 354.355 264.988 361.44 281.168C368.525 297.348 389.86 304.148 408.241 287.4C427.685 269.677 416.389 234.392 403.997 218.92C391.605 203.447 383.452 190.238 379.062 180.499C374.685 170.791 376.507 163.178 372.748 156.537C368.976 149.866 369.1 147.818 363.544 135.294C357.989 122.769 351.84 104.141 347.454 100.771C343.097 97.3874 336.933 94.4582 336.933 94.4582C336.933 94.4582 331.23 73.2109 320.959 64.9004C305.056 51.9995 284.485 51.5464 263.991 58.3894C243.501 65.1592 220.17 76.9395 220.17 76.9395Z" fill="#BEBEBE"/>
<path d="M283.882 167.722C278.478 170.128 272.16 167.482 269.77 161.812C267.38 156.141 269.823 149.594 275.227 147.188C280.631 144.783 286.949 147.429 289.339 153.099C291.729 158.77 289.286 165.317 283.882 167.722Z" fill="#340B67"/>
<path d="M318.147 199.49C314.48 194.257 303.34 189.454 298.377 194.024C295.19 196.945 296.6 207.224 300.33 212.607C304.06 217.991 311.157 220.052 317.194 214.647C323.244 209.271 320.445 202.794 318.147 199.49Z" fill="#FAE9AE"/>
<path d="M394.895 129.062C399.321 133.207 395.532 143.368 392.602 149.214C389.673 155.059 382.804 166.664 380.644 169.628C378.484 172.592 375.888 174.606 375.888 174.606C375.888 174.606 374.092 162.997 372.785 159.896C371.478 156.795 368.653 150.507 368.653 150.507C368.653 150.507 375.294 141.829 379.535 137.939C383.762 134.019 391.138 125.514 394.895 129.062Z" fill="#FAE9AE"/>
<path d="M236.209 158.898C236.209 158.898 241.529 156.226 243.704 160.566C249.069 171.272 260.463 194.29 287.736 179.856C309.574 168.298 314.197 151.191 309.531 137.458C307.586 131.754 306.473 124.989 311.713 122.216C316.952 119.443 321.657 124.291 325.052 129.243C333.232 141.117 349.467 147.184 371.305 135.626C398.59 121.185 386.97 98.271 381.611 87.5774C379.437 83.2371 384.644 80.3381 384.644 80.3381L379.33 69.7326C379.33 69.7326 368.418 73.4862 352.982 81.6558C337.546 89.8253 331.401 93.0776 319.741 100.84C312.873 105.43 305.358 109.503 305.358 109.503C305.358 109.503 297.768 113.425 290.143 116.506C277.235 121.746 271.077 125.004 255.641 133.174C240.206 141.343 230.895 148.293 230.895 148.293L236.209 158.898Z" fill="#1A1A1A"/>
<path d="M257.532 136.948C247.507 142.254 240.069 147.067 236.238 149.683L238.349 153.898C241.88 153.494 245.473 154.823 247.376 158.623L247.446 158.761C250.018 163.894 253.901 171.644 260.039 176.29C267.078 181.621 275.513 181.55 285.845 176.082C303.068 166.966 310.469 153.053 305.63 138.854C301.301 126.103 305.525 120.716 309.821 118.442C314.13 116.162 320.838 115.763 328.423 126.79C336.885 139.072 352.203 140.961 369.414 131.852C379.745 126.384 384.695 119.355 384.567 110.383C384.445 102.536 380.562 94.7865 377.996 89.6662L377.927 89.5278C376.017 85.7159 377.069 81.9436 379.427 79.2313L377.315 75.0168C373.03 76.6958 364.898 80.1242 354.873 85.4303C339.302 93.6711 333.476 96.7549 321.993 104.408C315.039 109.043 307.604 113.09 307.286 113.258L307.249 113.278L307.212 113.297C306.894 113.466 299.371 117.336 291.66 120.462C278.942 125.617 273.115 128.701 257.532 136.948ZM255.641 133.174C271.077 125.005 277.222 121.752 290.13 116.512C297.767 113.425 305.358 109.504 305.358 109.504C305.358 109.504 312.873 105.431 319.741 100.841C331.389 93.0844 337.546 89.8256 352.97 81.6625C368.406 73.493 379.317 69.7393 379.317 69.7393L384.631 80.3448C384.631 80.3448 379.424 83.2439 381.599 87.5842C386.97 98.2713 398.59 121.185 371.305 135.626C349.467 147.184 333.232 141.117 325.064 129.236C321.676 124.297 316.964 119.437 311.725 122.21C306.486 124.983 307.592 131.735 309.543 137.451C314.21 151.185 309.586 168.292 287.748 179.849C260.475 194.284 249.075 171.253 243.716 160.56C241.542 156.219 236.221 158.892 236.221 158.892L230.907 148.286C230.895 148.293 240.218 141.337 255.641 133.174Z" fill="#1A1A1A"/>
<path d="M367.643 102.993C368.771 104.943 370.507 106.395 372.64 105.736C372.88 105.656 373.114 105.563 373.336 105.445C375.035 104.541 375.926 102.515 375.384 100.586C374.195 96.451 371.635 93.3465 368.164 91.8513C364.909 90.4469 361.224 90.6174 358.035 92.3138C356.052 93.3683 354.915 95.5568 355.92 97.5723C357.106 99.9508 359.465 99.9632 361.679 99.6245C363.746 99.3013 366.272 100.618 367.643 102.993Z" fill="#858585"/>
<path d="M288.994 144.619C290.122 146.569 291.859 148.021 293.991 147.362C294.232 147.281 294.466 147.188 294.687 147.071C296.387 146.167 297.277 144.141 296.736 142.211C295.547 138.077 292.987 134.972 289.515 133.477C286.26 132.072 282.575 132.243 279.386 133.939C277.404 134.994 276.267 137.182 277.272 139.198C278.458 141.576 280.816 141.589 283.031 141.25C285.097 140.927 287.623 142.244 288.994 144.619Z" fill="#858585"/>
<defs>
<linearGradient id="paint0_linear_208_2128" x1="485.072" y1="172.72" x2="447.13" y2="195.485" gradientUnits="userSpaceOnUse">
<stop offset="0.0235" stop-color="#8F4700"/>
<stop offset="1" stop-color="#703E2D"/>
</linearGradient>
</defs>
</svg>
