<svg width="1528" height="1510" viewBox="0 0 1528 1510" fill="none" xmlns="http://www.w3.org/2000/svg">
<path d="M15.7192 5.27206C15.7442 5.02332 15.8451 4.7883 16.0083 4.59893C16.1715 4.40956 16.3891 4.27503 16.6314 4.21363C16.8737 4.15223 17.1291 4.16693 17.3628 4.25573C17.5965 4.34453 17.7971 4.50313 17.9375 4.70998L19.8465 7.50622C21.3434 9.69821 23.3002 11.5375 25.5807 12.8959C27.8611 14.2543 30.4102 15.0991 33.0506 15.3716L36.4161 15.7193C36.6648 15.7443 36.8999 15.8452 37.0892 16.0084C37.2786 16.1716 37.4131 16.3892 37.4745 16.6315C37.5359 16.8738 37.5212 17.1292 37.4324 17.3629C37.3436 17.5966 37.185 17.7973 36.9782 17.9377L34.1843 19.846C31.9923 21.3429 30.153 23.2998 28.7946 25.5802C27.4362 27.8606 26.5914 30.4098 26.3189 33.0501L25.9712 36.4156C25.9462 36.6644 25.8453 36.8994 25.6821 37.0887C25.5189 37.2781 25.3013 37.4126 25.059 37.474C24.8167 37.5354 24.5613 37.5208 24.3276 37.4319C24.0939 37.3431 23.8933 37.1845 23.7529 36.9777L21.8445 34.1838C20.3476 31.9918 18.3907 30.1526 16.1103 28.7942C13.8299 27.4358 11.2808 26.5909 8.64043 26.3184L5.27254 25.9713C5.0238 25.9464 4.78877 25.8454 4.5994 25.6822C4.41003 25.519 4.27551 25.3015 4.2141 25.0591C4.1527 24.8168 4.1674 24.5614 4.2562 24.3277C4.34501 24.0941 4.50361 23.8934 4.71045 23.753L7.50669 21.844C9.69868 20.3471 11.5379 18.3903 12.8963 16.1099C14.2547 13.8294 15.0996 11.2803 15.3721 8.63996L15.7192 5.27206Z" fill="#FDFDFD"/>
<path d="M272.719 323.272C272.744 323.023 272.845 322.788 273.008 322.599C273.172 322.41 273.389 322.275 273.631 322.214C273.874 322.152 274.129 322.167 274.363 322.256C274.596 322.345 274.797 322.503 274.938 322.71L276.847 325.506C278.343 327.698 280.3 329.537 282.581 330.896C284.861 332.254 287.41 333.099 290.051 333.372L293.416 333.719C293.665 333.744 293.9 333.845 294.089 334.008C294.279 334.172 294.413 334.389 294.475 334.632C294.536 334.874 294.521 335.129 294.432 335.363C294.344 335.597 294.185 335.797 293.978 335.938L291.184 337.846C288.992 339.343 287.153 341.3 285.795 343.58C284.436 345.861 283.591 348.41 283.319 351.05L282.971 354.416C282.946 354.664 282.845 354.899 282.682 355.089C282.519 355.278 282.301 355.413 282.059 355.474C281.817 355.535 281.561 355.521 281.328 355.432C281.094 355.343 280.893 355.185 280.753 354.978L278.844 352.184C277.348 349.992 275.391 348.153 273.11 346.794C270.83 345.436 268.281 344.591 265.64 344.318L262.273 343.971C262.024 343.946 261.789 343.845 261.599 343.682C261.41 343.519 261.276 343.301 261.214 343.059C261.153 342.817 261.167 342.561 261.256 342.328C261.345 342.094 261.504 341.893 261.71 341.753L264.507 339.844C266.699 338.347 268.538 336.39 269.896 334.11C271.255 331.829 272.1 329.28 272.372 326.64L272.719 323.272Z" fill="#FDFDFD"/>
<path d="M1426.72 448.272C1426.74 448.023 1426.85 447.788 1427.01 447.599C1427.17 447.41 1427.39 447.275 1427.63 447.214C1427.87 447.152 1428.13 447.167 1428.36 447.256C1428.6 447.345 1428.8 447.503 1428.94 447.71L1430.85 450.506C1432.34 452.698 1434.3 454.537 1436.58 455.896C1438.86 457.254 1441.41 458.099 1444.05 458.372L1447.42 458.719C1447.66 458.744 1447.9 458.845 1448.09 459.008C1448.28 459.172 1448.41 459.389 1448.47 459.632C1448.54 459.874 1448.52 460.129 1448.43 460.363C1448.34 460.597 1448.19 460.797 1447.98 460.938L1445.18 462.846C1442.99 464.343 1441.15 466.3 1439.79 468.58C1438.44 470.861 1437.59 473.41 1437.32 476.05L1436.97 479.416C1436.95 479.664 1436.85 479.899 1436.68 480.089C1436.52 480.278 1436.3 480.413 1436.06 480.474C1435.82 480.535 1435.56 480.521 1435.33 480.432C1435.09 480.343 1434.89 480.185 1434.75 479.978L1432.84 477.184C1431.35 474.992 1429.39 473.153 1427.11 471.794C1424.83 470.436 1422.28 469.591 1419.64 469.318L1416.27 468.971C1416.02 468.946 1415.79 468.845 1415.6 468.682C1415.41 468.519 1415.28 468.301 1415.21 468.059C1415.15 467.817 1415.17 467.561 1415.26 467.328C1415.35 467.094 1415.5 466.893 1415.71 466.753L1418.51 464.844C1420.7 463.347 1422.54 461.39 1423.9 459.11C1425.25 456.829 1426.1 454.28 1426.37 451.64L1426.72 448.272Z" fill="#FDFDFD"/>
<g filter="url(#filter0_f_350_64)">
<path d="M1497.72 915.272C1497.74 915.023 1497.85 914.788 1498.01 914.599C1498.17 914.41 1498.39 914.275 1498.63 914.214C1498.87 914.152 1499.13 914.167 1499.36 914.256C1499.6 914.345 1499.8 914.503 1499.94 914.71L1501.85 917.506C1503.34 919.698 1505.3 921.537 1507.58 922.896C1509.86 924.254 1512.41 925.099 1515.05 925.372L1518.42 925.719C1518.66 925.744 1518.9 925.845 1519.09 926.008C1519.28 926.172 1519.41 926.389 1519.47 926.632C1519.54 926.874 1519.52 927.129 1519.43 927.363C1519.34 927.597 1519.19 927.797 1518.98 927.938L1516.18 929.846C1513.99 931.343 1512.15 933.3 1510.79 935.58C1509.44 937.861 1508.59 940.41 1508.32 943.05L1507.97 946.416C1507.95 946.664 1507.85 946.899 1507.68 947.089C1507.52 947.278 1507.3 947.413 1507.06 947.474C1506.82 947.535 1506.56 947.521 1506.33 947.432C1506.09 947.343 1505.89 947.185 1505.75 946.978L1503.84 944.184C1502.35 941.992 1500.39 940.153 1498.11 938.794C1495.83 937.436 1493.28 936.591 1490.64 936.318L1487.27 935.971C1487.02 935.946 1486.79 935.845 1486.6 935.682C1486.41 935.519 1486.28 935.301 1486.21 935.059C1486.15 934.817 1486.17 934.561 1486.26 934.328C1486.35 934.094 1486.5 933.893 1486.71 933.753L1489.51 931.844C1491.7 930.347 1493.54 928.39 1494.9 926.11C1496.25 923.829 1497.1 921.28 1497.37 918.64L1497.72 915.272Z" fill="#FDFDFD"/>
</g>
<g filter="url(#filter1_f_350_64)">
<path d="M115.719 1469.27C115.744 1469.02 115.845 1468.79 116.008 1468.6C116.172 1468.41 116.389 1468.28 116.631 1468.21C116.874 1468.15 117.129 1468.17 117.363 1468.26C117.596 1468.34 117.797 1468.5 117.938 1468.71L119.847 1471.51C121.343 1473.7 123.3 1475.54 125.581 1476.9C127.861 1478.25 130.41 1479.1 133.051 1479.37L136.416 1479.72C136.665 1479.74 136.9 1479.85 137.089 1480.01C137.279 1480.17 137.413 1480.39 137.475 1480.63C137.536 1480.87 137.521 1481.13 137.432 1481.36C137.344 1481.6 137.185 1481.8 136.978 1481.94L134.184 1483.85C131.992 1485.34 130.153 1487.3 128.795 1489.58C127.436 1491.86 126.591 1494.41 126.319 1497.05L125.971 1500.42C125.946 1500.66 125.845 1500.9 125.682 1501.09C125.519 1501.28 125.301 1501.41 125.059 1501.47C124.817 1501.54 124.561 1501.52 124.328 1501.43C124.094 1501.34 123.893 1501.18 123.753 1500.98L121.844 1498.18C120.348 1495.99 118.391 1494.15 116.11 1492.79C113.83 1491.44 111.281 1490.59 108.64 1490.32L105.273 1489.97C105.024 1489.95 104.789 1489.85 104.599 1489.68C104.41 1489.52 104.276 1489.3 104.214 1489.06C104.153 1488.82 104.167 1488.56 104.256 1488.33C104.345 1488.09 104.504 1487.89 104.71 1487.75L107.507 1485.84C109.699 1484.35 111.538 1482.39 112.896 1480.11C114.255 1477.83 115.1 1475.28 115.372 1472.64L115.719 1469.27Z" fill="#FDFDFD"/>
</g>
<defs>
<filter id="filter0_f_350_64" x="1478.18" y="906.176" width="49.334" height="49.335" filterUnits="userSpaceOnUse" color-interpolation-filters="sRGB">
<feFlood flood-opacity="0" result="BackgroundImageFix"/>
<feBlend mode="normal" in="SourceGraphic" in2="BackgroundImageFix" result="shape"/>
<feGaussianBlur stdDeviation="4" result="effect1_foregroundBlur_350_64"/>
</filter>
<filter id="filter1_f_350_64" x="96.1768" y="1460.18" width="49.335" height="49.335" filterUnits="userSpaceOnUse" color-interpolation-filters="sRGB">
<feFlood flood-opacity="0" result="BackgroundImageFix"/>
<feBlend mode="normal" in="SourceGraphic" in2="BackgroundImageFix" result="shape"/>
<feGaussianBlur stdDeviation="4" result="effect1_foregroundBlur_350_64"/>
</filter>
</defs>
</svg>
