<svg xmlns="http://www.w3.org/2000/svg" width="164" height="164" viewBox="0 0 164 164" fill="none">
  <rect x="4.37646" y="89.1199" width="113.269" height="105.934" rx="7" transform="rotate(-48.1324 4.37646 89.1199)" fill="#0BB6FF"/>
  <path d="M47.6077 97.0659C46.0722 97.1053 44.6967 96.8657 43.4812 96.347C42.2655 95.8175 41.2938 95.0175 40.5659 93.9471C39.8482 92.8656 39.4683 91.5058 39.4262 89.8678C39.3908 88.4884 39.6065 87.3236 40.0733 86.3735C40.5402 85.4233 41.1894 84.6518 42.0208 84.0588C42.8523 83.4659 43.8022 83.0102 44.8707 82.6916C45.9496 82.3727 47.083 82.1387 48.2708 81.9895C49.6667 81.8027 50.7912 81.6336 51.6445 81.4822C52.4975 81.3201 53.1137 81.0994 53.4933 80.8201C53.8729 80.5407 54.0559 80.137 54.0423 79.609L54.0398 79.512C54.0135 78.4882 53.6798 77.7042 53.0386 77.1599C52.4079 76.6154 51.5232 76.3578 50.3846 76.387C49.1833 76.4179 48.2346 76.7173 47.5384 77.2851C47.0489 77.6766 46.6798 78.1343 46.4312 78.6581C46.2459 79.0487 45.8686 79.34 45.437 79.315L41.0099 79.0584C40.4697 79.0271 40.0746 78.5284 40.2249 78.0085C40.5452 76.9005 41.0509 75.9111 41.742 75.0401C42.6327 73.9065 43.7965 73.0247 45.2332 72.3947C46.6802 71.7536 48.3647 71.4084 50.2867 71.359C51.6238 71.3246 52.9076 71.4534 54.1381 71.7453C55.3791 72.0369 56.4836 72.5099 57.4516 73.1644C58.4301 73.8186 59.2099 74.6721 59.7909 75.7247C60.3717 76.7666 60.6811 78.0257 60.719 79.5021L61.1263 95.3475C61.1391 95.8452 60.7459 96.2591 60.2482 96.2719L55.7204 96.3883C55.2226 96.4011 54.8088 96.0079 54.796 95.5102L54.7372 93.2237C54.7356 93.1603 54.6453 93.1403 54.6146 93.1959C54.2305 93.8903 53.6149 94.516 53.0441 95.066C52.4114 95.6646 51.645 96.1426 50.7447 96.5C49.8443 96.8466 48.7986 97.0353 47.6077 97.0659ZM49.3972 92.2643C50.3791 92.2391 51.241 92.0174 51.9829 91.5994C52.7245 91.1705 53.3006 90.6058 53.7111 89.9051C54.1217 89.2043 54.3158 88.4175 54.2933 87.5447L54.2401 85.473C54.2339 85.2327 53.9523 85.083 53.7321 85.1795C53.6227 85.2274 53.5033 85.2742 53.3738 85.3199C53.0214 85.4368 52.6218 85.5495 52.1752 85.658C51.7282 85.7558 51.2811 85.8482 50.8338 85.9351C50.3863 86.0114 49.9805 86.0811 49.6162 86.1444C48.8358 86.283 48.1565 86.4892 47.5781 86.7629C46.9998 87.0366 46.5544 87.3985 46.2419 87.8486C45.9292 88.288 45.7811 88.831 45.7977 89.4776C45.8218 90.4151 46.1693 91.1233 46.8401 91.6021C47.5211 92.0699 48.3735 92.2906 49.3972 92.2643Z" fill="white"/>
  <path d="M77.2148 96.3211C74.7496 96.3845 72.6152 95.9001 70.8117 94.8681C69.0183 93.8251 67.6215 92.3513 66.6214 90.4467C65.6317 88.5419 65.1045 86.334 65.04 83.8231C64.9746 81.2798 65.3926 79.0369 66.2939 77.0942C67.2053 75.1405 68.5299 73.6022 70.2676 72.4792C72.005 71.3454 74.0907 70.7472 76.5246 70.6846C78.6243 70.6307 80.4729 70.9768 82.0704 71.7229C83.668 72.469 84.9447 73.5416 85.9005 74.9404C86.6963 76.105 87.2104 77.4488 87.443 78.9717C87.5208 79.481 87.1178 79.9235 86.6027 79.9368L82.0316 80.0542C81.5832 80.0658 81.2024 79.7431 81.0756 79.3129C80.8145 78.4279 80.3771 77.6969 79.7632 77.1201C78.9914 76.3743 77.9944 76.0171 76.7722 76.0485C75.7381 76.0751 74.842 76.3893 74.0839 76.9911C73.336 77.5818 72.7621 78.4323 72.362 79.5425C71.962 80.6527 71.782 81.9891 71.8222 83.5517C71.8629 85.1359 72.1065 86.4776 72.5528 87.5768C73.0097 88.6758 73.632 89.5063 74.42 90.0683C75.208 90.6304 76.119 90.8982 77.1532 90.8716C77.9157 90.852 78.5958 90.6727 79.1934 90.3339C79.8014 89.9947 80.296 89.5129 80.6771 88.8885C80.9489 88.4471 81.1511 87.9477 81.2838 87.3903C81.3876 86.9541 81.7513 86.6125 82.1996 86.601L86.7652 86.4836C87.2824 86.4703 87.7084 86.895 87.6541 87.4095C87.4941 88.9248 87.0568 90.2913 86.342 91.5089C85.491 92.965 84.2923 94.1173 82.7462 94.9658C81.2001 95.8143 79.3563 96.2661 77.2148 96.3211Z" fill="white"/>
  <path d="M93.1264 95.4269C92.6286 95.4397 92.2147 95.0466 92.2019 94.5488L91.6101 71.5223C91.5973 71.0245 91.9905 70.6107 92.4882 70.5979L97.0474 70.4807C97.5451 70.4679 97.959 70.861 97.9718 71.3588L98.0566 74.6588C98.0575 74.6927 98.1069 74.7 98.1182 74.668C98.6101 73.2793 99.6582 72.1601 100.762 71.3234C101.91 70.4528 103.299 69.9965 104.929 69.9546C106.579 69.9122 107.995 70.3018 109.177 71.1233C110.332 71.9163 111.364 73.0012 111.806 74.3902C111.814 74.4185 111.855 74.4188 111.865 74.3907C112.326 72.9986 113.175 71.87 114.41 71.005C115.684 70.1095 117.203 69.6392 118.968 69.5938C121.214 69.5361 123.056 70.2274 124.494 71.6678C125.942 73.0972 126.7 75.1589 126.769 77.853L127.175 93.6499C127.188 94.1477 126.795 94.5616 126.297 94.5744L121.44 94.6992C120.943 94.712 120.529 94.3188 120.516 93.8211L120.145 79.382C120.109 78.0026 119.728 76.9772 119 76.3058C118.272 75.6343 117.375 75.3123 116.309 75.3397C115.098 75.3708 114.162 75.7939 113.504 76.6088C112.845 77.4129 112.532 78.4616 112.566 79.7547L112.932 94.016C112.945 94.5138 112.552 94.9276 112.054 94.9404L107.385 95.0604C106.887 95.0732 106.474 94.6801 106.461 94.1823L106.086 79.5978C106.055 78.38 105.69 77.4189 104.993 76.7143C104.306 76.0095 103.414 75.6711 102.317 75.6993C101.575 75.7184 100.912 75.9295 100.326 76.3328C99.7508 76.725 99.2997 77.2704 98.9727 77.9689C98.6454 78.6567 98.4935 79.4586 98.5171 80.3746L98.877 94.3772C98.8898 94.875 98.4966 95.2889 97.9989 95.3017L93.1264 95.4269Z" fill="white"/>
</svg>