<svg width="419" height="280" viewBox="0 0 419 280" fill="none" xmlns="http://www.w3.org/2000/svg">
<path d="M172.25 187.042C176.537 181.921 178.461 178.936 179.724 175.684C180.366 174.032 179.237 172.262 177.48 172.037C169.665 171.037 164.93 172.162 159.112 176.557C158 177.397 157.645 178.969 158.556 180.023C160.468 182.235 163.96 184.07 172.25 187.042ZM172.25 187.042L173.75 195.542M173.75 195.542C185.108 199.141 190.638 197.432 199.75 191.042M173.75 195.542C169.222 203.675 165.878 204.629 158.75 201.042" stroke="#A1D1D5" stroke-width="6"/>
<path d="M48.25 239.042C39.8305 216.297 38.7029 202.623 39.25 180.042C21.8522 153.421 12.4628 135.809 9.91108 107.213C9.24598 99.759 13.3252 92.6746 20.1324 89.5665C44.7419 78.3302 64.401 77.7736 98.25 81.5417C131.06 56.6241 154.893 48.7684 209.25 48.0418C238.121 17.1058 254.826 2.0995 290.75 3.04175C315.789 26.2004 318.644 54.8177 323.25 106.542C337.945 128.381 341.549 142.362 346.75 167.042M48.25 239.042C40.2874 249.883 38.525 257.138 38.75 271.542M48.25 239.042C64.25 223.042 96.75 225.542 108.25 241.042C116.104 252.571 119.506 258.242 110.25 271.542M38.75 271.542H0.75M38.75 271.542H53.25M110.25 271.542C104.344 276.004 100.461 277.409 91.25 275.542M110.25 271.542H292.75M91.25 275.542C94.4961 268.915 96.6647 265.607 96.75 258.542M91.25 275.542C81.75 277.542 75.4336 276.582 74.75 271.542M74.75 271.542C76.2739 265.845 76.446 262.767 75.75 257.542M74.75 271.542C73.5126 273.893 71.6549 275.096 65.25 276.542C61.6806 276.137 56.1645 276.515 53.25 271.542M51.25 260.542C51.9933 266.573 51.25 268.542 53.25 271.542M346.75 167.042C354.028 172.012 359.908 178.642 365.75 186.042C370.011 200.17 366.908 212.805 368.25 225.042C372.25 238.042 374.047 252.291 375.25 271.542M346.75 167.042C334.75 168.542 328.25 163.042 324.25 163.042C321.397 163.042 312.75 165.542 308.25 171.542C296.75 173.542 296.75 177.542 296.75 177.542L295.25 188.042C293.323 189.22 291.309 193.006 290.008 196.423C288.54 200.277 289.061 204.75 289.636 208.834L293.75 238.042L292.75 271.542M375.25 271.542H418.25M375.25 271.542H292.75" stroke="#A1D1D5" stroke-width="6"/>
<path d="M310.864 183.97C310.087 185.682 309.563 188.213 310.25 190.173C311.003 191.897 311.341 192.686 311.901 193.213C313.816 195.011 317.41 194.126 318.216 191.626C318.442 190.926 318.612 190.09 318.751 189.04C318.751 187.028 317.175 184.626 315.383 183.262C313.906 182.138 311.631 182.28 310.864 183.97Z" stroke="#A1D1D5" stroke-width="6"/>
<path d="M324.207 204.494C319.374 208.058 312.902 216.58 315.763 219.67C320.442 223.847 330.314 225.447 339.25 222.042C345.471 220.147 347.002 215.016 347.23 211.926C347.298 211.008 347.432 210.062 347.222 209.165C346.38 205.555 339.679 202.232 332.675 202.422C329.805 202.5 326.517 202.79 324.207 204.494Z" stroke="#A1D1D5" stroke-width="6"/>
<path d="M329.989 178.249C329.013 180.084 328.28 183.04 329.112 185.295C330.2 187.664 330.523 188.395 331.58 188.991C333.775 190.228 336.931 189.758 337.922 187.442C338.292 186.577 338.55 185.512 338.75 184.074C338.75 181.77 336.734 178.991 334.549 177.584C333.039 176.612 330.832 176.664 329.989 178.249Z" stroke="#A1D1D5" stroke-width="6"/>
<path d="M346.989 188.249C346.013 190.084 345.28 193.04 346.112 195.295C347.2 197.664 347.523 198.395 348.58 198.991C350.775 200.228 353.931 199.758 354.922 197.442C355.292 196.577 355.55 195.512 355.75 194.074C355.75 191.77 353.734 188.992 351.549 187.584C350.039 186.612 347.832 186.664 346.989 188.249Z" stroke="#A1D1D5" stroke-width="6"/>
<path d="M301.683 200.46C300.906 202.171 300.382 204.702 301.069 206.662C301.822 208.387 302.159 209.175 302.72 209.702C304.635 211.5 308.229 210.615 309.035 208.115C309.26 207.415 309.431 206.58 309.57 205.53C309.57 203.518 307.994 201.116 306.202 199.752C304.725 198.627 302.45 198.769 301.683 200.46Z" stroke="#A1D1D5" stroke-width="6"/>
<path d="M44.25 147.542C31.9937 123.541 25.1319 113.885 29.4342 105.147C29.6317 104.745 29.9412 104.404 30.3098 104.15C40.7974 96.9429 50.9635 97.6417 75.25 98.042C61.7591 115.463 55.0724 126.444 44.25 147.542Z" stroke="#A1D1D5" stroke-width="6"/>
<path d="M298.75 81.542C273.304 65.0635 258.882 56.9092 232.25 48.542C247.593 32.6461 257.621 27.1816 275.286 23.11C279.673 22.0988 284.167 24.3303 286.013 28.4368C294.007 46.2265 296.364 59.3594 298.75 81.542Z" stroke="#A1D1D5" stroke-width="6"/>
<path d="M130.75 174.542C130.75 187.905 120.347 198.542 107.75 198.542C95.1532 198.542 84.75 187.905 84.75 174.542C84.75 161.179 95.1532 150.542 107.75 150.542C120.347 150.542 130.75 161.179 130.75 174.542Z" stroke="#A1D1D5" stroke-width="6"/>
<path d="M113.75 165.773C113.75 167.665 112.301 169.004 110.75 169.004C109.199 169.004 107.75 167.665 107.75 165.773C107.75 163.881 109.199 162.542 110.75 162.542C112.301 162.542 113.75 163.881 113.75 165.773Z" fill="#81B1AF" stroke="#A1D1D5" stroke-width="6"/>
<path d="M241.75 139.773C241.75 141.665 240.301 143.004 238.75 143.004C237.199 143.004 235.75 141.665 235.75 139.773C235.75 137.881 237.199 136.542 238.75 136.542C240.301 136.542 241.75 137.881 241.75 139.773Z" fill="#81B1AF" stroke="#A1D1D5" stroke-width="6"/>
<path d="M258.75 149.542C258.75 162.905 248.347 173.542 235.75 173.542C223.153 173.542 212.75 162.905 212.75 149.542C212.75 136.179 223.153 125.542 235.75 125.542C248.347 125.542 258.75 136.179 258.75 149.542Z" stroke="#A1D1D5" stroke-width="6"/>
</svg>
