<svg width="374" height="235" viewBox="0 0 374 235" fill="none" xmlns="http://www.w3.org/2000/svg">
<g filter="url(#filter0_f_1_1765)">
<path d="M266.344 127.945C268.113 125.085 276.221 110.715 281.533 109.718M254.448 104.799C255.924 104.943 261.603 100.191 275.624 101.56M265.669 111.959C268.914 109.244 270.463 108.637 274.373 106.744M345.057 92.4187C346.826 89.5591 362.69 87.3174 368.003 86.3198" stroke="#9FFFF9"/>
<path d="M80.5263 115.87C142.97 25.6911 209.569 83.7408 259.306 85.5638M80.5263 115.87C53.7822 116.143 38.0024 120.086 22.3849 131.117C11.8599 138.551 10.7243 153.566 17.2349 164.686C27.0722 181.488 37.0124 196.77 67.6522 206.32C70.216 207.119 72.9545 207.16 75.5694 206.549V206.549C84.3649 204.492 85.0493 192.024 76.9205 188.085C64.936 182.278 56.2517 175.646 49.2025 165.412C45.5576 160.12 46.3062 152.723 51.5127 148.957C60.2898 142.608 69.2181 143.342 84.6808 149.63M80.5263 115.87C74.1407 129.409 76.0564 136.756 84.6808 149.63M259.306 85.5638L261.53 100.942M259.306 85.5638C260.82 76.1607 262.2 70.9567 269.77 62.3271C270.544 51.0488 272.483 45.7899 276.803 37.0632C277.67 35.3116 279.976 34.8525 281.365 36.2281C285.698 40.521 287.27 43.9118 290.203 51.4347C302.422 48.5096 304.293 44.4714 322.376 50.0269L329.306 40.0905L338.596 32.8842C339.615 32.0939 341.107 32.4619 341.605 33.6511C345.655 43.3215 345.946 50.1373 345.038 62.094C371.89 87.0567 356.116 112.421 334.374 117.908M334.374 117.908L315.485 120.612M334.374 117.908C339.616 130.332 343.296 130.15 347.165 154.786C349.462 169.413 312.798 186.302 249.337 187.688C189.073 189.004 179.396 180.903 137.863 185.846C133.327 186.386 128.678 186.152 124.279 184.922C96.1898 177.07 97.5505 174.189 84.6808 149.63" stroke="#9FFFF9" stroke-width="2"/>
<path d="M276.797 89.5455C287.048 76.0814 292.799 75.9768 303.066 87.5614" stroke="#9FFFF9"/>
<path d="M327.675 87.3294C326.902 87.6139 334.272 73.1721 342.395 81.5457" stroke="#9FFFF9"/>
<path d="M330.365 70.0195C335.315 68.8587 338.248 68.5897 343.868 69.0634" stroke="#9FFFF9"/>
<ellipse cx="319.16" cy="98.2292" rx="2.96593" ry="2.26344" transform="rotate(5.57544 319.16 98.2292)" fill="#7789E7"/>
</g>
<defs>
<filter id="filter0_f_1_1765" x="10.2051" y="29.466" width="359.89" height="180.502" filterUnits="userSpaceOnUse" color-interpolation-filters="sRGB">
<feFlood flood-opacity="0" result="BackgroundImageFix"/>
<feBlend mode="normal" in="SourceGraphic" in2="BackgroundImageFix" result="shape"/>
<feGaussianBlur stdDeviation="1" result="effect1_foregroundBlur_1_1765"/>
</filter>
</defs>
</svg>
