<svg width="189" height="192" viewBox="0 0 189 192" fill="none" xmlns="http://www.w3.org/2000/svg">
<path d="M124.429 47.6559C122.374 48.582 121.179 50.7448 121.494 52.9721C122.373 59.2116 124.527 71.9338 128.594 81.2518C133.605 92.7566 139.895 100.25 143.27 103.773C144.764 105.335 147.083 105.746 149.043 104.846C153.869 102.64 162.74 97.0636 167.629 84.7486C174.601 67.2437 160.6 48.7724 146.373 45.7257C132.146 42.679 124.429 47.6559 124.429 47.6559Z" fill="#FFC107"/>
<path d="M143.408 99.8294C144.303 101.006 146.171 100.241 146.003 98.7844C145.495 94.5354 143.994 87.1831 139.792 76.3063C135.232 64.5101 130.591 58.5877 127.786 55.8246C126.815 54.8735 125.197 55.6483 125.33 57.0032C125.754 61.4195 127.149 69.841 131.665 79.755C136.042 89.3736 140.583 96.0992 143.408 99.8294Z" fill="url(#paint0_radial_27_819)"/>
<path d="M156.829 57.4012C155.212 59.1314 152.286 58.3711 150.083 56.5473C147.695 54.5767 144.581 52.2805 146.443 49.7766C148.369 47.1877 152.725 49.8508 154.307 50.8856C156.618 52.4078 158.263 55.874 156.829 57.4012Z" fill="#FFEE58"/>
<path d="M107.76 22.3156C97.5662 12.0973 77.444 6.02361 61.8188 24.8834C55.8808 32.0451 54.9785 40.903 55.0211 45.9332C55.039 48.4195 56.5974 50.6379 58.9513 51.4318C63.5467 52.9815 72.551 55.0987 86.5304 54.6117C94.2993 54.3471 106.079 51.8903 112.839 50.3434C115.893 49.6444 117.874 46.6569 117.27 43.5769C116.092 37.5543 113.418 27.991 107.76 22.3156Z" fill="#FFC107"/>
<path d="M107.747 47.5789C108.75 47.3102 108.762 45.8909 107.756 45.606C103.342 44.349 94.9741 42.411 86.3782 42.7095C77.5568 43.0258 67.447 45.4106 62.2214 46.7937C61.1925 47.0609 61.2091 48.5237 62.2487 48.7741C66.9874 49.9356 75.9604 51.6176 86.2102 50.9015C96.6278 50.1746 103.901 48.6011 107.747 47.5789Z" fill="url(#paint1_radial_27_819)"/>
<path d="M103.695 30.895C106.959 34.448 109.705 32.279 108.811 28.9101C108.168 26.4804 103.29 19.9903 97.0027 17.9214C92.8502 16.5601 88.6074 21.2287 93.8657 24.1705C97.4473 26.171 99.6962 26.5409 103.695 30.895Z" fill="#FFEE58"/>
<path d="M13.9715 124.701C31.0984 124.054 48.4008 113.523 60.2596 96.5251C70.9707 81.166 76.5 62.546 80.9376 47.5882L72.7831 46.796C68.5305 61.107 62.4667 77.0636 52.6183 91.1849C42.4323 105.798 27.8453 114.842 13.6228 115.377L13.9715 124.701Z" fill="#03A9F4"/>
<path d="M65.4746 150.723L73.0526 145.289C70.1379 141.224 70.8462 134.73 74.5699 131.404C76.3854 129.774 78.9054 128.672 81.5601 127.5C83.7267 126.544 85.9787 125.557 88.1443 124.184C93.8004 120.586 97.9905 114.797 99.6181 108.296C100.436 105.014 100.594 101.781 100.735 98.6468C100.895 95.1062 101.053 91.7796 102.202 88.9979C103.27 86.4254 105.297 84.2186 107.781 82.9476C110.026 81.8085 112.772 81.2946 115.675 80.764C117.877 80.3532 120.162 79.937 122.451 79.2129C127.869 77.4967 131.66 73.913 134.431 69.0673L130.039 63.6924C130.039 63.6924 125.85 68.594 123.213 69.9915C120.447 71.4492 117.401 71.7623 114.36 72.3212C110.923 72.9607 106.996 72.8868 103.538 74.658C99.1102 76.9191 95.4806 80.8519 93.5752 85.4572C91.8043 89.7365 91.6073 94.0632 91.4137 98.244C91.2828 101.035 91.1612 103.669 90.5637 106.056C89.5072 110.263 86.802 114.016 83.1333 116.339C81.5591 117.34 79.7357 118.145 77.7892 118.999C74.577 120.414 71.2634 121.865 68.3392 124.483C61.0528 130.973 59.7601 142.768 65.4746 150.723Z" fill="#03A9F4"/>
<path d="M112.498 185.973L121.03 182.219C103.367 142.122 119.068 107.401 130.888 91.9152L125.87 86.5288C112.798 103.647 92.9052 141.505 112.498 185.973Z" fill="#F48FB1"/>
<path d="M56.4151 86.3801C56.1519 86.4165 55.9045 86.4486 55.6413 86.485C57.6188 83.1997 59.386 79.766 60.9843 76.2752C64.9883 75.5862 68.9039 74.6309 72.3519 72.8539C72.449 72.8023 72.536 72.7449 72.633 72.6933C71.0804 76.641 69.3601 80.5996 67.4002 84.4603C63.6539 85.3788 59.905 85.9056 56.4151 86.3801Z" fill="#0076C6"/>
<path d="M23.4081 96.9131L32.6985 97.7422C33.1505 92.6477 37.5174 88.6965 41.4434 86.6976C46.5486 84.1012 52.7186 83.2499 58.6933 82.4338C65.1048 81.5604 72.3638 80.5708 78.9209 77.1845C90.9731 70.9693 96.9556 58.0203 95.1783 44.5743L87.4212 44.4689C88.6934 54.1517 83.3213 64.412 74.6519 68.8933C69.5276 71.5459 63.3852 72.3728 57.4365 73.1905C51.0091 74.0681 43.7342 75.062 37.2178 78.3777C29.36 82.3856 24.0627 89.4865 23.4081 96.9131Z" fill="#F44336"/>
<path d="M131.931 155.855C138.386 148.171 134.687 140.128 132.701 135.806C132.461 135.29 132.17 134.652 131.985 134.181C132.429 133.482 133.432 132.864 135.22 131.864C138.164 130.214 142.195 127.939 143.166 122.646C144.006 118.044 140.778 114.499 139.005 111.511C137.493 108.955 136.754 106.483 137.426 103.454C138.212 99.9248 143.203 92.795 143.203 92.795L139.939 87.0754C139.939 87.0754 134.242 93.3535 132.133 97.0068C126.155 107.361 130.37 113.321 132.006 116.082C133.139 117.987 134.211 119.79 133.995 120.957C133.839 121.809 133.026 122.403 130.638 123.742C127.774 125.345 123.856 127.564 122.671 132.599C122.091 135.049 123.125 137.314 124.224 139.699C126.168 143.929 127.262 146.929 124.789 149.861L131.931 155.855Z" fill="#F44336"/>
<path d="M71.282 106.94C75.3701 108.156 79.0577 107.432 82.3066 106.886L80.7547 97.6876C80.7547 97.6876 77.3606 99.3477 72.6316 98.286L71.282 106.94Z" fill="#F44336"/>
<path d="M103.993 65.2457L111.979 65.1873L111.604 55.8612L103.608 55.9137L103.993 65.2457Z" fill="#F44336"/>
<path d="M44.0428 133.33L54.9704 132.978L52.7492 122.492L43.1398 124.802L44.0428 133.33Z" fill="#F44336"/>
<path d="M49.6838 64.7407L48.7264 55.4673L38.7691 56.4954L39.7265 65.7688L49.6838 64.7407Z" fill="#FB8C00"/>
<path d="M108.33 94.4195L118.298 93.6082L117.432 86.555L107.473 87.3721L108.33 94.4195Z" fill="#F44336"/>
<path d="M94.7406 98.0518C94.7406 98.0518 93.3972 97.2089 91.4994 96.5572C91.6665 93.4243 91.9525 90.2254 92.9843 87.0399C95.3573 87.7775 96.9087 88.9827 96.9087 88.9827L94.7406 98.0518Z" fill="#0076C6"/>
<path d="M84.6156 93.4709C88.8181 92.6947 93.4219 95.5815 93.4219 95.5815L95.6001 86.5182C95.6001 86.5182 90.8121 82.785 85.185 84.4208L84.6156 93.4709Z" fill="#FB8C00"/>
<path d="M132.991 164.157L125.926 159.482L120.782 167.256L127.847 171.931L132.991 164.157Z" fill="#FB8C00"/>
<path d="M94.9197 140.3L103.383 136.385C102.163 133.744 101.272 130.928 100.75 128.057L91.5758 129.73C92.249 133.389 93.3721 136.944 94.9197 140.3Z" fill="#FB8C00"/>
<path d="M84.0916 158.915C87.6674 158.315 91.3029 157.938 94.9142 157.789L94.5336 148.473C90.5406 148.63 86.5161 149.052 82.5556 149.712L84.0916 158.915Z" fill="#F44336"/>
<path d="M59.6291 97.2909C57.4179 100.468 55.6376 102.643 53.0845 105.34L50.2306 98.0006L59.1428 94.5207L59.6291 97.2909Z" fill="#0076C6"/>
<path d="M65.2129 107.383L60.8441 96.1664L52.1572 99.5498L56.5261 110.767L65.2129 107.383Z" fill="#FFC107"/>
<path d="M44.6433 149.42C47.5536 147.642 50.6006 146.024 53.703 144.613L49.8424 136.127C46.3968 137.69 43.0151 139.492 39.7844 141.475L44.6433 149.42Z" fill="#FB8C00"/>
<defs>
<radialGradient id="paint0_radial_27_819" cx="0" cy="0" r="1" gradientUnits="userSpaceOnUse" gradientTransform="translate(135.66 77.9114) rotate(-150) scale(17.5991 17.5991)">
<stop offset="0.3755" stop-color="#AF5700"/>
<stop offset="1" stop-color="#8F4700"/>
</radialGradient>
<radialGradient id="paint1_radial_27_819" cx="0" cy="0" r="1" gradientUnits="userSpaceOnUse" gradientTransform="translate(84.9915 47.1837) rotate(-150) scale(24.733 24.733)">
<stop offset="0.3755" stop-color="#AF5700"/>
<stop offset="1" stop-color="#8F4700"/>
</radialGradient>
</defs>
</svg>
