<svg width="179" height="191" viewBox="0 0 179 191" fill="none" xmlns="http://www.w3.org/2000/svg">
<g filter="url(#filter0_dd_1_2196)">
<path d="M134.009 149.31C130.9 159.649 122.631 163.9 122.28 164.077C121.744 164.342 121.093 164.207 120.675 163.746L134.009 149.31ZM134.009 149.31C136.499 141.037 134.965 131.369 129.41 120.584L134.009 149.31ZM84.7455 117.848C85.4954 116.632 86.223 115.37 86.9274 114.064L85.6314 113.331L84.1902 112.983C83.8519 114.445 83.5663 115.883 83.3338 117.296C81.091 120.897 78.6563 124.063 76.0585 126.761L84.7455 117.848ZM84.7455 117.848C83.7328 124.198 83.8363 129.964 85.0525 135.074C87.0373 143.399 90.5523 150.388 95.4878 155.829C103.209 164.341 111.638 166.046 112.084 166.137L112.091 166.138M84.7455 117.848L112.348 164.822L113.634 165.035C113.576 165.395 113.382 165.713 113.093 165.919C112.804 166.125 112.445 166.204 112.091 166.138M24.9736 123.964C25.1804 124.575 25.7389 124.99 26.3491 124.953L32.2844 124.763L32.7116 123.973L34.0067 124.708L34.0501 126.226L33.1703 126.254L26.3747 123.468C26.375 123.468 26.3752 123.469 26.375 123.468C26.375 123.468 26.3749 123.468 26.3747 123.468C26.3773 123.476 26.3788 123.481 26.3793 123.483L26.3795 123.484L26.3077 123.508L26.2678 123.522L24.9736 123.964ZM24.9736 123.964C24.8911 123.709 17.1823 98.9673 48.6811 84.4328C51.2259 83.2586 53.9476 82.3514 56.8315 81.7179M24.9736 123.964L26.2666 123.502L26.3072 123.487L26.3712 123.464L56.8315 81.7179M56.8315 81.7179C57.6347 82.0369 58.4522 82.3366 59.2845 82.6196L59.7531 81.1782L59.5399 79.6758C58.6689 79.8073 57.81 79.9616 56.9637 80.1387C56.1628 79.8117 55.3784 79.4649 54.6097 79.0954L56.8315 81.7179ZM112.091 166.138L112.326 164.819L112.091 166.138ZM72.018 36.5232L72.0203 36.5255C75.3594 39.7981 78.31 43.4401 81.0834 47.6066L83.7737 46.5314C83.4059 43.8949 83.2513 41.351 83.3445 38.9243L83.3447 38.921C83.9606 21.9414 90.8177 12.8627 97.4084 7.98263C100.733 5.52114 104.031 4.09835 106.514 3.2904C108.683 2.58418 110.212 2.35372 110.556 2.30757L112.266 9.73123L112.876 12.3755L114.754 10.4531L119.919 5.16518C120.258 5.42358 121.486 6.40092 123.025 8.09716C127.576 13.1147 137.469 27.5539 128.194 51.7569L129.573 52.3099L128.194 51.7569C126.455 56.2958 123.241 60.7856 118.525 65.1802L120.144 67.6789C125.177 65.2715 130.179 63.8521 135.068 63.4274C153.039 61.8971 163.493 69.0633 169.097 75.2422C174.528 81.2285 176.507 87.3448 176.812 88.3634L169.897 90.8893L167.331 91.8264L169.488 93.5246L175.687 98.4053C175.686 98.4072 175.685 98.4092 175.684 98.4114C175.534 98.7769 173.659 103.344 168.557 107.415C163.234 111.662 154.255 115.485 139.684 113.206C133.009 112.162 125.758 108.6 118.098 102.448L116.096 104.678C121.461 110.61 125.426 116.1 128.1 121.295L128.1 121.295C133.546 131.87 134.928 141.109 132.594 148.865L132.594 148.865C129.816 158.102 122.639 162.177 121.72 162.666L115.945 156.3L113.885 154.029L113.398 157.093L112.201 164.61C110.945 164.328 103.474 162.401 96.5734 154.794C91.8343 149.569 88.4257 142.823 86.4916 134.711C85.0621 128.706 85.225 121.665 87.0726 113.679L84.3353 112.598C81.5449 117.773 78.4082 122.161 75.0053 125.695C63.1519 137.989 52.3541 139.448 44.5891 137.997C40.6605 137.263 37.4413 135.77 35.1904 134.446C33.1804 133.264 31.9663 132.23 31.7378 132.03L35.3017 125.443L36.5653 123.107L33.9632 123.19L26.3643 123.433C26.1906 122.842 24.6219 117.148 26.4196 109.926C28.2986 102.377 33.9152 92.9103 49.287 85.8174C52.5413 84.3158 56.1103 83.2625 59.9663 82.6805L60.2217 79.7367C58.4775 79.1437 56.8208 78.4799 55.2405 77.7203L55.2384 77.7193C47.8136 74.1645 41.7382 69.7939 37.1436 64.7286C25.6491 52.0568 26.7031 39.0389 26.8864 37.4373L34.1965 38.5614L36.965 38.9871L35.7544 36.4007L32.4441 29.3278C33.1287 28.9234 37.8868 26.2252 44.7444 25.6098C52.13 24.947 62.0253 26.6875 72.018 36.5232ZM110.544 2.25861L110.545 2.261L110.544 2.25861Z" stroke="#FF49ED" stroke-opacity="0.8" stroke-width="3" shape-rendering="crispEdges"/>
</g>
<defs>
<filter id="filter0_dd_1_2196" x="0.0834942" y="0.782227" width="178.244" height="189.379" filterUnits="userSpaceOnUse" color-interpolation-filters="sRGB">
<feFlood flood-opacity="0" result="BackgroundImageFix"/>
<feColorMatrix in="SourceAlpha" type="matrix" values="0 0 0 0 0 0 0 0 0 0 0 0 0 0 0 0 0 0 127 0" result="hardAlpha"/>
<feOffset dx="-12" dy="12"/>
<feGaussianBlur stdDeviation="6"/>
<feComposite in2="hardAlpha" operator="out"/>
<feColorMatrix type="matrix" values="0 0 0 0 1 0 0 0 0 0.286275 0 0 0 0 0.929412 0 0 0 0.25 0"/>
<feBlend mode="normal" in2="BackgroundImageFix" result="effect1_dropShadow_1_2196"/>
<feColorMatrix in="SourceAlpha" type="matrix" values="0 0 0 0 0 0 0 0 0 0 0 0 0 0 0 0 0 0 127 0" result="hardAlpha"/>
<feOffset dx="-12" dy="12"/>
<feGaussianBlur stdDeviation="6"/>
<feComposite in2="hardAlpha" operator="out"/>
<feColorMatrix type="matrix" values="0 0 0 0 1 0 0 0 0 0.286275 0 0 0 0 0.929412 0 0 0 0.25 0"/>
<feBlend mode="normal" in2="effect1_dropShadow_1_2196" result="effect2_dropShadow_1_2196"/>
<feBlend mode="normal" in="SourceGraphic" in2="effect2_dropShadow_1_2196" result="shape"/>
</filter>
</defs>
</svg>
