<svg width="236" height="156" viewBox="0 0 236 156" fill="none" xmlns="http://www.w3.org/2000/svg">
<g filter="url(#filter0_ddd_298_117)">
<path d="M173 20.5663V20.3877L172.38 20.1331C141.85 7.60627 117.577 12.7974 100.319 19.202C96.0124 20.8001 92.1428 22.4737 88.7358 23.9589C88.5579 24.0364 88.3813 24.1134 88.2061 24.1898C85.0109 25.5833 82.2624 26.7819 79.9222 27.594C77.4244 28.4607 75.5657 28.8206 74.2273 28.6116C73.5874 28.5116 73.0866 28.284 72.6811 27.9262C72.2964 27.5869 71.9484 27.0868 71.6667 26.3505C71.6666 22.334 71.6592 17.2063 70.9871 13.0565C70.6473 10.9581 70.1234 9.01022 69.2811 7.5619C68.4231 6.08668 67.1446 5.00001 65.3333 5C62.3111 4.99998 59.5186 6.5253 57.0235 8.96201C54.6144 11.3148 52.4061 14.5881 50.4328 18.4161C42.9315 20.1404 39.3948 21.3524 36.2223 22.6914C35.3099 23.0765 34.4399 23.4662 33.5213 23.8778C31.2522 24.8943 28.6868 26.0436 24.4558 27.5825C19.1961 25.5591 15.8203 24.7085 8.89837 24.6428L8.61147 24.6401L8.36676 24.7899C7.41209 25.3743 6.78207 26.0866 6.52214 27.0947C6.28677 28.0076 6.39015 29.0585 6.5669 30.2219L6.60576 30.4777L6.7638 30.6825C10.3366 35.3134 13.1864 41.0215 15.4956 45.946C15.8672 46.7383 16.2261 47.5133 16.572 48.2602C17.292 49.815 17.9558 51.2484 18.5605 52.4644C19.0101 53.3685 19.4385 54.1763 19.8462 54.8452C20.2463 55.5017 20.6605 56.0822 21.0936 56.4885C22.4903 57.7988 24.2139 59.0152 25.5663 59.8939C26.2468 60.336 26.8422 60.6983 27.2683 60.9506C27.4815 61.0769 27.6527 61.1758 27.7714 61.2436C27.8308 61.2775 27.8771 61.3036 27.909 61.3215L27.9458 61.3422L27.9558 61.3478L27.9587 61.3493L27.9596 61.3498L27.9599 61.35C27.96 61.3501 27.9601 61.3501 28.4444 60.4753L27.9601 61.3501L28.1861 61.4753H28.4444H141.333H146.419C147.087 61.8206 147.617 62.0262 148.055 62.1833C148.165 62.2226 148.263 62.2571 148.352 62.2883C148.679 62.4034 148.881 62.4746 149.086 62.5834C149.508 62.8071 149.998 63.2313 151.11 65.0779C154.17 72.0288 155.467 75.9389 157.201 82.8149L153.681 103.423L153.658 103.557L153.672 103.692C153.784 104.795 154.292 106.152 154.933 107.23C155.258 107.775 155.644 108.297 156.078 108.697C156.491 109.077 157.075 109.463 157.778 109.463C158.502 109.463 159.453 109.386 160.296 109.227C160.717 109.148 161.141 109.042 161.509 108.902C161.833 108.779 162.289 108.566 162.581 108.173C162.726 107.977 163.564 106.647 164.707 104.78C165.87 102.88 167.388 100.359 168.92 97.7209C170.452 95.085 172.003 92.3243 173.229 89.949C173.842 88.7617 174.378 87.6614 174.792 86.7157C175.198 85.7867 175.512 84.9492 175.646 84.3076C176.117 82.0429 175.481 79.8281 174.872 77.7069C174.827 77.5526 174.783 77.3988 174.74 77.2455C174.084 74.9389 173.479 72.5559 173.866 69.72C174.069 69.1129 174.17 68.6624 174.25 68.3055C174.26 68.2595 174.27 68.2151 174.28 68.172C174.365 67.7983 174.434 67.5412 174.607 67.1955C174.987 66.4338 175.876 65.2254 178.477 62.2366L178.499 62.2185C178.523 62.1993 178.551 62.1762 178.584 62.1496C178.63 62.1128 178.684 62.0692 178.747 62.0195C178.963 61.8482 179.274 61.6051 179.654 61.3212C180.417 60.7514 181.442 60.0258 182.513 59.3855C183.6 58.7354 184.665 58.2156 185.52 58.0028C186.437 57.7742 186.658 57.988 186.724 58.0867L186.842 58.2622L187.019 58.3745L187.019 58.3747L187.019 58.3748L187.02 58.3749L187.02 58.3752L187.026 58.3788L187.058 58.4C187.088 58.42 187.135 58.4514 187.196 58.4941C187.319 58.5795 187.499 58.7093 187.72 58.881C188.163 59.2252 188.764 59.7332 189.391 60.3836C190.657 61.6983 191.955 63.5196 192.35 65.6822C192.773 68.0053 192.905 73.9286 192.857 79.7408C192.833 82.6228 192.766 85.4414 192.673 87.7172C192.579 90.0238 192.461 91.6992 192.348 92.3467C192.238 92.9749 191.757 94.5044 191.035 96.5792C190.326 98.6161 189.419 101.088 188.5 103.54C187.295 106.759 186.047 110.006 185.235 112.121C184.823 113.193 184.523 113.974 184.396 114.314C184.054 115.235 183.016 116.906 181.987 118.438C181.487 119.182 181.01 119.864 180.658 120.359C180.482 120.606 180.338 120.806 180.238 120.945C180.218 120.973 180.199 120.998 180.183 121.021C178.146 122.415 176.374 123.783 174.729 125.052C173.891 125.699 173.086 126.32 172.296 126.906C169.892 128.69 167.531 130.229 164.513 131.452L164.188 131.584L164.016 131.891C162.817 134.035 163.491 135.808 163.995 136.813C164.169 137.16 164.438 137.49 164.688 137.762C164.948 138.045 165.239 138.318 165.504 138.553C165.77 138.789 166.02 138.994 166.203 139.14C166.295 139.213 166.371 139.272 166.424 139.313C166.437 139.323 166.449 139.332 166.46 139.34C166.47 139.349 166.48 139.355 166.487 139.361L166.505 139.375L166.51 139.378L166.511 139.38L166.512 139.38L166.512 139.38C166.512 139.38 166.512 139.38 167.111 138.579L166.512 139.38L166.642 139.477L166.796 139.528C168.762 140.182 170.031 140.576 171.333 140.576C172.635 140.576 173.904 140.182 175.871 139.528L176.082 139.458L176.244 139.305C189.949 126.293 198.507 114.617 203.168 102.254C207.832 89.8835 208.56 76.9205 206.771 61.4022L206.751 61.2297L206.674 61.0741C197.518 42.5242 188.999 32.5168 182.714 27.0234C179.569 24.2755 176.994 22.666 175.194 21.6844C174.483 21.2968 173.89 21.0055 173.454 20.7915C173.342 20.7366 173.24 20.6868 173.15 20.6418C173.094 20.6139 173.044 20.5889 173 20.5663Z" stroke="black" stroke-opacity="0.2" stroke-width="2" shape-rendering="crispEdges"/>
<path d="M173 20.5663V20.3877L172.38 20.1331C141.85 7.60627 117.577 12.7974 100.319 19.202C96.0124 20.8001 92.1428 22.4737 88.7358 23.9589C88.5579 24.0364 88.3813 24.1134 88.2061 24.1898C85.0109 25.5833 82.2624 26.7819 79.9222 27.594C77.4244 28.4607 75.5657 28.8206 74.2273 28.6116C73.5874 28.5116 73.0866 28.284 72.6811 27.9262C72.2964 27.5869 71.9484 27.0868 71.6667 26.3505C71.6666 22.334 71.6592 17.2063 70.9871 13.0565C70.6473 10.9581 70.1234 9.01022 69.2811 7.5619C68.4231 6.08668 67.1446 5.00001 65.3333 5C62.3111 4.99998 59.5186 6.5253 57.0235 8.96201C54.6144 11.3148 52.4061 14.5881 50.4328 18.4161C42.9315 20.1404 39.3948 21.3524 36.2223 22.6914C35.3099 23.0765 34.4399 23.4662 33.5213 23.8778C31.2522 24.8943 28.6868 26.0436 24.4558 27.5825C19.1961 25.5591 15.8203 24.7085 8.89837 24.6428L8.61147 24.6401L8.36676 24.7899C7.41209 25.3743 6.78207 26.0866 6.52214 27.0947C6.28677 28.0076 6.39015 29.0585 6.5669 30.2219L6.60576 30.4777L6.7638 30.6825C10.3366 35.3134 13.1864 41.0215 15.4956 45.946C15.8672 46.7383 16.2261 47.5133 16.572 48.2602C17.292 49.815 17.9558 51.2484 18.5605 52.4644C19.0101 53.3685 19.4385 54.1763 19.8462 54.8452C20.2463 55.5017 20.6605 56.0822 21.0936 56.4885C22.4903 57.7988 24.2139 59.0152 25.5663 59.8939C26.2468 60.336 26.8422 60.6983 27.2683 60.9506C27.4815 61.0769 27.6527 61.1758 27.7714 61.2436C27.8308 61.2775 27.8771 61.3036 27.909 61.3215L27.9458 61.3422L27.9558 61.3478L27.9587 61.3493L27.9596 61.3498L27.9599 61.35C27.96 61.3501 27.9601 61.3501 28.4444 60.4753L27.9601 61.3501L28.1861 61.4753H28.4444H141.333H146.419C147.087 61.8206 147.617 62.0262 148.055 62.1833C148.165 62.2226 148.263 62.2571 148.352 62.2883C148.679 62.4034 148.881 62.4746 149.086 62.5834C149.508 62.8071 149.998 63.2313 151.11 65.0779C154.17 72.0288 155.467 75.9389 157.201 82.8149L153.681 103.423L153.658 103.557L153.672 103.692C153.784 104.795 154.292 106.152 154.933 107.23C155.258 107.775 155.644 108.297 156.078 108.697C156.491 109.077 157.075 109.463 157.778 109.463C158.502 109.463 159.453 109.386 160.296 109.227C160.717 109.148 161.141 109.042 161.509 108.902C161.833 108.779 162.289 108.566 162.581 108.173C162.726 107.977 163.564 106.647 164.707 104.78C165.87 102.88 167.388 100.359 168.92 97.7209C170.452 95.085 172.003 92.3243 173.229 89.949C173.842 88.7617 174.378 87.6614 174.792 86.7157C175.198 85.7867 175.512 84.9492 175.646 84.3076C176.117 82.0429 175.481 79.8281 174.872 77.7069C174.827 77.5526 174.783 77.3988 174.74 77.2455C174.084 74.9389 173.479 72.5559 173.866 69.72C174.069 69.1129 174.17 68.6624 174.25 68.3055C174.26 68.2595 174.27 68.2151 174.28 68.172C174.365 67.7983 174.434 67.5412 174.607 67.1955C174.987 66.4338 175.876 65.2254 178.477 62.2366L178.499 62.2185C178.523 62.1993 178.551 62.1762 178.584 62.1496C178.63 62.1128 178.684 62.0692 178.747 62.0195C178.963 61.8482 179.274 61.6051 179.654 61.3212C180.417 60.7514 181.442 60.0258 182.513 59.3855C183.6 58.7354 184.665 58.2156 185.52 58.0028C186.437 57.7742 186.658 57.988 186.724 58.0867L186.842 58.2622L187.019 58.3745L187.019 58.3747L187.019 58.3748L187.02 58.3749L187.02 58.3752L187.026 58.3788L187.058 58.4C187.088 58.42 187.135 58.4514 187.196 58.4941C187.319 58.5795 187.499 58.7093 187.72 58.881C188.163 59.2252 188.764 59.7332 189.391 60.3836C190.657 61.6983 191.955 63.5196 192.35 65.6822C192.773 68.0053 192.905 73.9286 192.857 79.7408C192.833 82.6228 192.766 85.4414 192.673 87.7172C192.579 90.0238 192.461 91.6992 192.348 92.3467C192.238 92.9749 191.757 94.5044 191.035 96.5792C190.326 98.6161 189.419 101.088 188.5 103.54C187.295 106.759 186.047 110.006 185.235 112.121C184.823 113.193 184.523 113.974 184.396 114.314C184.054 115.235 183.016 116.906 181.987 118.438C181.487 119.182 181.01 119.864 180.658 120.359C180.482 120.606 180.338 120.806 180.238 120.945C180.218 120.973 180.199 120.998 180.183 121.021C178.146 122.415 176.374 123.783 174.729 125.052C173.891 125.699 173.086 126.32 172.296 126.906C169.892 128.69 167.531 130.229 164.513 131.452L164.188 131.584L164.016 131.891C162.817 134.035 163.491 135.808 163.995 136.813C164.169 137.16 164.438 137.49 164.688 137.762C164.948 138.045 165.239 138.318 165.504 138.553C165.77 138.789 166.02 138.994 166.203 139.14C166.295 139.213 166.371 139.272 166.424 139.313C166.437 139.323 166.449 139.332 166.46 139.34C166.47 139.349 166.48 139.355 166.487 139.361L166.505 139.375L166.51 139.378L166.511 139.38L166.512 139.38L166.512 139.38C166.512 139.38 166.512 139.38 167.111 138.579L166.512 139.38L166.642 139.477L166.796 139.528C168.762 140.182 170.031 140.576 171.333 140.576C172.635 140.576 173.904 140.182 175.871 139.528L176.082 139.458L176.244 139.305C189.949 126.293 198.507 114.617 203.168 102.254C207.832 89.8835 208.56 76.9205 206.771 61.4022L206.751 61.2297L206.674 61.0741C197.518 42.5242 188.999 32.5168 182.714 27.0234C179.569 24.2755 176.994 22.666 175.194 21.6844C174.483 21.2968 173.89 21.0055 173.454 20.7915C173.342 20.7366 173.24 20.6868 173.15 20.6418C173.094 20.6139 173.044 20.5889 173 20.5663Z" stroke="#EF4DB3" stroke-width="2" shape-rendering="crispEdges"/>
</g>
<path d="M29.91 140C29.25 140 28.71 139.79 28.29 139.37C27.87 138.95 27.66 138.41 27.66 137.75V79.25C27.66 78.59 27.87 78.05 28.29 77.63C28.71 77.21 29.25 77 29.91 77H70.05C70.71 77 71.25 77.21 71.67 77.63C72.09 78.05 72.3 78.59 72.3 79.25V86.9C72.3 87.56 72.09 88.1 71.67 88.52C71.25 88.94 70.71 89.15 70.05 89.15H41.7V104.36H68.25C68.91 104.36 69.45 104.57 69.87 104.99C70.29 105.41 70.5 105.95 70.5 106.61V114.26C70.5 114.86 70.29 115.37 69.87 115.79C69.45 116.21 68.91 116.42 68.25 116.42H41.7V137.75C41.7 138.41 41.49 138.95 41.07 139.37C40.65 139.79 40.11 140 39.45 140H29.91ZM84.7538 140C84.0938 140 83.5538 139.79 83.1338 139.37C82.7138 138.95 82.5038 138.41 82.5038 137.75V79.25C82.5038 78.59 82.7138 78.05 83.1338 77.63C83.5538 77.21 84.0938 77 84.7538 77H94.5638C95.2238 77 95.7638 77.21 96.1838 77.63C96.6038 78.05 96.8138 78.59 96.8138 79.25V101.75H121.204V79.25C121.204 78.59 121.414 78.05 121.834 77.63C122.254 77.21 122.794 77 123.454 77H133.264C133.924 77 134.464 77.21 134.884 77.63C135.304 78.05 135.514 78.59 135.514 79.25V137.75C135.514 138.41 135.304 138.95 134.884 139.37C134.464 139.79 133.924 140 133.264 140H123.454C122.794 140 122.254 139.79 121.834 139.37C121.414 138.95 121.204 138.41 121.204 137.75V114.53H96.8138V137.75C96.8138 138.41 96.6038 138.95 96.1838 139.37C95.7638 139.79 95.2238 140 94.5638 140H84.7538Z" fill="#E149A9"/>
<defs>
<filter id="filter0_ddd_298_117" x="0" y="0" width="236" height="149.576" filterUnits="userSpaceOnUse" color-interpolation-filters="sRGB">
<feFlood flood-opacity="0" result="BackgroundImageFix"/>
<feColorMatrix in="SourceAlpha" type="matrix" values="0 0 0 0 0 0 0 0 0 0 0 0 0 0 0 0 0 0 127 0" result="hardAlpha"/>
<feOffset dy="4"/>
<feGaussianBlur stdDeviation="2"/>
<feComposite in2="hardAlpha" operator="out"/>
<feColorMatrix type="matrix" values="0 0 0 0 0 0 0 0 0 0 0 0 0 0 0 0 0 0 0.25 0"/>
<feBlend mode="normal" in2="BackgroundImageFix" result="effect1_dropShadow_298_117"/>
<feColorMatrix in="SourceAlpha" type="matrix" values="0 0 0 0 0 0 0 0 0 0 0 0 0 0 0 0 0 0 127 0" result="hardAlpha"/>
<feOffset dy="4"/>
<feGaussianBlur stdDeviation="2"/>
<feComposite in2="hardAlpha" operator="out"/>
<feColorMatrix type="matrix" values="0 0 0 0 0 0 0 0 0 0 0 0 0 0 0 0 0 0 0.25 0"/>
<feBlend mode="normal" in2="effect1_dropShadow_298_117" result="effect2_dropShadow_298_117"/>
<feColorMatrix in="SourceAlpha" type="matrix" values="0 0 0 0 0 0 0 0 0 0 0 0 0 0 0 0 0 0 127 0" result="hardAlpha"/>
<feOffset/>
<feGaussianBlur stdDeviation="2"/>
<feComposite in2="hardAlpha" operator="out"/>
<feColorMatrix type="matrix" values="0 0 0 0 0.6 0 0 0 0 0.133555 0 0 0 0 0.45974 0 0 0 0.25 0"/>
<feBlend mode="normal" in2="effect2_dropShadow_298_117" result="effect3_dropShadow_298_117"/>
<feBlend mode="normal" in="SourceGraphic" in2="effect3_dropShadow_298_117" result="shape"/>
</filter>
</defs>
</svg>
