<svg width="60" height="67" viewBox="0 0 60 67" fill="none" xmlns="http://www.w3.org/2000/svg">
<path d="M29.3251 44.3129C32.4802 43.5174 35.8418 40.4036 37.1452 40.4036C35.8418 40.4036 39.1002 40.4036 37.1452 40.4036C39.1002 40.4036 39.1002 40.4036 37.1452 40.4036C37.1452 40.4036 41.382 41.5627 43.6619 40.4036C45.6133 39.4114 45.2628 37.9238 46.9202 36.4935C48.6436 35.0065 50.7678 35.7079 52.1336 33.8869C53.0993 32.5992 51.91 29.8341 53.4369 29.3252C55.3919 28.6735 56.7869 28.5418 57.9986 26.7185C58.8895 25.378 59.302 22.8085 59.302 22.8085L59.6562 19.9378C59.6562 19.9378 60.1504 17.3812 59.9536 16.2918C59.7568 15.2023 58.6503 11.7301 58.6503 11.7301C58.6503 11.7301 56.3017 6.50464 53.4369 4.56169C51.8329 3.47378 50.7827 2.95003 48.8752 2.60667C47.3724 2.33617 44.9652 2.60667 44.9652 2.60667L24.9209 7.9681L24.8858 5.19884L11.166 6.78027L6.35145 14.8912L4.50996 29.7356C4.50996 29.7356 2.59819 35.0773 3.06207 36.2652C3.52596 37.453 4.91059 40.6861 6.95591 41.3468C9.00122 42.0075 13.1551 42.7947 13.1551 42.7947L17.9697 45.3672C17.9697 45.3672 20.9287 43.9122 22.9811 44.3129C25.68 44.84 29.3251 44.3129 29.3251 44.3129Z" fill="#878787"/>
<path d="M10.5125 0.841116C8.43202 1.43152 4.24299 5.85249 3.58933 8.69204C2.93567 11.5316 4.54522 17.6816 4.25705 19.5371C3.89156 21.8776 2.52802 27.8168 2.4015 31.0499C2.27499 34.2831 4.84042 36.5885 4.84042 36.5885L7.37773 36.0613C7.37773 36.0613 6.98413 24.9491 7.44099 23.3607C7.90488 21.7792 8.99431 20.8866 8.99431 20.8866C8.99431 20.8866 8.50231 15.2146 10.8709 12.0447C13.2396 8.87478 17.1404 6.99815 19.7761 6.73106C22.4119 6.46398 24.8859 7.06141 24.8859 7.06141C24.8859 7.06141 25.4482 2.73883 22.8406 1.02386C19.8816 -0.916029 11.9955 0.419401 10.5125 0.841116Z" fill="#BEBEBE"/>
<path d="M32.3433 7.43391C32.3433 7.43391 34.719 3.20973 36.7643 2.94967C38.8096 2.68962 45.4586 1.96567 48.9027 3.21676C50.6317 3.8423 54.8559 8.04539 56.1421 10.1891C57.3861 12.2625 58.9957 15.0177 58.5318 18.518C58.0749 22.0112 57.0839 22.0112 57.0839 22.8687C57.0839 23.7261 57.4143 25.7715 56.0929 27.2896C54.7715 28.8078 53.3236 27.4232 52.4661 28.4775C51.6087 29.5318 51.8687 32.1745 50.6879 33.4256C49.5001 34.6767 46.9909 34.5502 46.0069 35.3374C45.0159 36.1316 44.7558 38.8306 42.2466 39.3647C39.7374 39.8919 38.7534 37.3827 38.0224 32.8352C37.2985 28.2807 36.933 20.8023 35.7803 20.8304C34.5995 20.8585 35.0282 23.1147 35.1688 26.151C35.3164 29.349 36.441 36.0051 34.2621 38.8446C32.0833 41.6842 29.7779 42.872 27.4022 42.9985C25.0266 43.1321 22.7704 41.4663 21.7161 41.6631C20.6618 41.8599 21.2733 43.1391 19.6216 44.6502C17.9066 46.2176 16.5853 47.7498 16.0581 49.0712C15.531 50.3926 14.0761 53.0986 14.1463 55.9311C14.2166 58.7636 15.1022 59.9374 16.2268 59.6773C17.3514 59.4102 16.6977 56.3106 17.7098 55.671C18.6517 55.0806 21.203 56.4653 21.1398 60.2888C21.0765 64.1124 17.3654 67.3455 12.2697 65.6657C6.87879 63.8874 6.18296 55.917 7.37079 51.7631C8.55862 47.6092 9.08577 44.2777 9.14902 41.9653C9.21228 39.6599 8.20719 38.3175 8.40399 36.6728C8.60079 35.0211 8.40399 34.6275 8.46725 31.6614C8.53051 28.6954 8.20017 24.4712 8.79759 23.4169C9.388 22.3626 10.379 21.238 10.379 21.238C10.379 21.238 9.73942 16.5359 11.103 13.9845C13.2115 10.0275 17.3022 8.11568 21.9902 7.65179C26.6713 7.17385 32.3433 7.43391 32.3433 7.43391Z" fill="#BEBEBE"/>
<path d="M27.1281 31.0148C28.4246 31.0148 29.4756 29.9417 29.4756 28.6181C29.4756 27.2944 28.4246 26.2213 27.1281 26.2213C25.8315 26.2213 24.7805 27.2944 24.7805 28.6181C24.7805 29.9417 25.8315 31.0148 27.1281 31.0148Z" fill="#340B67"/>
<path d="M22.911 40.2574C23.2062 38.9079 25.0476 36.9891 26.4393 37.453C27.3319 37.7482 27.9223 39.8919 27.6271 41.2765C27.3319 42.6611 26.0738 43.6873 24.394 43.1531C22.7142 42.626 22.7282 41.1078 22.911 40.2574Z" fill="#FAE9AE"/>
<path d="M1.41047 33.1304C0.869268 34.3323 2.4999 35.9981 3.58933 36.8907C4.67876 37.7833 7.05442 39.4631 7.74322 39.8567C8.43202 40.2503 9.12785 40.419 9.12785 40.419C9.12785 40.419 8.5023 37.9801 8.5023 37.2562C8.5023 36.5322 8.53745 35.0492 8.53745 35.0492C8.53745 35.0492 6.45699 33.9246 5.26916 33.531C4.08133 33.1304 1.86733 32.1042 1.41047 33.1304Z" fill="#FAE9AE"/>
<path d="M37.18 27.893C37.18 27.893 35.9168 27.6779 35.7231 28.6873C35.2453 31.1772 34.247 36.5219 27.7282 35.271C22.5085 34.2694 20.5328 31.0963 20.686 28.0375C20.7508 26.7668 20.5801 25.3325 19.3279 25.0922C18.0756 24.8519 17.3867 26.1182 16.976 27.3256C15.9831 30.2233 12.9732 32.4396 7.75351 31.438C1.23181 30.1865 2.28336 24.849 2.7606 22.362C2.9543 21.3526 1.70124 21.0848 1.70124 21.0848L2.17454 18.6183C2.17454 18.6183 4.66259 18.7105 8.35207 19.4185C12.0416 20.1265 13.5103 20.4084 16.3917 21.2646C18.0901 21.7726 19.892 22.1365 19.892 22.1365C19.892 22.1365 21.7006 22.4654 23.4664 22.6222C26.4572 22.8928 27.9289 23.1752 31.6183 23.8832C35.3078 24.5912 37.6533 25.4265 37.6533 25.4265L37.18 27.893Z" fill="#1A1A1A"/>
<path d="M31.4499 24.7609C33.8462 25.2208 35.6761 25.7388 36.6267 26.0334L36.4386 27.0136C35.6819 27.1475 35.0149 27.6353 34.8453 28.5189L34.8392 28.5511C34.6101 29.7448 34.2642 31.5471 33.266 32.8602C32.1214 34.3667 30.3661 34.8671 27.8966 34.3933C23.78 33.6033 21.4174 31.2448 21.5785 28.0814C21.72 25.2418 20.5233 24.4115 19.4963 24.2144C18.4664 24.0168 17.0503 24.3457 16.1306 27.036C15.1034 30.0332 12.0357 31.3496 7.92195 30.5602C5.45254 30.0863 4.00763 28.9688 3.50145 27.1486C3.06073 25.5563 3.40659 23.754 3.6351 22.5632L3.64128 22.531C3.8114 21.6445 3.3689 20.9468 2.71835 20.5428L2.90644 19.5627C3.89567 19.6403 5.78738 19.8364 8.18364 20.2963C11.9053 21.0104 13.298 21.2777 16.1361 22.1226C17.855 22.6345 19.6387 22.998 19.7148 23.0126L19.7236 23.0143L19.7324 23.016C19.8084 23.0306 21.6 23.3531 23.3863 23.5139C26.3326 23.779 27.7253 24.0462 31.4499 24.7609ZM31.6183 23.8832C27.9289 23.1752 26.4601 22.8933 23.4693 22.6228C21.7006 22.4654 19.892 22.1365 19.892 22.1365C19.892 22.1365 18.0901 21.7726 16.3917 21.2646C13.5133 20.4089 12.0416 20.1265 8.355 19.4191C4.66552 18.7111 2.17747 18.6189 2.17747 18.6189L1.70417 21.0854C1.70417 21.0854 2.95723 21.3531 2.76353 22.3626C2.28336 24.849 1.23182 30.1865 7.75351 31.438C12.9732 32.4396 15.9831 30.2233 16.9731 27.325C17.3832 26.1205 18.0727 24.8513 19.3249 25.0916C20.5772 25.3319 20.7485 26.7633 20.683 28.037C20.5299 31.0958 22.5056 34.2688 27.7253 35.2704C34.2441 36.5214 35.2429 31.1737 35.7202 28.6868C35.9139 27.6773 37.177 27.8924 37.177 27.8924L37.6503 25.426C37.6533 25.4265 35.3049 24.5906 31.6183 23.8832Z" fill="#1A1A1A"/>
<path d="M6.57269 24.6285C6.45304 25.094 6.17864 25.4964 5.69952 25.4954C5.64517 25.4941 5.59138 25.4898 5.53871 25.4797C5.13495 25.4023 4.83302 25.047 4.83262 24.6222C4.83777 23.7101 5.18628 22.9215 5.81677 22.4024C6.40778 21.9152 7.17927 21.7205 7.93707 21.8659C8.40813 21.9563 8.77038 22.3291 8.67998 22.8002C8.57331 23.3561 8.08659 23.5054 7.60918 23.5746C7.16327 23.6376 6.71785 24.0618 6.57269 24.6285Z" fill="#858585"/>
<path d="M25.3713 28.2359C25.2516 28.7013 24.9772 29.1037 24.4981 29.1028C24.4437 29.1014 24.39 29.0972 24.3373 29.0871C23.9335 29.0096 23.6316 28.6544 23.6312 28.2296C23.6364 27.3175 23.9849 26.5289 24.6154 26.0098C25.2064 25.5225 25.9779 25.3278 26.7356 25.4732C27.2067 25.5636 27.569 25.9365 27.4786 26.4075C27.3719 26.9634 26.8852 27.1127 26.4078 27.1819C25.9619 27.245 25.5164 27.6691 25.3713 28.2359Z" fill="#858585"/>
</svg>
