<svg width="332" height="328" viewBox="0 0 332 328" fill="none" xmlns="http://www.w3.org/2000/svg">
<circle cx="94.2702" cy="260.27" r="67.2702" fill="#9EA8FF"/>
<circle cx="264.27" cy="260.27" r="67.2702" fill="#FFABCE"/>
<circle cx="184.27" cy="67.2702" r="67.2702" fill="#FFC985"/>
<rect x="44.8468" y="186.082" width="190.269" height="190.269" rx="57.2755" transform="rotate(-45 44.8468 186.082)" fill="#05A3FF"/>
<path d="M110.354 209.815C107.392 209.815 104.752 209.301 102.435 208.273C100.118 207.225 98.2842 205.683 96.9342 203.648C95.6044 201.592 94.9395 199.032 94.9395 195.969C94.9395 193.389 95.413 191.222 96.36 189.469C97.307 187.715 98.5965 186.305 100.229 185.236C101.861 184.168 103.714 183.362 105.79 182.818C107.885 182.274 110.082 181.891 112.379 181.669C115.079 181.387 117.255 181.125 118.907 180.883C120.559 180.621 121.758 180.238 122.504 179.734C123.249 179.23 123.622 178.485 123.622 177.497V177.316C123.622 175.401 123.017 173.92 121.808 172.872C120.62 171.824 118.927 171.3 116.731 171.3C114.414 171.3 112.57 171.813 111.2 172.841V172.841C108.964 174.486 106.492 176.489 103.726 176.264L103.506 176.246C99.8309 175.948 97.1725 172.337 99.3483 169.36C99.5972 169.02 99.8604 168.689 100.138 168.367C101.911 166.291 104.198 164.699 106.999 163.59C109.82 162.462 113.084 161.897 116.791 161.897C119.37 161.897 121.839 162.2 124.196 162.804C126.574 163.409 128.679 164.346 130.513 165.616C132.367 166.886 133.827 168.518 134.895 170.513C135.963 172.489 136.497 174.857 136.497 177.618V202.833C136.497 206.205 133.764 208.938 130.392 208.938H129.335C126.547 208.938 124.287 206.678 124.287 203.89V203.89C124.287 203.537 123.752 203.388 123.538 203.669C122.794 204.648 121.834 205.538 120.932 206.338C119.683 207.427 118.182 208.283 116.429 208.908C114.676 209.513 112.651 209.815 110.354 209.815ZM114.041 200.927C115.935 200.927 117.607 200.554 119.058 199.808C120.509 199.042 121.647 198.014 122.473 196.725C123.299 195.435 123.713 193.973 123.713 192.341V189.232C123.713 188.449 122.797 187.904 122.05 188.139V188.139C121.365 188.34 120.589 188.532 119.723 188.713C118.857 188.874 117.99 189.025 117.124 189.167C116.257 189.287 115.472 189.398 114.766 189.499C113.255 189.721 111.935 190.074 110.807 190.557C109.679 191.041 108.802 191.696 108.177 192.522C107.553 193.328 107.241 194.336 107.241 195.545C107.241 197.299 107.875 198.639 109.145 199.566C110.434 200.473 112.066 200.927 114.041 200.927Z" fill="white"/>
<path d="M167.462 209.845C162.706 209.845 158.616 208.837 155.191 206.822C151.785 204.786 149.166 201.965 147.332 198.357C145.519 194.749 144.612 190.598 144.612 185.902C144.612 181.145 145.529 176.973 147.363 173.386C149.216 169.778 151.846 166.966 155.251 164.951C158.656 162.915 162.706 161.897 167.401 161.897C171.451 161.897 174.997 162.633 178.04 164.104C181.082 165.576 183.49 167.641 185.263 170.302C185.867 171.208 186.379 172.168 186.798 173.181C188.185 176.536 185.151 179.674 181.521 179.674V179.674C178.375 179.674 175.956 177.102 173.916 174.707C173.73 174.489 173.533 174.281 173.325 174.081C171.874 172.65 169.97 171.934 167.613 171.934C165.618 171.934 163.875 172.479 162.384 173.567C160.913 174.635 159.765 176.197 158.938 178.253C158.112 180.309 157.699 182.798 157.699 185.72C157.699 188.683 158.102 191.202 158.908 193.278C159.734 195.354 160.893 196.936 162.384 198.024C163.875 199.113 165.618 199.657 167.613 199.657C169.084 199.657 170.403 199.355 171.572 198.75C172.761 198.145 173.738 197.269 174.504 196.12V196.12C175.95 193.968 177.965 191.918 180.559 191.918H181.502C185.135 191.918 188.153 195.064 186.779 198.428C186.37 199.43 185.875 200.383 185.294 201.29C183.581 203.97 181.213 206.066 178.191 207.578C175.169 209.089 171.592 209.845 167.462 209.845Z" fill="white"/>
<path d="M202.876 208.938C199.321 208.938 196.439 206.056 196.439 202.501V168.637C196.439 165.249 199.186 162.502 202.574 162.502V162.502C205.963 162.502 208.709 165.249 208.709 168.637V169.368C208.709 169.625 209.12 169.707 209.237 169.478C210.343 167.326 212.18 165.585 214.089 164.255C216.346 162.683 219.046 161.897 222.189 161.897C225.373 161.897 228.083 162.694 230.32 164.286C232.313 165.687 234.098 167.536 234.991 169.834C235.092 170.095 235.498 170.107 235.61 169.851C236.602 167.581 238.204 165.736 240.414 164.316C242.913 162.704 245.865 161.897 249.27 161.897C253.602 161.897 257.118 163.278 259.818 166.039C262.538 168.78 263.898 172.67 263.898 177.709V202.516C263.898 206.063 261.023 208.938 257.476 208.938V208.938C253.929 208.938 251.053 206.063 251.053 202.516V180.248C251.053 177.668 250.368 175.734 248.998 174.444C247.628 173.154 245.915 172.509 243.86 172.509C241.522 172.509 239.699 173.255 238.389 174.746C237.08 176.217 236.425 178.162 236.425 180.581V202.697C236.425 206.144 233.63 208.938 230.184 208.938V208.938C226.737 208.938 223.942 206.144 223.942 202.697V179.976C223.942 177.699 223.287 175.885 221.978 174.534C220.688 173.184 218.986 172.509 216.87 172.509C215.439 172.509 214.15 172.872 213.001 173.597C211.873 174.303 210.976 175.3 210.311 176.59C209.646 177.86 209.314 179.351 209.314 181.064V202.501C209.314 206.056 206.432 208.938 202.876 208.938V208.938Z" fill="white"/>
<path d="M122.451 113.413C123.077 114.576 118.153 114.853 119.868 116.321C121.583 117.788 118.027 113.957 118.207 115.767C118.402 117.58 116.59 127.581 115.913 130.698C115.236 133.815 113.411 123.587 111.651 125.152C109.9 126.711 112.253 130.236 110.91 127.269C109.568 124.301 117.963 136.653 117.963 136.653L112.587 133.992L104.901 140.534C104.901 140.534 90.8921 124.034 93.1225 127.269C95.3529 130.504 101.045 135.371 100.074 137.862C98.9904 140.644 92.5121 144.583 89.9993 144.017C87.4864 143.451 84.6328 136.488 81.7239 134.072C78.815 131.657 92.2803 151.722 92.2803 151.722L63.8881 125.152L59.537 110.643C59.537 110.643 58.5821 109.003 57.9107 107.519C57.2393 106.035 56.8874 101.681 56.7604 100.713C56.6335 99.7458 82.7443 76.0792 82.7443 76.0792L91.6141 67.1379L89.3441 63.7543L107.283 54.2126L119.888 60.0164L134.515 76.4587C134.515 76.4587 141.291 81.3323 141.721 83.1584C142.151 84.9846 143.174 90.057 141.248 92.5653C139.323 95.0735 134.949 99.4959 134.949 99.4959L131.265 106.632C131.265 106.632 126.466 107.341 124.315 109.54C121.486 112.433 122.451 113.413 122.451 113.413Z" fill="#878787"/>
<path d="M103.115 46.4728C106.128 45.4506 114.893 47.3073 118.057 50.2008C121.22 53.0943 124.406 61.8876 126.304 63.8944C128.702 66.4241 135.313 72.4792 138.166 76.2897C141.019 80.1002 139.837 85.0349 139.837 85.0349L136.324 86.5153C136.324 86.5153 127.521 72.727 125.641 71.1845C123.758 69.6564 121.693 69.485 121.693 69.485C121.693 69.485 117.553 62.2039 112.036 60.3424C106.52 58.4809 100.228 59.4654 96.8128 61.343C93.3972 63.2205 90.8994 66.0102 90.8994 66.0102C90.8994 66.0102 86.6086 61.2441 88.3349 56.9893C90.2991 52.1685 100.966 47.2005 103.115 46.4728Z" fill="#BEBEBE"/>
<path d="M103.029 115.248C103.029 115.248 102.912 119.687 99.6319 121.597C96.3517 123.506 89.7519 123.334 86.1394 122.886C82.527 122.437 73.1065 120.906 70.0475 119.712C66.9884 118.518 64.6592 117.034 62.5951 114.714C60.3939 112.25 59.5396 110.629 59.5396 110.629C59.5396 110.629 57.083 113.478 56.1875 118.592C55.5268 122.388 54.7639 126.619 57.7622 134.211C60.7605 141.802 62.937 145.816 63.0538 146.677C63.1705 147.539 62.9572 150.6 62.7036 152.545C62.3598 155.144 61.4813 156.93 61.0656 157.129C59.8627 157.606 58.7049 158.405 57.453 159.795C56.2012 161.186 55.7214 164.807 55.439 166.748C55.0744 169.298 54.4036 171.531 54.609 171.829C55.0317 172.442 59.925 169.684 63.2849 164.793C65.3573 161.769 64.5553 158.164 64.5553 158.164C64.5553 158.164 65.7813 154.933 66.3428 152.687C66.6453 151.486 67.0199 149.57 67.0199 149.57C67.0199 149.57 69.2513 151.586 71.3193 153.237C73.6896 155.145 76.3913 157.515 78.1779 160.616C79.9645 163.718 81.0808 168.16 81.6629 171.829C82.2451 175.497 83.3613 179.939 86.6566 181.385C89.9519 182.831 98.0927 183.235 99.502 179.249C100.37 176.791 98.1056 171.193 96.9005 168.043C95.6954 164.892 94.0747 157.531 93.9148 156.662C93.7608 155.801 93.7232 152.285 93.7232 152.285C93.7232 152.285 98.8408 149.196 103.652 145.791C108.464 142.386 110.953 139.966 110.953 139.966C110.953 139.966 119.271 144.216 123.339 147.165C127.406 150.113 132.303 155.303 134.321 156.298C136.338 157.293 139.827 159.02 145.348 154.348C149.871 150.525 148.786 146.765 148.786 146.765C148.786 146.765 147.375 143.316 141.611 138.799C135.847 134.283 129.865 130.105 125.395 126.555C123.838 125.318 121.48 123.063 121.48 123.063C121.48 123.063 122.265 116.769 122.275 116.146C122.286 115.524 122.663 113.757 122.663 113.757L122.235 112.808C122.235 112.808 119.287 115.054 114.948 116.413C108.375 118.52 103.029 115.248 103.029 115.248Z" fill="#BEBEBE"/>
<path d="M82.178 72.6889C82.178 72.6889 75.7729 69.5563 73.0784 70.9493C70.3838 72.3423 61.7257 77.018 58.5989 81.4094C57.027 83.611 55.4205 92.2295 55.6527 95.9002C55.8774 99.4505 56.2287 104.132 59.7135 107.984C63.184 111.834 64.3844 111.006 65.1005 112.045C65.8166 113.083 67.1245 115.837 69.9928 116.572C72.8611 117.307 73.4585 114.421 75.3776 114.982C77.2966 115.543 79.1886 118.961 81.6636 119.49C84.1471 120.014 87.0807 117.765 88.9299 117.897C90.7936 118.031 93.3624 121.083 96.8478 119.635C100.327 118.178 99.4237 114.317 96.5115 108.199C93.585 102.077 87.7825 92.714 89.2022 91.7854C90.6559 90.8334 92.0207 93.9242 94.386 97.7194C96.8779 101.716 101.074 110.717 106.085 112.337C111.095 113.957 114.879 113.471 117.862 111.64C120.851 109.818 122.193 105.916 123.634 105.274C125.076 104.632 125.403 106.692 128.666 107.143C132.052 107.609 134.932 108.362 136.674 109.522C138.416 110.682 142.438 112.745 144.718 116.235C146.999 119.724 146.906 121.886 145.327 122.51C143.742 123.125 141.945 118.825 140.185 118.896C138.551 118.967 136.617 122.775 139.887 127.353C143.156 131.931 150.351 132.749 155.121 126.458C160.165 119.803 154.352 109.568 149.445 105.528C144.537 101.489 141.116 97.8936 139.109 95.1455C137.107 92.406 137.203 89.9406 135.591 88.1128C133.974 86.2765 133.883 85.6355 131.33 82.0957C128.776 78.5559 125.649 73.1635 124.045 72.3854C122.449 71.6014 120.31 71.0669 120.31 71.0669C120.31 71.0669 117.158 64.8374 113.376 62.8857C107.517 59.8536 100.966 60.954 94.9 64.3071C88.831 67.6372 82.178 72.6889 82.178 72.6889Z" fill="#BEBEBE"/>
<path d="M108.187 96.8959C106.617 97.9786 104.447 97.5566 103.342 95.9533C102.237 94.35 102.614 92.1726 104.184 91.0899C105.754 90.0072 107.924 90.4292 109.029 92.0325C110.134 93.6358 109.757 95.8132 108.187 96.8959Z" fill="#1A1A1A"/>
<path d="M121.013 104.569C119.529 103.181 115.696 102.395 114.398 104.119C113.563 105.222 114.638 108.312 116.152 109.742C117.666 111.173 120.047 111.365 121.635 109.315C123.23 107.274 121.945 105.447 121.013 104.569Z" fill="#FAE9AE"/>
<path d="M141.104 77.9821C142.763 78.9859 142.179 82.3653 141.605 84.3562C141.031 86.3472 139.556 90.3658 139.05 91.4177C138.545 92.4697 137.843 93.2551 137.843 93.2551C137.843 93.2551 136.564 89.7786 135.959 88.9017C135.355 88.0248 134.074 86.2579 134.074 86.2579C134.074 86.2579 135.655 83.1584 136.765 81.6897C137.869 80.2125 139.694 77.1206 141.104 77.9821Z" fill="#FAE9AE"/>
<path d="M92.5 97.1569C92.5 97.1569 94.0276 95.997 94.9834 97.2026C97.3413 100.176 102.366 106.579 110.152 100.406C116.386 95.4629 116.811 89.8839 114.491 85.9304C113.525 84.2887 112.759 82.267 114.254 81.0812C115.75 79.8954 117.541 81.099 118.922 82.4172C122.245 85.5756 127.774 86.4334 134.008 81.4906C141.798 75.3149 136.707 68.9589 134.352 65.9886C133.396 64.783 134.874 63.5602 134.874 63.5602L132.538 60.6144C132.538 60.6144 129.3 62.4591 124.893 65.9529C120.487 69.4467 118.733 70.8375 115.501 73.9687C113.599 75.8186 111.459 77.549 111.459 77.549C111.459 77.549 109.287 79.2375 107.052 80.6681C103.27 83.0976 101.512 84.4912 97.1054 87.985C92.6989 91.4787 90.1644 94.2111 90.1644 94.2111L92.5 97.1569Z" fill="#1A1A1A"/>
<path d="M97.9362 89.0335C95.0743 91.3027 93.0042 93.257 91.9465 94.3061L92.8747 95.4768C93.9718 95.1305 95.1946 95.3163 96.0314 96.3716L96.0618 96.41C97.1923 97.8358 98.899 99.9883 101.133 101.04C103.695 102.247 106.371 101.696 109.32 99.3576C114.237 95.4593 115.74 90.6936 113.336 86.6067C111.183 82.9359 112.196 81.0056 113.423 80.0331C114.653 79.0578 116.76 78.514 119.843 81.4478C123.281 84.7146 128.264 84.338 133.177 80.4425C136.126 78.1041 137.27 75.6206 136.682 72.8544C136.165 70.4361 134.458 68.2835 133.33 66.8612L133.3 66.8228C132.46 65.764 132.565 64.5317 133.148 63.5452L132.22 62.3746C130.961 63.1624 128.586 64.7323 125.724 67.0015C121.279 70.5257 119.616 71.8445 116.434 74.9306C114.507 76.7999 112.391 78.5172 112.301 78.5893L112.29 78.5976L112.28 78.6059C112.189 78.6779 110.034 80.3463 107.775 81.7963C104.048 84.1877 102.385 85.5065 97.9362 89.0335ZM97.105 87.9852C101.512 84.4914 103.266 83.1006 107.048 80.6711C109.286 79.2377 111.459 77.5492 111.459 77.5492C111.459 77.5492 113.598 75.8188 115.501 73.9689C118.729 70.8405 120.486 69.4469 124.889 65.9559C129.296 62.4621 132.534 60.6174 132.534 60.6174L134.87 63.5632C134.87 63.5632 133.392 64.786 134.348 65.9916C136.707 68.9591 141.797 75.3151 134.008 81.4908C127.774 86.4336 122.245 85.5758 118.925 82.4146C117.547 81.1 115.753 79.8928 114.257 81.0786C112.762 82.2645 113.525 84.2827 114.494 85.9278C116.815 89.8814 116.389 95.4603 110.155 100.403C102.369 106.576 97.3416 100.17 94.9865 97.2C94.0307 95.9944 92.5031 97.1543 92.5031 97.1543L90.1675 94.2085C90.164 94.2113 92.702 91.4762 97.105 87.9852Z" fill="#1A1A1A"/>
<path d="M130.862 71.6358C131.343 72.1707 131.985 72.5147 132.621 72.1818C132.692 72.1424 132.76 72.0995 132.823 72.0497C133.305 71.6673 133.46 70.9868 133.167 70.4228C132.528 69.2158 131.52 68.4105 130.324 68.158C129.202 67.9205 128.043 68.1961 127.138 68.9137C126.576 69.3598 126.353 70.1054 126.799 70.668C127.326 71.332 128.075 71.1932 128.756 70.9545C129.392 70.7295 130.277 70.9841 130.862 71.6358Z" fill="#858585"/>
<path d="M108.41 89.437C108.891 89.9719 109.534 90.316 110.169 89.9831C110.24 89.9437 110.308 89.9008 110.371 89.8509C110.854 89.4686 111.008 88.7881 110.715 88.2241C110.077 87.0171 109.068 86.2118 107.872 85.9593C106.75 85.7218 105.592 85.9974 104.686 86.715C104.124 87.161 103.901 87.9067 104.347 88.4693C104.874 89.1332 105.623 88.9944 106.305 88.7557C106.94 88.5308 107.825 88.7854 108.41 89.437Z" fill="#858585"/>
</svg>
