<svg width="120" height="120" viewBox="0 0 120 120" fill="none" xmlns="http://www.w3.org/2000/svg">
<path d="M45.6754 116.177H21.2589V78.5344C21.2589 74.6619 24.4264 71.4944 28.2989 71.4944H38.6255C42.498 71.4944 45.6655 74.6619 45.6655 78.5344V116.177H45.6754Z" fill="#795548"/>
<path opacity="0.2" d="M38.6355 74.4733C40.8796 74.4733 42.6966 76.3003 42.6966 78.5344V113.198H24.2378V78.5344C24.2378 76.2904 26.0648 74.4733 28.299 74.4733H38.6355ZM38.6355 71.4944H28.3089C24.4364 71.4944 21.2689 74.6619 21.2689 78.5344V116.177H45.6755V78.5344C45.6755 74.6619 42.508 71.4944 38.6355 71.4944Z" fill="#424242"/>
<path d="M0.456751 55.1109C1.09224 41.16 23.6618 2.6735 23.6618 2.6735C24.8732 -0.891167 31.5657 -0.891167 32.7771 2.6735C32.7771 2.6735 54.6814 41.5075 54.6318 55.4187C54.592 69.1412 51.2558 88.1759 28.2195 88.1759C4.50796 88.1759 -0.178733 68.8135 0.456751 55.1109Z" fill="url(#paint0_radial_211_2170)"/>
<path opacity="0.2" d="M28.2195 3.18985C29.1628 3.18985 29.7089 3.55724 29.7585 3.69625L29.8578 3.97428L30.0068 4.23244C35.9744 14.8371 51.4742 44.685 51.4444 55.4088C51.3848 75.5854 43.9973 84.9886 28.2195 84.9886C20.5937 84.9886 14.6459 82.8041 10.5351 78.5046C3.92213 71.5838 3.37601 60.9692 3.63417 55.2499C4.13064 44.4665 20.2461 14.7974 26.4123 4.28209L26.5712 4.00407L26.6705 3.69625C26.7201 3.55724 27.2662 3.18985 28.2195 3.18985ZM28.2195 0.00250244C26.2435 0.00250244 24.2675 0.896152 23.6618 2.67352C23.6618 2.67352 1.09224 41.16 0.456751 55.1109C-0.178733 68.8135 4.50796 88.1759 28.2195 88.1759C51.2558 88.1759 54.592 69.1412 54.6318 55.4187C54.6715 41.5076 32.7771 2.67352 32.7771 2.67352C32.1714 0.896152 30.1954 0.00250244 28.2195 0.00250244Z" fill="#424242"/>
<path d="M1.00292 111.977C0.973128 110.815 1.0327 108.779 1.6384 106.714C2.35332 104.281 3.9321 101.203 7.34783 100.369C7.90387 100.23 8.46985 100.161 9.0259 100.161C9.47273 100.161 9.92948 100.2 10.3763 100.29C10.4359 100.3 10.5054 100.31 10.565 100.31C11.0019 100.31 11.3891 100.022 11.5182 99.5948C12.4118 96.5365 15.2517 94.4017 18.439 94.4017C20.9512 94.4017 23.2349 95.6726 24.5655 97.8075C24.7541 98.1054 25.0719 98.2742 25.4095 98.2742C25.4889 98.2742 25.5683 98.2642 25.6478 98.2444C26.2138 98.1054 26.7897 98.0359 27.3656 98.0359C27.8025 98.0359 28.2394 98.0756 28.6663 98.155C31.814 98.721 34.2169 101.273 34.5247 104.371C34.624 105.364 34.4353 106.337 33.9984 107.121C33.78 107.509 33.8197 108.045 34.1375 108.362C34.8524 109.077 34.8822 110.269 34.5446 111.073C34.4353 111.341 34.1077 111.967 33.5318 111.967H1.00292V111.977Z" fill="url(#paint1_radial_211_2170)"/>
<path d="M18.439 95.4045C20.6036 95.4045 22.5795 96.5067 23.7214 98.3436C24.0888 98.9394 24.7342 99.277 25.4094 99.277C25.5683 99.277 25.7272 99.2571 25.886 99.2174C26.3726 99.0983 26.869 99.0387 27.3655 99.0387C27.7428 99.0387 28.1202 99.0685 28.4975 99.138C31.1586 99.6146 33.2835 101.859 33.5416 104.47C33.6211 105.264 33.4721 106.029 33.1345 106.635C32.5685 107.648 32.9459 108.571 33.4324 109.067C33.6707 109.306 33.7899 109.733 33.7501 110.189C33.7104 110.616 33.5416 110.894 33.4622 110.984H1.9958C2.02559 109.892 2.1646 108.442 2.59157 106.992C3.52494 103.815 5.21294 101.908 7.58608 101.332C8.06269 101.213 8.54923 101.154 9.03577 101.154C9.42302 101.154 9.81027 101.193 10.1975 101.263C10.3266 101.283 10.4458 101.303 10.5649 101.303C11.4288 101.303 12.2231 100.737 12.4714 99.8728C13.2359 97.2415 15.6885 95.4045 18.439 95.4045ZM18.439 93.4186C14.7055 93.4186 11.5579 95.9109 10.5649 99.3267C10.0684 99.2373 9.5521 99.1777 9.02584 99.1777C8.40029 99.1777 7.76481 99.2472 7.10946 99.4061C3.68381 100.24 1.67806 103.05 0.685116 106.436C-0.287969 109.733 0.0694913 112.95 0.0694913 112.98H33.5416C35.6268 112.98 36.59 109.425 34.8424 107.677C34.8325 107.667 35.7261 106.377 35.5176 104.291C35.1701 100.737 32.36 97.8372 28.8549 97.2018C28.3485 97.1124 27.862 97.0727 27.3754 97.0727C26.7002 97.0727 26.0449 97.1521 25.4193 97.311C23.9597 94.9676 21.3781 93.4186 18.439 93.4186Z" fill="#689F38"/>
<path d="M26.5017 102.643C26.5017 102.643 26.5811 100.399 24.764 97.9861" stroke="#689F38" stroke-width="1.98589" stroke-miterlimit="10" stroke-linecap="round" stroke-linejoin="round"/>
<path d="M10.694 100.26C12.8189 100.3 14.8941 101.958 15.2019 104.003" stroke="#689F38" stroke-width="1.98589" stroke-miterlimit="10" stroke-linecap="round" stroke-linejoin="round"/>
<path d="M12.8785 104.947C14.7453 104.103 17.2574 104.232 19.1837 105.215" stroke="#689F38" stroke-width="1.98589" stroke-miterlimit="10" stroke-linecap="round" stroke-linejoin="round"/>
<path d="M69.5359 17.8755L23.225 57.5734H26.5315V116.127H112.54V57.5734H115.847L69.5359 17.8755Z" fill="url(#paint2_radial_211_2170)"/>
<path opacity="0.2" d="M69.5359 21.7976L109.83 56.3322C109.661 56.7095 109.561 57.1266 109.561 57.5635V113.139H29.5103V57.5734C29.5103 57.1365 29.411 56.7095 29.2422 56.3421L69.5359 21.7976ZM69.5359 17.8755L23.225 57.5734H26.5315V116.127H112.54V57.5734H115.847L69.5359 17.8755Z" fill="#424242"/>
<path opacity="0.2" d="M76.973 36.0762C77.8865 36.0762 78.6313 36.8209 78.6313 37.7344V52.6186C78.6313 53.5321 77.8865 54.2768 76.973 54.2768H62.0888C61.1753 54.2768 60.4306 53.5321 60.4306 52.6186V37.7244C60.4306 36.8109 61.1753 36.0662 62.0888 36.0662H76.973M76.973 34.0903H62.0888C60.0831 34.0903 58.4447 35.7187 58.4447 37.7344V52.6186C58.4447 54.6243 60.0731 56.2627 62.0888 56.2627H76.973C78.9788 56.2627 80.6171 54.6343 80.6171 52.6186V37.7244C80.6171 35.7187 78.9887 34.0903 76.973 34.0903Z" fill="#424242"/>
<path opacity="0.2" d="M97.6561 64.1864C98.5696 64.1864 99.3143 64.9311 99.3143 65.8446V89.0001C99.3143 89.9136 98.5696 90.6583 97.6561 90.6583H82.7619C81.8484 90.6583 81.1037 89.9136 81.1037 89.0001V65.8446C81.1037 64.9311 81.8484 64.1864 82.7619 64.1864H97.6561ZM97.6561 62.2005H82.7619C80.7562 62.2005 79.1178 63.8289 79.1178 65.8446V89.0001C79.1178 91.0058 80.7462 92.6442 82.7619 92.6442H97.6461C99.6519 92.6442 101.29 91.0157 101.29 89.0001V65.8446C101.29 63.8389 99.6618 62.2005 97.6561 62.2005Z" fill="#424242"/>
<path d="M69.5358 103.884H39.7673V62.5381C39.7673 61.6246 40.512 60.8799 41.4256 60.8799H67.8875C68.801 60.8799 69.5457 61.6246 69.5457 62.5381V103.884H69.5358Z" fill="url(#paint3_radial_211_2170)"/>
<path d="M66.2293 101.878H43.0739C42.6171 101.878 42.2498 101.511 42.2498 101.054V63.7197C42.2498 63.2629 42.6171 62.8955 43.0739 62.8955H66.2293C66.6861 62.8955 67.0535 63.2629 67.0535 63.7197V101.054C67.0535 101.511 66.6861 101.878 66.2293 101.878Z" fill="url(#paint4_radial_211_2170)"/>
<path d="M61.6816 37.3173H77.39V53.0257H61.6816V37.3173Z" fill="#4FC3F7"/>
<path d="M60.4404 37.7244V52.6087C60.4404 53.5222 61.1851 54.2669 62.0986 54.2669H76.9829C77.8964 54.2669 78.6411 53.5222 78.6411 52.6087V37.7244C78.6411 36.8109 77.8964 36.0662 76.9829 36.0662H62.0887C61.1752 36.0762 60.4404 36.8109 60.4404 37.7244ZM76.9729 44.3374H70.3599V37.7244H76.9729V44.3374ZM68.7116 37.7244V44.3374H62.0986V37.7244H68.7116ZM62.0887 45.9957H68.7017V52.6087H62.0887V45.9957ZM70.3599 52.6087V45.9957H76.9729V52.6087H70.3599Z" fill="#EEEEEE"/>
<path d="M81.9675 65.4276H98.4603V89.4071H81.9675V65.4276Z" fill="#4FC3F7"/>
<path d="M63.7469 79.0706H45.5562C45.0994 79.0706 44.7321 78.7032 44.7321 78.2465V66.6687C44.7321 66.212 45.0994 65.8446 45.5562 65.8446H63.7469C64.2037 65.8446 64.5711 66.212 64.5711 66.6687V78.2465C64.5711 78.7032 64.2037 79.0706 63.7469 79.0706Z" fill="url(#paint5_radial_211_2170)"/>
<path d="M63.7469 98.9196H45.5562C45.0994 98.9196 44.7321 98.5522 44.7321 98.0955V83.2112C44.7321 82.7545 45.0994 82.3871 45.5562 82.3871H63.7469C64.2037 82.3871 64.5711 82.7545 64.5711 83.2112V98.0955C64.5711 98.5522 64.2037 98.9196 63.7469 98.9196Z" fill="url(#paint6_radial_211_2170)"/>
<path d="M72.8622 106.635H36.4708V103.606C36.4708 102.474 37.3843 101.561 38.5163 101.561H70.8068C71.9388 101.561 72.8523 102.474 72.8523 103.606V106.635H72.8622Z" fill="url(#paint7_linear_211_2170)"/>
<path opacity="0.3" d="M70.8167 102.554C71.4025 102.554 71.8692 103.03 71.8692 103.606V105.642H37.4637V103.606C37.4637 103.02 37.9403 102.554 38.5162 102.554H70.8167ZM70.8167 101.561H38.5262C37.3942 101.561 36.4807 102.474 36.4807 103.606V106.635H72.8721V103.606C72.8622 102.474 71.9487 101.561 70.8167 101.561Z" fill="#263238"/>
<path opacity="0.2" d="M53.441 103.61C53.5162 103.433 53.2868 103.166 52.9286 103.014C52.5704 102.861 52.2191 102.881 52.1439 103.057C52.0687 103.234 52.2981 103.501 52.6563 103.653C53.0145 103.806 53.3658 103.786 53.441 103.61Z" fill="#424242"/>
<path opacity="0.2" d="M69.0193 105.248C69.1265 105.116 69.0132 104.847 68.7663 104.646C68.5193 104.446 68.2323 104.39 68.1252 104.522C68.018 104.654 68.1313 104.924 68.3782 105.124C68.6251 105.325 68.9122 105.38 69.0193 105.248Z" fill="#424242"/>
<path opacity="0.08" d="M54.8998 104.967C55.3714 104.967 55.7538 104.78 55.7538 104.55C55.7538 104.319 55.3714 104.133 54.8998 104.133C54.4282 104.133 54.0459 104.319 54.0459 104.55C54.0459 104.78 54.4282 104.967 54.8998 104.967Z" fill="#424242"/>
<path opacity="0.08" d="M62.2377 104.917C62.7093 104.917 63.0917 104.73 63.0917 104.5C63.0917 104.27 62.7093 104.083 62.2377 104.083C61.7661 104.083 61.3838 104.27 61.3838 104.5C61.3838 104.73 61.7661 104.917 62.2377 104.917Z" fill="#424242"/>
<path opacity="0.08" d="M60.4803 103.805C60.8038 103.805 61.0661 103.645 61.0661 103.447C61.0661 103.25 60.8038 103.09 60.4803 103.09C60.1567 103.09 59.8944 103.25 59.8944 103.447C59.8944 103.645 60.1567 103.805 60.4803 103.805Z" fill="#424242"/>
<path opacity="0.08" d="M70.0324 104.093C70.4985 104.093 70.8764 103.866 70.8764 103.586C70.8764 103.307 70.4985 103.08 70.0324 103.08C69.5662 103.08 69.1884 103.307 69.1884 103.586C69.1884 103.866 69.5662 104.093 70.0324 104.093Z" fill="#424242"/>
<path opacity="0.08" d="M49.8061 103.606C50.1296 103.606 50.3919 103.477 50.3919 103.318C50.3919 103.159 50.1296 103.03 49.8061 103.03C49.4825 103.03 49.2202 103.159 49.2202 103.318C49.2202 103.477 49.4825 103.606 49.8061 103.606Z" fill="#424242"/>
<path opacity="0.08" d="M66.6912 104.303C67.2118 104.225 67.6027 103.954 67.5643 103.7C67.5258 103.445 67.0727 103.302 66.5522 103.38C66.0316 103.459 65.6408 103.729 65.6792 103.984C65.7176 104.238 66.1707 104.381 66.6912 104.303Z" fill="#424242"/>
<path opacity="0.2" d="M51.2517 104.89C51.7482 104.773 52.1039 104.48 52.0463 104.234C51.9886 103.988 51.5394 103.884 51.0429 104.001C50.5464 104.117 50.1907 104.411 50.2483 104.656C50.306 104.902 50.7552 105.006 51.2517 104.89Z" fill="#424242"/>
<path opacity="0.2" d="M63.7569 103.745C64.404 103.745 64.9286 103.554 64.9286 103.318C64.9286 103.082 64.404 102.891 63.7569 102.891C63.1098 102.891 62.5852 103.082 62.5852 103.318C62.5852 103.554 63.1098 103.745 63.7569 103.745Z" fill="#424242"/>
<path opacity="0.2" d="M56.8939 103.367C57.219 103.153 57.4067 102.864 57.3132 102.722C57.2196 102.58 56.8802 102.639 56.5551 102.853C56.23 103.067 56.0423 103.356 56.1358 103.498C56.2294 103.64 56.5688 103.581 56.8939 103.367Z" fill="#424242"/>
<path opacity="0.2" d="M59.9633 104.938C60.0737 104.699 59.6668 104.276 59.0545 103.993C58.4422 103.71 57.8563 103.674 57.7459 103.913C57.6355 104.152 58.0424 104.575 58.6547 104.858C59.2671 105.141 59.8529 105.177 59.9633 104.938Z" fill="#424242"/>
<path opacity="0.2" d="M46.6046 105.627C46.7118 105.495 46.5985 105.226 46.3516 105.025C46.1047 104.825 45.8176 104.769 45.7105 104.901C45.6033 105.033 45.7166 105.303 45.9636 105.503C46.2105 105.704 46.4975 105.759 46.6046 105.627Z" fill="#424242"/>
<path opacity="0.08" d="M39.827 105.294C40.2986 105.294 40.6809 105.108 40.6809 104.877C40.6809 104.647 40.2986 104.46 39.827 104.46C39.3553 104.46 38.973 104.647 38.973 104.877C38.973 105.108 39.3553 105.294 39.827 105.294Z" fill="#424242"/>
<path opacity="0.08" d="M38.0695 104.192C38.393 104.192 38.6553 104.032 38.6553 103.835C38.6553 103.637 38.393 103.477 38.0695 103.477C37.7459 103.477 37.4836 103.637 37.4836 103.835C37.4836 104.032 37.7459 104.192 38.0695 104.192Z" fill="#424242"/>
<path opacity="0.08" d="M47.6216 104.48C48.0877 104.48 48.4656 104.253 48.4656 103.974C48.4656 103.694 48.0877 103.467 47.6216 103.467C47.1555 103.467 46.7776 103.694 46.7776 103.974C46.7776 104.253 47.1555 104.48 47.6216 104.48Z" fill="#424242"/>
<path opacity="0.08" d="M44.2813 104.69C44.8019 104.612 45.1927 104.341 45.1543 104.087C45.1159 103.832 44.6628 103.689 44.1423 103.767C43.6217 103.846 43.2308 104.116 43.2692 104.371C43.3076 104.626 43.7608 104.769 44.2813 104.69Z" fill="#424242"/>
<path opacity="0.2" d="M41.3461 104.123C41.9932 104.123 42.5178 103.931 42.5178 103.696C42.5178 103.46 41.9932 103.269 41.3461 103.269C40.699 103.269 40.1744 103.46 40.1744 103.696C40.1744 103.931 40.699 104.123 41.3461 104.123Z" fill="#424242"/>
<path d="M82.7619 64.1864C81.8483 64.1864 81.1036 64.9311 81.1036 65.8446V89.0001C81.1036 89.9136 81.8483 90.6583 82.7619 90.6583H97.6461C98.5596 90.6583 99.3043 89.9136 99.3043 89.0001V65.8446C99.3043 64.9311 98.5596 64.1864 97.6461 64.1864H82.7619ZM91.0331 65.8446H97.6461V72.4576H91.0331V65.8446ZM82.7619 65.8446H89.3749V72.4576H82.7619V65.8446ZM82.7619 74.1158H89.3749V80.7288H82.7619V74.1158ZM89.3848 89.0001H82.7718V82.3871H89.3848V89.0001ZM97.656 89.0001H91.043V82.3871H97.656V89.0001ZM91.0331 80.7288V74.1158H97.6461V80.7288H91.0331Z" fill="#EEEEEE"/>
<path d="M63.5285 85.0282C61.6121 85.0282 60.0532 83.4693 60.0532 81.5529C60.0532 79.6366 61.6121 78.0776 63.5285 78.0776C65.4449 78.0776 67.0038 79.6366 67.0038 81.5529C67.0038 83.4693 65.4449 85.0282 63.5285 85.0282Z" fill="#FFC107"/>
<path d="M63.5286 79.0706C64.8988 79.0706 66.0109 80.1827 66.0109 81.553C66.0109 82.9232 64.8988 84.0353 63.5286 84.0353C62.1583 84.0353 61.0462 82.9232 61.0462 81.553C61.0462 80.1827 62.1583 79.0706 63.5286 79.0706ZM63.5286 77.0847C61.0661 77.0847 59.0603 79.0905 59.0603 81.553C59.0603 84.0155 61.0661 86.0212 63.5286 86.0212C65.9911 86.0212 67.9968 84.0155 67.9968 81.553C67.9968 79.0905 65.9911 77.0847 63.5286 77.0847Z" fill="#C62828"/>
<path d="M100.128 93.9647H80.2894C79.3759 93.9647 78.6312 93.22 78.6312 92.3065V89C78.6312 88.0865 79.3759 87.3418 80.2894 87.3418H100.138C101.052 87.3418 101.797 88.0865 101.797 89V92.3065C101.787 93.22 101.042 93.9647 100.128 93.9647Z" fill="#795548"/>
<path opacity="0.2" d="M100.128 89V92.3065H80.2894V89H100.128ZM100.128 87.3418H80.2894C79.3759 87.3418 78.6312 88.0865 78.6312 89V92.3065C78.6312 93.22 79.3759 93.9647 80.2894 93.9647H100.138C101.052 93.9647 101.797 93.22 101.797 92.3065V89C101.787 88.0865 101.042 87.3418 100.128 87.3418Z" fill="#424242"/>
<path d="M117.733 55.2598L72.1771 15.5619C70.6579 14.2314 68.4039 14.2314 66.8847 15.5619L21.3384 55.2598C19.6305 56.7492 19.4319 59.3607 20.9015 61.0884C22.3611 62.8261 24.9328 63.0246 26.6407 61.5352L67.9174 25.5708C68.8507 24.7566 70.2409 24.7566 71.1742 25.5708L112.451 61.5352C113.215 62.2005 114.159 62.5282 115.092 62.5282C116.234 62.5282 117.376 62.0416 118.18 61.0884C119.64 59.3607 119.441 56.7492 117.733 55.2598Z" fill="url(#paint8_radial_211_2170)"/>
<path opacity="0.2" d="M69.5359 17.5478C69.7146 17.5478 69.9728 17.5974 70.2309 17.806L115.787 57.5039C116.264 57.9209 116.323 58.6855 115.906 59.172C115.628 59.5096 115.281 59.5592 115.092 59.5592C114.913 59.5592 114.655 59.5096 114.407 59.3011L73.1204 23.3267C72.1275 22.4629 70.8565 21.9863 69.5359 21.9863C68.2153 21.9863 66.9443 22.4629 65.9513 23.3267L24.6747 59.2912C24.4264 59.5096 24.1583 59.5493 23.9895 59.5493C23.8108 59.5493 23.4633 59.4997 23.1753 59.1621C22.7682 58.6755 22.8179 57.911 23.2945 57.4939L68.8507 17.796C69.089 17.5974 69.3571 17.5478 69.5359 17.5478ZM69.5359 14.569C68.5926 14.569 67.6493 14.8966 66.8847 15.5619L21.3384 55.2598C19.6305 56.7492 19.4319 59.3607 20.9015 61.0884C21.7058 62.0416 22.8477 62.5282 23.9895 62.5282C24.9229 62.5282 25.8662 62.2005 26.6308 61.5352L67.9074 25.5708C68.3741 25.1637 68.96 24.9651 69.5359 24.9651C70.1118 24.9651 70.6976 25.1637 71.1643 25.5708L112.441 61.5352C113.206 62.2005 114.149 62.5282 115.082 62.5282C116.224 62.5282 117.366 62.0416 118.17 61.0884C119.63 59.3507 119.431 56.7492 117.733 55.2598L72.1771 15.5619C71.4225 14.9066 70.4792 14.569 69.5359 14.569Z" fill="#424242"/>
<path d="M76.1687 111.262H33.1643V107.787C33.1643 106.595 34.1275 105.632 35.319 105.632H74.0041C75.1956 105.632 76.1588 106.595 76.1588 107.787V111.262H76.1687Z" fill="url(#paint9_linear_211_2170)"/>
<path opacity="0.3" d="M74.0141 106.625C74.6595 106.625 75.1758 107.151 75.1758 107.787V110.269H34.1573V107.787C34.1573 107.141 34.6836 106.625 35.3191 106.625H74.0141ZM74.0141 105.632H35.329C34.1375 105.632 33.1743 106.595 33.1743 107.787V111.262H76.1787V107.787C76.1688 106.595 75.2056 105.632 74.0141 105.632Z" fill="#263238"/>
<path opacity="0.2" d="M70.2273 108.164C70.6241 108.02 70.8911 107.752 70.8237 107.567C70.7562 107.381 70.3798 107.348 69.9829 107.492C69.5861 107.636 69.3191 107.904 69.3866 108.089C69.4541 108.275 69.8305 108.308 70.2273 108.164Z" fill="#424242"/>
<path opacity="0.2" d="M52.8757 109.632C53.1566 109.441 53.3041 109.168 53.2052 109.023C53.1063 108.878 52.7985 108.916 52.5176 109.107C52.2367 109.299 52.0892 109.572 52.1881 109.717C52.287 109.861 52.5948 109.824 52.8757 109.632Z" fill="#424242"/>
<path opacity="0.08" d="M67.7784 109.455C68.2994 109.455 68.7217 109.268 68.7217 109.038C68.7217 108.807 68.2994 108.621 67.7784 108.621C67.2574 108.621 66.8351 108.807 66.8351 109.038C66.8351 109.268 67.2574 109.455 67.7784 109.455Z" fill="#424242"/>
<path opacity="0.08" d="M59.676 109.405C60.1969 109.405 60.6193 109.218 60.6193 108.988C60.6193 108.758 60.1969 108.571 59.676 108.571C59.155 108.571 58.7327 108.758 58.7327 108.988C58.7327 109.218 59.155 109.405 59.676 109.405Z" fill="#424242"/>
<path opacity="0.08" d="M61.6221 108.293C61.9785 108.293 62.2675 108.133 62.2675 107.935C62.2675 107.738 61.9785 107.578 61.6221 107.578C61.2656 107.578 60.9767 107.738 60.9767 107.935C60.9767 108.133 61.2656 108.293 61.6221 108.293Z" fill="#424242"/>
<path opacity="0.08" d="M51.0871 108.581C51.6025 108.581 52.0204 108.354 52.0204 108.075C52.0204 107.795 51.6025 107.568 51.0871 107.568C50.5716 107.568 50.1537 107.795 50.1537 108.075C50.1537 108.354 50.5716 108.581 51.0871 108.581Z" fill="#424242"/>
<path opacity="0.08" d="M73.3985 108.084C73.7549 108.084 74.0439 107.955 74.0439 107.796C74.0439 107.637 73.7549 107.508 73.3985 107.508C73.042 107.508 72.7531 107.637 72.7531 107.796C72.7531 107.955 73.042 108.084 73.3985 108.084Z" fill="#424242"/>
<path opacity="0.08" d="M55.8825 108.471C55.9156 108.216 55.4751 107.948 54.8986 107.873C54.3221 107.799 53.828 107.946 53.7949 108.201C53.7618 108.457 54.2023 108.724 54.7788 108.799C55.3552 108.874 55.8494 108.727 55.8825 108.471Z" fill="#424242"/>
<path opacity="0.2" d="M72.9102 109.145C72.9609 108.893 72.5575 108.598 72.0091 108.488C71.4607 108.378 70.975 108.494 70.9243 108.746C70.8735 108.999 71.277 109.293 71.8253 109.403C72.3737 109.513 72.8594 109.398 72.9102 109.145Z" fill="#424242"/>
<path opacity="0.2" d="M58.0077 108.233C58.7206 108.233 59.2986 108.042 59.2986 107.806C59.2986 107.571 58.7206 107.379 58.0077 107.379C57.2948 107.379 56.7169 107.571 56.7169 107.806C56.7169 108.042 57.2948 108.233 58.0077 108.233Z" fill="#424242"/>
<path opacity="0.2" d="M66.4376 107.988C66.5247 107.835 66.2981 107.542 65.9315 107.332C65.5649 107.123 65.1971 107.077 65.11 107.229C65.0229 107.381 65.2495 107.675 65.6161 107.884C65.9827 108.094 66.3505 108.14 66.4376 107.988Z" fill="#424242"/>
<path opacity="0.2" d="M63.6106 109.359C64.2916 109.083 64.7619 108.658 64.6609 108.409C64.56 108.16 63.926 108.181 63.245 108.458C62.5639 108.734 62.0937 109.159 62.1946 109.408C62.2956 109.657 62.9295 109.635 63.6106 109.359Z" fill="#424242"/>
<path opacity="0.2" d="M45.8278 108.541C46.2246 108.397 46.4916 108.13 46.4241 107.944C46.3567 107.759 45.9802 107.725 45.5834 107.87C45.1866 108.014 44.9196 108.281 44.987 108.467C45.0545 108.652 45.4309 108.686 45.8278 108.541Z" fill="#424242"/>
<path opacity="0.08" d="M43.3818 109.842C43.9027 109.842 44.3251 109.655 44.3251 109.425C44.3251 109.195 43.9027 109.008 43.3818 109.008C42.8608 109.008 42.4385 109.195 42.4385 109.425C42.4385 109.655 42.8608 109.842 43.3818 109.842Z" fill="#424242"/>
<path opacity="0.08" d="M37.2255 108.68C37.5819 108.68 37.8709 108.52 37.8709 108.323C37.8709 108.125 37.5819 107.965 37.2255 107.965C36.869 107.965 36.5801 108.125 36.5801 108.323C36.5801 108.52 36.869 108.68 37.2255 108.68Z" fill="#424242"/>
<path opacity="0.2" d="M48.5161 109.538C48.5669 109.285 48.1635 108.991 47.6151 108.881C47.0667 108.771 46.581 108.886 46.5302 109.139C46.4795 109.392 46.8829 109.686 47.4313 109.796C47.9797 109.906 48.4654 109.79 48.5161 109.538Z" fill="#424242"/>
<path opacity="0.2" d="M42.0338 108.364C42.1208 108.212 41.8943 107.919 41.5276 107.709C41.161 107.5 40.7932 107.453 40.7062 107.606C40.6191 107.758 40.8457 108.051 41.2123 108.261C41.5789 108.47 41.9467 108.517 42.0338 108.364Z" fill="#424242"/>
<path opacity="0.2" d="M39.2103 109.739C39.8914 109.463 40.3616 109.037 40.2607 108.788C40.1597 108.539 39.5258 108.561 38.8447 108.837C38.1637 109.113 37.6934 109.539 37.7944 109.788C37.8953 110.037 38.5293 110.015 39.2103 109.739Z" fill="#424242"/>
<path d="M83.4767 116.296C82.7916 116.296 82.4242 115.571 82.2951 115.263C81.9178 114.35 81.9575 113.009 82.7618 112.205C83.0796 111.887 83.1093 111.351 82.8909 110.964C82.4044 110.1 82.1958 109.018 82.3051 107.916C82.6327 104.559 85.3534 101.68 88.7592 101.064C89.2358 100.975 89.7223 100.935 90.199 100.935C90.8344 100.935 91.4699 101.015 92.0955 101.164C92.1749 101.183 92.2544 101.193 92.3338 101.193C92.6714 101.193 92.9891 101.025 93.1778 100.727C94.6374 98.3734 97.1694 96.9634 99.9397 96.9634C103.455 96.9634 106.592 99.3167 107.575 102.683C107.705 103.11 108.092 103.398 108.529 103.398C108.588 103.398 108.648 103.388 108.717 103.378C109.214 103.288 109.71 103.239 110.207 103.239C110.822 103.239 111.448 103.318 112.064 103.467C115.38 104.272 117.882 107.201 118.14 110.577C118.299 112.692 117.654 114.707 116.303 116.306H83.4767V116.296Z" fill="url(#paint10_radial_211_2170)"/>
<path d="M99.9398 97.9564C103.018 97.9564 105.758 100.012 106.622 102.961C106.871 103.825 107.665 104.391 108.529 104.391C108.648 104.391 108.777 104.381 108.896 104.351C109.333 104.272 109.77 104.222 110.197 104.222C110.733 104.222 111.279 104.291 111.815 104.42C114.725 105.125 116.909 107.687 117.138 110.636C117.267 112.334 116.8 113.963 115.807 115.303L83.4867 115.313C83.4073 115.273 83.1591 114.995 83.0697 114.449C82.9903 113.973 83.0399 113.317 83.447 112.91C83.9435 112.424 84.3109 111.49 83.7449 110.477C83.3576 109.782 83.1889 108.909 83.2782 108.015C83.5662 105.096 85.9393 102.584 88.9281 102.037C89.3451 101.958 89.7721 101.928 90.1891 101.928C90.7452 101.928 91.3012 101.998 91.8473 102.127C92.0062 102.166 92.1651 102.186 92.3239 102.186C92.9991 102.186 93.6446 101.839 94.0119 101.253C95.3127 99.1877 97.517 97.9564 99.9398 97.9564ZM99.9398 95.9705C96.7326 95.9705 93.9126 97.6585 92.3339 100.2C91.6487 100.032 90.9338 99.9423 90.199 99.9423C89.6728 99.9423 89.1366 99.9919 88.5805 100.091C84.7478 100.786 81.6895 103.954 81.3122 107.826C81.0937 110.1 82.0668 111.5 82.047 111.52C80.1405 113.426 81.193 117.309 83.4669 117.309H116.74C118.379 115.551 119.322 113.139 119.123 110.507C118.836 106.674 116.025 103.428 112.292 102.514C111.577 102.345 110.882 102.266 110.207 102.266C109.631 102.266 109.075 102.325 108.529 102.425C107.446 98.6912 104.011 95.9705 99.9398 95.9705Z" fill="#689F38"/>
<path d="M91.1423 106.039C91.1423 106.039 91.0629 103.586 93.0289 100.965" stroke="#689F38" stroke-width="1.98589" stroke-miterlimit="10" stroke-linecap="round" stroke-linejoin="round"/>
<path d="M108.38 103.427C106.066 103.467 103.802 105.284 103.455 107.508" stroke="#689F38" stroke-width="1.98589" stroke-miterlimit="10" stroke-linecap="round" stroke-linejoin="round"/>
<path d="M106.007 108.541C103.971 107.618 101.231 107.757 99.1256 108.829" stroke="#689F38" stroke-width="1.98589" stroke-miterlimit="10" stroke-linecap="round" stroke-linejoin="round"/>
<path d="M0 111.212H119.153V119.156H0V111.212Z" fill="#689F38"/>
<path opacity="0.2" d="M0 116.177H119.153V119.156H0V116.177Z" fill="#424242"/>
<defs>
<radialGradient id="paint0_radial_211_2170" cx="0" cy="0" r="1" gradientUnits="userSpaceOnUse" gradientTransform="translate(20.6036 28.4255) scale(49.0683 49.0683)">
<stop stop-color="#8BC34A"/>
<stop offset="0.7888" stop-color="#558B2F"/>
<stop offset="1" stop-color="#558B2F"/>
</radialGradient>
<radialGradient id="paint1_radial_211_2170" cx="0" cy="0" r="1" gradientUnits="userSpaceOnUse" gradientTransform="translate(11.3029 94.0144) rotate(90) scale(20.2183 24.2499)">
<stop stop-color="#9CCC65"/>
<stop offset="0.3004" stop-color="#96C660"/>
<stop offset="0.3827" stop-color="#93C35E"/>
<stop offset="0.4872" stop-color="#86B854"/>
<stop offset="0.8182" stop-color="#639739"/>
<stop offset="0.9952" stop-color="#558B2F"/>
</radialGradient>
<radialGradient id="paint2_radial_211_2170" cx="0" cy="0" r="1" gradientUnits="userSpaceOnUse" gradientTransform="translate(69.5349 18.1823) scale(106.166 106.166)">
<stop stop-color="#FFD54F"/>
<stop offset="0.179" stop-color="#FFD34B"/>
<stop offset="0.3526" stop-color="#FFCE3F"/>
<stop offset="0.524" stop-color="#FFC62C"/>
<stop offset="0.693" stop-color="#FFBA11"/>
<stop offset="0.7785" stop-color="#FFB300"/>
<stop offset="1" stop-color="#FFB300"/>
</radialGradient>
<radialGradient id="paint3_radial_211_2170" cx="0" cy="0" r="1" gradientUnits="userSpaceOnUse" gradientTransform="translate(54.1323 60.6753) scale(43.4185 43.4185)">
<stop stop-color="#D32F2F"/>
<stop offset="0.4374" stop-color="#CA2929"/>
<stop offset="0.9957" stop-color="#B71C1C"/>
</radialGradient>
<radialGradient id="paint4_radial_211_2170" cx="0" cy="0" r="1" gradientUnits="userSpaceOnUse" gradientTransform="translate(54.5454 62.9491) scale(38.975 38.975)">
<stop stop-color="#EF5350"/>
<stop offset="1" stop-color="#E53935"/>
</radialGradient>
<radialGradient id="paint5_radial_211_2170" cx="0" cy="0" r="1" gradientUnits="userSpaceOnUse" gradientTransform="translate(54.2355 66.4642) scale(34.4144 34.4144)">
<stop stop-color="#E53935"/>
<stop offset="0.4072" stop-color="#DC3431"/>
<stop offset="1" stop-color="#C62828"/>
</radialGradient>
<radialGradient id="paint6_radial_211_2170" cx="0" cy="0" r="1" gradientUnits="userSpaceOnUse" gradientTransform="translate(54.2355 66.4642) scale(34.4144 34.4144)">
<stop stop-color="#E53935"/>
<stop offset="0.4072" stop-color="#DC3431"/>
<stop offset="1" stop-color="#C62828"/>
</radialGradient>
<linearGradient id="paint7_linear_211_2170" x1="54.6685" y1="101.958" x2="54.6685" y2="107.36" gradientUnits="userSpaceOnUse">
<stop offset="0.0042918" stop-color="#BDBDBD"/>
<stop offset="0.2153" stop-color="#B5B5B5"/>
<stop offset="0.5502" stop-color="#9E9E9E"/>
<stop offset="0.9652" stop-color="#787878"/>
<stop offset="1" stop-color="#757575"/>
</linearGradient>
<radialGradient id="paint8_radial_211_2170" cx="0" cy="0" r="1" gradientUnits="userSpaceOnUse" gradientTransform="translate(69.1208 14.3644) scale(55.9365 55.9365)">
<stop stop-color="#F44336"/>
<stop offset="0.34" stop-color="#EE3F35"/>
<stop offset="0.8027" stop-color="#DC3531"/>
<stop offset="0.9957" stop-color="#D32F2F"/>
</radialGradient>
<linearGradient id="paint9_linear_211_2170" x1="54.6685" y1="105.811" x2="54.6685" y2="111.172" gradientUnits="userSpaceOnUse">
<stop offset="0.0042918" stop-color="#BDBDBD"/>
<stop offset="0.3969" stop-color="#BABABA"/>
<stop offset="0.7025" stop-color="#B0B0B0"/>
<stop offset="0.9786" stop-color="#A0A0A0"/>
<stop offset="1" stop-color="#9E9E9E"/>
</linearGradient>
<radialGradient id="paint10_radial_211_2170" cx="0" cy="0" r="1" gradientUnits="userSpaceOnUse" gradientTransform="translate(99.414 98.0785) rotate(90) scale(24.762 28.7661)">
<stop stop-color="#9CCC65"/>
<stop offset="0.2538" stop-color="#96C760"/>
<stop offset="0.5994" stop-color="#84B851"/>
<stop offset="0.9952" stop-color="#689F38"/>
</radialGradient>
</defs>
</svg>
