<svg width="494" height="301" viewBox="0 0 494 301" fill="none" xmlns="http://www.w3.org/2000/svg">
<g filter="url(#filter0_d_94_709)">
<path d="M266.987 192.048C265.706 192.048 264.502 191.436 263.747 190.402C261.812 187.752 263.705 184.026 266.987 184.026H269.525C270.767 184.026 271.939 184.601 272.698 185.584C274.736 188.22 272.857 192.048 269.525 192.048H266.987Z" fill="#111522"/>
<path d="M275.599 204.08C274.318 204.08 273.115 203.469 272.359 202.435C270.425 199.784 272.318 196.059 275.599 196.059H278.137C279.379 196.059 280.551 196.634 281.311 197.617C283.348 200.253 281.469 204.08 278.137 204.08H275.599Z" fill="#111522"/>
<path d="M285.589 216.782C284.308 216.782 283.105 216.17 282.35 215.136C280.415 212.485 282.308 208.76 285.589 208.76H288.127C289.369 208.76 290.541 209.335 291.301 210.318C293.339 212.954 291.459 216.782 288.127 216.782H285.589Z" fill="#111522"/>
<path d="M294.201 229.483C292.921 229.483 291.717 228.871 290.962 227.837C289.027 225.187 290.92 221.461 294.201 221.461H296.74C297.982 221.461 299.153 222.036 299.913 223.019C301.951 225.655 300.072 229.483 296.74 229.483H294.201Z" fill="#111522"/>
<path d="M304.191 240.847C302.911 240.847 301.707 240.236 300.952 239.201C299.017 236.551 300.91 232.825 304.191 232.825H306.73C307.972 232.825 309.144 233.401 309.903 234.383C311.941 237.02 310.062 240.847 306.73 240.847H304.191Z" fill="#111522"/>
<path d="M312.804 252.88C311.523 252.88 310.319 252.268 309.564 251.234C307.629 248.584 309.522 244.858 312.804 244.858H315.342C316.584 244.858 317.756 245.433 318.515 246.416C320.553 249.052 318.674 252.88 315.342 252.88H312.804Z" fill="#111522"/>
<path d="M322.105 264.244C320.824 264.244 319.62 263.633 318.865 262.598C316.93 259.948 318.823 256.222 322.105 256.222H324.643C325.885 256.222 327.057 256.798 327.816 257.78C329.854 260.417 327.975 264.244 324.643 264.244H322.105Z" fill="#111522"/>
<path d="M254.241 200.07C252.96 200.07 251.756 199.458 251.001 198.424C249.066 195.773 250.959 192.048 254.241 192.048H256.779C258.021 192.048 259.193 192.623 259.952 193.606C261.99 196.242 260.111 200.07 256.779 200.07H254.241Z" fill="#111522"/>
<path d="M262.853 212.102C261.572 212.102 260.368 211.491 259.613 210.456C257.679 207.806 259.571 204.08 262.853 204.08H265.391C266.633 204.08 267.805 204.656 268.564 205.638C270.602 208.275 268.723 212.102 265.391 212.102H262.853Z" fill="#111522"/>
<path d="M272.843 224.804C271.562 224.804 270.359 224.192 269.604 223.158C267.669 220.507 269.562 216.782 272.843 216.782H275.381C276.623 216.782 277.795 217.357 278.555 218.34C280.593 220.976 278.713 224.804 275.381 224.804H272.843Z" fill="#111522"/>
<path d="M281.455 237.505C280.175 237.505 278.971 236.893 278.216 235.859C276.281 233.209 278.174 229.483 281.455 229.483H283.993C285.235 229.483 286.407 230.058 287.167 231.041C289.205 233.677 287.326 237.505 283.993 237.505H281.455Z" fill="#111522"/>
<path d="M291.445 248.869C290.165 248.869 288.961 248.257 288.206 247.223C286.271 244.573 288.164 240.847 291.445 240.847H293.984C295.226 240.847 296.397 241.423 297.157 242.405C299.195 245.041 297.316 248.869 293.984 248.869H291.445Z" fill="#111522"/>
<path d="M300.058 260.902C298.777 260.902 297.573 260.29 296.818 259.256C294.883 256.606 296.776 252.88 300.058 252.88H302.596C303.838 252.88 305.01 253.455 305.769 254.438C307.807 257.074 305.928 260.902 302.596 260.902H300.058Z" fill="#111522"/>
<path d="M309.359 272.266C308.078 272.266 306.874 271.654 306.119 270.62C304.184 267.97 306.077 264.244 309.359 264.244H311.897C313.139 264.244 314.311 264.82 315.07 265.802C317.108 268.438 315.229 272.266 311.897 272.266H309.359Z" fill="#111522"/>
<path d="M367.606 272.266L328.335 278.282L188.595 296.275C185.311 296.697 182.181 294.762 181.091 291.636L143.39 183.474C143.132 182.733 143 181.954 143 181.17V177.778C143 173.996 146.004 170.898 149.784 170.781L272.872 166.98M367.606 272.266L487.261 107.371C490.078 103.49 488.247 97.9908 483.666 96.5727L345.025 53.6479C341.91 52.6834 338.542 53.9977 336.903 56.8171L272.872 166.98M367.606 272.266L272.872 166.98M315.07 265.802V265.802C317.108 268.438 315.229 272.266 311.897 272.266H309.359C308.078 272.266 306.874 271.654 306.119 270.62V270.62C304.184 267.97 306.077 264.244 309.359 264.244H311.897C313.139 264.244 314.311 264.82 315.07 265.802ZM305.769 254.438V254.438C307.807 257.074 305.928 260.902 302.596 260.902H300.058C298.777 260.902 297.573 260.29 296.818 259.256V259.256C294.883 256.606 296.776 252.88 300.058 252.88H302.596C303.838 252.88 305.01 253.455 305.769 254.438ZM297.157 242.405V242.405C299.195 245.041 297.316 248.869 293.984 248.869H291.445C290.165 248.869 288.961 248.257 288.206 247.223V247.223C286.271 244.573 288.164 240.847 291.445 240.847H293.984C295.226 240.847 296.397 241.423 297.157 242.405ZM287.167 231.041V231.041C289.205 233.677 287.326 237.505 283.993 237.505H281.455C280.175 237.505 278.971 236.893 278.216 235.859V235.859C276.281 233.209 278.174 229.483 281.455 229.483H283.993C285.235 229.483 286.407 230.058 287.167 231.041ZM278.555 218.34V218.34C280.593 220.976 278.713 224.804 275.381 224.804H272.843C271.562 224.804 270.359 224.192 269.604 223.158V223.158C267.669 220.507 269.562 216.782 272.843 216.782H275.381C276.623 216.782 277.795 217.357 278.555 218.34ZM268.565 205.638V205.638C270.602 208.275 268.723 212.102 265.391 212.102H262.853C261.572 212.102 260.368 211.491 259.613 210.456V210.456C257.679 207.806 259.571 204.08 262.853 204.08H265.391C266.633 204.08 267.805 204.656 268.565 205.638ZM259.952 193.606V193.606C261.99 196.242 260.111 200.07 256.779 200.07H254.241C252.96 200.07 251.756 199.458 251.001 198.424V198.424C249.066 195.773 250.959 192.048 254.241 192.048H256.779C258.021 192.048 259.193 192.623 259.952 193.606ZM246.789 187.034H244.25C242.97 187.034 241.766 186.423 241.011 185.388V185.388C239.076 182.738 240.969 179.012 244.25 179.012H246.789C248.031 179.012 249.203 179.588 249.962 180.57V180.57C252 183.207 250.121 187.034 246.789 187.034ZM327.816 257.78V257.78C329.854 260.417 327.975 264.244 324.643 264.244H322.105C320.824 264.244 319.62 263.633 318.865 262.598V262.598C316.93 259.948 318.823 256.222 322.105 256.222H324.643C325.885 256.222 327.057 256.798 327.816 257.78ZM318.515 246.416V246.416C320.553 249.052 318.674 252.88 315.342 252.88H312.804C311.523 252.88 310.319 252.268 309.564 251.234V251.234C307.629 248.584 309.522 244.858 312.804 244.858H315.342C316.584 244.858 317.756 245.433 318.515 246.416ZM309.903 234.383V234.383C311.941 237.02 310.062 240.847 306.73 240.847H304.191C302.911 240.847 301.707 240.236 300.952 239.201V239.201C299.017 236.551 300.91 232.825 304.191 232.825H306.73C307.972 232.825 309.144 233.401 309.903 234.383ZM299.913 223.019V223.019C301.951 225.655 300.072 229.483 296.74 229.483H294.201C292.921 229.483 291.717 228.871 290.962 227.837V227.837C289.027 225.187 290.92 221.461 294.201 221.461H296.74C297.982 221.461 299.153 222.036 299.913 223.019ZM291.301 210.318V210.318C293.339 212.954 291.459 216.782 288.127 216.782H285.589C284.308 216.782 283.105 216.17 282.35 215.136V215.136C280.415 212.485 282.308 208.76 285.589 208.76H288.127C289.369 208.76 290.541 209.335 291.301 210.318ZM278.137 204.08H275.599C274.318 204.08 273.115 203.469 272.359 202.435V202.435C270.425 199.784 272.318 196.059 275.599 196.059H278.137C279.379 196.059 280.551 196.634 281.311 197.617V197.617C283.348 200.253 281.469 204.08 278.137 204.08ZM272.698 185.584V185.584C274.736 188.22 272.857 192.048 269.525 192.048H266.987C265.706 192.048 264.502 191.436 263.747 190.402V190.402C261.812 187.752 263.705 184.026 266.987 184.026H269.525C270.767 184.026 271.939 184.601 272.698 185.584ZM262.708 172.548V172.548C264.746 175.185 262.867 179.012 259.535 179.012H256.997C255.716 179.012 254.512 178.401 253.757 177.366V177.366C251.822 174.716 253.715 170.99 256.997 170.99H259.535C260.777 170.99 261.949 171.566 262.708 172.548ZM282.763 160.906L341.027 64.3442C342.68 61.6046 345.98 60.3346 349.043 61.2592L474.016 98.9832C478.601 100.367 480.473 105.845 477.694 109.747L372.717 257.072C370.103 260.74 364.756 261.021 361.772 257.648L283.513 169.16C281.486 166.868 281.182 163.526 282.763 160.906Z" stroke="#80BAFF" stroke-width="3"/>
</g>
<g filter="url(#filter1_d_94_709)">
<path d="M8.00949 110.889C7.77546 82.8391 11.9125 62.9499 15.4983 61.4112C19.4979 59.6949 24.5122 58.1086 23.1492 65.9878C15.8255 108.323 18.8253 158.676 54.5486 172.531C59.9208 174.615 65.3115 170.467 65.9979 164.746C70.6992 125.564 77.3671 100.385 101.995 67.7676C125.706 46.1392 142.416 40.3477 174.89 34.9684C203.419 18.4258 213.193 8.49235 230.784 15.6448L249.318 8.59882C251.151 7.90191 253.036 9.4909 252.66 11.4156L251.186 18.9501L257.927 16.7194C259.033 16.3533 259.995 17.5668 259.385 18.56L251.186 31.9173C251.051 37.114 250.905 41.5104 250.72 45.1683C250.398 51.5445 247.302 69.7921 247.785 76.1582C246.377 85.8317 232.877 86.8619 225.324 80.6551C219.835 76.1437 216.926 71.2015 215.429 67.7853C214.217 65.0196 211.329 64.682 209.869 67.325C208.12 70.49 209.418 74.2163 208.184 77.6152L201.881 94.9732C218.387 112.16 225.886 119.648 236.411 126.062C243.943 130.651 251.49 135.66 255.597 143.466C259.743 151.346 262.68 160.508 261.863 167.511L261.855 167.587C261.41 171.402 261.059 174.414 257.46 173.042C252.624 171.199 247.285 164.536 246.405 159.436C245.527 154.345 242.487 149.858 238.001 147.297C220.689 137.414 208.754 132.987 188.704 129.298C186.399 141.71 185.13 148.669 188.704 161.08C193.758 175.797 196.785 183.666 204.643 192.863C214.554 197.744 218.215 200.997 216.12 209.135C213.175 212.696 209.597 212.834 199.118 209.135C192.961 202.611 187.794 195.76 183.237 188.54C179.984 188.944 176.751 191.626 171.702 187.269C164.109 188.601 160.125 188.818 151.938 188.54C151.143 190.851 152.524 193.348 154.929 193.779C169.07 196.315 178.943 194.825 190.617 200.999C192.712 202.79 193.52 204.722 193.587 206.585C193.837 213.536 184.73 215.777 177.935 214.284C174.638 213.559 171.402 212.597 169.577 211.382C160.112 212.409 151.585 211.475 139.824 209.135C134.706 203.464 133.114 199.021 131.323 190.066C109.792 214.839 94.3379 210.936 69.2665 192.863C39.0854 187.861 26.8393 176.523 11.3661 130.437C9.25006 124.134 8.06496 117.538 8.00949 110.889Z" fill="#111522"/>
<path d="M154.488 170.996C155.818 156.185 153.803 155.452 153.85 152.944C153.85 152.944 155.072 129.492 157.676 134.383C169.692 163.615 179.247 188.081 199.118 209.135C209.597 212.834 213.175 212.696 216.12 209.135C218.215 200.997 214.554 197.744 204.643 192.863C196.785 183.666 193.758 175.797 188.704 161.08C185.13 148.669 186.399 141.71 188.704 129.298C208.754 132.987 220.689 137.414 238.001 147.297C242.487 149.858 245.527 154.345 246.405 159.436V159.436C247.285 164.536 252.624 171.199 257.46 173.042V173.042C261.083 174.423 261.415 171.362 261.863 167.511C262.68 160.508 259.743 151.346 255.597 143.466C251.49 135.66 243.943 130.651 236.411 126.062C225.886 119.648 218.387 112.16 201.881 94.9732L208.184 77.6152C209.418 74.2163 208.12 70.49 209.869 67.325V67.325C211.329 64.682 214.217 65.0196 215.429 67.7853C216.926 71.2015 219.835 76.1437 225.324 80.6551C232.877 86.8619 246.377 85.8317 247.785 76.1582V76.1582V76.1582C247.302 69.7921 250.398 51.5445 250.72 45.1683C250.905 41.5104 251.051 37.114 251.186 31.9173L259.385 18.56C259.995 17.5668 259.033 16.3533 257.927 16.7194L251.186 18.9501L252.66 11.4156C253.036 9.4909 251.151 7.90191 249.318 8.59882L230.784 15.6448C213.193 8.49235 203.419 18.4258 174.89 34.9684C142.416 40.3477 125.706 46.1392 101.995 67.7676C77.3671 100.385 70.6992 125.564 65.9979 164.746C65.3115 170.467 59.9208 174.615 54.5486 172.531C18.8253 158.676 15.8255 108.323 23.1492 65.9878C24.5122 58.1086 19.4979 59.6949 15.4983 61.4112C11.9125 62.9499 7.77546 82.8391 8.00949 110.889C8.06496 117.538 9.25006 124.134 11.3661 130.437C26.8393 176.524 39.0854 187.861 69.2665 192.863C94.3379 210.936 109.792 214.839 131.323 190.066C133.114 199.021 134.706 203.464 139.824 209.135C151.585 211.475 160.112 212.409 169.577 211.382C171.402 212.597 174.638 213.559 177.935 214.284C184.73 215.777 193.837 213.536 193.587 206.585C193.52 204.722 192.712 202.79 190.617 200.999C178.943 194.825 169.07 196.315 154.929 193.779C152.524 193.348 151.143 190.851 151.938 188.54V188.54M154.488 170.996L151.938 188.54M154.488 170.996C163.255 173.424 166.387 173.839 174.89 173.726M183.237 188.54C179.984 188.944 176.751 191.626 171.702 187.269C164.11 188.601 160.125 188.818 151.938 188.54" stroke="#F477E8" stroke-width="6"/>
</g>
<path d="M343.895 89.3116C343.824 89.2865 343.773 89.2391 343.74 89.1692C343.716 89.1024 343.726 89.033 343.769 88.961C343.788 88.929 343.818 88.8961 343.86 88.8623L351.685 82.2495C351.759 82.1788 351.849 82.128 351.953 82.097C352.07 82.0611 352.195 82.0666 352.327 82.1135L353.765 82.6247C353.896 82.6716 353.978 82.7396 354.01 82.8286C354.047 82.9097 354.059 82.9965 354.046 83.089L352.579 91.9625C352.564 92.0056 352.547 92.0432 352.528 92.0752C352.484 92.1472 352.422 92.1979 352.34 92.2271C352.259 92.2564 352.183 92.2585 352.113 92.2335L350.965 91.8255C350.842 91.7817 350.764 91.7249 350.731 91.655C350.712 91.5802 350.708 91.5156 350.719 91.4614L350.978 89.7763L347.06 88.3834L345.562 89.6275C345.515 89.6693 345.444 89.7072 345.349 89.7414C345.268 89.7706 345.165 89.7634 345.042 89.7196L343.895 89.3116ZM348.35 87.167L351.345 88.2316L352.067 83.9874L348.35 87.167ZM353.924 92.8778C353.837 92.8465 353.779 92.7919 353.751 92.714C353.723 92.6361 353.733 92.5571 353.781 92.4771L358.47 84.6619C358.523 84.5738 358.597 84.5128 358.692 84.4786C358.787 84.4445 358.879 84.4431 358.967 84.4743L362.502 85.7313C363.188 85.9752 363.726 86.2878 364.116 86.6693C364.51 87.0427 364.728 87.4795 364.77 87.9797C364.816 88.4719 364.661 89.0142 364.306 89.6064C363.946 90.2067 363.507 90.6528 362.991 90.9449C362.479 91.229 361.91 91.3765 361.285 91.3872C360.66 91.3979 360.004 91.2813 359.318 91.0374L357.353 90.3386L355.667 93.1478C355.619 93.2278 355.547 93.2849 355.452 93.319C355.366 93.3563 355.274 93.3577 355.178 93.3233L353.924 92.8778ZM358.126 88.9967L360.052 89.6814C360.562 89.8628 361.018 89.8939 361.42 89.7747C361.827 89.6476 362.16 89.3679 362.42 88.9357C362.66 88.5356 362.724 88.1701 362.613 87.8393C362.507 87.5005 362.181 87.2342 361.636 87.0404L359.71 86.3556L358.126 88.9967ZM362.62 95.9694C362.532 95.9381 362.474 95.8835 362.446 95.8056C362.418 95.7277 362.428 95.6487 362.476 95.5687L367.165 87.7535C367.218 87.6655 367.292 87.6044 367.387 87.5703C367.482 87.5361 367.574 87.5347 367.662 87.566L371.197 88.8229C371.883 89.0668 372.421 89.3795 372.811 89.7609C373.206 90.1343 373.424 90.5712 373.465 91.0714C373.511 91.5636 373.357 92.1058 373.001 92.6981C372.641 93.2983 372.203 93.7445 371.686 94.0366C371.174 94.3207 370.605 94.4681 369.98 94.4788C369.355 94.4896 368.699 94.373 368.013 94.1291L366.048 93.4303L364.362 96.2394C364.314 96.3194 364.243 96.3765 364.148 96.4107C364.061 96.4479 363.97 96.4494 363.873 96.415L362.62 95.9694ZM366.821 92.0883L368.747 92.7731C369.257 92.9544 369.713 92.9855 370.115 92.8664C370.522 92.7392 370.856 92.4595 371.115 92.0274C371.355 91.6272 371.42 91.2617 371.309 90.931C371.202 90.5922 370.877 90.3259 370.331 90.132L368.406 89.4473L366.821 92.0883ZM371.315 99.061C371.227 99.0298 371.169 98.9752 371.141 98.8973C371.113 98.8194 371.123 98.7404 371.171 98.6604L375.868 90.8332C375.916 90.7531 375.987 90.696 376.082 90.6619C376.178 90.6278 376.269 90.6263 376.357 90.6576L377.584 91.0938C377.672 91.1251 377.73 91.1796 377.758 91.2576C377.786 91.3355 377.776 91.4144 377.728 91.4945L373.715 98.1812L377.897 99.668C377.994 99.7024 378.056 99.7585 378.084 99.8364C378.112 99.9143 378.1 99.9973 378.047 100.085L377.543 100.926C377.494 101.006 377.423 101.063 377.328 101.097C377.233 101.131 377.137 101.131 377.04 101.097L371.315 99.061ZM378.967 101.782C378.879 101.75 378.821 101.696 378.793 101.618C378.765 101.54 378.775 101.461 378.823 101.381L383.519 93.5538C383.567 93.4738 383.639 93.4167 383.734 93.3826C383.829 93.3484 383.921 93.347 384.009 93.3782L385.249 93.8191C385.346 93.8535 385.403 93.9081 385.423 93.9829C385.451 94.0608 385.441 94.1398 385.393 94.2198L380.696 102.047C380.648 102.127 380.577 102.184 380.481 102.218C380.395 102.256 380.303 102.257 380.207 102.223L378.967 101.782ZM386.082 104.457C385.264 104.166 384.646 103.791 384.228 103.332C383.824 102.868 383.616 102.342 383.605 101.756C383.599 101.161 383.782 100.518 384.155 99.8248C384.344 99.4936 384.55 99.1399 384.776 98.7637C385.002 98.3875 385.222 98.029 385.438 97.6879C385.876 97.0282 386.391 96.5074 386.983 96.1255C387.584 95.7467 388.243 95.5293 388.959 95.4733C389.689 95.4125 390.459 95.5259 391.268 95.8135C391.866 96.0261 392.359 96.2889 392.747 96.6018C393.136 96.9147 393.42 97.2586 393.601 97.6335C393.786 98.0005 393.87 98.3848 393.853 98.7866C393.836 99.1884 393.714 99.587 393.488 99.9822C393.454 100.057 393.391 100.108 393.301 100.134C393.219 100.163 393.139 100.164 393.06 100.136L391.807 99.6903C391.71 99.6559 391.643 99.6077 391.605 99.5458C391.572 99.4759 391.574 99.3843 391.61 99.2709C391.786 98.6926 391.761 98.2465 391.533 97.9325C391.305 97.6184 390.936 97.3707 390.426 97.1894C389.837 96.9799 389.275 96.9647 388.741 97.1437C388.212 97.3148 387.727 97.7398 387.288 98.4187C386.868 99.0655 386.464 99.7378 386.078 100.435C385.691 101.133 385.583 101.697 385.752 102.126C385.926 102.547 386.308 102.862 386.897 103.072C387.407 103.253 387.891 103.309 388.349 103.239C388.812 103.16 389.27 102.886 389.723 102.416C389.817 102.313 389.906 102.253 389.992 102.235C390.077 102.217 390.168 102.225 390.265 102.259L391.518 102.705C391.597 102.733 391.649 102.781 391.673 102.847C391.706 102.917 391.696 102.987 391.644 103.055C391.4 103.445 391.085 103.774 390.698 104.045C390.312 104.315 389.875 104.519 389.387 104.656C388.904 104.786 388.382 104.838 387.821 104.813C387.259 104.788 386.68 104.67 386.082 104.457ZM390.939 106.038C390.869 106.013 390.817 105.966 390.784 105.896C390.76 105.829 390.77 105.76 390.813 105.688C390.833 105.656 390.863 105.623 390.905 105.589L398.729 98.9764C398.804 98.9057 398.893 98.8549 398.997 98.8239C399.115 98.788 399.239 98.7935 399.371 98.8404L400.809 99.3516C400.941 99.3986 401.023 99.4665 401.055 99.5556C401.092 99.6366 401.103 99.7234 401.091 99.8159L399.624 108.689C399.609 108.733 399.591 108.77 399.572 108.802C399.529 108.874 399.467 108.925 399.385 108.954C399.303 108.983 399.227 108.985 399.157 108.96L398.009 108.552C397.886 108.509 397.808 108.452 397.776 108.382C397.756 108.307 397.753 108.243 397.764 108.188L398.023 106.503L394.105 105.11L392.606 106.354C392.56 106.396 392.489 106.434 392.394 106.468C392.312 106.498 392.21 106.49 392.087 106.447L390.939 106.038ZM395.395 103.894L398.389 104.959L399.111 100.714L395.395 103.894ZM402.034 109.983C401.946 109.952 401.888 109.898 401.86 109.82C401.832 109.742 401.843 109.663 401.891 109.583L405.874 102.944L403.433 102.076C403.345 102.045 403.288 101.991 403.26 101.913C403.232 101.835 403.242 101.756 403.29 101.676L403.823 100.787C403.876 100.699 403.95 100.638 404.045 100.604C404.14 100.57 404.231 100.569 404.319 100.6L411.047 102.992C411.144 103.026 411.206 103.082 411.234 103.16C411.262 103.238 411.249 103.321 411.196 103.409L410.663 104.297C410.615 104.378 410.544 104.435 410.449 104.469C410.354 104.503 410.258 104.503 410.161 104.468L407.734 103.605L403.75 110.244C403.702 110.324 403.631 110.381 403.536 110.415C403.441 110.449 403.345 110.449 403.248 110.415L402.034 109.983ZM407.99 112.101C407.902 112.07 407.844 112.015 407.816 111.937C407.788 111.859 407.798 111.78 407.846 111.7L412.542 103.873C412.59 103.793 412.662 103.736 412.757 103.702C412.852 103.668 412.944 103.666 413.032 103.697L414.272 104.138C414.368 104.173 414.426 104.227 414.445 104.302C414.473 104.38 414.463 104.459 414.415 104.539L409.719 112.366C409.671 112.446 409.599 112.503 409.504 112.537C409.418 112.575 409.326 112.576 409.23 112.542L407.99 112.101ZM415.091 114.772C414.309 114.493 413.705 114.138 413.282 113.706C412.863 113.266 412.642 112.745 412.618 112.144C412.599 111.536 412.798 110.858 413.213 110.113C413.411 109.765 413.61 109.424 413.812 109.088C414.014 108.751 414.225 108.409 414.445 108.06C414.908 107.341 415.449 106.795 416.067 106.423C416.686 106.05 417.35 105.84 418.062 105.792C418.783 105.747 419.521 105.859 420.277 106.128C421.034 106.397 421.623 106.757 422.046 107.208C422.469 107.66 422.696 108.187 422.729 108.791C422.761 109.395 422.572 110.066 422.161 110.804C421.968 111.162 421.77 111.509 421.568 111.845C421.367 112.182 421.154 112.519 420.93 112.856C420.462 113.583 419.92 114.139 419.306 114.522C418.697 114.898 418.034 115.104 417.318 115.141C416.616 115.173 415.874 115.05 415.091 114.772ZM415.92 113.391C416.491 113.594 417.048 113.608 417.591 113.432C418.139 113.248 418.635 112.813 419.079 112.126C419.308 111.78 419.512 111.459 419.689 111.163C419.872 110.859 420.057 110.531 420.246 110.181C420.507 109.71 420.636 109.3 420.633 108.949C420.644 108.594 420.542 108.3 420.329 108.069C420.12 107.83 419.827 107.643 419.449 107.509C419.08 107.377 418.709 107.328 418.337 107.361C417.97 107.386 417.61 107.515 417.256 107.749C416.916 107.977 416.598 108.321 416.302 108.779C416.087 109.12 415.888 109.442 415.706 109.746C415.528 110.042 415.338 110.368 415.135 110.723C414.744 111.429 414.635 112.002 414.808 112.442C414.986 112.875 415.357 113.191 415.92 113.391ZM421.103 116.764C421.015 116.732 420.957 116.678 420.929 116.6C420.902 116.522 420.912 116.443 420.96 116.363L425.649 108.548C425.702 108.46 425.776 108.399 425.871 108.364C425.966 108.33 426.057 108.329 426.145 108.36L427.161 108.721C427.284 108.765 427.355 108.824 427.374 108.899C427.407 108.969 427.425 109.019 427.428 109.049L428 115.778L431.163 110.508C431.215 110.42 431.285 110.357 431.371 110.32C431.466 110.286 431.562 110.286 431.659 110.321L432.767 110.715C432.864 110.749 432.926 110.805 432.954 110.883C432.982 110.961 432.97 111.044 432.917 111.132L428.235 118.935C428.182 119.023 428.108 119.084 428.013 119.118C427.918 119.153 427.826 119.154 427.738 119.123L426.709 118.757C426.586 118.713 426.515 118.654 426.496 118.579C426.477 118.504 426.459 118.454 426.442 118.429L425.811 111.825L422.714 116.987C422.666 117.067 422.594 117.124 422.499 117.158C422.404 117.192 422.308 117.192 422.211 117.158L421.103 116.764ZM433.247 121.227C432.429 120.936 431.808 120.584 431.383 120.171C430.972 119.753 430.728 119.316 430.649 118.861C430.583 118.401 430.66 117.972 430.877 117.573C430.92 117.501 430.983 117.451 431.064 117.421C431.146 117.392 431.226 117.391 431.306 117.42L432.48 117.837C432.594 117.878 432.663 117.931 432.687 117.998C432.725 118.06 432.746 118.131 432.752 118.21C432.713 118.381 432.723 118.569 432.781 118.775C432.844 118.972 432.975 119.164 433.172 119.35C433.378 119.54 433.679 119.706 434.075 119.846C434.708 120.071 435.236 120.143 435.659 120.06C436.091 119.98 436.405 119.777 436.602 119.448C436.742 119.216 436.768 119.003 436.683 118.807C436.602 118.604 436.42 118.383 436.135 118.146C435.864 117.904 435.481 117.618 434.987 117.286C434.413 116.908 433.963 116.539 433.634 116.179C433.319 115.815 433.141 115.436 433.1 115.042C433.067 114.652 433.195 114.217 433.483 113.737C433.762 113.272 434.145 112.909 434.634 112.646C435.132 112.385 435.698 112.242 436.333 112.215C436.976 112.192 437.654 112.307 438.367 112.56C438.938 112.763 439.401 113.015 439.754 113.315C440.112 113.608 440.367 113.922 440.518 114.257C440.673 114.584 440.747 114.906 440.738 115.224C440.742 115.536 440.675 115.818 440.535 116.069C440.496 116.133 440.434 116.184 440.347 116.221C440.275 116.253 440.194 116.254 440.106 116.223L438.88 115.786C438.809 115.761 438.748 115.72 438.697 115.663C438.646 115.606 438.625 115.526 438.634 115.422C438.73 115.155 438.686 114.882 438.501 114.603C438.317 114.324 437.996 114.103 437.538 113.94C437.063 113.772 436.633 113.716 436.247 113.772C435.86 113.829 435.566 114.026 435.365 114.362C435.23 114.586 435.188 114.799 435.237 115.001C435.3 115.198 435.457 115.409 435.706 115.634C435.964 115.862 436.319 116.133 436.769 116.449C437.426 116.867 437.931 117.26 438.286 117.629C438.641 117.998 438.835 118.378 438.867 118.768C438.904 119.15 438.782 119.578 438.498 120.05C438.181 120.578 437.752 120.974 437.209 121.237C436.681 121.496 436.075 121.626 435.392 121.626C434.709 121.625 433.994 121.493 433.247 121.227ZM339.192 105.472C338.409 105.194 337.806 104.839 337.382 104.407C336.964 103.966 336.742 103.446 336.719 102.845C336.7 102.236 336.898 101.559 337.314 100.813C337.511 100.466 337.711 100.124 337.913 99.7883C338.114 99.4522 338.325 99.1096 338.545 98.7606C339.009 98.0417 339.549 97.496 340.168 97.1235C340.786 96.751 341.451 96.5407 342.163 96.4927C342.883 96.4479 343.622 96.5599 344.378 96.8288C345.134 97.0977 345.724 97.4578 346.146 97.9091C346.569 98.3605 346.797 98.8881 346.829 99.492C346.862 100.096 346.673 100.767 346.262 101.504C346.068 101.863 345.871 102.21 345.669 102.546C345.467 102.882 345.254 103.219 345.03 103.557C344.562 104.284 344.021 104.839 343.407 105.223C342.797 105.599 342.134 105.805 341.419 105.842C340.717 105.874 339.974 105.751 339.192 105.472ZM340.02 104.092C340.592 104.295 341.149 104.309 341.692 104.133C342.24 103.949 342.736 103.513 343.18 102.826C343.409 102.481 343.612 102.16 343.79 101.863C343.972 101.559 344.158 101.232 344.347 100.882C344.608 100.411 344.737 100.001 344.734 99.65C344.744 99.2945 344.643 99.0011 344.43 98.7699C344.221 98.5306 343.928 98.3438 343.549 98.2093C343.18 98.078 342.81 98.0288 342.438 98.0617C342.071 98.0865 341.71 98.2158 341.357 98.4494C341.017 98.6781 340.699 99.0214 340.403 99.4793C340.187 99.8203 339.989 100.143 339.806 100.447C339.628 100.743 339.438 101.069 339.236 101.424C338.844 102.13 338.735 102.703 338.909 103.143C339.087 103.575 339.457 103.892 340.02 104.092ZM345.204 107.464C345.116 107.433 345.058 107.378 345.03 107.301C345.002 107.223 345.012 107.144 345.06 107.064L349.749 99.2484C349.802 99.1604 349.876 99.0993 349.971 99.0652C350.066 99.031 350.158 99.0296 350.246 99.0609L353.781 100.318C354.467 100.562 355.005 100.874 355.395 101.256C355.79 101.629 356.008 102.066 356.049 102.566C356.095 103.058 355.941 103.601 355.585 104.193C355.225 104.793 354.787 105.239 354.27 105.531C353.758 105.816 353.19 105.963 352.564 105.974C351.939 105.984 351.283 105.868 350.597 105.624L348.632 104.925L346.946 107.734C346.898 107.814 346.827 107.871 346.732 107.906C346.645 107.943 346.554 107.944 346.457 107.91L345.204 107.464ZM349.405 103.583L351.331 104.268C351.841 104.449 352.297 104.48 352.699 104.361C353.106 104.234 353.44 103.954 353.699 103.522C353.939 103.122 354.004 102.757 353.893 102.426C353.787 102.087 353.461 101.821 352.916 101.627L350.99 100.942L349.405 103.583ZM353.899 110.556C353.811 110.525 353.753 110.47 353.725 110.392C353.697 110.314 353.707 110.235 353.755 110.155L358.444 102.34C358.497 102.252 358.571 102.191 358.666 102.157C358.762 102.123 358.853 102.121 358.941 102.153L364.745 104.216C364.842 104.251 364.904 104.307 364.932 104.385C364.96 104.463 364.948 104.546 364.895 104.634L364.419 105.426C364.371 105.506 364.3 105.563 364.205 105.597C364.11 105.631 364.014 105.631 363.917 105.597L359.577 104.054L358.302 106.179L362.352 107.618C362.448 107.653 362.511 107.709 362.539 107.787C362.571 107.857 362.561 107.936 362.509 108.024L362.062 108.768C362.009 108.856 361.935 108.917 361.84 108.951C361.75 108.977 361.656 108.973 361.559 108.939L357.51 107.499L356.192 109.696L360.637 111.277C360.734 111.311 360.796 111.367 360.824 111.445C360.852 111.523 360.839 111.606 360.787 111.694L360.311 112.486C360.263 112.566 360.192 112.623 360.096 112.658C360.001 112.692 359.905 112.692 359.809 112.657L353.899 110.556ZM362.105 113.474C362.017 113.442 361.959 113.388 361.931 113.31C361.903 113.232 361.913 113.153 361.961 113.073L366.65 105.258C366.703 105.17 366.777 105.109 366.872 105.074C366.967 105.04 367.059 105.039 367.147 105.07L368.163 105.431C368.286 105.475 368.357 105.534 368.376 105.609C368.409 105.679 368.427 105.729 368.43 105.759L369.002 112.488L372.164 107.218C372.217 107.13 372.286 107.067 372.373 107.03C372.468 106.996 372.564 106.996 372.661 107.031L373.769 107.425C373.865 107.459 373.928 107.515 373.956 107.593C373.984 107.671 373.971 107.754 373.918 107.842L369.237 115.645C369.184 115.733 369.11 115.794 369.015 115.828C368.919 115.862 368.828 115.864 368.74 115.833L367.711 115.467C367.588 115.423 367.517 115.364 367.498 115.289C367.478 115.214 367.46 115.164 367.444 115.139L366.813 108.535L363.715 113.697C363.667 113.777 363.596 113.834 363.501 113.868C363.406 113.902 363.31 113.902 363.213 113.867L362.105 113.474ZM318.539 133.358C318.451 133.327 318.393 133.272 318.365 133.194C318.337 133.116 318.347 133.037 318.395 132.957L323.084 125.142C323.137 125.054 323.211 124.993 323.306 124.959C323.402 124.925 323.493 124.923 323.581 124.955L324.597 125.316C324.72 125.359 324.791 125.419 324.81 125.493C324.843 125.563 324.861 125.613 324.864 125.644L325.436 132.373L328.598 127.103C328.651 127.015 328.721 126.952 328.807 126.915C328.902 126.88 328.998 126.881 329.095 126.915L330.203 127.309C330.3 127.343 330.362 127.4 330.39 127.477C330.418 127.555 330.406 127.638 330.353 127.726L325.671 135.53C325.618 135.618 325.544 135.679 325.449 135.713C325.354 135.747 325.262 135.748 325.174 135.717L324.145 135.351C324.022 135.307 323.951 135.248 323.932 135.173C323.913 135.099 323.895 135.049 323.878 135.023L323.247 128.419L320.15 133.581C320.102 133.661 320.03 133.718 319.935 133.752C319.84 133.786 319.744 133.786 319.647 133.752L318.539 133.358ZM331.025 137.943C330.243 137.665 329.64 137.31 329.216 136.877C328.797 136.437 328.576 135.917 328.552 135.316C328.533 134.707 328.732 134.03 329.147 133.284C329.345 132.937 329.545 132.595 329.746 132.259C329.948 131.923 330.159 131.58 330.379 131.231C330.842 130.513 331.383 129.967 332.001 129.594C332.62 129.222 333.285 129.012 333.996 128.964C334.717 128.919 335.455 129.031 336.211 129.3C336.968 129.569 337.557 129.929 337.98 130.38C338.403 130.831 338.63 131.359 338.663 131.963C338.695 132.567 338.506 133.237 338.096 133.975C337.902 134.334 337.704 134.681 337.503 135.017C337.301 135.353 337.088 135.69 336.864 136.028C336.396 136.755 335.854 137.31 335.24 137.694C334.631 138.069 333.968 138.276 333.252 138.313C332.55 138.345 331.808 138.221 331.025 137.943ZM331.854 136.563C332.425 136.766 332.983 136.779 333.526 136.604C334.073 136.42 334.569 135.984 335.014 135.297C335.242 134.951 335.446 134.63 335.623 134.334C335.806 134.03 335.992 133.703 336.18 133.353C336.441 132.882 336.57 132.472 336.567 132.121C336.578 131.765 336.477 131.472 336.263 131.241C336.055 131.001 335.761 130.815 335.383 130.68C335.014 130.549 334.643 130.5 334.271 130.533C333.904 130.557 333.544 130.687 333.19 130.92C332.85 131.149 332.532 131.492 332.236 131.95C332.021 132.291 331.822 132.614 331.64 132.918C331.462 133.214 331.272 133.54 331.069 133.895C330.678 134.601 330.569 135.174 330.742 135.614C330.92 136.046 331.291 136.362 331.854 136.563ZM340.052 141.007C339.964 140.976 339.906 140.921 339.878 140.843C339.85 140.765 339.86 140.686 339.908 140.606L344.597 132.791C344.65 132.703 344.724 132.642 344.819 132.608C344.914 132.574 345.006 132.572 345.094 132.603L350.898 134.667C350.995 134.702 351.057 134.758 351.085 134.836C351.113 134.913 351.1 134.996 351.048 135.084L350.572 135.877C350.524 135.957 350.453 136.014 350.357 136.048C350.262 136.082 350.166 136.082 350.07 136.048L345.73 134.505L344.455 136.629L348.504 138.069C348.601 138.104 348.663 138.16 348.691 138.238C348.724 138.308 348.714 138.387 348.661 138.475L348.215 139.219C348.162 139.307 348.088 139.368 347.993 139.402C347.902 139.428 347.809 139.424 347.712 139.39L343.662 137.95L342.344 140.147L346.79 141.728C346.886 141.762 346.949 141.818 346.977 141.896C347.005 141.974 346.992 142.057 346.939 142.145L346.464 142.937C346.416 143.017 346.344 143.074 346.249 143.108C346.154 143.143 346.058 143.142 345.961 143.108L340.052 141.007ZM347.426 143.629C347.347 143.601 347.296 143.553 347.272 143.487C347.248 143.42 347.257 143.35 347.301 143.278C347.315 143.254 347.334 143.232 347.357 143.211C347.38 143.19 347.404 143.169 347.427 143.148L352.715 140.309L352.178 135.603C352.18 135.546 352.196 135.493 352.225 135.445C352.268 135.373 352.331 135.322 352.412 135.293C352.494 135.264 352.57 135.262 352.64 135.287L353.999 135.77C354.104 135.807 354.173 135.861 354.206 135.931C354.239 136.001 354.26 136.071 354.271 136.143L354.654 139.426L358.162 137.527C358.231 137.483 358.31 137.448 358.401 137.422C358.5 137.399 358.602 137.406 358.708 137.444L359.987 137.899C360.067 137.927 360.118 137.975 360.142 138.041C360.166 138.108 360.156 138.178 360.113 138.25C360.084 138.298 360.038 138.339 359.974 138.375L354.984 141.116L355.605 146.056C355.608 146.087 355.607 146.115 355.602 146.142C355.596 146.17 355.586 146.195 355.571 146.219C355.528 146.291 355.461 146.34 355.371 146.366C355.29 146.396 355.214 146.398 355.143 146.373L353.745 145.876C353.639 145.838 353.57 145.784 353.538 145.714C353.505 145.645 353.485 145.579 353.479 145.519L352.996 142.055L349.297 144.032C349.233 144.068 349.156 144.098 349.066 144.124C348.975 144.151 348.873 144.143 348.759 144.103L347.426 143.629ZM356.991 147.03C356.903 146.999 356.846 146.944 356.818 146.866C356.79 146.788 356.8 146.709 356.848 146.629L361.537 138.814C361.59 138.726 361.664 138.665 361.759 138.631C361.854 138.597 361.946 138.595 362.033 138.626L365.569 139.883C366.255 140.127 366.793 140.44 367.183 140.821C367.577 141.195 367.795 141.632 367.837 142.132C367.883 142.624 367.728 143.166 367.373 143.759C367.013 144.359 366.574 144.805 366.058 145.097C365.546 145.381 364.977 145.529 364.352 145.539C363.726 145.55 363.071 145.433 362.385 145.19L360.419 144.491L358.734 147.3C358.686 147.38 358.614 147.437 358.519 147.471C358.433 147.508 358.341 147.51 358.245 147.475L356.991 147.03ZM361.193 143.149L363.119 143.834C363.629 144.015 364.085 144.046 364.487 143.927C364.894 143.8 365.227 143.52 365.487 143.088C365.727 142.688 365.791 142.322 365.68 141.991C365.574 141.653 365.248 141.386 364.703 141.192L362.777 140.508L361.193 143.149ZM365.687 150.122C365.599 150.09 365.541 150.036 365.513 149.958C365.485 149.88 365.495 149.801 365.543 149.721L370.232 141.906C370.285 141.818 370.359 141.757 370.454 141.722C370.549 141.688 370.641 141.687 370.729 141.718L376.533 143.782C376.629 143.816 376.692 143.872 376.72 143.95C376.748 144.028 376.735 144.111 376.682 144.199L376.207 144.991C376.159 145.071 376.087 145.129 375.992 145.163C375.897 145.197 375.801 145.197 375.704 145.162L371.365 143.619L370.09 145.744L374.139 147.184C374.236 147.218 374.298 147.275 374.326 147.352C374.359 147.422 374.349 147.501 374.296 147.589L373.85 148.334C373.797 148.422 373.723 148.483 373.628 148.517C373.537 148.543 373.444 148.539 373.347 148.505L369.297 147.065L367.979 149.262L372.425 150.842C372.521 150.877 372.584 150.933 372.612 151.011C372.639 151.088 372.627 151.171 372.574 151.26L372.099 152.052C372.051 152.132 371.979 152.189 371.884 152.223C371.789 152.257 371.693 152.257 371.596 152.223L365.687 150.122ZM373.892 153.039C373.804 153.008 373.746 152.953 373.719 152.875C373.691 152.797 373.701 152.718 373.749 152.638L378.438 144.823C378.491 144.735 378.565 144.674 378.66 144.64C378.755 144.606 378.846 144.604 378.934 144.636L382.351 145.85C383.415 146.229 384.12 146.751 384.467 147.419C384.814 148.086 384.73 148.847 384.216 149.704C383.861 150.296 383.403 150.73 382.842 151.007C382.29 151.286 381.693 151.419 381.051 151.404L381.14 155.15C381.138 155.207 381.125 155.256 381.101 155.296C381.058 155.368 380.991 155.417 380.9 155.443C380.819 155.473 380.743 155.475 380.673 155.45L379.472 155.023C379.323 154.97 379.23 154.893 379.194 154.793C379.158 154.693 379.14 154.599 379.139 154.511L379.144 151.061L377.311 150.409L375.582 153.29C375.534 153.37 375.463 153.427 375.367 153.462C375.281 153.499 375.189 153.5 375.093 153.466L373.892 153.039ZM378.125 149.053L379.985 149.714C380.521 149.905 380.986 149.939 381.38 149.817C381.778 149.686 382.097 149.421 382.337 149.021C382.577 148.621 382.633 148.262 382.503 147.944C382.388 147.621 382.057 147.363 381.512 147.169L379.652 146.508L378.125 149.053ZM382.768 156.195C382.68 156.164 382.622 156.109 382.594 156.031C382.566 155.953 382.576 155.874 382.624 155.794L387.321 147.967C387.369 147.887 387.44 147.83 387.535 147.796C387.631 147.762 387.722 147.76 387.81 147.791L389.05 148.232C389.147 148.267 389.205 148.321 389.224 148.396C389.252 148.474 389.242 148.553 389.194 148.633L384.497 156.46C384.449 156.54 384.378 156.597 384.283 156.631C384.196 156.669 384.105 156.67 384.008 156.636L382.768 156.195ZM386.71 157.596C386.622 157.565 386.564 157.511 386.536 157.433C386.508 157.355 386.518 157.276 386.566 157.196L391.255 149.381C391.308 149.293 391.382 149.231 391.477 149.197C391.572 149.163 391.664 149.162 391.752 149.193L397.556 151.257C397.653 151.291 397.715 151.347 397.743 151.425C397.771 151.503 397.758 151.586 397.706 151.674L397.23 152.466C397.182 152.546 397.111 152.603 397.015 152.638C396.92 152.672 396.824 152.672 396.728 152.637L392.388 151.094L391.113 153.219L395.162 154.659C395.259 154.693 395.322 154.749 395.349 154.827C395.382 154.897 395.372 154.976 395.319 155.064L394.873 155.809C394.82 155.897 394.746 155.958 394.651 155.992C394.56 156.018 394.467 156.014 394.37 155.979L390.32 154.54L389.002 156.736L393.448 158.317C393.544 158.351 393.607 158.408 393.635 158.485C393.663 158.563 393.65 158.646 393.597 158.734L393.122 159.527C393.074 159.607 393.002 159.664 392.907 159.698C392.812 159.732 392.716 159.732 392.619 159.698L386.71 157.596ZM394.916 160.514C394.828 160.483 394.77 160.428 394.742 160.35C394.714 160.272 394.724 160.193 394.772 160.113L399.461 152.298C399.514 152.21 399.588 152.149 399.683 152.115C399.778 152.081 399.87 152.079 399.958 152.111L400.973 152.472C401.096 152.515 401.168 152.575 401.187 152.65C401.219 152.719 401.237 152.77 401.241 152.8L401.813 159.529L404.975 154.259C405.028 154.171 405.097 154.108 405.184 154.071C405.279 154.037 405.375 154.037 405.471 154.071L406.579 154.465C406.676 154.499 406.739 154.556 406.766 154.633C406.794 154.711 406.782 154.794 406.729 154.882L402.047 162.686C401.994 162.774 401.92 162.835 401.825 162.869C401.73 162.903 401.639 162.904 401.551 162.873L400.522 162.507C400.399 162.464 400.327 162.404 400.308 162.329C400.289 162.255 400.271 162.205 400.254 162.179L399.623 155.575L396.526 160.737C396.478 160.817 396.407 160.874 396.311 160.908C396.216 160.943 396.12 160.942 396.024 160.908L394.916 160.514ZM407.415 165.104C406.597 164.813 405.979 164.438 405.561 163.979C405.157 163.514 404.949 162.989 404.938 162.403C404.932 161.808 405.116 161.164 405.489 160.472C405.677 160.14 405.884 159.787 406.109 159.411C406.335 159.034 406.556 158.676 406.771 158.335C407.209 157.675 407.725 157.154 408.317 156.772C408.917 156.394 409.576 156.176 410.292 156.12C411.022 156.059 411.792 156.173 412.601 156.46C413.199 156.673 413.692 156.936 414.081 157.249C414.469 157.562 414.754 157.905 414.934 158.28C415.119 158.647 415.204 159.032 415.187 159.433C415.17 159.835 415.048 160.234 414.821 160.629C414.787 160.704 414.724 160.755 414.634 160.781C414.553 160.81 414.472 160.811 414.393 160.783L413.14 160.337C413.043 160.303 412.976 160.255 412.938 160.193C412.906 160.123 412.907 160.031 412.943 159.918C413.12 159.339 413.094 158.893 412.866 158.579C412.638 158.265 412.27 158.018 411.76 157.836C411.17 157.627 410.609 157.612 410.074 157.791C409.545 157.962 409.061 158.387 408.621 159.066C408.201 159.712 407.798 160.385 407.411 161.082C407.025 161.78 406.916 162.343 407.085 162.773C407.259 163.194 407.641 163.509 408.23 163.719C408.74 163.9 409.224 163.956 409.682 163.885C410.145 163.807 410.603 163.533 411.056 163.063C411.15 162.96 411.239 162.9 411.325 162.882C411.411 162.864 411.502 162.872 411.598 162.906L412.852 163.352C412.931 163.38 412.982 163.427 413.006 163.494C413.039 163.564 413.029 163.633 412.977 163.702C412.733 164.091 412.418 164.421 412.032 164.692C411.645 164.962 411.208 165.166 410.72 165.303C410.237 165.433 409.715 165.485 409.154 165.46C408.593 165.435 408.013 165.317 407.415 165.104ZM413.259 167.036C413.171 167.005 413.113 166.95 413.085 166.872C413.057 166.795 413.068 166.716 413.116 166.636L417.805 158.82C417.857 158.732 417.931 158.671 418.027 158.637C418.122 158.603 418.213 158.602 418.301 158.633L424.105 160.696C424.202 160.731 424.264 160.787 424.292 160.865C424.32 160.943 424.308 161.026 424.255 161.114L423.78 161.906C423.732 161.986 423.66 162.043 423.565 162.077C423.47 162.112 423.374 162.111 423.277 162.077L418.937 160.534L417.662 162.659L421.712 164.099C421.809 164.133 421.871 164.189 421.899 164.267C421.932 164.337 421.922 164.416 421.869 164.504L421.422 165.248C421.369 165.336 421.295 165.398 421.2 165.432C421.11 165.458 421.016 165.454 420.92 165.419L416.87 163.979L415.552 166.176L419.997 167.757C420.094 167.791 420.156 167.847 420.184 167.925C420.212 168.003 420.2 168.086 420.147 168.174L419.671 168.967C419.623 169.047 419.552 169.104 419.457 169.138C419.362 169.172 419.266 169.172 419.169 169.137L413.259 167.036ZM309.793 147.935C309.705 147.904 309.647 147.849 309.619 147.772C309.591 147.694 309.601 147.615 309.649 147.535L314.338 139.719C314.391 139.631 314.465 139.57 314.56 139.536C314.655 139.502 314.747 139.501 314.835 139.532L315.85 139.893C315.974 139.937 316.045 139.996 316.064 140.071C316.097 140.141 316.115 140.191 316.118 140.221L316.69 146.95L319.852 141.68C319.905 141.592 319.974 141.529 320.061 141.492C320.156 141.458 320.252 141.458 320.349 141.492L321.457 141.886C321.553 141.921 321.616 141.977 321.644 142.055C321.672 142.133 321.659 142.216 321.606 142.304L316.924 150.107C316.872 150.195 316.798 150.256 316.702 150.29C316.607 150.324 316.516 150.326 316.428 150.294L315.399 149.929C315.276 149.885 315.205 149.826 315.185 149.751C315.166 149.676 315.148 149.626 315.132 149.601L314.501 142.996L311.403 148.158C311.355 148.238 311.284 148.296 311.189 148.33C311.093 148.364 310.997 148.364 310.901 148.329L309.793 147.935ZM319.119 151.251C319.031 151.22 318.973 151.166 318.945 151.088C318.917 151.01 318.927 150.931 318.975 150.851L323.665 143.036C323.717 142.947 323.791 142.886 323.887 142.852C323.982 142.818 324.073 142.817 324.161 142.848L329.965 144.912C330.062 144.946 330.124 145.002 330.152 145.08C330.18 145.158 330.168 145.241 330.115 145.329L329.64 146.121C329.592 146.201 329.52 146.258 329.425 146.293C329.33 146.327 329.234 146.327 329.137 146.292L324.797 144.749L323.522 146.874L327.572 148.314C327.668 148.348 327.731 148.404 327.759 148.482C327.792 148.552 327.781 148.631 327.729 148.719L327.282 149.464C327.229 149.552 327.155 149.613 327.06 149.647C326.97 149.673 326.876 149.669 326.779 149.634L322.73 148.195L321.412 150.391L325.857 151.972C325.954 152.006 326.016 152.063 326.044 152.14C326.072 152.218 326.06 152.301 326.007 152.389L325.531 153.182C325.483 153.262 325.412 153.319 325.317 153.353C325.221 153.387 325.125 153.387 325.029 153.353L319.119 151.251ZM330.421 155.415C329.603 155.125 328.985 154.749 328.567 154.29C328.162 153.826 327.955 153.301 327.944 152.714C327.938 152.12 328.121 151.476 328.494 150.783C328.682 150.452 328.889 150.098 329.115 149.722C329.341 149.346 329.561 148.987 329.776 148.646C330.215 147.986 330.73 147.466 331.322 147.084C331.923 146.705 332.581 146.488 333.298 146.432C334.028 146.371 334.798 146.484 335.607 146.772C336.205 146.984 336.698 147.247 337.086 147.56C337.475 147.873 337.759 148.217 337.94 148.592C338.125 148.959 338.209 149.343 338.192 149.745C338.175 150.147 338.053 150.545 337.827 150.941C337.792 151.016 337.73 151.066 337.64 151.092C337.558 151.122 337.478 151.122 337.399 151.094L336.145 150.649C336.049 150.614 335.982 150.566 335.944 150.504C335.911 150.434 335.913 150.343 335.949 150.229C336.125 149.651 336.099 149.205 335.872 148.891C335.644 148.577 335.275 148.329 334.765 148.148C334.176 147.938 333.614 147.923 333.08 148.102C332.551 148.273 332.066 148.698 331.627 149.377C331.207 150.024 330.803 150.696 330.417 151.394C330.03 152.091 329.921 152.655 330.091 153.084C330.265 153.505 330.646 153.821 331.236 154.03C331.746 154.211 332.23 154.267 332.688 154.197C333.151 154.119 333.609 153.845 334.062 153.374C334.155 153.272 334.245 153.211 334.331 153.193C334.416 153.175 334.507 153.183 334.604 153.218L335.857 153.663C335.936 153.691 335.988 153.739 336.012 153.806C336.045 153.875 336.035 153.945 335.983 154.014C335.739 154.403 335.424 154.733 335.037 155.003C334.651 155.274 334.214 155.477 333.726 155.615C333.243 155.744 332.721 155.796 332.159 155.771C331.598 155.747 331.019 155.628 330.421 155.415ZM336.265 157.348C336.177 157.316 336.119 157.262 336.091 157.184C336.063 157.106 336.073 157.027 336.121 156.947L340.81 149.132C340.863 149.044 340.937 148.983 341.032 148.949C341.127 148.914 341.219 148.913 341.307 148.944L347.111 151.008C347.208 151.042 347.27 151.098 347.298 151.176C347.326 151.254 347.313 151.337 347.261 151.425L346.785 152.218C346.737 152.298 346.666 152.355 346.57 152.389C346.475 152.423 346.379 152.423 346.283 152.388L341.943 150.845L340.668 152.97L344.717 154.41C344.814 154.445 344.877 154.501 344.905 154.579C344.937 154.648 344.927 154.727 344.874 154.816L344.428 155.56C344.375 155.648 344.301 155.709 344.206 155.743C344.115 155.769 344.022 155.765 343.925 155.731L339.876 154.291L338.557 156.488L343.003 158.068C343.099 158.103 343.162 158.159 343.19 158.237C343.218 158.315 343.205 158.398 343.152 158.486L342.677 159.278C342.629 159.358 342.557 159.415 342.462 159.449C342.367 159.483 342.271 159.483 342.174 159.449L336.265 157.348ZM347.287 161.412C346.47 161.122 345.848 160.77 345.424 160.357C345.013 159.939 344.768 159.502 344.69 159.047C344.624 158.587 344.7 158.157 344.918 157.759C344.961 157.687 345.024 157.636 345.105 157.607C345.187 157.578 345.267 157.577 345.346 157.605L346.52 158.023C346.635 158.063 346.704 158.117 346.728 158.184C346.765 158.246 346.787 158.316 346.792 158.396C346.754 158.567 346.764 158.755 346.822 158.96C346.885 159.157 347.015 159.349 347.213 159.536C347.419 159.726 347.72 159.891 348.116 160.032C348.749 160.257 349.277 160.328 349.7 160.246C350.132 160.166 350.446 159.962 350.643 159.634C350.782 159.402 350.809 159.188 350.724 158.993C350.643 158.789 350.461 158.569 350.176 158.332C349.905 158.09 349.522 157.803 349.027 157.472C348.454 157.093 348.004 156.724 347.675 156.365C347.36 156 347.182 155.621 347.141 155.228C347.108 154.838 347.236 154.403 347.524 153.922C347.803 153.458 348.186 153.094 348.675 152.831C349.172 152.571 349.739 152.428 350.374 152.401C351.017 152.377 351.695 152.492 352.408 152.745C352.979 152.949 353.442 153.201 353.795 153.501C354.153 153.793 354.407 154.107 354.558 154.442C354.714 154.77 354.788 155.092 354.779 155.409C354.783 155.722 354.715 156.003 354.575 156.255C354.537 156.319 354.475 156.369 354.388 156.407C354.315 156.439 354.235 156.44 354.147 156.408L352.92 155.972C352.85 155.947 352.789 155.906 352.738 155.849C352.687 155.792 352.666 155.712 352.675 155.608C352.771 155.341 352.727 155.068 352.542 154.789C352.357 154.51 352.036 154.289 351.579 154.126C351.104 153.957 350.674 153.901 350.288 153.958C349.901 154.015 349.607 154.211 349.406 154.548C349.271 154.772 349.229 154.985 349.278 155.187C349.341 155.384 349.497 155.595 349.747 155.82C350.005 156.047 350.359 156.319 350.81 156.635C351.466 157.053 351.972 157.446 352.327 157.815C352.682 158.184 352.875 158.563 352.908 158.954C352.945 159.336 352.822 159.763 352.539 160.235C352.222 160.764 351.793 161.16 351.25 161.423C350.722 161.682 350.116 161.811 349.433 161.811C348.75 161.811 348.035 161.678 347.287 161.412ZM355.751 164.422C354.933 164.131 354.312 163.779 353.887 163.366C353.477 162.948 353.232 162.511 353.153 162.056C353.088 161.596 353.164 161.166 353.381 160.768C353.425 160.696 353.487 160.645 353.569 160.616C353.65 160.587 353.731 160.586 353.81 160.614L354.984 161.032C355.098 161.072 355.167 161.126 355.191 161.193C355.229 161.255 355.25 161.326 355.256 161.405C355.217 161.576 355.227 161.764 355.285 161.969C355.349 162.167 355.479 162.359 355.676 162.545C355.882 162.735 356.183 162.9 356.579 163.041C357.212 163.266 357.74 163.337 358.163 163.255C358.595 163.175 358.91 162.971 359.106 162.643C359.246 162.411 359.273 162.197 359.187 162.002C359.107 161.799 358.924 161.578 358.639 161.341C358.368 161.099 357.986 160.812 357.491 160.481C356.918 160.103 356.467 159.734 356.138 159.374C355.824 159.01 355.646 158.631 355.604 158.237C355.572 157.847 355.699 157.412 355.987 156.932C356.266 156.467 356.65 156.104 357.138 155.84C357.636 155.58 358.202 155.437 358.837 155.41C359.481 155.387 360.159 155.501 360.871 155.755C361.443 155.958 361.905 156.21 362.258 156.51C362.616 156.803 362.871 157.116 363.022 157.452C363.177 157.779 363.251 158.101 363.242 158.418C363.247 158.731 363.179 159.013 363.039 159.264C363 159.328 362.938 159.379 362.852 159.416C362.779 159.448 362.698 159.449 362.61 159.417L361.384 158.981C361.313 158.956 361.253 158.915 361.201 158.858C361.15 158.801 361.129 158.721 361.138 158.617C361.234 158.35 361.19 158.077 361.005 157.798C360.821 157.519 360.5 157.298 360.043 157.135C359.568 156.966 359.137 156.91 358.751 156.967C358.365 157.024 358.071 157.221 357.869 157.557C357.735 157.781 357.692 157.994 357.742 158.196C357.805 158.393 357.961 158.604 358.21 158.829C358.468 159.057 358.823 159.328 359.274 159.644C359.93 160.062 360.435 160.455 360.79 160.824C361.145 161.193 361.339 161.573 361.371 161.963C361.409 162.345 361.286 162.772 361.002 163.245C360.685 163.773 360.256 164.169 359.714 164.432C359.185 164.691 358.579 164.82 357.896 164.82C357.213 164.82 356.498 164.687 355.751 164.422ZM360.372 165.919C360.301 165.894 360.25 165.847 360.217 165.777C360.193 165.71 360.203 165.64 360.246 165.568C360.265 165.536 360.296 165.504 360.337 165.47L368.162 158.857C368.237 158.786 368.326 158.735 368.43 158.704C368.547 158.669 368.672 158.674 368.804 158.721L370.242 159.232C370.374 159.279 370.456 159.347 370.488 159.436C370.524 159.517 370.536 159.604 370.523 159.696L369.057 168.57C369.041 168.613 369.024 168.651 369.005 168.683C368.962 168.755 368.899 168.805 368.818 168.835C368.736 168.864 368.66 168.866 368.59 168.841L367.442 168.433C367.319 168.389 367.241 168.332 367.208 168.262C367.189 168.188 367.185 168.123 367.197 168.069L367.455 166.384L363.538 164.991L362.039 166.235C361.992 166.277 361.922 166.315 361.826 166.349C361.745 166.378 361.643 166.371 361.519 166.327L360.372 165.919ZM364.828 163.774L367.822 164.839L368.544 160.595L364.828 163.774ZM370.402 169.485C370.314 169.454 370.256 169.399 370.228 169.321C370.2 169.244 370.21 169.165 370.258 169.085L374.947 161.269C375 161.181 375.074 161.12 375.169 161.086C375.264 161.052 375.356 161.051 375.444 161.082L378.86 162.297C379.924 162.675 380.63 163.198 380.976 163.865C381.323 164.532 381.239 165.293 380.726 166.15C380.37 166.742 379.912 167.176 379.352 167.453C378.8 167.732 378.203 167.865 377.561 167.85L377.65 171.596C377.647 171.654 377.634 171.702 377.61 171.742C377.567 171.814 377.5 171.863 377.41 171.89C377.328 171.919 377.252 171.921 377.182 171.896L375.982 171.469C375.832 171.416 375.739 171.339 375.703 171.239C375.667 171.139 375.649 171.045 375.648 170.957L375.654 167.507L373.82 166.855L372.092 169.736C372.044 169.816 371.972 169.874 371.877 169.908C371.79 169.945 371.699 169.946 371.602 169.912L370.402 169.485ZM374.634 165.499L376.494 166.16C377.031 166.351 377.496 166.385 377.889 166.263C378.287 166.132 378.606 165.867 378.847 165.467C379.087 165.067 379.142 164.708 379.013 164.39C378.897 164.067 378.566 163.809 378.021 163.615L376.161 162.954L374.634 165.499ZM381.357 173.38C381.269 173.349 381.211 173.294 381.183 173.217C381.155 173.139 381.165 173.06 381.213 172.98L382.841 170.267L382.739 164.142C382.739 164.122 382.743 164.099 382.748 164.072C382.754 164.045 382.764 164.019 382.778 163.995C382.821 163.923 382.884 163.873 382.965 163.844C383.047 163.814 383.123 163.812 383.193 163.837L384.367 164.255C384.473 164.292 384.542 164.346 384.575 164.416C384.616 164.489 384.633 164.558 384.626 164.623L384.773 168.914L389.098 166.213C389.167 166.17 389.246 166.135 389.337 166.109C389.436 166.086 389.538 166.093 389.644 166.131L390.805 166.543C390.884 166.572 390.935 166.619 390.959 166.686C390.983 166.753 390.973 166.822 390.93 166.894C390.916 166.918 390.897 166.94 390.874 166.961C390.859 166.985 390.839 167.002 390.811 167.012L384.688 170.923L383.06 173.636C383.012 173.716 382.94 173.773 382.845 173.807C382.75 173.842 382.654 173.841 382.557 173.807L381.357 173.38Z" fill="#90DEFF"/>
<defs>
<filter id="filter0_d_94_709" x="138.5" y="48.834" width="354.601" height="251.999" filterUnits="userSpaceOnUse" color-interpolation-filters="sRGB">
<feFlood flood-opacity="0" result="BackgroundImageFix"/>
<feColorMatrix in="SourceAlpha" type="matrix" values="0 0 0 0 0 0 0 0 0 0 0 0 0 0 0 0 0 0 127 0" result="hardAlpha"/>
<feOffset/>
<feGaussianBlur stdDeviation="1.5"/>
<feComposite in2="hardAlpha" operator="out"/>
<feColorMatrix type="matrix" values="0 0 0 0 0.344938 0 0 0 0 0.921393 0 0 0 0 1 0 0 0 1 0"/>
<feBlend mode="normal" in2="BackgroundImageFix" result="effect1_dropShadow_94_709"/>
<feBlend mode="normal" in="SourceGraphic" in2="effect1_dropShadow_94_709" result="shape"/>
</filter>
<filter id="filter1_d_94_709" x="0" y="0.427246" width="270" height="222.297" filterUnits="userSpaceOnUse" color-interpolation-filters="sRGB">
<feFlood flood-opacity="0" result="BackgroundImageFix"/>
<feColorMatrix in="SourceAlpha" type="matrix" values="0 0 0 0 0 0 0 0 0 0 0 0 0 0 0 0 0 0 127 0" result="hardAlpha"/>
<feOffset/>
<feGaussianBlur stdDeviation="2.5"/>
<feComposite in2="hardAlpha" operator="out"/>
<feColorMatrix type="matrix" values="0 0 0 0 0.930624 0 0 0 0 0.50446 0 0 0 0 1 0 0 0 1 0"/>
<feBlend mode="normal" in2="BackgroundImageFix" result="effect1_dropShadow_94_709"/>
<feBlend mode="normal" in="SourceGraphic" in2="effect1_dropShadow_94_709" result="shape"/>
</filter>
</defs>
</svg>
