<svg width="349" height="424" viewBox="0 0 349 424" fill="none" xmlns="http://www.w3.org/2000/svg">
<path d="M195.705 352.459C200.747 347.541 200.23 344.602 199.018 340.606C197.461 335.451 196.72 327.515 201.356 317.308L208.696 321.256C205.95 327.317 206.522 331.961 208.442 336.115C210.905 341.461 214.283 348.774 204.186 358.609C199.975 362.71 197.015 367.05 197.816 370.53C198.387 373.061 201.906 374.727 204.748 375.674C205.002 375.762 205.734 375.936 206.383 376.076C210.864 377.125 220.564 379.098 224.843 386.901C229.417 395.246 228.594 403.449 228.594 403.449L213.696 403.454C214.632 399.736 214.128 397.036 213.125 394.699C209.322 385.894 190.776 391.369 186.09 377.789C181.539 364.722 192.573 355.519 195.705 352.459Z" fill="#03A9F4"/>
<path d="M211.171 305.458L216.523 300.571C226.545 311.537 234.898 309.751 240.977 308.449C242.204 308.184 243.366 307.938 244.466 307.811C248.361 307.352 251.694 307.512 254.564 308.062C259.658 304.749 264.762 303.574 265.107 303.496C272.304 301.893 278.923 304.307 284.897 308.918C297.021 318.245 295.563 332.784 295.563 332.784L282.097 336.332C282.615 332.66 283.642 320.552 278.162 316.253C271.258 310.824 266.396 313.448 265.854 313.619C266.939 314.64 267.787 315.65 268.435 316.54C273.099 322.994 273.338 328.217 272.712 331.466C272.008 335.12 269.817 338.274 266.533 340.357C262.931 342.632 258.48 343.273 254.616 342.048C250.848 340.858 247.851 337.97 246.171 333.915C243.232 326.834 244.288 321.291 245.914 317.667C245.825 317.683 245.725 317.686 245.636 317.702C245.003 317.776 244.11 317.961 243.075 318.182C236.075 319.692 224.902 322.683 211.171 305.458ZM256.694 319.211C256.103 319.877 255.594 320.588 255.207 321.336C253.906 323.83 253.969 326.699 255.378 330.089C256.203 332.084 257.269 332.416 257.621 332.526C258.675 332.857 260.085 332.624 261.193 331.923C262.167 331.308 262.719 330.538 262.916 329.571C263.263 327.731 262.34 325.101 260.352 322.365C259.396 321.057 258.164 320.008 256.694 319.211Z" fill="#F44336"/>
<path d="M206.948 320.49L207.93 312.828C207.93 312.828 228.177 318.546 230.456 330.71C230.877 332.989 231.29 335.48 231.404 337.954C231.481 339.424 231.586 341.746 231.894 342.914C233.81 343.369 236.367 342.801 239.267 342.167C241.517 341.668 243.831 341.15 246.32 341C251.173 340.712 255.265 342.409 257.863 345.782C261.012 349.897 261.529 356.085 259.282 362.784C257.999 366.604 255.792 369.295 253.855 371.662C251.078 375.046 249.641 377.038 252.178 381.767C255.254 387.487 270.099 381.903 278.639 378.998L283.035 393.474C278.765 394.932 256.85 401.845 245.458 394.69C241.625 392.281 239.299 388.561 238.751 383.932C237.537 373.862 241.951 368.481 245.169 364.555C246.693 362.695 247.908 361.055 248.642 359.217C253.71 346.44 232.517 362.86 224.681 353.388C219.99 347.706 219.881 334.96 219.765 334.124C218.625 325.811 206.948 320.49 206.948 320.49Z" fill="#F48FB1"/>
<path d="M237.906 363.054C235.207 362.546 233.598 362.272 229.988 362.622C227.147 365.774 226.404 373.185 226.404 373.185C227.438 372.964 228.333 372.766 228.964 372.705C229.053 372.689 229.153 372.686 229.243 372.67C233.76 365.512 237.906 363.054 237.906 363.054Z" fill="#C92B27"/>
<path d="M279.656 347.178C281.19 340.733 287.401 334.633 288.105 333.966L294.996 341.144C293.156 342.921 289.983 346.765 289.335 349.487L279.656 347.178Z" fill="#FB8C00"/>
<path d="M267.41 361.069L271.435 351.974C274.618 353.381 278.14 354.022 281.624 353.809L282.214 363.741C277.16 364.046 272.041 363.121 267.41 361.069Z" fill="#03A9F4"/>
<path d="M302.112 368.708L303.257 378.59L290.212 380.102L289.067 370.22L302.112 368.708Z" fill="#FB8C00"/>
<path d="M246.174 405.51L254.046 399.426C257.066 403.328 261.401 404.588 261.451 404.593L258.874 414.207C258.107 414.005 251.229 412.053 246.174 405.51Z" fill="#FFC107"/>
<path d="M217.004 360.528L218.839 369.444L209.094 371.449L207.26 362.533L217.004 360.528Z" fill="#FB8C00"/>
<path d="M237.949 302.372L240.099 292.652C243.558 293.424 248.114 291.244 249.138 290.622L254.283 299.137C253.444 299.653 245.787 304.096 237.949 302.372Z" fill="#F44336"/>
<path d="M291.942 408.897C292.87 405.254 293.473 401.49 293.711 397.74L303.643 398.399C303.356 402.756 302.668 407.124 301.581 411.352L291.942 408.897Z" fill="#FB8C00"/>
<path d="M309.021 350.302L315.367 357.963L304.958 366.586L298.612 358.924L309.021 350.302Z" fill="#F48FB1"/>
<path d="M189.763 350.334L180.868 356.665L174.537 347.77L183.432 341.439L189.763 350.334Z" fill="#F44336"/>
<path d="M212.347 319.132C222.383 309.713 221.082 297.625 219.384 296.658L205.014 288.489C204.145 287.997 202.787 288.494 202.443 288.858L179.27 312.069C178.906 312.434 178.5 313.703 179.043 314.522L188.046 328.066C189.111 329.647 199.394 331.262 212.347 319.132Z" fill="#546E7A"/>
<path d="M237.144 256.652C238.76 258.505 238.457 261.035 236.12 261.4C229.656 262.407 216.624 262.068 208.612 270.093C200.792 277.926 199.856 290.433 199.856 290.433L174.96 243.883C174.96 243.883 188.946 234.766 209.184 239.264C225.912 243.018 231.177 249.87 237.144 256.652Z" fill="#0288D1"/>
<path opacity="0.2" d="M182.877 246.39C183.827 246.033 184.913 245.654 186.118 245.311C190.935 243.94 198.626 242.721 207.843 244.789C219.648 247.412 224.765 251.573 229.271 256.48C221.825 257.261 211.701 258.845 204.379 266.198C201.696 268.885 199.685 272.013 198.199 275.073L182.877 246.39ZM174.96 243.901L199.856 290.451C199.856 290.451 200.811 277.925 208.612 270.112C216.624 262.087 229.656 262.425 236.12 261.418C237.503 261.204 238.187 260.212 238.165 259.063C238.151 258.272 237.802 257.412 237.144 256.671C231.177 249.889 225.913 243.037 209.185 239.301C188.927 234.766 174.96 243.901 174.96 243.901Z" fill="#424242"/>
<path d="M148.969 347.715C150.643 349.529 153.559 348.815 153.849 346.549C154.648 340.28 153.807 327.731 161.819 319.706C169.639 311.873 180.892 310.06 180.892 310.06L130.627 288.288C130.627 288.288 125.016 300.412 130.049 317.799C133.536 329.789 143.268 341.568 148.969 347.715Z" fill="#0288D1"/>
<path opacity="0.2" d="M133.816 304.165C133.756 301.02 134.057 298.302 134.446 296.147L165.751 309.686C162.987 311.245 160.154 313.239 157.624 315.792C150.82 322.607 149.25 331.528 148.64 338.547C143.723 332.555 138.063 324.392 135.704 316.298C134.515 312.252 133.891 308.176 133.816 304.165ZM127.959 304.275C128.034 308.248 128.608 312.815 130.049 317.799C133.536 329.789 143.268 341.549 148.969 347.696C150.643 349.51 153.559 348.796 153.848 346.53C154.648 340.261 153.806 327.712 161.818 319.687C169.638 311.855 180.892 310.042 180.892 310.042L130.627 288.288C130.627 288.288 127.774 294.445 127.959 304.275Z" fill="#424242"/>
<path opacity="0.2" d="M185.592 313.871L204.606 294.827L214.653 300.534C214.676 300.722 214.68 300.929 214.684 301.155C214.718 302.981 214.35 309.355 208.248 315.084C200.515 322.331 194.386 323.558 191.983 323.509L185.592 313.871ZM178.772 313.604C178.778 313.924 178.862 314.243 179.023 314.522L188.027 328.067C189.092 329.667 199.375 331.282 212.328 319.151C218.91 312.981 220.627 305.658 220.541 301.063C220.495 298.653 219.957 297.005 219.365 296.677L204.994 288.509C204.126 288.016 202.768 288.513 202.424 288.877L179.27 312.069C179.04 312.299 178.759 312.945 178.772 313.604Z" fill="#424242"/>
<path d="M64.42 229.875C67.9075 222.181 73.9608 211.781 83.9468 201.779C87.4735 198.247 91.0879 195.221 94.6316 192.592C101.469 187.509 108.022 183.995 113.154 181.676C126.736 186.375 142.607 195.419 152.247 204.374C191.621 240.951 214.475 281.737 199.239 303.348C198.345 304.608 197.529 305.848 196.515 306.978C179.817 325.584 130.639 305.562 90.4902 268.266C80.4132 258.905 70.0017 243.183 64.42 229.875Z" fill="url(#paint0_radial_202_2135)"/>
<path d="M137.988 238.418C137.813 229.162 129.894 221.805 120.298 221.986C110.703 222.166 103.065 229.816 103.24 239.072C103.414 248.328 111.334 255.686 120.929 255.505C130.524 255.324 138.162 247.674 137.988 238.418Z" fill="#455A64"/>
<path opacity="0.2" d="M107.144 238.999C107.079 235.534 108.422 232.231 110.914 229.735C113.406 227.239 116.777 225.82 120.369 225.752C123.961 225.685 127.383 226.976 129.967 229.377C132.551 231.777 134.018 235.027 134.083 238.492C134.148 241.957 132.805 245.26 130.313 247.756C125.157 252.92 116.607 253.081 111.26 248.114C108.676 245.714 107.209 242.483 107.144 238.999ZM103.24 239.072C103.32 243.366 105.099 247.627 108.558 250.84C115.475 257.265 126.465 257.058 133.135 250.377C136.47 247.037 138.088 242.712 138.007 238.418C137.926 234.125 136.147 229.863 132.689 226.651C125.772 220.225 114.781 220.432 108.111 227.113C104.776 230.454 103.159 234.779 103.24 239.072Z" fill="#424242"/>
<path d="M171.883 272.366C171.757 265.669 166.026 260.345 159.083 260.476C152.14 260.606 146.613 266.142 146.74 272.839C146.866 279.537 152.596 284.861 159.54 284.73C166.483 284.599 172.009 279.064 171.883 272.366Z" fill="#455A64"/>
<path d="M64.42 229.876C82.3086 233.024 116.641 202.012 113.154 181.676C96.0313 175.65 84.4452 173.268 64.5594 171.91C54.4893 171.214 51.6731 174.111 52.9354 183.073C56.2728 206.84 58.3241 216.22 64.42 229.876Z" fill="#E53935"/>
<path opacity="0.2" d="M58.5163 179.747C58.4951 178.617 58.6211 178.049 58.6953 177.841C59.0438 177.684 60.4032 177.281 64.1378 177.531C83.3979 178.845 94.3752 181.05 111.164 186.969C124.235 191.508 139.458 200.339 148.183 208.444C178.613 236.712 197.767 266.642 198.142 286.565C198.243 291.932 196.982 296.515 194.395 300.18L193.958 300.81C193.293 301.783 192.703 302.604 192.091 303.294C189.298 306.398 184.975 308.1 179.239 308.358C158.361 309.279 123.533 291.134 94.5539 264.214C85.4706 255.777 75.3072 240.785 69.8679 227.776L69.8072 227.664C63.9149 214.457 61.9641 205.226 58.7409 182.342C58.605 181.346 58.5302 180.481 58.5163 179.747ZM52.6599 179.857C52.6784 180.836 52.7763 181.889 52.9353 183.073C56.2727 206.84 58.324 216.22 64.4199 229.876C69.9821 243.183 80.3936 258.905 90.4706 268.266C130.62 305.562 179.798 325.584 196.496 306.979C197.49 305.867 198.326 304.627 199.22 303.348C202.586 298.576 204.1 292.858 203.979 286.456C203.555 263.896 182.915 232.864 152.246 204.355C142.607 195.401 126.736 186.356 113.153 181.657C96.0308 175.631 84.4448 173.25 64.559 171.891C55.8191 171.321 52.5387 173.417 52.6599 179.857Z" fill="#424242"/>
<path opacity="0.2" d="M150.644 272.766C150.601 270.525 151.46 268.418 153.07 266.805C154.68 265.193 156.831 264.286 159.154 264.242C161.477 264.198 163.66 265.024 165.33 266.575C166.999 268.126 167.936 270.199 167.979 272.44C168.021 274.681 167.162 276.788 165.552 278.4C163.942 280.013 161.792 280.92 159.468 280.964C157.145 281.008 154.962 280.182 153.293 278.631C151.623 277.061 150.685 274.988 150.644 272.766ZM146.739 272.84C146.798 275.947 148.086 279.012 150.59 281.338C155.579 285.973 163.544 285.823 168.355 281.004C170.77 278.585 171.941 275.473 171.883 272.366C171.824 269.259 170.536 266.194 168.032 263.868C163.043 259.233 155.079 259.383 150.268 264.202C147.852 266.602 146.681 269.732 146.739 272.84Z" fill="#424242"/>
<path d="M122.971 157.616C121.819 159.756 113.214 168.45 110.059 171.149C106.903 173.849 107.087 175.882 106.755 179.211C106.397 182.546 133.752 183.68 134.997 189.414C136.243 195.148 139.6 176.332 142.837 179.211C146.058 182.079 141.73 188.565 144.2 183.105C146.671 177.645 131.226 200.369 131.226 200.369L141.117 195.474L155.255 207.509C155.255 207.509 181.026 177.154 176.923 183.105C172.82 189.056 162.349 198.011 164.135 202.592C166.129 207.71 178.046 214.956 182.669 213.915C187.292 212.874 192.541 200.065 197.892 195.621C203.244 191.177 178.473 228.091 178.473 228.091L230.703 179.211L238.708 152.521C238.708 152.521 240.464 149.503 241.7 146.774C242.935 144.044 243.582 136.033 243.816 134.254C244.049 132.474 196.015 88.9361 196.015 88.9361L179.698 72.4876L183.874 66.2631L150.874 48.7099L127.685 59.3866L100.778 89.6342C100.778 89.6342 88.3116 98.5999 87.5205 101.959C86.7293 105.319 84.8477 114.65 88.3902 119.264C91.9326 123.878 99.9791 132.014 99.9791 132.014L106.755 145.142C106.755 145.142 115.584 146.446 119.541 150.492C124.745 155.813 122.971 157.616 122.971 157.616Z" fill="#878787"/>
<path d="M158.541 34.4719C152.999 32.5914 136.873 36.0069 131.054 41.3299C125.235 46.6529 119.374 62.8291 115.881 66.521C111.471 71.1747 99.309 82.3137 94.0602 89.3236C88.8114 96.3334 90.9862 105.411 90.9862 105.411L97.4497 108.135C97.4497 108.135 113.644 82.7696 117.102 79.932C120.565 77.1209 124.364 76.8055 124.364 76.8055C124.364 76.8055 131.981 63.4111 142.129 59.9866C152.276 56.5622 163.851 58.3733 170.135 61.8273C176.418 65.2813 181.013 70.4132 181.013 70.4132C181.013 70.4132 188.906 61.6454 185.731 53.8181C182.117 44.9498 162.494 35.8105 158.541 34.4719Z" fill="#BEBEBE"/>
<path d="M158.699 160.991C158.699 160.991 158.914 169.158 164.948 172.671C170.983 176.184 183.124 175.867 189.769 175.042C196.415 174.217 213.745 171.401 219.373 169.204C225 167.007 229.285 164.277 233.082 160.01C237.132 155.477 238.703 152.494 238.703 152.494C238.703 152.494 243.222 157.736 244.87 167.143C246.085 174.127 247.488 181.911 241.973 195.876C236.457 209.842 232.453 217.225 232.238 218.81C232.024 220.395 232.416 226.025 232.882 229.605C233.515 234.385 235.131 237.671 235.896 238.037C238.109 238.915 240.239 240.384 242.542 242.942C244.844 245.5 245.727 252.162 246.247 255.732C246.917 260.423 248.151 264.532 247.773 265.08C246.996 266.207 237.994 261.133 231.813 252.135C228.001 246.572 229.476 239.941 229.476 239.941C229.476 239.941 227.221 233.996 226.188 229.865C225.631 227.656 224.942 224.131 224.942 224.131C224.942 224.131 220.837 227.839 217.033 230.877C212.672 234.387 207.702 238.747 204.416 244.452C201.129 250.158 199.076 258.331 198.005 265.079C196.934 271.827 194.88 280 188.818 282.659C182.756 285.319 167.78 286.062 165.188 278.729C163.591 274.208 167.756 263.91 169.973 258.114C172.19 252.318 175.172 238.777 175.466 237.178C175.749 235.594 175.818 229.126 175.818 229.126C175.818 229.126 166.404 223.444 157.553 217.18C148.701 210.915 144.122 206.464 144.122 206.464C144.122 206.464 128.819 214.283 121.337 219.706C113.854 225.13 104.846 234.677 101.134 236.508C97.4227 238.34 91.0043 241.516 80.8491 232.92C72.5268 225.889 74.5238 218.971 74.5238 218.971C74.5238 218.971 77.1186 212.626 87.7224 204.318C98.3261 196.009 109.332 188.324 117.554 181.793C120.418 179.516 124.757 175.368 124.757 175.368C124.757 175.368 123.312 163.79 123.293 162.644C123.274 161.499 122.581 158.248 122.581 158.248L123.368 156.504C123.368 156.504 128.791 160.635 136.773 163.134C148.864 167.011 158.699 160.991 158.699 160.991Z" fill="#BEBEBE"/>
<path d="M197.057 82.6995C197.057 82.6995 208.84 76.9367 213.797 79.4993C218.754 82.062 234.682 90.6634 240.434 98.7419C243.325 102.792 246.281 118.647 245.854 125.399C245.44 131.931 244.794 140.543 238.383 147.629C231.999 154.711 229.791 153.189 228.473 155.099C227.156 157.01 224.75 162.075 219.473 163.428C214.197 164.781 213.098 159.471 209.567 160.503C206.037 161.535 202.557 167.823 198.004 168.797C193.435 169.76 188.038 165.623 184.636 165.865C181.208 166.113 176.482 171.727 170.07 169.062C163.669 166.382 165.332 159.28 170.689 148.024C176.073 136.763 186.747 119.538 184.135 117.83C181.461 116.079 178.95 121.764 174.599 128.746C170.015 136.099 162.295 152.658 153.078 155.637C143.861 158.617 136.899 157.722 131.411 154.355C125.913 151.003 123.445 143.825 120.793 142.644C118.141 141.463 117.539 145.252 111.537 146.082C105.308 146.94 100.01 148.324 96.805 150.459C93.6004 152.593 86.2015 156.388 82.0067 162.807C77.8118 169.227 77.982 173.203 80.8873 174.351C83.8034 175.483 87.1086 167.572 90.3464 167.702C93.352 167.833 96.9099 174.838 90.8951 183.261C84.8802 191.683 71.6442 193.186 62.8704 181.615C53.59 169.371 64.2841 150.542 73.3122 143.111C82.3403 135.68 88.633 129.067 92.3264 124.011C96.0089 118.971 95.8317 114.436 98.7969 111.074C101.773 107.696 101.939 106.516 106.637 100.004C111.334 93.4925 117.087 83.5726 120.038 82.1412C122.973 80.699 126.909 79.7157 126.909 79.7157C126.909 79.7157 132.708 68.2557 139.665 64.6654C150.443 59.0874 162.495 61.1118 173.653 67.2801C184.818 73.4064 197.057 82.6995 197.057 82.6995Z" fill="#BEBEBE"/>
<path d="M149.211 127.231C152.099 129.223 156.09 128.447 158.123 125.497C160.157 122.548 159.463 118.542 156.574 116.55C153.686 114.559 149.695 115.335 147.662 118.284C145.628 121.234 146.322 125.24 149.211 127.231Z" fill="#1A1A1A"/>
<path d="M125.615 141.347C128.346 138.794 135.397 137.347 137.785 140.519C139.321 142.548 137.343 148.232 134.558 150.863C131.773 153.495 127.393 153.849 124.471 150.078C121.538 146.323 123.901 142.961 125.615 141.347Z" fill="#FAE9AE"/>
<path d="M88.6559 92.4368C85.6036 94.2835 86.678 100.5 87.7342 104.163C88.7904 107.825 91.5032 115.218 92.4334 117.153C93.3635 119.088 94.6548 120.533 94.6548 120.533C94.6548 120.533 97.0077 114.138 98.1199 112.525C99.2321 110.912 101.589 107.661 101.589 107.661C101.589 107.661 98.6805 101.959 96.6385 99.2574C94.6072 96.5399 91.2503 90.8521 88.6559 92.4368Z" fill="#FAE9AE"/>
<path d="M178.069 127.711C178.069 127.711 175.258 125.577 173.5 127.795C169.162 133.266 159.918 145.044 145.596 133.688C134.127 124.595 133.345 114.332 137.614 107.059C139.391 104.039 140.801 100.319 138.049 98.1379C135.298 95.9565 132.003 98.1707 129.463 100.596C123.348 106.406 113.177 107.984 101.709 98.8911C87.3797 87.5301 96.7445 75.8376 101.077 70.3734C102.835 68.1556 100.117 65.906 100.117 65.906L104.414 60.4868C104.414 60.4868 110.371 63.8805 118.477 70.3077C126.583 76.7349 129.811 79.2935 135.755 85.0536C139.255 88.4567 143.191 91.6401 143.191 91.6401C143.191 91.6401 147.188 94.7463 151.299 97.378C158.256 101.847 161.49 104.411 169.596 110.838C177.703 117.265 182.365 122.292 182.365 122.292L178.069 127.711Z" fill="#1A1A1A"/>
<path d="M168.067 112.767C173.332 116.941 177.14 120.536 179.086 122.466L177.379 124.62C175.36 123.983 173.111 124.325 171.571 126.266L171.515 126.337C169.436 128.96 166.296 132.92 162.187 134.854C157.474 137.075 152.551 136.061 147.125 131.759C138.08 124.588 135.315 115.821 139.737 108.302C143.699 101.55 141.835 97.9984 139.578 96.2094C137.315 94.4153 133.439 93.4149 127.768 98.8119C121.443 104.822 112.276 104.129 103.238 96.9626C97.8122 92.6608 95.7077 88.0921 96.7899 83.0034C97.7417 78.5546 100.881 74.5947 102.956 71.9783L103.012 71.9076C104.556 69.9597 104.364 67.6928 103.29 65.8781L104.998 63.7246C107.314 65.1738 111.683 68.0619 116.948 72.2362C125.125 78.7195 128.185 81.1456 134.038 86.8229C137.583 90.2616 141.475 93.4208 141.642 93.5534L141.662 93.5687L141.681 93.5839C141.848 93.7165 145.811 96.7857 149.968 99.453C156.824 103.852 159.884 106.278 168.067 112.767ZM169.596 110.838C161.49 104.411 158.263 101.852 151.306 97.3831C147.188 94.7463 143.191 91.6401 143.191 91.6401C143.191 91.6401 139.255 88.4567 135.755 85.0537C129.817 79.2986 126.583 76.7349 118.484 70.3128C110.377 63.8856 104.42 60.492 104.42 60.492L100.123 65.9112C100.123 65.9112 102.842 68.1607 101.083 70.3785C96.7445 75.8376 87.3797 87.5301 101.709 98.8911C113.177 107.984 123.348 106.406 129.456 100.591C131.992 98.1721 135.291 95.9514 138.043 98.1329C140.794 100.314 139.389 104.027 137.608 107.053C133.338 114.327 134.121 124.59 145.589 133.683C159.912 145.039 169.161 133.254 173.494 127.79C175.252 125.572 178.062 127.706 178.062 127.706L182.359 122.287C182.365 122.292 177.696 117.26 169.596 110.838Z" fill="#1A1A1A"/>
<path d="M107.498 80.7619C106.613 81.7459 105.43 82.3788 104.262 81.7664C104.131 81.6939 104.005 81.615 103.889 81.5233C103.002 80.8199 102.717 79.5681 103.257 78.5305C104.431 76.3101 106.287 74.8286 108.487 74.3641C110.55 73.9272 112.682 74.4342 114.347 75.7543C115.382 76.5749 115.792 77.9466 114.971 78.9816C114.003 80.203 112.624 79.9477 111.371 79.5085C110.201 79.0947 108.574 79.563 107.498 80.7619Z" fill="#858585"/>
<path d="M148.801 113.509C147.916 114.493 146.733 115.126 145.565 114.514C145.434 114.442 145.308 114.363 145.192 114.271C144.305 113.568 144.02 112.316 144.56 111.278C145.734 109.058 147.59 107.576 149.79 107.112C151.853 106.675 153.985 107.182 155.65 108.502C156.685 109.323 157.095 110.694 156.274 111.729C155.306 112.951 153.927 112.695 152.673 112.256C151.504 111.842 149.877 112.311 148.801 113.509Z" fill="#858585"/>
<defs>
<radialGradient id="paint0_radial_202_2135" cx="0" cy="0" r="1" gradientUnits="userSpaceOnUse" gradientTransform="translate(91.8442 233.334) rotate(88.9218) scale(68.6942 71.2128)">
<stop offset="0.0112" stop-color="#F5F5F5"/>
<stop offset="0.9995" stop-color="#BDBDBD"/>
</radialGradient>
</defs>
</svg>
